<?xml version="1.0" encoding="utf-8"?>
<!-- Generator: Adobe Illustrator 22.1.0, SVG Export Plug-In . SVG Version: 6.00 Build 0)  -->
<svg version="1.1" id="Layer_1" xmlns="http://www.w3.org/2000/svg" xmlns:xlink="http://www.w3.org/1999/xlink" x="0px" y="0px"
	 viewBox="0 0 106.8 106.8" style="enable-background:new 0 0 106.8 106.8;" xml:space="preserve">
<style type="text/css">
	.st0{fill:url(#SVGID_1_);}
	.st1{fill:url(#SVGID_2_);}
	.st2{fill:#2F81C1;}
	.Ani:nth-child(odd){fill: #62cb86; }
	.Ani:nth-child(even){fill: #eed657; }
	.Ani{opacity: 0;}

 @keyframes Ani {
    0% {
        opacity: 1;
				transform: scale(.5);
				transform: translateY(0px);
				transform-origin: center;
    }
		100% {
        opacity: .2;
				transform: scale(1);
				transform: translateY(20px);
				transform-origin: center;
    }
}

		.Ani {
		    animation: Ani 1.5s linear;
		    -webkit-animation: Ani 1.5s linear;
				animation-iteration-count: 3;
				animation-play-state: running;
		}


</style>
<radialGradient id="SVGID_1_" cx="53.2917" cy="46.3626" r="32.3577" gradientUnits="userSpaceOnUse">
	<stop  offset="0" style="stop-color:#AAE1F9"/>
	<stop  offset="1" style="stop-color:#2F81C1"/>
</radialGradient>
<path class="st0" d="M82.1,44.1C76.7,33,65.3,25.4,52.2,25.4c-12.3,0-23.1,6.7-28.8,16.7c-41.9-31.6-7,16.9-4.2,20.4
	c0,0,0,0.1,0.1,0.1c2,16.5,16,29.3,33,29.3c4.7,0,9.1-1,13.1-2.7c3.8,3.6,14.4,12.8,6.4-3.6c7.1-5.1,12.1-13,13.4-22
	C95.1,53.6,123.6,22.2,82.1,44.1z"/>
<linearGradient id="SVGID_2_" gradientUnits="userSpaceOnUse" x1="21.5202" y1="58.6667" x2="69.9347" y2="58.6667">
	<stop  offset="0" style="stop-color:#AAE1F9"/>
	<stop  offset="1" style="stop-color:#FFFFFF"/>
</linearGradient>
<path class="st1" d="M69.9,56.9c0-11.5-7.4-20.9-16.5-20.9c-2.8,0-5.4,0.9-7.7,2.4c-0.1,0-0.1,0-0.2,0c0,0,0,0,0,0
	C43.4,36.9,40.8,36,38,36c-9.1,0-16.5,9.3-16.5,20.9c0,1.9,0.2,3.7,0.6,5.5c1.4,10.7,11.4,19,23.5,19c11.4,0,20.9-7.3,23.2-17.1
	C69.5,62,69.9,59.5,69.9,56.9z"/>
<path class="st2" d="M49.8,49.6c-0.4,1-0.4,2-0.6,3.1c-0.8,4-1.8,8-3,11.9c-0.6,1.8-1.4,5.8-3.1,6.9c-2.7,1.7-3.5-2.7-4.1-4.7
	c-1.1-4.2-1.5-8.6-1.9-12.9C37,52.5,37,51.2,36.9,50c-0.6-4.5-5.1-6.6-8.4-3.2c-0.4,0.4-2.2,2.4-1,3c1,0.6,1.5-1.3,2.1-1.9
	c2.4-2.6,5.3-1.5,6.2,1.8c1.3,4.6,1,10,1.9,14.8c0.5,2.5,0.9,6.2,2.6,8.3c4.4,5.3,8.3-13.1,8.8-15.6c0.7-3.1,0.7-10.2,5.8-9.6
	c1.8,0.2,1.9,2,3.2,2.7c2.4,1.4,0.2-2-0.8-2.8c-1.6-1.3-3.7-1.4-5.2-0.6C51.1,47.5,50.3,48.4,49.8,49.6z"/>
<polygon class="st2" points="55.4,7.3 52,7.3 52.9,17.3 54.2,17.3 "/>
<polygon class="st2" points="44,8.3 40.8,9.4 44.8,18.6 46,18.2 "/>
<polygon class="st2" points="66,9.4 62.8,8.4 60.7,18.2 62,18.6 "/>
<rect class="Ani" x="14.7" y="8.3" transform="matrix(-0.2645 0.9644 -0.9644 -0.2645 31.0024 -2.9999)" width="4" height="4"/>
<rect class="Ani" x="81.6" y="13.6" transform="matrix(0.388 -0.9217 0.9217 0.388 36.9871 85.5534)" width="2.7" height="2.7"/>
<rect class="Ani" x="83.1" y="27.2" transform="matrix(-0.2645 0.9644 -0.9644 -0.2645 134.9425 -45.2547)" width="3.2" height="3.2"/>
<rect class="Ani" x="95.3" y="16.6" transform="matrix(-0.2645 0.9644 -0.9644 -0.2645 140.9373 -70.332)" width="4" height="4"/>
<rect class="Ani" x="20" y="16.1" transform="matrix(0.388 -0.9217 0.9217 0.388 -3.0502 30.3199)" width="2.7" height="2.7"/>
<rect class="Ani" x="21.5" y="29.7" transform="matrix(-0.2645 0.9644 -0.9644 -0.2645 59.4755 17.3614)" width="3.2" height="3.2"/>
<rect class="Ani" x="33.7" y="19.1" transform="matrix(-0.2645 0.9644 -0.9644 -0.2645 65.4702 -7.7158)" width="4" height="4"/>
</svg>
