<?xml version="1.0" encoding="utf-8"?>
<!-- Generator: Adobe Illustrator 25.0.0, SVG Export Plug-In . SVG Version: 6.00 Build 0)  -->
<svg version="1.1" id="Layer_1" xmlns="http://www.w3.org/2000/svg" xmlns:xlink="http://www.w3.org/1999/xlink" x="0px" y="0px"
	 viewBox="0 0 106.8 106.8" style="enable-background:new 0 0 106.8 106.8;" xml:space="preserve">
<style type="text/css">
	.st0{fill:#2F81C1;}
	.st1{fill:url(#SVGID_1_);}
	.st2{fill:url(#SVGID_2_);}
	.st3{fill:#DB8E03;}
	.st4{fill:#623A08;}
	.st5{fill:#CE8B22;}
</style>
<path id="wing" class="st0" d="M25.4,42c0,0-44.3-22.9-1.2,19.8C24.2,61.8,31.5,51.4,25.4,42z"/>
<g id="body">
	<path class="st0" d="M64.7,87c0,0,14,16.9,10.1-4.1C74.9,82.9,66.2,79.2,64.7,87z"/>
	
		<radialGradient id="SVGID_1_" cx="57.2" cy="54.2" r="34" gradientTransform="matrix(1 0 0 -1 0 108)" gradientUnits="userSpaceOnUse">
		<stop  offset="0" style="stop-color:#AAE1F9"/>
		<stop  offset="1" style="stop-color:#2F81C1"/>
	</radialGradient>
	<circle class="st1" cx="57.2" cy="53.8" r="34"/>
	
		<linearGradient id="SVGID_2_" gradientUnits="userSpaceOnUse" x1="93.6067" y1="642.2885" x2="119.2828" y2="597.8163" gradientTransform="matrix(0.9829 0.1839 -0.1839 0.9829 63.4062 -577.8224)">
		<stop  offset="0" style="stop-color:#AAE1F9"/>
		<stop  offset="1" style="stop-color:#FFFFFF"/>
	</linearGradient>
	<path class="st2" d="M79.4,41.8C72,27.7,63.6,31.6,59.5,35c-1.3,1.1-3.4,0.7-4.2-0.8c-2.7-4.7-9.1-11.2-21-0.8
		c-16.9,14.7-2,41,15.2,42.9c0.1,0,0.2,0,0.4,0.1C66.3,80.8,89.8,61.5,79.4,41.8z"/>
	<path class="st0" d="M70.3,49.6c-0.2-0.3-2-2.3-3.9-2.9c-3.3-0.9-4.6,1.2-4.6,1.2s-2,5.6-4.8,10.9c-1.6,3.1-3,5.5-4.3,7.2
		c-2,2.5-3.1,2.8-3.6,2.7c-0.7-0.1-2.7-1.4-3.7-11.9c-0.1-0.9-0.1-1.9-0.2-2.8L45,48c0.1-0.7,0.2-1.4,0.2-2.1c0-4.5-1.9-8.2-4.3-8.2
		c-2.4,0-5.4,3.7-5.4,8.2s3,8.2,5.4,8.2c0.9,0,1.7-0.5,2.4-1.4c0.1,1.4,0.1,2.8,0.3,4.2c0.7,8.7,2.4,13.1,5.1,13.6h0.1
		c1.6,0.2,3.4-0.9,5.3-3.3c1.5-1.8,2.9-4.3,4.5-7.6c0.7-1.3,1.4-2.7,1.9-4.1c0.8-2.1,2.3-5.6,3.1-6c2.2-1.2,5.2-0.2,6.3,2.8
		C70.2,53.1,71.7,51.7,70.3,49.6z"/>
	<path class="st0" d="M91.2,53.8c0,0,16.6,45.7-6.4,19.9C84.8,73.7,83.8,60.4,91.2,53.8z"/>
</g>
<g id="IAj1zo_1_">
	<g>
		<path class="st3" d="M21.8,34.4c0,1.8-0.3,3.4-1.1,5c-1.1,2-2.8,3.2-5,3.7c-3.1,0.7-6.1,0.3-8.8-1.2c-2.6-1.4-4.3-3.6-4.7-6.6
			c-0.4-3.3,0.4-6.2,2.8-8.5c1.4-1.3,3.1-2.1,5-2.3c2-0.3,3.9-0.2,5.8,0.6c3.1,1.3,5,3.6,5.7,6.8C21.7,32.7,21.8,33.6,21.8,34.4z
			 M9.3,34.6L9.3,34.6c-0.2,0-0.2,0.1-0.2,0.2c0,0,0,0,0,0.1c-0.2,0.1-0.4,0.3-0.3,0.4c0.1,0.3-0.1,0.7,0.3,0.9c0,0,0,0,0,0l0,0
			c0,0.1,0,0.1,0.1,0.2l0,0c0.1,0.2,0.3,0.4,0.5,0.3l0,0c0.5,0.4,0.9,0.4,1.3,0.1c0.2-0.1,0.5-0.3,0.7-0.4c0.5,0,0.4-0.4,0.5-0.7
			c0,0,0,0,0,0c0.4-0.3,0.1-0.5-0.1-0.7l0,0c0-0.3-0.1-0.5-0.4-0.5c0,0,0,0,0-0.1c0-0.3-0.2-0.3-0.4-0.3l0,0
			c-0.1-0.3-0.3-0.4-0.6-0.4c-0.3,0-0.6-0.2-0.7,0.2l0,0c-0.1,0-0.2,0-0.2,0.1l0,0c-0.2,0-0.4,0.1-0.4,0.3l0,0
			C9.3,34.5,9.3,34.6,9.3,34.6z M16.7,40.2C16.8,40.1,16.8,40.1,16.7,40.2c0-0.1,0-0.2,0.1-0.2c0.1,0,0.2,0,0.2-0.1
			c0.1-0.4,0.3-0.8,0.3-1.2c-0.1-0.4-0.1-0.8-0.5-1.1c-0.5-0.3-1-0.3-1.5-0.4c-0.6,0-1.2-0.2-1.6,0.4c-0.2,0.3-0.4,0.5-0.4,0.8
			c0,0.4,0,0.8,0,1.2c0,0.4,0.1,0.7,0.3,1.1c0.2,0.4,0.6,0.5,1,0.4c0.3,0,0.6,0.1,0.9,0c0.4,0.1,0.9-0.1,1-0.5l0,0
			C16.6,40.5,16.7,40.4,16.7,40.2L16.7,40.2z M11.2,29.1L11.2,29.1c0.4,0.2,0.9,0.1,1.3,0c0.1,0,0.1-0.1,0.2-0.2
			c0.2-0.2,0.5-0.4,0.6-0.8c0.1-0.9-0.5-1.8-1.4-1.8c-0.8-0.1-1.2,0.3-1.2,1.1c0,0.3,0,0.6,0,0.9c-0.1,0.3-0.1,0.6,0.3,0.5
			c0,0,0.1,0,0.1,0.1C11.1,29.1,11.2,29.1,11.2,29.1z M18.7,32.6L18.7,32.6c0.3-0.1,0.6-0.5,0.6-0.9l0,0c0.4-0.3,0.2-0.8,0.3-1.2
			c0-0.1-0.1-0.1-0.2-0.1c0-0.1,0-0.2,0-0.3c0-0.3,0-0.5-0.3-0.7c0,0,0,0,0-0.1c0-0.4-0.2-0.7-0.6-0.8l0,0c-0.1-0.2-0.2-0.5-0.5-0.2
			c-0.2,0-0.5,0-0.7,0c-0.1-0.1-0.2-0.1-0.3,0c-0.6,0.3-1,0.7-1.4,1.2c-0.6,0.6-0.8,1.2-0.5,2c0.2,0.5,0.5,0.8,1,1l0,0
			c0.1,0.2,0.3,0.4,0.6,0.5l0,0c0.1,0.4,0.5,0.4,0.8,0.4c0.4,0,0.8,0.1,1.1-0.3c0,0,0-0.1,0-0.1l0,0C18.6,33,18.7,32.9,18.7,32.6z
			 M6.2,29.4C6,29.8,5.9,30.3,6,30.7c0.1,0.4,0.1,0.9,0.6,1c0.5,0.2,1,0,1.5-0.2c0.2-0.1,0.3-0.2,0.3-0.5c0.1-0.9-0.2-1.4-1-1.9
			C7,29,6.5,29.1,6.2,29.4z M5.6,36.5c0.7,0,1.3-0.7,1.2-1.4c-0.1-0.7-0.5-1-1.3-0.9c-0.4,0.1-0.8,0.4-0.9,0.8
			c0,0.5,0.1,0.9,0.4,1.3C5.3,36.4,5.4,36.5,5.6,36.5z"/>
		<path class="st4" d="M17.1,28.4c0.2,0,0.5,0,0.7,0c0.2,0.1,0.3,0.2,0.5,0.2c0,0,0,0,0,0c0.2,0.3,0.4,0.5,0.6,0.8c0,0,0,0,0,0.1
			c0.1,0.2,0.2,0.4,0.3,0.7c0,0.1,0,0.2,0,0.3c0,0.4,0,0.8-0.1,1.3c0,0,0,0,0,0c-0.2,0.3-0.4,0.6-0.6,0.9c0,0,0,0,0,0
			c-0.2,0.1-0.3,0.2-0.4,0.4c0,0,0,0,0,0c-0.4,0.1-0.7,0.3-1.1,0.3c-0.3,0-0.5-0.2-0.8-0.3c0,0,0,0,0,0c-0.2-0.2-0.3-0.4-0.6-0.5
			c0,0,0,0,0,0c0-0.2-0.2-0.3-0.3-0.4c-0.8-0.9-0.9-1.6-0.2-2.4C15.8,29.2,16.4,28.7,17.1,28.4z"/>
		<path class="st4" d="M15.3,41.1c-0.3,0.1-0.6,0-0.9,0c-0.7-0.1-1-0.6-1.1-1.2c0-0.3-0.1-0.7,0-1c0.1-0.9,0.5-1.5,1.3-1.5
			c0.5,0,0.9,0,1.4,0.1c0.7,0.1,1.3,0.7,1.1,1.6c-0.1,0.3-0.2,0.6-0.3,0.9c-0.1,0-0.1,0.1-0.1,0.2c0,0,0,0,0,0.1c0,0,0,0,0,0
			c-0.2,0.1-0.3,0.2-0.4,0.4c0,0,0,0,0,0C16,40.7,15.7,41,15.3,41.1z"/>
		<path class="st4" d="M11.7,34.5C11.7,34.5,11.7,34.5,11.7,34.5c0.2,0.2,0.3,0.4,0.5,0.5c0,0,0,0,0,0c0,0.2,0.1,0.5,0.1,0.7
			c0,0,0,0,0,0c-0.2,0.2-0.3,0.4-0.5,0.7c-0.2,0.1-0.5,0.3-0.7,0.4c-0.4,0.1-0.8,0-1.3-0.1c0,0,0,0,0,0c-0.2-0.1-0.3-0.3-0.5-0.3
			c0,0,0,0,0,0c0-0.1,0-0.1-0.1-0.2c0,0,0,0,0,0c-0.3-0.4-0.3-0.9,0-1.3c0,0,0,0,0-0.1c0.1-0.1,0.2-0.1,0.2-0.2c0,0,0,0,0,0
			c0.1,0,0.1-0.1,0.1-0.2c0,0,0,0,0,0c0.2,0,0.3-0.2,0.4-0.3c0,0,0,0,0,0c0.1,0,0.1-0.1,0.2-0.1c0,0,0,0,0,0
			c0.5-0.3,0.9-0.1,1.3,0.2c0,0,0,0,0,0C11.4,34.3,11.6,34.4,11.7,34.5z"/>
		<path class="st4" d="M11.1,29c0,0-0.1,0-0.1-0.1c-0.1-0.2-0.2-0.3-0.3-0.5c0-0.3,0-0.6,0-0.9c0-0.8,0.4-1.2,1.2-1.1
			c0.9,0.1,1.6,0.9,1.4,1.8c-0.1,0.3-0.3,0.5-0.6,0.8c-0.5,0.1-1,0.1-1.5,0.1c0,0,0,0,0,0C11.2,29,11.1,29,11.1,29z"/>
		<path class="st4" d="M6.6,31.7c-0.5-0.1-0.6-0.6-0.6-1c-0.1-0.4,0-0.9,0.3-1.3c0.3-0.1,0.6-0.2,1-0.1c0.8,0.2,1.1,0.8,1.1,1.6
			c0,0.5-0.5,0.7-1.3,0.7C6.9,31.6,6.7,31.6,6.6,31.7z"/>
		<path class="st4" d="M5.6,36.5c-0.2,0-0.4,0-0.5-0.2c-0.3-0.4-0.5-0.8-0.4-1.3c0-0.3,0.5-0.7,0.9-0.8c0.8-0.1,1.2,0.1,1.3,0.9
			C6.9,35.8,6.3,36.5,5.6,36.5z"/>
		<path class="st5" d="M16.8,39.9c0.1-0.3,0.2-0.6,0.3-0.9c0.2-1-0.4-1.5-1.1-1.6c-0.5-0.1-0.9-0.1-1.4-0.1c-0.8,0-1.2,0.6-1.3,1.5
			c0,0.3,0,0.7,0,1c0.1,0.7,0.4,1.1,1.1,1.2c-0.4,0.1-0.8-0.1-1-0.4c-0.2-0.3-0.3-0.7-0.3-1.1c0-0.4,0-0.8,0-1.2
			c0-0.3,0.2-0.6,0.4-0.8c0.5-0.5,1.1-0.4,1.6-0.4c0.5,0,1,0.1,1.5,0.4c0.5,0.3,0.5,0.7,0.5,1.1c0.1,0.4-0.1,0.8-0.3,1.2
			C17,39.9,16.9,39.9,16.8,39.9z"/>
		<path class="st5" d="M6.6,31.7c0.1-0.1,0.2-0.1,0.4-0.1c0.8,0,1.2-0.3,1.3-0.7c0.1-0.7-0.2-1.4-1.1-1.6c-0.4-0.1-0.7,0-1,0.1
			C6.5,29.1,7,29,7.5,29.2c0.8,0.4,1.1,0.9,1,1.9c0,0.2-0.1,0.4-0.3,0.5C7.7,31.7,7.2,31.9,6.6,31.7z"/>
		<path class="st5" d="M17.1,28.4c-0.8,0.3-1.3,0.8-1.8,1.4c-0.7,0.8-0.6,1.5,0.2,2.4c0.1,0.1,0.3,0.2,0.3,0.4c-0.5-0.2-0.8-0.6-1-1
			c-0.3-0.8-0.1-1.4,0.5-2c0.4-0.5,0.9-0.9,1.4-1.2C16.9,28.3,17.1,28.3,17.1,28.4z"/>
		<path class="st5" d="M16.5,33c0.3,0.1,0.5,0.2,0.8,0.3c0.4,0.1,0.7-0.1,1.1-0.3c0,0,0,0.1,0,0.1c-0.3,0.4-0.7,0.3-1.1,0.3
			C16.9,33.4,16.6,33.5,16.5,33z"/>
		<path class="st5" d="M19.3,31.7c0.1-0.4,0.1-0.8,0.1-1.3c0.1,0,0.2,0,0.2,0.1C19.5,30.9,19.7,31.4,19.3,31.7z"/>
		<path class="st5" d="M9.8,36.8c0.4,0.1,0.8,0.1,1.3,0.1C10.7,37.2,10.3,37.2,9.8,36.8z"/>
		<path class="st5" d="M9.1,35c-0.3,0.5-0.2,0.9,0,1.3c0,0,0,0,0,0c-0.4-0.2-0.2-0.6-0.3-0.9C8.7,35.2,8.9,35,9.1,35z"/>
		<path class="st5" d="M11.3,34.2c-0.4-0.3-0.9-0.4-1.3-0.2c0.1-0.4,0.5-0.2,0.7-0.2C10.9,33.8,11.2,33.8,11.3,34.2z"/>
		<path class="st5" d="M15.3,41.1c0.4-0.1,0.7-0.3,1-0.5C16.2,40.9,15.7,41.2,15.3,41.1z"/>
		<path class="st5" d="M19,29.4c-0.2-0.3-0.5-0.5-0.6-0.8C18.8,28.8,19.1,29,19,29.4z"/>
		<path class="st5" d="M18.7,32.7c0.2-0.3,0.4-0.6,0.6-0.9C19.3,32.2,19.1,32.5,18.7,32.7z"/>
		<path class="st5" d="M11.2,29.1c0.5,0,1,0,1.5-0.1c0,0.1-0.1,0.1-0.2,0.2C12.1,29.2,11.7,29.3,11.2,29.1z"/>
		<path class="st5" d="M11.8,36.4c0.2-0.2,0.3-0.4,0.5-0.7C12.2,36.1,12.2,36.5,11.8,36.4z"/>
		<path class="st5" d="M12.2,35c-0.2-0.1-0.3-0.3-0.4-0.5C12.1,34.5,12.2,34.7,12.2,35z"/>
		<path class="st5" d="M15.8,32.6c0.3,0,0.5,0.3,0.6,0.5C16.1,33,16,32.8,15.8,32.6z"/>
		<path class="st5" d="M12.2,35.7c0.1-0.2-0.1-0.5-0.1-0.7C12.3,35.3,12.6,35.5,12.2,35.7z"/>
		<path class="st5" d="M18.4,28.6c-0.2,0-0.4-0.1-0.5-0.2C18.2,28.2,18.3,28.5,18.4,28.6z"/>
		<path class="st5" d="M10.6,28.4c0.1,0.2,0.2,0.3,0.3,0.5C10.5,29,10.6,28.7,10.6,28.4z"/>
		<path class="st5" d="M19.3,30.2c-0.1-0.2-0.2-0.4-0.3-0.7C19.4,29.6,19.4,29.9,19.3,30.2z"/>
		<path class="st5" d="M9.3,36.4c0.2,0,0.4,0.2,0.5,0.3C9.5,36.8,9.4,36.7,9.3,36.4z"/>
		<path class="st5" d="M18.3,33c0.1-0.2,0.2-0.3,0.4-0.4C18.7,32.9,18.6,33,18.3,33z"/>
		<path class="st5" d="M16.4,40.6c0.1-0.2,0.2-0.3,0.4-0.4C16.7,40.4,16.6,40.5,16.4,40.6z"/>
		<path class="st5" d="M9.8,34.2c-0.1,0.1-0.2,0.3-0.4,0.3C9.4,34.2,9.6,34.2,9.8,34.2z"/>
		<path class="st5" d="M11.7,34.5c-0.1-0.1-0.3-0.2-0.4-0.3C11.5,34.2,11.7,34.2,11.7,34.5z"/>
		<path class="st5" d="M9.3,34.6c0,0.1-0.1,0.2-0.2,0.2C9.2,34.8,9.2,34.6,9.3,34.6z"/>
		<path class="st5" d="M10,34c0,0.1-0.1,0.1-0.2,0.1C9.8,34.1,9.9,34,10,34z"/>
		<path class="st5" d="M9.2,36.3c0.1,0,0.1,0.1,0.1,0.2C9.2,36.4,9.2,36.4,9.2,36.3z"/>
		<path class="st5" d="M9.4,34.5c0,0.1,0,0.1-0.1,0.2C9.3,34.6,9.3,34.5,9.4,34.5z"/>
		<path class="st5" d="M11.1,29c0.1,0,0.1,0,0.2,0.1C11.2,29.1,11.1,29.1,11.1,29z"/>
		<path class="st5" d="M16.7,40.2C16.7,40.1,16.7,40.1,16.7,40.2C16.8,40.1,16.8,40.1,16.7,40.2z"/>
	</g>
</g>
<ellipse class="st3" cx="20.7" cy="91.6" rx="1.1" ry="0.4"/>
<ellipse class="st3" cx="44.4" cy="90.4" rx="1.5" ry="0.8"/>
<circle class="st3" cx="52.6" cy="95.7" r="0.8"/>
<ellipse class="st3" cx="34.4" cy="92.7" rx="2" ry="0.7"/>
<ellipse class="st3" cx="33.4" cy="88.2" rx="1" ry="0.4"/>
<g>
	<g>
		<path class="st0" d="M57.8,70c-0.1-0.2-2.2-4.1-0.7-8c1.1-2.7,3.7-4.7,7.7-5.9l0.3,1C61.4,58.2,59,60,58,62.4
			c-1.4,3.4,0.6,7.1,0.6,7.1L57.8,70z"/>
	</g>
</g>
<g>
	<g>
		<path class="st0" d="M41.1,54.8c0.1,0.1,2.9,1.9,3.3,5.1c0.2,2.2-0.8,4.4-3.1,6.7l-0.5-0.5c2.1-2.1,3-4.1,2.8-6.1
			c-0.3-2.8-2.9-4.5-2.9-4.5L41.1,54.8z"/>
	</g>
</g>
</svg>
