<?xml version="1.0" encoding="utf-8"?>
<!-- Generator: Adobe Illustrator 25.0.0, SVG Export Plug-In . SVG Version: 6.00 Build 0)  -->
<svg version="1.1" id="Layer_1" xmlns="http://www.w3.org/2000/svg" xmlns:xlink="http://www.w3.org/1999/xlink" x="0px" y="0px"
	 viewBox="0 0 136.14 106.8" style="enable-background:new 0 0 136.14 106.8;" xml:space="preserve">
<radialGradient id="SVGID_1_" cx="82.6653" cy="59.1907" r="28.0649" gradientTransform="matrix(1 0 0 -1 0 108)" gradientUnits="userSpaceOnUse">
	<stop  offset="0" style="stop-color:#AAE1F9"/>
	<stop  offset="1" style="stop-color:#2F81C1"/>
</radialGradient>
<circle style="fill:url(#SVGID_1_);" cx="82.74" cy="62.9" r="35.4"/>
<g>
	<g>
		
			<linearGradient id="SVGID_2_" gradientUnits="userSpaceOnUse" x1="50.9154" y1="-11.0901" x2="106.0748" y2="-11.0901" gradientTransform="matrix(1 -7.518353e-04 -6.569123e-04 -0.8738 4.2494 51.7651)">
			<stop  offset="0" style="stop-color:#AAE1F9"/>
			<stop  offset="1" style="stop-color:#FFFFFF"/>
		</linearGradient>
		<path style="fill:url(#SVGID_2_);" d="M110.34,59.6c0-11.5-8.4-20.8-18.8-20.8c-3.1,0-6.1,0.9-8.7,2.4c-0.1,0-0.1,0-0.2,0l0,0
			c-2.6-1.5-5.6-2.4-8.7-2.4c-10.4,0-18.8,9.3-18.7,20.8c0,1.9,0.3,3.7,0.7,5.4c1.5,10.7,12.9,19,26.7,19c13,0,23.9-7.3,26.4-17
			C109.84,64.7,110.34,62.2,110.34,59.6z"/>
	</g>
</g>
<path style="fill:#2F81C1;" d="M59.94,90c0,0-0.2,0.3-0.4,0.8c-1.7,3.5-7.5,16.3,6.7,3.4"/>
<path style="fill:#2F81C1;" d="M115.84,59.2c0,0,43.7-18.6-3.1,19.1"/>
<g style="opacity:0;">
	<path style="fill:#FF9F1F;" d="M91.74,9c0,1.8-0.6,3.5-1.8,4.8c-1.2,1.4-2.6,2.2-4.4,2.4v2.1c0,0.5-0.2,1-0.6,1.3
		c-0.4,0.4-0.8,0.6-1.3,0.6s-1-0.2-1.3-0.6c-0.4-0.4-0.6-0.8-0.6-1.3v-6h3.1c0.9,0,1.6-0.3,2.2-0.9c0.6-0.6,0.8-1.4,0.8-2.3
		c0-0.9-0.3-1.6-0.9-2.3c-0.6-0.6-1.3-0.9-2.2-0.9s-1.6,0.3-2.2,0.9c-0.5,0.5-0.7,1.2-0.7,2.2c0,0.5-0.2,1-0.6,1.4s-0.8,0.6-1.3,0.6
		s-1-0.2-1.3-0.6c-0.4-0.4-0.6-0.9-0.6-1.4c0-2,0.7-3.6,2-5c1.3-1.4,3-2.1,4.8-2.1c1.8,0,3.5,0.7,4.9,2.1C91.04,5.4,91.74,7,91.74,9
		z M85.54,23c0,0.5-0.2,1-0.5,1.4c-0.4,0.4-0.8,0.6-1.3,0.6s-0.9-0.2-1.3-0.5c-0.4-0.4-0.6-0.8-0.6-1.4c0-0.5,0.2-1,0.5-1.4
		c0.4-0.4,0.8-0.6,1.3-0.6s0.9,0.2,1.3,0.6C85.44,22,85.54,22.5,85.54,23z"/>
</g>
<g>
	<path style="fill:#2F81C1;" d="M96.24,55.5c-2.6,9.3-5.5,0-5.5,0l0,0c0-1-0.4-1.9-0.9-1.9s-0.9,0.9-0.9,2c0,0.2,0,0.4,0,0.5
		c-0.8,4.3-7.3,37.3-14,0.1c0-0.1,0-0.3,0-0.4c0-1.1-0.4-2-0.9-2s-0.9,0.8-0.9,1.9l0,0c0,0-3.1,9.3-5.8,0c0,0-1.8-0.8-0.9,2.1
		c0,0,3.2,9,7.3,0.8c1.9,8.9,8.4,33.5,16.5-0.3c4,8.5,7-0.6,7-0.6C97.94,54.7,96.24,55.5,96.24,55.5z"/>
	<ellipse style="fill:#2F81C1;" cx="70.34" cy="55.9" rx="4.3" ry="7.1"/>
	<ellipse style="fill:#2F81C1;" cx="93.14" cy="55.9" rx="4.3" ry="7.1"/>
</g>
<g id="_x39_ngXMJ.tif">
	<g>
		<path style="fill:#202020;" d="M99.42,66.56c-0.28,0-0.55,0-0.83,0c-0.06-0.01-0.13-0.02-0.19-0.03
			c-0.31-0.04-0.62-0.06-0.93-0.11c-1.85-0.32-3.48-1.15-4.96-2.27c-1.7-1.28-3.15-2.8-4.43-4.49c-0.89-1.16-1.68-2.39-2.2-3.76
			c-0.4-1.07-0.65-2.17-0.51-3.32c0.03-0.23-0.06-0.36-0.25-0.47c-0.56-0.32-1.17-0.46-1.81-0.49c-0.74-0.04-1.46,0.02-2.15,0.34
			c-0.12,0.05-0.16,0.11-0.13,0.25c0.15,0.76,0.11,1.53-0.04,2.29c-0.28,1.37-0.89,2.61-1.63,3.78c-0.8,1.26-1.74,2.4-2.76,3.48
			c-1.34,1.41-2.82,2.67-4.56,3.58c-1.19,0.63-2.45,1.06-3.8,1.17c-0.21,0.02-0.43,0.04-0.64,0.06c-0.15,0-0.31,0-0.46,0
			c-0.06-0.01-0.11-0.02-0.17-0.03c-0.34-0.04-0.67-0.06-1.01-0.12c-1.74-0.3-3.24-1.07-4.54-2.26c-0.68-0.63-1.3-1.3-1.78-2.1
			c-0.9-1.48-1.31-3.11-1.4-4.83c-0.01-0.28-0.03-0.56-0.04-0.85c-0.24-0.02-0.48-0.03-0.71-0.05c-0.15-0.01-0.34-0.19-0.34-0.33
			c0-0.43,0-0.86,0.01-1.29c0-0.06,0.03-0.12,0.05-0.17c0.07-0.14,0.2-0.17,0.34-0.17c0.31,0,0.61,0,0.92,0
			c0.01-0.05,0.01-0.06,0.01-0.07c0.05-0.21,0.11-0.42,0.16-0.62c0.49-1.98,1.57-3.53,3.34-4.58c1.54-0.91,3.22-1.38,4.97-1.64
			c1.13-0.16,2.27-0.22,3.42-0.2c1.43,0.02,2.84,0.13,4.25,0.38c0.39,0.07,0.79,0.17,1.18,0.18c1.16,0.03,2.33,0.04,3.49,0.04
			c3.48,0,6.96,0,10.44,0c0.58,0,1.16-0.02,1.74-0.14c1.37-0.28,2.76-0.43,4.16-0.45c1.6-0.02,3.19,0.05,4.77,0.34
			c1.44,0.27,2.8,0.72,4.06,1.47c1.32,0.79,2.33,1.88,2.9,3.31c0.24,0.6,0.39,1.22,0.58,1.84c0.03,0.1,0.07,0.14,0.18,0.14
			c0.3-0.01,0.6,0.02,0.89-0.01c0.26-0.02,0.47,0.04,0.62,0.26c0,0.48,0,0.96,0,1.44c-0.14,0.23-0.34,0.35-0.62,0.31
			c-0.11-0.02-0.21,0-0.32,0c-0.15,0-0.29,0-0.45,0c-0.01,0.14-0.01,0.26-0.02,0.38c-0.03,0.48-0.04,0.96-0.1,1.44
			c-0.14,1.28-0.53,2.47-1.16,3.59c-0.76,1.36-1.83,2.44-3.12,3.31c-1.13,0.76-2.37,1.22-3.71,1.4
			C99.89,66.5,99.65,66.53,99.42,66.56z M87.81,48.89c-0.01-0.01-0.01-0.03-0.02-0.04c-3.05,0-6.11,0-9.16,0
			c0.41,0.35,0.83,0.67,1.19,1.05c0.36,0.39,0.64,0.84,0.94,1.26c1.64-0.61,3.28-0.62,4.89,0.25
			C86.07,50.31,86.87,49.54,87.81,48.89z"/>
	</g>
</g>
<g id="jVJXpW_1_">
	<g>
		<path style="fill:#1F4275;" d="M104.37,17.07c-0.39-0.43-0.78-0.72-1.35-0.84c-4.93-1.06-9.84-2.17-14.78-3.19
			c-1.86-0.38-3.68-1.05-5.62-1.03c-0.31,0.01-0.63-0.02-0.92,0.05c-3.83,0.95-7.7,1.73-11.54,2.66c-2.45,0.59-4.98,1.03-7.48,1.48
			c-0.69,0.12-1.18,0.45-1.65,0.98c-1.6,1.79-3,3.77-4.77,5.42c0,0.16,0,0.31,0,0.47c1.34,2.36,2.68,4.71,4.02,7.07
			c7.45,0,14.91-0.01,22.36-0.01c0.02-0.44-0.03-0.88-0.03-1.32c0,0.44,0.04,0.88,0.03,1.32c7.52,0.01,15.04,0.01,22.57,0.02
			c0.29-0.5,0.56-1.01,0.87-1.5c1.09-1.75,1.83-3.71,3.15-5.33c0-0.24,0-0.47,0-0.71C107.44,20.89,106,18.9,104.37,17.07z
			 M87.32,21.63c0,3.68-0.98,4.96-4.48,5.86c-3.32-0.5-4.69-2.08-4.69-5.41c0-0.86,0.01-1.72,0-2.58c-0.02-0.83,0.37-1.22,1.2-1.22
			c1.09-0.01,2.18-0.04,3.27-0.06v0c1.13,0.03,2.26,0.09,3.39,0.07c0.95-0.01,1.36,0.41,1.32,1.34
			C87.3,20.31,87.32,20.97,87.32,21.63z"/>
		<path style="fill:#1D1D28;" d="M104.62,34.83c-0.05,1.28-1.06,1.89-1.92,2.5c-2.84,2.02-6.11,3.1-9.41,4.04
			c-3.46,0.99-7.01,1.66-10.61,1.61c-4.47-0.06-8.83-0.96-13.07-2.42c-2.44-0.84-4.85-1.76-6.94-3.3c-0.82-0.61-1.79-1.2-1.82-2.43
			C75.44,34.83,90.03,34.83,104.62,34.83z"/>
		<path style="fill:#6E7287;" d="M104.62,34.83c-14.59,0-29.18,0-43.77,0c-0.02-0.69-0.04-1.38-0.07-2.07
			c-0.01-0.3,0.05-0.61-0.31-0.8c-0.94-0.5-0.63-1.17-0.19-1.83c7.45,0,14.91-0.01,22.36-0.01c7.52,0.01,15.04,0.01,22.57,0.02
			c0.43,0.67,0.74,1.32-0.2,1.84c-0.5,0.28-0.27,0.75-0.31,1.14C104.65,33.68,104.64,34.26,104.62,34.83z"/>
		<path style="fill:#FDC05E;" d="M82.84,27.49c-3.32-0.5-4.69-2.08-4.69-5.41c0-0.86,0.01-1.72,0-2.58
			c-0.02-0.83,0.37-1.22,1.2-1.22c1.09-0.01,2.18-0.04,3.27-0.06c1.13,0.03,2.26,0.09,3.39,0.07c0.95-0.01,1.36,0.41,1.32,1.34
			c-0.02,0.66,0,1.33,0,1.99C87.32,25.31,86.34,26.6,82.84,27.49z"/>
	</g>
</g>
<g id="_x33_JPhI6_1_">
	<g>
		<path style="fill:#1F4275;" d="M49.19,66c0,2.89,0,5.78,0.01,8.67c0,0.35-0.08,0.63-0.33,0.89c-0.74,0.73-1.46,1.47-2.19,2.2
			c-0.95,0.95-1.9,1.89-2.85,2.84c-1.12,1.12-2.28,2.2-3.37,3.35c-0.76,0.81-1.58,1.56-2.34,2.35c-0.56,0.58-1.13,1.15-1.69,1.72
			c-0.2,0.2-0.42,0.31-0.71,0.31c-3.73,0-7.47,0-11.2,0c-2.12,0-4.25-0.01-6.37,0c-0.34,0-0.59-0.09-0.84-0.34
			c-1.86-1.88-3.74-3.75-5.61-5.62c-1.49-1.49-2.98-2.98-4.47-4.47c-0.81-0.81-1.62-1.62-2.44-2.42c-0.22-0.22-0.27-0.47-0.27-0.76
			c0.01-3.93,0-7.86,0-11.78c0-1.93,0.01-3.85-0.01-5.78c0-0.34,0.12-0.58,0.35-0.81c1.52-1.5,3.03-3.01,4.54-4.51
			c1.1-1.09,2.19-2.19,3.28-3.28c1.27-1.28,2.54-2.56,3.81-3.84c0.21-0.22,0.44-0.43,0.64-0.65c0.29-0.31,0.63-0.4,1.06-0.44
			c1.24-0.11,2.48,0.01,3.73,0c1.42-0.02,2.85-0.08,4.27,0.02c0.53,0.04,1.08-0.06,1.61-0.03c1.43,0.07,2.85-0.07,4.27,0.03
			c0.52,0.04,1.05-0.03,1.57-0.04c0.74-0.02,1.49,0.03,2.23,0.04c0.21,0,0.38,0.09,0.52,0.24c0.8,0.82,1.6,1.64,2.4,2.45
			c0.82,0.82,1.67,1.6,2.46,2.44c0.63,0.66,1.32,1.26,1.93,1.94c0.65,0.71,1.36,1.36,2.04,2.04c0.74,0.74,1.49,1.47,2.23,2.21
			c0.45,0.45,0.89,0.91,1.34,1.34c0.26,0.25,0.39,0.52,0.39,0.9C49.18,60.15,49.19,63.08,49.19,66z M35.93,65.67
			c0-1.44,0-2.88,0-4.32c0-0.54-0.07-1.07-0.22-1.59c-0.34-1.15-1.09-1.9-2.25-2.25c-0.71-0.21-1.43-0.23-2.14-0.12
			c-1.16,0.17-2.11,0.7-2.64,1.84c-0.33,0.71-0.42,1.45-0.43,2.21c-0.02,1.71-0.03,3.41,0,5.12c0.02,1.51-0.13,3.03,0.14,4.53
			c0.22,1.23,0.88,2.11,2.08,2.56c0.78,0.29,1.58,0.34,2.38,0.22c1.26-0.18,2.25-0.79,2.74-2.03c0.25-0.63,0.35-1.29,0.35-1.97
			C35.92,68.47,35.93,67.07,35.93,65.67z M39.16,65.64C39.16,65.64,39.16,65.64,39.16,65.64c0,0.15,0,0.29,0,0.44
			c0,2.4,0.01,4.81,0,7.21c0,0.35,0.11,0.48,0.47,0.46c0.47-0.02,0.95,0,1.43,0c0.58,0,0.59,0,0.59-0.59c0-1.71,0.01-3.42-0.01-5.12
			c0-0.32,0.11-0.44,0.43-0.43c0.43,0.01,0.85,0.01,1.28-0.01c1.66-0.07,2.85-0.99,3.16-2.57c0.31-1.53,0.25-3.08,0.06-4.62
			c-0.13-1.05-0.64-1.88-1.58-2.41c-0.62-0.35-1.32-0.44-2.01-0.46c-1.1-0.03-2.2-0.01-3.29-0.01c-0.51,0-0.51,0-0.51,0.5
			C39.16,60.56,39.16,63.1,39.16,65.64z M9.3,68.93C9.3,68.93,9.3,68.94,9.3,68.93c-0.26,0.01-0.51,0.02-0.77,0
			c-0.3-0.02-0.42,0.08-0.41,0.39c0.01,0.49,0.01,0.98,0.09,1.46c0.17,1.06,0.54,2,1.52,2.59c0.9,0.54,1.9,0.63,2.9,0.5
			c0.94-0.12,1.8-0.47,2.35-1.32c0.53-0.82,0.74-1.74,0.72-2.72c-0.03-1.86-0.92-3.3-2.25-4.51c-0.62-0.57-1.26-1.12-1.81-1.76
			c-0.78-0.9-1.2-1.92-0.84-3.14c0.17-0.59,0.65-0.9,1.28-0.88c0.59,0.02,1.03,0.39,1.17,0.98c0.08,0.34,0.08,0.68,0.08,1.02
			c0,0.17,0.02,0.33,0.26,0.3c0.55-0.06,1.09,0.04,1.64,0.03c0.35,0,0.44-0.13,0.44-0.45c-0.01-0.62-0.09-1.21-0.26-1.8
			c-0.32-1.09-1.03-1.77-2.09-2.11c-0.69-0.22-1.41-0.22-2.1-0.13c-1.16,0.14-2.1,0.69-2.57,1.81c-0.56,1.33-0.57,2.7-0.09,4.07
			c0.45,1.28,1.38,2.19,2.34,3.08c0.62,0.57,1.26,1.12,1.73,1.83c0.5,0.76,0.75,1.59,0.54,2.5c-0.16,0.69-0.68,1.03-1.5,0.97
			c-0.65-0.05-1.08-0.5-1.16-1.16c-0.04-0.4-0.03-0.8,0-1.2c0.02-0.27-0.1-0.37-0.36-0.36C9.86,68.94,9.58,68.93,9.3,68.93z
			 M20.64,66.74C20.64,66.74,20.64,66.74,20.64,66.74c0,2.18,0,4.37-0.01,6.55c0,0.35,0.11,0.48,0.46,0.47
			c0.45-0.02,0.9-0.01,1.35-0.01c0.66,0,0.66,0,0.66-0.65c0-4.27,0-8.54,0-12.8c0-0.52,0.01-0.53,0.53-0.53c0.61,0,1.22,0,1.83,0
			c0.25,0,0.35-0.1,0.32-0.36c-0.06-0.49-0.07-0.97,0-1.46c0.05-0.33-0.07-0.44-0.39-0.44c-0.79,0.01-1.59,0-2.38,0.01
			c-1.54,0-3.07,0.01-4.61,0c-0.32,0-0.43,0.11-0.42,0.42c0.02,0.49,0.01,0.98,0,1.46c-0.01,0.27,0.11,0.37,0.37,0.36
			c0.6-0.01,1.19,0,1.79,0c0.47,0,0.49,0.02,0.49,0.5C20.65,62.42,20.64,64.58,20.64,66.74z"/>
		<path style="fill:#1F4275;" d="M30.72,65.68c0-1.41,0-2.83,0-4.24c0-0.27,0.03-0.54,0.08-0.8c0.14-0.68,0.59-1.06,1.28-1.08
			c0.65-0.02,1.12,0.33,1.32,0.98c0.1,0.32,0.13,0.63,0.13,0.96c-0.01,2.79-0.01,5.58,0,8.38c0,0.27-0.04,0.54-0.1,0.8
			c-0.18,0.69-0.67,1.06-1.35,1.03c-0.67-0.02-1.13-0.42-1.28-1.09c-0.05-0.24-0.06-0.48-0.06-0.73
			C30.72,68.48,30.72,67.08,30.72,65.68z"/>
		<path style="fill:#1F4275;" d="M44.2,62.35c0,0.7,0.02,1.18,0,1.65c-0.06,0.98-0.47,1.35-1.43,1.35c-0.24,0-0.49-0.01-0.73,0.01
			c-0.31,0.02-0.41-0.11-0.4-0.41c0.01-0.86,0-1.73,0-2.59c0-0.74,0-1.49,0-2.23c0-0.26,0.1-0.38,0.37-0.37
			c0.34,0.01,0.68-0.01,1.02,0.01c0.69,0.04,1.01,0.34,1.13,1.02C44.26,61.39,44.17,61.99,44.2,62.35z"/>
	</g>
</g>
<ellipse style="fill:#2F81C1;" cx="27.33" cy="44.1" rx="7.17" ry="3.15"/>
</svg>
