<?xml version="1.0" encoding="utf-8"?>
<!-- Generator: Adobe Illustrator 22.1.0, SVG Export Plug-In . SVG Version: 6.00 Build 0)  -->
<svg version="1.1" id="Layer_1" xmlns="http://www.w3.org/2000/svg" xmlns:xlink="http://www.w3.org/1999/xlink" x="0px" y="0px"
	 viewBox="0 0 106.8 106.8" style="enable-background:new 0 0 106.8 106.8;" xml:space="preserve">
<style type="text/css">
	.st0{fill:url(#SVGID_1_);}
	.st1{fill:url(#SVGID_2_);}
	.st2{fill:#2F81C1;}
	.st3{fill:#A4DAFF;}
	.Ani{opacity: 0; fill: #ff9f1f;}
	@keyframes Ani {
		 0% {
				 opacity: 0;
				 transform: scale(.6);
				 transform-origin: center;
		 }
		 100% {
				 opacity: 1;
				 transform: scale(1);
				 transform-origin: center;
		 }
 }

		 .Ani {
				 animation: Ani 1.5s linear;
				 -webkit-animation: Ani 1.5s linear;
				 animation-iteration-count: 3;
				 animation-play-state: running;
		 }
</style>
<radialGradient id="SVGID_1_" cx="53.3291" cy="48.8093" r="28.0649" gradientUnits="userSpaceOnUse">
	<stop  offset="0" style="stop-color:#AAE1F9"/>
	<stop  offset="1" style="stop-color:#2F81C1"/>
</radialGradient>
<circle class="st0" cx="53.4" cy="62.9" r="35.4"/>
<g>
	<g>

			<linearGradient id="SVGID_2_" gradientUnits="userSpaceOnUse" x1="21.8275" y1="71.0594" x2="76.9869" y2="71.0594" gradientTransform="matrix(1 -7.518353e-04 6.569123e-04 0.8738 3.9617 -0.637)">
			<stop  offset="0" style="stop-color:#AAE1F9"/>
			<stop  offset="1" style="stop-color:#FFFFFF"/>
		</linearGradient>
		<path class="st1" d="M81,59.6c0-11.5-8.4-20.8-18.8-20.8c-3.1,0-6.1,0.9-8.7,2.4c-0.1,0-0.1,0-0.2,0c0,0,0,0,0,0
			c-2.6-1.5-5.6-2.4-8.7-2.4c-10.4,0-18.8,9.3-18.7,20.8c0,1.9,0.3,3.7,0.7,5.4C28.1,75.7,39.5,84,53.3,84c13,0,23.9-7.3,26.4-17
			C80.5,64.7,81,62.2,81,59.6z"/>
	</g>
</g>
<path class="st2" d="M30.6,90c0,0-0.2,0.3-0.4,0.8c-1.7,3.5-7.5,16.3,6.7,3.4"/>
<path class="st2" d="M18.3,57.9c0,0-36.3-18.6,2.6,19.1"/>
<path class="st2" d="M86.5,59.2c0,0,43.7-18.6-3.1,19.1"/>
<g>
	<path class="st3" d="M13,53.2H5.5c-2.1,0-3.8-1.7-3.8-3.8v-9.1c0-2.1,1.7-3.8,3.8-3.8H13c2.1,0,3.8,1.7,3.8,3.8v9.1
		C16.8,51.5,15.1,53.2,13,53.2z"/>
	<g>
		<path class="st2" d="M9.6,47.4c0,0.1,0,0.3-0.1,0.3c-0.1,0.1-0.2,0.1-0.3,0.1c-0.1,0-0.3,0-0.3-0.1c-0.1-0.1-0.1-0.2-0.1-0.3v-1.8
			H4.7v1.8c0,0.1,0,0.3-0.1,0.4c-0.1,0.1-0.2,0.1-0.3,0.1c-0.1,0-0.3,0-0.3-0.1c-0.1-0.1-0.1-0.2-0.1-0.3v-2.6
			c0-0.8,0.3-1.5,0.9-2.1s1.3-0.9,2.1-0.9c0.8,0,1.5,0.3,2.1,0.9c0.6,0.6,0.9,1.3,0.9,2.1V47.4z M8.6,44.6c0-0.5-0.3-0.9-0.6-1.3
			c-0.4-0.3-0.8-0.5-1.3-0.5c-0.5,0-1,0.2-1.3,0.5s-0.6,0.8-0.6,1.3H8.6z"/>
		<path class="st2" d="M13.5,44c0,0.7-0.3,1.2-0.8,1.7c-0.5,0.4-1,0.6-1.7,0.6v1.1c0,0.1-0.1,0.3-0.1,0.3c-0.1,0.1-0.2,0.1-0.3,0.1
			s-0.2,0-0.3-0.1S10,47.5,10,47.4v-5.1c0-0.2,0.1-0.4,0.3-0.5c0.1,0,0.3,0,0.6,0c0.7,0,1.3,0.2,1.8,0.6
			C13.2,42.7,13.5,43.3,13.5,44z M12.5,44c0-0.8-0.5-1.2-1.5-1.3v2.5C12,45.2,12.5,44.8,12.5,44z"/>
		<path class="st2" d="M14.9,47.4c0,0.1-0.1,0.2-0.2,0.3c-0.1,0.1-0.2,0.2-0.3,0.2c-0.1,0-0.2-0.1-0.3-0.2c-0.1-0.1-0.2-0.2-0.2-0.3
			v-5.1c0-0.1,0.1-0.2,0.2-0.3c0.1-0.1,0.2-0.2,0.3-0.2c0.1,0,0.2,0.1,0.3,0.2c0.1,0.1,0.2,0.2,0.2,0.3V47.4z"/>
	</g>
</g>
<g>
	<path class="st3" d="M101.3,54.5h-7.5c-2.1,0-3.8-1.7-3.8-3.8v-9.1c0-2.1,1.7-3.8,3.8-3.8h7.5c2.1,0,3.8,1.7,3.8,3.8v9.1
		C105.1,52.8,103.4,54.5,101.3,54.5z"/>
	<g>
		<path class="st2" d="M97.9,48.7c0,0.1,0,0.3-0.1,0.3c-0.1,0.1-0.2,0.1-0.3,0.1c-0.1,0-0.3,0-0.3-0.1c-0.1-0.1-0.1-0.2-0.1-0.3
			v-1.8h-3.9v1.8c0,0.1,0,0.3-0.1,0.4c-0.1,0.1-0.2,0.1-0.3,0.1c-0.1,0-0.3,0-0.3-0.1C92,49,92,48.9,92,48.7v-2.6
			c0-0.8,0.3-1.5,0.9-2.1c0.6-0.6,1.3-0.9,2.1-0.9c0.8,0,1.5,0.3,2.1,0.9c0.6,0.6,0.9,1.3,0.9,2.1V48.7z M96.9,45.9
			c0-0.5-0.3-0.9-0.6-1.3c-0.4-0.3-0.8-0.5-1.3-0.5c-0.5,0-1,0.2-1.3,0.5c-0.4,0.3-0.6,0.8-0.6,1.3H96.9z"/>
		<path class="st2" d="M101.7,45.4c0,0.7-0.3,1.2-0.8,1.7c-0.5,0.4-1,0.6-1.7,0.6v1.1c0,0.1-0.1,0.3-0.1,0.3
			c-0.1,0.1-0.2,0.1-0.3,0.1c-0.1,0-0.2,0-0.3-0.1c-0.1-0.1-0.1-0.2-0.1-0.3v-5.1c0-0.2,0.1-0.4,0.3-0.5c0.1,0,0.3,0,0.6,0
			c0.7,0,1.3,0.2,1.8,0.6C101.5,44.1,101.7,44.7,101.7,45.4z M100.8,45.4c0-0.8-0.5-1.2-1.5-1.3v2.5
			C100.3,46.6,100.8,46.2,100.8,45.4z"/>
		<path class="st2" d="M103.1,48.7c0,0.1-0.1,0.2-0.2,0.3c-0.1,0.1-0.2,0.2-0.3,0.2c-0.1,0-0.2-0.1-0.3-0.2
			c-0.1-0.1-0.2-0.2-0.2-0.3v-5.1c0-0.1,0.1-0.2,0.2-0.3c0.1-0.1,0.2-0.2,0.3-0.2c0.1,0,0.2,0.1,0.3,0.2c0.1,0.1,0.2,0.2,0.2,0.3
			V48.7z"/>
	</g>
</g>
<g class="Ani">
	<path d="M62.4,9c0,1.8-0.6,3.5-1.8,4.8c-1.2,1.4-2.6,2.2-4.4,2.4v2.1c0,0.5-0.2,1-0.6,1.3c-0.4,0.4-0.8,0.6-1.3,0.6s-1-0.2-1.3-0.6
		c-0.4-0.4-0.6-0.8-0.6-1.3v-6h3.1c0.9,0,1.6-0.3,2.2-0.9c0.6-0.6,0.8-1.4,0.8-2.3c0-0.9-0.3-1.6-0.9-2.3c-0.6-0.6-1.3-0.9-2.2-0.9
		c-0.9,0-1.6,0.3-2.2,0.9C52.7,7.3,52.5,8,52.5,9c0,0.5-0.2,1-0.6,1.4c-0.4,0.4-0.8,0.6-1.3,0.6s-1-0.2-1.3-0.6
		C48.9,10,48.7,9.5,48.7,9c0-2,0.7-3.6,2-5c1.3-1.4,3-2.1,4.8-2.1S59,2.6,60.4,4C61.7,5.4,62.4,7,62.4,9z M56.2,23
		c0,0.5-0.2,1-0.5,1.4c-0.4,0.4-0.8,0.6-1.3,0.6c-0.5,0-0.9-0.2-1.3-0.5c-0.4-0.4-0.6-0.8-0.6-1.4c0-0.5,0.2-1,0.5-1.4
		c0.4-0.4,0.8-0.6,1.3-0.6c0.5,0,0.9,0.2,1.3,0.6C56.1,22,56.2,22.5,56.2,23z"/>
</g>
<g>
	<path class="st2" d="M66.9,55.5c-2.6,9.3-5.5,0-5.5,0h0c0-1-0.4-1.9-0.9-1.9c-0.5,0-0.9,0.9-0.9,2c0,0.2,0,0.4,0,0.5
		c-0.8,4.3-7.3,37.3-14,0.1c0-0.1,0-0.3,0-0.4c0-1.1-0.4-2-0.9-2c-0.5,0-0.9,0.8-0.9,1.9h0c0,0-3.1,9.3-5.8,0c0,0-1.8-0.8-0.9,2.1
		c0,0,3.2,9,7.3,0.8c1.9,8.9,8.4,33.5,16.5-0.3c4,8.5,7-0.6,7-0.6C68.6,54.7,66.9,55.5,66.9,55.5z"/>
	<ellipse class="st2" cx="41" cy="55.9" rx="4.3" ry="7.1"/>
	<ellipse class="st2" cx="63.8" cy="55.9" rx="4.3" ry="7.1"/>
</g>
</svg>
