<?xml version="1.0" encoding="utf-8"?>
<!-- Generator: Adobe Illustrator 22.1.0, SVG Export Plug-In . SVG Version: 6.00 Build 0)  -->
<svg version="1.1" id="Layer_1" xmlns="http://www.w3.org/2000/svg" xmlns:xlink="http://www.w3.org/1999/xlink" x="0px" y="0px"
	 viewBox="0 0 106.8 106.8" style="enable-background:new 0 0 106.8 106.8;" xml:space="preserve">
<style type="text/css">
	.st0{fill:url(#SVGID_1_);}
	.st1{fill:url(#SVGID_2_);}
	.st2{fill:#2F81C1;}
	@keyframes Ani {
		 0% {
				 transform: translateY(0px);
				 transform-origin: center;
		 }
		 100% {
				 transform: translateY(10px);
				 transform-origin: center;
		 }
 }

		 .Ani {
				 animation: Ani 2s linear;
				 -webkit-animation: Ani 2s linear;
				 animation-iteration-count: 2;
				 animation-play-state: running;
		 }
</style>
<radialGradient id="SVGID_1_" cx="51.6232" cy="49.0761" r="30.9207" gradientTransform="matrix(1 -5.135659e-03 5.135659e-03 1 2.2135 -6.1181)" gradientUnits="userSpaceOnUse">
	<stop  offset="0" style="stop-color:#AAE1F9"/>
	<stop  offset="1" style="stop-color:#2F81C1"/>
</radialGradient>
<path class="st0" d="M83.6,40.3c-5.5-11-16.8-18.6-30-18.5c-12.3,0.1-23.1,6.8-28.8,16.9C11.8,51.8-3,71,20.7,59c0,0,0,0.1,0.1,0.1
	c2,16.5,16.1,29.2,33.2,29.1c4.7,0,9.1-1,13.1-2.8c3.8,3.6,14.5,12.7,6.3-3.6c7.1-5.2,12-13,13.3-22.1
	C112.2,68.3,96.8,47.8,83.6,40.3z"/>
<g>

		<linearGradient id="SVGID_2_" gradientUnits="userSpaceOnUse" x1="19.896" y1="58.7278" x2="68.3105" y2="58.7278" gradientTransform="matrix(1 -7.518113e-04 7.518113e-04 1 3.9584 -5.7655)">
		<stop  offset="0" style="stop-color:#AAE1F9"/>
		<stop  offset="1" style="stop-color:#FFFFFF"/>
	</linearGradient>
	<path class="st1" d="M72.3,51.1c0-11.5-7.4-20.9-16.5-20.9c-2.8,0-5.4,0.9-7.6,2.4c-0.1,0-0.1,0-0.2,0c0,0,0,0,0,0
		c-2.3-1.5-4.9-2.4-7.6-2.4c-9.1,0-16.5,9.4-16.5,20.9c0,1.9,0.2,3.7,0.6,5.5c1.4,10.7,11.4,19,23.6,19c11.4,0,20.9-7.3,23.2-17.1
		C71.9,56.2,72.3,53.7,72.3,51.1z"/>
	<path class="st2" d="M57,39.3c-1.2-0.2-2.4,0.8-3.2,2.4l-0.1,0c0,0-0.1,0.3-0.2,0.8c-0.2,0.5-0.3,1-0.4,1.6
		c-2.5,9.9-12,44.8-13.5-0.2c0.1-0.3,0.1-0.5,0.2-0.8c0.2-1.2,0-2.3-0.3-3.2c0,0,0,0,0,0l0,0c-0.4-1.3-1.2-2.2-2.3-2.4
		c-1.8-0.2-6.7,4-3.9,4.8c1,0.3,1.8-3.4,3.6-3.3c2.4,0.1,1.4,5.9,1.5,7.6c0.7,13.9,3.6,40.8,15.1,1.1c0.8-4.6,2.5-7.1,3.5-6.9
		c1.8,0.2,0.7,4.7,2.6,4.2C62.3,44,58.8,39.5,57,39.3z"/>
</g>
<path class="st2 Ani" d="M27.5,9.2c0,0-5.9,9.5-2.6,12.9S34.7,22.1,27.5,9.2z"/>
</svg>
