<?xml version="1.0" encoding="utf-8"?>
<!-- Generator: Adobe Illustrator 22.1.0, SVG Export Plug-In . SVG Version: 6.00 Build 0)  -->
<svg version="1.1" id="Layer_2_1_" xmlns="http://www.w3.org/2000/svg" xmlns:xlink="http://www.w3.org/1999/xlink" x="0px" y="0px"
	 viewBox="0 0 964 745" style="enable-background:new 0 0 964 745;" xml:space="preserve">
<style type="text/css">
	.st0{fill:#333333;}
	.st1{fill:#9E005D;}
	.st2{fill:#C94B9C;}
	.st3{fill:#B8EA68;}
	.st4{fill:#8CC63F;}
	.st5{fill:#669BE8;}
	.st6{fill:#2A7FE2;}
	.st7{fill:#FBB03B;}
	.st8{fill:#F7C179;}
	.st9{fill:#00A99D;}
	.st10{fill:#4FD3C6;}
	.st11{fill:#93278F;}
	.st12{fill:#BC57BC;}
	.st13{fill:#F9B570;}
	.st14{fill:#FF8E39;}
	.st15{fill:#F15A24;}
	.st16{fill:#FFFFFF;}
</style>
<g>
	<g>
		<g>
			<g>
				<path class="st0" d="M693.6,186.8c-0.1-0.3-0.2-0.6-0.3-0.8v-0.1c-0.2-0.4-0.5-0.7-0.9-1c-0.1-0.1-0.2-0.1-0.3-0.2
					c-0.1-0.1-0.2-0.2-0.2-0.2L478.5,61.3c-0.1,0-0.2-0.1-0.3-0.1c-0.1,0-0.2-0.1-0.3-0.1c-0.8-0.3-1.8-0.3-2.6,0
					c-0.1,0-0.2,0.1-0.3,0.1c-0.1,0-0.2,0.1-0.3,0.1L261.3,184.4c-0.1,0-0.2,0.1-0.2,0.2c-0.1,0.1-0.2,0.1-0.3,0.2
					c-0.3,0.3-0.6,0.6-0.9,1c-0.2,0.4-0.3,0.8-0.4,1.3c0,0.1,0,0.2,0,0.3s0,0.2,0,0.3V434c0,0.1,0,0.2,0,0.3c0,0.1,0,0.2,0,0.3
					c0.1,0.4,0.2,0.9,0.4,1.3l0,0c0.2,0.3,0.3,0.6,0.6,0.8c0.2,0.1,0.3,0.2,0.5,0.3c0.1,0.1,0.2,0.2,0.3,0.3l213.3,123.1
					c0.1,0.1,0.2,0.1,0.3,0.1c0.1,0.1,0.2,0.1,0.3,0.2c0.4,0.2,0.8,0.3,1.3,0.3s0.9-0.1,1.3-0.3c0.1,0,0.2-0.1,0.3-0.2
					c0.1,0,0.2,0,0.3-0.1l213.3-123.1c0.1-0.1,0.2-0.2,0.3-0.3c0.2-0.1,0.3-0.2,0.5-0.3c0.2-0.2,0.4-0.5,0.6-0.8l0,0
					c0.2-0.4,0.3-0.8,0.4-1.3c0-0.1,0-0.2,0-0.3c0-0.1,0-0.2,0-0.3V187.7c0,0,0,0,0-0.1C693.7,187.4,693.6,187.1,693.6,186.8z
					 M267,194.3l51.1,29.5v174.1L267,427.5V194.3z M472.7,550.6L270.8,434.1l51.1-29.5l150.8,87.1V550.6z M472.7,482.8l-143.2-82.6
					l44.3-25.6l98.9,57.1L472.7,482.8L472.7,482.8z M325.8,393.5V228.2l44.3,25.6V368L325.8,393.5z M472.7,190.1l-98.9,57.1
					l-44.3-25.6L472.7,139V190.1z M472.7,130.2l-150.8,87l-51.1-29.5L472.7,71.1V130.2z M480.4,71.1l201.9,116.6l-51.1,29.5
					l-150.8-87L480.4,71.1L480.4,71.1z M480.4,139l143.2,82.6l-44.3,25.6l-98.9-57.1V139z M627.3,228.2v165.3L583.1,368V253.8
					L627.3,228.2z M480.4,431.7l98.9-57.1l44.3,25.6l-143.2,82.6L480.4,431.7L480.4,431.7z M480.4,550.6v-59l150.8-87.1l51.1,29.5
					L480.4,550.6z M686.1,427.5L635,398V223.9l51.1-29.5V427.5z"/>
			</g>
			<g>
				<polygon class="st1" points="627.3,228.2 627.3,393.5 583.1,368 583.1,253.8 				"/>
				<path class="st0" d="M627.8,394.4l-45.3-26.1V253.5l45.3-26.1V394.4z M583.6,367.7l43.3,25V229.1l-43.3,25V367.7z"/>
			</g>
			<g>
				<polygon class="st2" points="686.1,194.3 686.1,427.5 634.9,397.9 634.9,223.9 				"/>
				<path class="st0" d="M686.6,428.3l-52.1-30.1V223.6l52.1-30.1V428.3z M635.4,397.7l50.1,29V195.2l-50.1,29V397.7z"/>
			</g>
			<g>
				<polygon class="st3" points="682.3,434.1 480.4,550.6 480.4,491.6 631.1,404.5 				"/>
				<path class="st0" d="M479.9,551.5v-60.2l0.2-0.1l151-87.2l52.1,30.1l-0.8,0.4L479.9,551.5z M480.9,491.9v57.9l200.4-115.7
					l-50.1-29L480.9,491.9z"/>
			</g>
			<g>
				<polygon class="st4" points="623.5,400.1 480.4,482.8 480.4,431.7 579.3,374.6 				"/>
				<path class="st0" d="M479.9,483.7v-52.3l0.2-0.1l99.1-57.3l45.3,26.1l-0.8,0.4L479.9,483.7z M480.9,432v49.9l141.7-81.8
					l-43.3-25L480.9,432z"/>
			</g>
			<g>
				<polygon class="st5" points="472.7,491.6 472.7,550.6 270.8,434.1 322,404.5 				"/>
				<path class="st0" d="M473.2,551.5l-0.8-0.4l-202.7-117l52.1-30.1l0.2,0.1l151,87.2v60.2H473.2z M271.8,434.1l200.4,115.7v-57.9
					L322,405.1L271.8,434.1z"/>
			</g>
			<g>
				<polygon class="st6" points="472.7,431.7 472.7,482.8 329.6,400.1 373.9,374.6 				"/>
				<path class="st0" d="M473.2,483.7l-0.8-0.4l-143.9-83.1l45.3-26.1l0.2,0.1l99.1,57.3L473.2,483.7L473.2,483.7z M330.6,400.1
					l141.7,81.8V432l-98.4-56.8L330.6,400.1z"/>
			</g>
			<g>
				<polygon class="st7" points="370,253.8 370,368 325.8,393.5 325.8,228.2 				"/>
				<path class="st0" d="M325.3,394.4v-167l45.3,26.1v114.8L325.3,394.4z M326.3,229.1v163.6l43.3-25V254.1L326.3,229.1z"/>
			</g>
			<g>
				<polygon class="st8" points="318.2,223.9 318.2,397.9 267,427.5 267,194.3 				"/>
				<path class="st0" d="M266.5,428.3V193.5l52.1,30.1v174.7l-0.2,0.1L266.5,428.3z M267.5,195.2v231.4l50.1-29V224.1L267.5,195.2z"
					/>
			</g>
			<g>
				<polygon class="st9" points="623.5,221.6 579.3,247.2 480.4,190.1 480.4,139 				"/>
				<path class="st0" d="M579.3,247.8l-0.2-0.1L480,190.4v-52.3l144.7,83.5L579.3,247.8z M480.9,189.8l98.4,56.8l43.3-25
					l-141.7-81.8L480.9,189.8L480.9,189.8z"/>
			</g>
			<g>
				<polygon class="st10" points="682.3,187.7 631.1,217.2 480.4,130.2 480.4,71.1 				"/>
				<path class="st0" d="M631.1,217.8l-0.2-0.1l-151-87.2V70.3l203.4,117.5L631.1,217.8z M480.9,129.9l150.3,86.7l50.1-28.9
					L480.9,72V129.9z"/>
			</g>
			<g>
				<polygon class="st11" points="472.7,139 472.7,190.1 373.9,247.2 329.6,221.6 				"/>
				<path class="st0" d="M373.9,247.8l-45.3-26.1l0.7-0.4l143.9-83.1v52.3l-0.2,0.1L373.9,247.8z M330.6,221.6l43.3,25l98.4-56.8
					v-49.9L330.6,221.6z"/>
			</g>
			<g>
				<polygon class="st12" points="472.7,71.1 472.7,130.2 322,217.2 270.8,187.7 				"/>
				<path class="st0" d="M322,217.8l-52.1-30.1l0.8-0.4l202.7-117v60.2l-0.2,0.1L322,217.8z M271.8,187.7l50.1,28.9l150.3-86.7V72
					L271.8,187.7z"/>
			</g>
		</g>
		<g>
			<g>
				<polygon class="st13" points="477.7,310.9 580.4,251.6 580.4,370.2 477.7,429.5 				"/>
				<path class="st0" d="M474.2,435.6V308.9l109.7-63.3v126.7L474.2,435.6z M481.2,312.9v110.5l95.7-55.3V257.7L481.2,312.9z"/>
			</g>
			<g>
				<polygon class="st14" points="477.7,310.9 580.4,251.6 477.7,192.3 375,251.6 				"/>
				<path class="st0" d="M477.7,315L368,251.6l109.7-63.3l109.7,63.3L477.7,315z M382,251.6l95.7,55.3l95.7-55.3l-95.7-55.3
					L382,251.6z"/>
			</g>
			<g>
				<polygon class="st15" points="375,251.6 477.7,310.9 477.7,429.5 375,370.2 				"/>
				<path class="st0" d="M481.2,435.6l-109.7-63.3V245.6l109.7,63.3V435.6z M378.5,368.2l95.7,55.3V312.9l-95.7-55.3V368.2z"/>
			</g>
			<g>
				<path class="st0" d="M477.7,430.5c-0.2,0-0.3,0-0.5-0.1l-102.7-59.3c-0.3-0.2-0.5-0.5-0.5-0.9V251.6c0-0.4,0.2-0.7,0.5-0.9
					l102.7-59.3c0.3-0.2,0.7-0.2,1,0l102.7,59.3c0.3,0.2,0.5,0.5,0.5,0.9v118.6c0,0.4-0.2,0.7-0.5,0.9l-102.7,59.3
					C478,430.5,477.9,430.5,477.7,430.5z M376,369.6l101.7,58.7l101.7-58.7V252.2l-101.7-58.7L376,252.2V369.6z"/>
			</g>
			<g>
				<path class="st0" d="M477.7,430.5c-0.6,0-1-0.4-1-1v-118l-102.2-59c-0.5-0.3-0.6-0.9-0.4-1.4c0.3-0.5,0.9-0.6,1.4-0.4l102.2,59
					l102.2-59c0.5-0.3,1.1-0.1,1.4,0.4c0.1,0.2,0.1,0.3,0.1,0.5c0,0.3-0.2,0.7-0.5,0.9l-102.2,59v118
					C478.7,430.1,478.2,430.5,477.7,430.5z"/>
			</g>
		</g>
	</g>
	<g>
		<g>
			<g>
				<path class="st0" d="M66.2,654.2H38c-0.9,0-1.7-0.3-2.4-0.7c-0.7,0.5-1.5,0.7-2.4,0.7H17.4c-2.5,0-4.5-2-4.5-4.5v-53.1
					c0-4,2.8-6.8,6.7-6.8h45.5c6.4,0,11.2,1.6,14.4,4.8c3.1,3.2,4.7,7.5,4.7,12.9v4.9c0,3.1-0.7,5.8-2.1,7.9
					c-0.1,0.1-0.2,0.2-0.2,0.4c0.4,0.5,0.8,1,1.1,1.5c1.6,2.3,2.4,5.1,2.4,8.4v4.9c0,5.8-1.5,10.4-4.5,13.7
					C77.8,652.5,72.9,654.2,66.2,654.2z M41.1,645.2h25.1c4,0,6.8-0.8,8-2.2c1.4-1.6,2.1-4.1,2.1-7.6v-4.9c0-1.4-0.3-2.5-0.8-3.3
					c-0.6-0.9-1.4-1.6-2.3-2.1c-1.4-0.7-2.4-2.1-2.5-3.7c-0.1-1.6,0.6-3.1,1.9-4c0.7-0.5,1.3-1.2,1.9-2.1c0.4-0.6,0.6-1.6,0.6-2.9
					v-4.9c0-3-0.7-5.2-2.1-6.6c-1.4-1.4-4.1-2.1-8-2.1H21.9v46.4h6.7v-6.8c0-0.3,0-0.6,0.1-0.8c-0.1-0.3-0.1-0.6-0.1-0.8v-10.4
					c0-2.4,1.9-4.3,4.2-4.5c-2.3-0.2-4.2-2.1-4.2-4.5V608c0-3.4,2.4-5.8,5.8-5.8h25c2.9,0,5.2,0.8,6.8,2.3c1.6,1.6,2.4,3.8,2.4,6.8
					v1.7c0,2.9-0.8,5.2-2.5,6.7c-1.4,1.3-3.4,2-5.9,2.2h0.1c2.8,0,5,0.8,6.5,2.5c1.3,1.5,2,3.6,2,6.4v1.6c0,2.8-0.7,5-2.2,6.5
					c-1,1.1-3,2.4-6.3,2.4H39.5L41.1,645.2z M37.6,632.2h22.2v-1.4H37.6V632.2z M37.6,612.8h21.8c0.1,0,0.2,0,0.2,0v-1.6
					c0,0,0,0,0-0.1c-0.1,0-0.1,0-0.2,0H37.6V612.8z"/>
			</g>
			<g>
				<path class="st16" d="M75.3,621.1c1.2-0.8,2.2-1.9,3.1-3.3c0.9-1.4,1.4-3.2,1.4-5.4v-4.9c0-4.2-1.1-7.5-3.4-9.8s-6-3.5-11.2-3.5
					H19.6c-1.5,0-2.2,0.8-2.2,2.3v53.1h15.7v-11.3h0.5l4.3,11.3h28.2c5.4,0,9.2-1.2,11.4-3.7c2.2-2.4,3.3-6,3.3-10.7v-4.9
					c0-2.3-0.5-4.3-1.6-5.9C78.2,623.1,76.9,621.9,75.3,621.1z M33.1,607.9c0-0.9,0.4-1.3,1.3-1.3h25c1.7,0,2.9,0.3,3.7,1
					c0.7,0.7,1.1,1.9,1.1,3.5v1.7c0,1.6-0.4,2.8-1.1,3.4c-0.7,0.7-1.9,1-3.7,1H33.1V607.9z M64.3,632.2c0,1.6-0.3,2.8-1,3.4
					c-0.6,0.7-1.6,1-3,1H33.1v-10.4h27.2c1.5,0,2.5,0.3,3.1,1s0.9,1.8,0.9,3.4C64.3,630.6,64.3,632.2,64.3,632.2z"/>
			</g>
		</g>
		<g>
			<g>
				<path class="st0" d="M100.2,654.2H86.5c-2.5,0-4.5-2-4.5-4.5v-41.8c0-2.5,2-4.5,4.5-4.5h13.8c2.5,0,4.5,2,4.5,4.5v41.8
					C104.7,652.2,102.7,654.2,100.2,654.2z M91,645.2h4.8v-32.8H91V645.2z"/>
			</g>
			<g>
				<rect x="86.5" y="607.9" class="st16" width="13.8" height="41.8"/>
			</g>
		</g>
		<g>
			<g>
				<path class="st0" d="M100.2,605.9H86.5c-2.5,0-4.5-2-4.5-4.5v-11c0-2.5,2-4.5,4.5-4.5h13.8c2.5,0,4.5,2,4.5,4.5v11
					C104.7,603.8,102.7,605.9,100.2,605.9z M91,596.9h4.8v-2H91V596.9z"/>
			</g>
			<g>
				<rect x="86.5" y="590.3" class="st16" width="13.8" height="11"/>
			</g>
		</g>
		<g>
			<g>
				<path class="st0" d="M143.8,654.2h-20.1c-3.6,0-6.8-0.5-9.4-1.5c-2.8-1-5.2-2.5-7-4.5c-1.9-2-3.2-4.3-4-7
					c-0.7-2.4-1.1-5.2-1.1-8.1v-8.6c0-2.9,0.4-5.6,1.1-8.1c0.8-2.7,2.2-5.1,4-7.1s4.2-3.5,7-4.5c2.6-1,5.8-1.5,9.4-1.5h20.1
					c3.6,0,6.8,0.5,9.4,1.4c2.8,1,5.2,2.5,7.1,4.5l0,0c1.9,2,3.2,4.3,4,7.1c0.7,2.5,1.1,5.2,1.1,8.1v8.6c0,3-0.4,5.7-1.1,8.1
					c-0.8,2.7-2.2,5.1-4,7c-1.9,2-4.2,3.5-7.1,4.5C150.5,653.7,147.4,654.2,143.8,654.2z M123.7,612.4c-2.6,0-4.7,0.3-6.3,0.9
					c-1.5,0.6-2.7,1.3-3.6,2.2s-1.5,2.1-1.9,3.4c-0.5,1.6-0.7,3.5-0.7,5.5v8.6c0,2.1,0.2,4,0.7,5.6c0.4,1.4,1,2.5,1.9,3.4
					s2.1,1.7,3.6,2.2c1.7,0.6,3.8,0.9,6.3,0.9h20.1c2.6,0,4.7-0.3,6.4-0.9c1.5-0.5,2.7-1.3,3.6-2.2c0.9-0.9,1.5-2,1.9-3.4
					c0.5-1.6,0.7-3.5,0.7-5.6v-8.6c0-2-0.2-3.9-0.7-5.5c-0.4-1.4-1-2.5-1.9-3.4s-2.1-1.7-3.6-2.2c-1.7-0.6-3.8-0.9-6.4-0.9H123.7z
					 M141.2,641.9h-15c-3.5,0-6-0.9-7.8-2.7c-1.7-1.7-2.5-4.4-2.5-8v-5.9c0-3.7,0.8-6.3,2.4-8.1c1.7-1.9,4.4-2.9,7.9-2.9h15
					c3.4,0,6,0.9,7.8,2.7s2.6,4.5,2.6,8.3v5.9c0,3.7-0.9,6.3-2.6,8.1C147.2,641.1,144.7,641.9,141.2,641.9z M125.2,633.3
					L125.2,633.3L125.2,633.3z M142.4,633.3L142.4,633.3L142.4,633.3z M125.1,632.8c0.3,0,0.6,0.1,1.2,0.1h15c0.6,0,1,0,1.2-0.1
					c0.1-0.3,0.1-0.8,0.1-1.6v-5.9c0-1-0.1-1.6-0.2-2c-0.2,0-0.6-0.1-1.2-0.1h-15c-0.5,0-0.9,0-1.1,0.1c-0.1,0.4-0.2,1-0.2,2v5.9
					C125,632,125,632.5,125.1,632.8z M142.9,632.7L142.9,632.7L142.9,632.7z"/>
			</g>
			<g>
				<path class="st16" d="M157,612.4c-1.4-1.4-3.1-2.6-5.3-3.3c-2.2-0.8-4.8-1.2-7.9-1.2h-20.1c-3.1,0-5.7,0.4-7.9,1.2
					c-2.2,0.8-3.9,1.9-5.3,3.3c-1.4,1.4-2.4,3.2-3,5.3s-0.9,4.3-0.9,6.8v8.6c0,2.5,0.3,4.8,0.9,6.8s1.6,3.8,3,5.2s3.1,2.6,5.3,3.3
					c2.2,0.8,4.8,1.2,7.9,1.2h20.1c3.1,0,5.7-0.4,7.9-1.2s4-1.9,5.3-3.3c1.4-1.4,2.4-3.2,3-5.2s0.9-4.3,0.9-6.8v-8.6
					c0-2.5-0.3-4.8-0.9-6.8C159.4,615.6,158.4,613.9,157,612.4z M147.1,631.3c0,2.4-0.4,4-1.3,4.9c-0.9,0.9-2.4,1.3-4.6,1.3h-15
					c-2.2,0-3.7-0.4-4.5-1.3c-0.8-0.9-1.3-2.5-1.3-4.9v-5.9c0-2.5,0.4-4.2,1.3-5.1c0.8-0.9,2.3-1.4,4.5-1.4h15
					c2.1,0,3.6,0.5,4.5,1.4s1.3,2.6,1.3,5.2v5.8H147.1z"/>
			</g>
		</g>
		<g>
			<g>
				<path class="st0" d="M201.5,654.2h-15.7c-2.5,0-4.5-2-4.5-4.5v-37.1h-18.5c-1.9,0-3.5-1.1-4.2-2.9l-5.1-13.2
					c-0.2-0.5-0.3-1.1-0.3-1.6v-0.6c0-2.5,2-4.5,4.5-4.5h73.4c3.9,0,6.7,2.8,6.7,6.8V611c0,1.9-1.2,3.6-2.9,4.2l-14.5,5.4
					c-0.5,0.2-1,0.3-1.6,0.3h-0.6c-2.5,0-4.5-2-4.5-4.5v-3.7H206v37.1C206,652.2,204,654.2,201.5,654.2z M190.3,645.2h6.7v-37.1
					c0-2.5,2-4.5,4.5-4.5h15.9c3,0,5.3,2.3,5.3,5.3v1.1l6.1-2.3v-9H164l1.9,4.9h19.9c2.5,0,4.5,2,4.5,4.5L190.3,645.2L190.3,645.2z"
					/>
			</g>
			<g>
				<path class="st16" d="M231.2,594.3h-73.4v0.6l5.1,13.2h23v41.6h15.6v-41.6h15.9c0.6,0,0.8,0.3,0.8,0.8v7.4h0.6l14.5-5.4v-14.4
					C233.4,595,232.7,594.3,231.2,594.3z"/>
			</g>
		</g>
		<g>
			<g>
				<path class="st0" d="M289.6,654.2h-13.8c-2.5,0-4.5-2-4.5-4.5v-24.3c0-1.1-0.1-1.7-0.2-1.9c-0.1-0.1-0.5-0.1-1.1-0.1h-13.2v26.3
					c0,2.5-2,4.5-4.5,4.5h-13.8c-2.5,0-4.5-2-4.5-4.5v-59.4c0-2.5,2-4.5,4.5-4.5h13.8c2.5,0,4.5,2,4.5,4.5v13.1h15.7
					c3.6,0,6.8,0.5,9.4,1.4c2.9,1,5.2,2.6,7.1,4.5c1.8,1.9,3.1,4.3,3.9,7c0.7,2.4,1.1,5.2,1.1,8.1v25.2
					C294.1,652.2,292.1,654.2,289.6,654.2z M280.3,645.2h4.8v-20.7c0-2.1-0.2-4-0.7-5.6c-0.4-1.4-1-2.5-1.9-3.4l0,0
					c-0.9-0.9-2-1.6-3.5-2.2c-1.7-0.6-3.8-0.9-6.4-0.9h-15.1l0.7,2H270c3.1,0,5.7,0.9,7.5,2.7c1.9,1.9,2.8,4.6,2.8,8.3L280.3,645.2
					L280.3,645.2z M242.9,645.2h4.8v-32.4c0-0.9,0.3-1.7,0.7-2.4c-0.5-0.7-0.7-1.5-0.7-2.4v-13.2h-4.8V645.2z M271,623.4L271,623.4
					L271,623.4z"/>
			</g>
			<g>
				<path class="st16" d="M285.7,612.4c-1.3-1.4-3.1-2.6-5.3-3.3c-2.2-0.8-4.8-1.2-7.9-1.2h-20.3v-17.6h-13.8v59.4h13.8v-36.9h0.5
					l2.3,6.1h14.9c1.9,0,3.4,0.5,4.4,1.4c1,1,1.5,2.7,1.5,5.1v24.3h13.8v-25.2c0-2.5-0.3-4.8-0.9-6.8
					C288.1,615.6,287.1,613.9,285.7,612.4z"/>
			</g>
		</g>
		<g>
			<g>
				<path class="st0" d="M310.1,605.9h-13.8c-2.5,0-4.5-2-4.5-4.5v-11c0-2.5,2-4.5,4.5-4.5h13.8c2.5,0,4.5,2,4.5,4.5v11
					C314.6,603.8,312.6,605.9,310.1,605.9z M300.8,596.9h4.8v-2h-4.8V596.9z"/>
			</g>
			<g>
				<rect x="296.3" y="590.3" class="st16" width="13.8" height="11"/>
			</g>
		</g>
		<g>
			<g>
				<path class="st0" d="M310.1,654.2h-13.8c-2.5,0-4.5-2-4.5-4.5v-41.8c0-2.5,2-4.5,4.5-4.5h13.8c2.5,0,4.5,2,4.5,4.5v41.8
					C314.6,652.2,312.6,654.2,310.1,654.2z M300.8,645.2h4.8v-32.8h-4.8V645.2z"/>
			</g>
			<g>
				<rect x="296.3" y="607.9" class="st16" width="13.8" height="41.8"/>
			</g>
		</g>
		<g>
			<g>
				<path class="st0" d="M368.3,654.2h-13.8c-2.5,0-4.5-2-4.5-4.5v-24.3c0-1-0.1-1.6-0.2-1.9c-0.2-0.1-0.6-0.1-1.2-0.1h-13.1v26.3
					c0,2.5-2,4.5-4.5,4.5h-13.8c-2.5,0-4.5-2-4.5-4.5v-41.8c0-2.5,2-4.5,4.5-4.5h34.1c3.6,0,6.8,0.5,9.4,1.4c2.9,1,5.2,2.5,7.1,4.5
					l0,0c1.8,1.9,3.1,4.3,3.9,7c0.7,2.4,1.1,5.2,1.1,8.1v25.2C372.8,652.2,370.8,654.2,368.3,654.2z M359.1,645.2h4.8v-20.7
					c0-2.1-0.2-4-0.7-5.6c-0.4-1.4-1-2.5-1.9-3.4l0,0c-0.9-0.9-2-1.6-3.5-2.2c-1.7-0.6-3.8-0.9-6.4-0.9h-15.1l0.7,2h11.8
					c3.3,0,6,1,7.8,2.8c1.8,1.9,2.6,4.5,2.6,8.2L359.1,645.2L359.1,645.2z M321.7,645.2h4.8v-32.4c0-0.1,0-0.2,0-0.4h-4.8V645.2z"/>
			</g>
			<g>
				<path class="st16" d="M364.5,612.4c-1.3-1.4-3.1-2.6-5.3-3.3c-2.2-0.8-4.8-1.2-7.9-1.2h-34.1v41.8H331v-36.9h0.5l2.3,6.1h14.9
					c2.1,0,3.6,0.5,4.5,1.4c0.9,1,1.4,2.7,1.4,5.1v24.3h13.8v-25.2c0-2.5-0.3-4.8-0.9-6.8C366.8,615.6,365.8,613.9,364.5,612.4z"/>
			</g>
		</g>
		<g>
			<g>
				<path class="st0" d="M408.4,671.3h-32.3c-2.5,0-4.5-2-4.5-4.5v-11.6c0-2.5,2-4.5,4.5-4.5h12.2c-6-0.4-10.4-2-13.4-4.9
					c-3.5-3.4-5.2-8.3-5.2-14.7v-6.5c0-3,0.4-5.7,1.1-8.1c0.8-2.7,2.2-5.1,4-7s4.2-3.5,7-4.5c2.6-1,5.8-1.5,9.5-1.5h30.4
					c5,0,8.3,3.3,8.3,8.3v38.8c0,2.8-0.4,5.5-1.1,7.9c-0.8,2.7-2.1,5-3.9,6.9s-4.2,3.5-7,4.5C415.4,670.8,412.1,671.3,408.4,671.3z
					 M380.6,662.3h27.8c2.7,0,4.9-0.3,6.5-0.9c1.5-0.5,2.7-1.3,3.5-2.1c0.8-0.9,1.4-2,1.8-3.3c0.5-1.6,0.7-3.4,0.7-5.4v-38.1h-29.7
					c-2.6,0-4.8,0.3-6.4,0.9c-1.5,0.6-2.7,1.3-3.6,2.2s-1.5,2.1-1.9,3.4c-0.5,1.6-0.7,3.5-0.7,5.6v6.5c0,3.8,0.8,6.6,2.5,8.2
					c1.2,1.1,3.9,2.5,10.1,2.5H405l-0.8-2.1h-10.4c-3.4,0-5.9-0.8-7.7-2.5c-1.8-1.7-2.7-4.3-2.7-8v-3.9c0-3.7,0.9-6.4,2.6-8.2
					c1.8-1.8,4.4-2.8,7.8-2.8h16.4c3.4,0,5.8,2.4,5.8,5.8v24.6c0,0.3,0,0.5-0.1,0.8c0,0.2,0.1,0.5,0.1,0.8v3.3
					c0,3.1-0.8,5.5-2.3,7.2c-1.7,1.9-4.2,2.8-7.5,2.8h-25.7v2.7H380.6z M407,651L407,651L407,651z M392.6,630.5
					c0.3,0,0.7,0.1,1.3,0.1h13.2v-7.3h-13.2c-0.6,0-1,0.1-1.3,0.1c-0.1,0.3-0.2,0.9-0.2,1.9v3.9
					C392.5,629.8,392.5,630.3,392.6,630.5z M392.7,623.2L392.7,623.2L392.7,623.2z"/>
			</g>
			<g>
				<path class="st16" d="M421.7,607.9h-30.4c-3.1,0-5.8,0.4-8,1.2s-3.9,1.9-5.3,3.3c-1.4,1.4-2.4,3.2-3,5.2s-0.9,4.3-0.9,6.8v6.5
					c0,5.1,1.3,8.9,3.9,11.5c2.6,2.5,7,3.8,13.2,3.8h20.3v3.3c0,1.9-0.4,3.3-1.2,4.2c-0.8,0.9-2.2,1.3-4.1,1.3H376v11.8h32.3
					c3.2,0,5.9-0.4,8.1-1.2s3.9-1.9,5.3-3.3c1.3-1.4,2.3-3.1,2.9-5.1s0.9-4.2,0.9-6.7v-38.8C425.5,609.2,424.2,607.9,421.7,607.9z
					 M411.6,644.7h-0.5l-3.7-9.6h-13.5c-2.2,0-3.7-0.4-4.6-1.3c-0.9-0.8-1.3-2.4-1.3-4.7v-3.9c0-2.4,0.5-4.1,1.4-5.1
					c0.9-0.9,2.4-1.4,4.6-1.4h16.4c0.9,0,1.3,0.4,1.3,1.3L411.6,644.7L411.6,644.7z"/>
			</g>
		</g>
		<g>
			<g>
				<path class="st0" d="M470.2,654.2h-38.4c-2.5,0-4.5-2-4.5-4.5V638c0-2.5,2-4.5,4.5-4.5h1.5c-1.2-0.7-2.2-1.5-3.1-2.5
					c-2.3-2.6-3.4-5.9-3.4-9.9v-3.3c0-4.2,1.3-7.7,3.8-10.3c2.6-2.7,6.4-4,11.5-4h37.7c3.8,0,6.4,2.6,6.4,6.4v9.4
					c0,1.9-1.2,3.6-2.9,4.2l-1.5,0.6c0.8,0.5,1.4,1.2,2,1.9c1.2,1.4,2,3.1,2.4,5c0.4,1.5,0.5,3.3,0.5,5.3v3.1
					c0,4.5-1.3,8.2-3.9,10.9C480.2,652.8,476,654.2,470.2,654.2z M436.4,645.2h33.9c4.4,0,5.8-1,6.1-1.4c0.9-1,1.4-2.5,1.4-4.6v-3.1
					c0-1.3-0.1-2.4-0.3-3.3c-0.1-0.5-0.3-0.9-0.5-1.2l0,0c-0.3-0.3-0.7-0.6-1.2-0.8s-1.4-0.5-3-0.6l-2.1-0.2c0.4,0.3,0.7,0.7,1,1
					c0.8,1.1,1.2,2.4,1.2,3.9v0.9c0,1.9-0.6,3.5-1.7,4.7c-1.2,1.3-2.9,1.9-5,1.9h-29.7L436.4,645.2L436.4,645.2z M466.3,637.6
					L466.3,637.6L466.3,637.6z M442.1,612.4c-2.4,0-4.2,0.4-5,1.2c-0.3,0.3-1.3,1.3-1.3,4.1v3.3c0,1.8,0.4,3.1,1.2,3.9
					c0.9,1,2.7,1.4,4.1,1.5l2,0.2c-0.3-0.2-0.6-0.4-0.9-0.6c-1.2-1.1-1.8-2.7-1.8-4.7v-1.1c0-2.4,1-3.9,1.8-4.7
					c1.2-1.2,2.8-1.8,4.8-1.8h21.8c2.3,0,4.3,1.5,4.8,3.7l3.6-1.3v-3.6h-35.1V612.4z"/>
			</g>
			<g>
				<path class="st16" d="M480.3,628.7c-0.7-0.8-1.6-1.5-2.8-2c-1.2-0.5-2.6-0.8-4.4-1l-26.6-2.6c-0.6-0.1-1-0.3-1.3-0.5
					c-0.2-0.2-0.3-0.7-0.3-1.4v-1.1c0-0.7,0.2-1.2,0.5-1.5s0.8-0.5,1.6-0.5h21.8c0.4,0,0.5,0.2,0.5,0.6v4.8h0.5l11.9-4.4v-9.3
					c0-1.3-0.6-1.9-1.9-1.9h-37.7c-3.8,0-6.5,0.9-8.2,2.6c-1.7,1.8-2.5,4.1-2.5,7.2v3.3c0,2.9,0.8,5.2,2.3,6.9s3.9,2.7,7.1,3l26,2.2
					c0.6,0.1,1,0.2,1.2,0.5s0.3,0.7,0.3,1.3v0.9c0,0.8-0.2,1.3-0.5,1.6s-0.9,0.5-1.7,0.5h-34.2v11.7h38.4c4.5,0,7.6-0.9,9.3-2.7
					c1.8-1.8,2.6-4.4,2.6-7.8V636c0-1.6-0.1-3-0.4-4.3C481.5,630.6,481,629.5,480.3,628.7z"/>
			</g>
		</g>
		<g>
			<g>
				<path class="st0" d="M584.1,654.2h-61.3c-3.9,0-6.7-2.8-6.7-6.8v-50.8c0-4,2.8-6.8,6.7-6.8h59.5c4,0,6.8,2.8,6.8,6.8V611
					c0,1.9-1.2,3.6-2.9,4.2l-14.5,5.4c-0.5,0.2-1,0.3-1.6,0.3h-0.6c-1.1,0-2-0.4-2.8-1v7.5c0,1.4-0.6,2.6-1.6,3.4h19
					c2.5,0,4.5,2,4.5,4.5v14.4C588.6,652.2,586.6,654.2,584.1,654.2z M525.1,645.2h54.5v-5.4h-42.2c-3.2,0-5.6-2.4-5.6-5.6v-16.6
					c0-0.3,0-0.5,0.1-0.8c0-0.2-0.1-0.5-0.1-0.8v-6.9c0-1,0.3-2,0.7-2.9c0.9-1.7,2.7-2.7,4.7-2.7h31.4c3,0,5.3,2.3,5.3,5.3v1.1
					l6.1-2.3v-9h-55L525.1,645.2L525.1,645.2z M543.6,622.9h14.1v-2.3h-14.9L543.6,622.9z M582.3,598.8L582.3,598.8v-4.5V598.8z"/>
			</g>
			<g>
				<path class="st16" d="M582.3,594.3h-59.5c-1.5,0-2.2,0.8-2.2,2.3v50.8c0,1.5,0.7,2.3,2.2,2.3h61.3v-14.4h-46.7
					c-0.7,0-1.1-0.4-1.1-1.1v-16.6h0.5l3.7,9.7h21.7V616h-25.9v-6.9c0-0.3,0.1-0.5,0.2-0.7c0.1-0.2,0.4-0.3,0.8-0.3h31.4
					c0.5,0,0.8,0.3,0.8,0.8v7.4h0.6l14.5-5.4v-14.4C584.6,595,583.9,594.3,582.3,594.3z"/>
			</g>
		</g>
		<g>
			<g>
				<path class="st0" d="M649.3,654.2h-16.6c-1.2,0-2.4-0.5-3.2-1.3l-10.9-11.1l-11.1,11.1c-0.8,0.8-2,1.3-3.2,1.3h-16.1
					c-2.5,0-4.5-2-4.5-4.5v-0.6c0-1.2,0.5-2.4,1.4-3.2l18.8-18l-16.8-16c-0.9-0.8-1.4-2-1.4-3.3V608c0-2.5,2-4.5,4.5-4.5h16.5
					c1.2,0,2.4,0.5,3.2,1.3l9.3,9.4l10.2-9.6c0.8-0.8,1.9-1.2,3.1-1.2h15.8c2.5,0,4.5,2,4.5,4.5v0.6c0,1.3-0.5,2.4-1.4,3.3l-17.2,16
					l18.3,18.1c0.9,0.8,1.3,2,1.3,3.2v0.6C653.8,652.2,651.8,654.2,649.3,654.2z M634.6,645.2h4.4l-14.5-14.3
					c-0.9-0.9-1.4-2-1.3-3.3c0-1.2,0.5-2.4,1.4-3.2l12.9-12h-3.2l-12.1,11.3c-1.8,1.7-4.6,1.6-6.3-0.1l-11.1-11.2h-4l12.7,12.1
					c0.9,0.8,1.4,2,1.4,3.3c0,1.2-0.5,2.4-1.4,3.3l-14.8,14.2h3.7l13-13c0.8-0.8,2-1.3,3.2-1.3s2.3,0.5,3.2,1.3L634.6,645.2z"/>
			</g>
			<g>
				<polygon class="st16" points="648.3,608.5 648.3,607.9 632.5,607.9 619.1,620.5 606.7,607.9 590.2,607.9 590.2,608.5 
					610.4,627.8 588.2,649.1 588.2,649.7 604.3,649.7 618.6,635.4 632.7,649.7 649.3,649.7 649.3,649.1 627.6,627.7 				"/>
			</g>
		</g>
		<g>
			<g>
				<path class="st0" d="M667.7,671.3h-13.8c-2.5,0-4.5-2-4.5-4.5v-54.5c0-5.4,3.4-8.9,8.5-8.9H688c3.6,0,6.8,0.5,9.4,1.4
					c2.9,1,5.2,2.5,7.1,4.5l0,0c1.8,2,3.1,4.3,4,7c0.7,2.5,1.1,5.2,1.1,8.1v8.6c0,3-0.4,5.7-1.1,8.1c-0.8,2.7-2.1,5-3.9,7
					c-1.8,2-4.2,3.5-7.1,4.5c-2.7,1-5.8,1.4-9.4,1.4h-15.5c-0.1,0-0.1,0-0.2,0v12.8C672.2,669.3,670.1,671.3,667.7,671.3z
					 M658.3,662.3h4.8V639c0-0.2,0-0.4,0-0.6c-0.1-0.3-0.1-0.7-0.1-1v-17c0-4,2.9-6,5.7-6h16.5c3.5,0,6.1,1,7.9,2.9
					c1.7,1.8,2.5,4.5,2.5,8.2v5.9c0,3.7-0.9,6.3-2.6,8.1c-1.8,1.8-4.3,2.6-7.7,2.6h-11.2l1.3,3.3h12.5c2.6,0,4.7-0.3,6.4-0.9
					c1.5-0.5,2.7-1.3,3.5-2.2c0.9-0.9,1.5-2.1,1.9-3.4c0.5-1.6,0.7-3.5,0.7-5.6v-8.6c0-2-0.2-3.9-0.7-5.5c-0.4-1.4-1-2.5-1.9-3.5
					l0,0c-0.9-0.9-2-1.6-3.5-2.2c-1.7-0.6-3.8-0.9-6.4-0.9h-29.6L658.3,662.3L658.3,662.3z M686.4,633.3L686.4,633.3L686.4,633.3z
					 M672.1,632.9h13.2c0.6,0,1,0,1.2-0.1c0.1-0.3,0.1-0.8,0.1-1.6v-5.9c0-1-0.1-1.6-0.2-2c-0.2,0-0.6-0.1-1.2-0.1H672v9.7H672.1z"
					/>
			</g>
			<g>
				<path class="st16" d="M701.1,612.4c-1.3-1.4-3.1-2.6-5.3-3.3c-2.2-0.8-4.8-1.2-7.9-1.2h-30.1c-2.7,0-4,1.5-4,4.4v54.5h13.8V639
					h0.5l4.2,10.7h15.5c3.1,0,5.7-0.4,7.9-1.2s3.9-1.9,5.3-3.3c1.3-1.4,2.3-3.2,2.9-5.2c0.6-2,0.9-4.3,0.9-6.8v-8.6
					c0-2.5-0.3-4.8-0.9-6.8S702.4,613.9,701.1,612.4z M691.2,631.3c0,2.4-0.4,4-1.3,4.9c-0.9,0.9-2.4,1.3-4.6,1.3h-17.7v-17
					c0-1,0.4-1.5,1.2-1.5h16.5c2.2,0,3.7,0.5,4.6,1.4c0.9,0.9,1.3,2.7,1.3,5.1V631.3z"/>
			</g>
		</g>
		<g>
			<g>
				<path class="st0" d="M725.1,654.2h-13.8c-2.5,0-4.5-2-4.5-4.5v-59.4c0-2.5,2-4.5,4.5-4.5h13.8c2.5,0,4.5,2,4.5,4.5v59.4
					C729.6,652.2,727.6,654.2,725.1,654.2z M715.8,645.2h4.8v-50.4h-4.8V645.2z"/>
			</g>
			<g>
				<rect x="711.3" y="590.3" class="st16" width="13.8" height="59.4"/>
			</g>
		</g>
		<g>
			<g>
				<path class="st0" d="M768.6,654.2h-20.1c-3.6,0-6.8-0.5-9.4-1.5c-2.8-1-5.2-2.5-7-4.5c-1.9-2-3.2-4.3-4-7
					c-0.7-2.4-1.1-5.2-1.1-8.1v-8.6c0-2.9,0.4-5.6,1.1-8.1c0.8-2.7,2.2-5.1,4-7.1c1.9-2,4.2-3.5,7-4.5c2.6-1,5.8-1.5,9.4-1.5h20.1
					c3.6,0,6.8,0.5,9.4,1.4c2.8,1,5.2,2.5,7.1,4.5l0,0c1.9,2,3.2,4.3,4,7.1c0.7,2.5,1.1,5.2,1.1,8.1v8.6c0,3-0.4,5.7-1.1,8.1
					c-0.8,2.7-2.2,5.1-4,7c-1.9,2-4.2,3.5-7.1,4.5C775.4,653.7,772.3,654.2,768.6,654.2z M748.6,612.4c-2.6,0-4.7,0.3-6.3,0.9
					c-1.5,0.6-2.7,1.3-3.6,2.2c-0.9,0.9-1.5,2.1-1.9,3.4c-0.5,1.6-0.7,3.5-0.7,5.5v8.6c0,2.1,0.2,4,0.7,5.6c0.4,1.4,1,2.5,1.9,3.4
					s2.1,1.7,3.6,2.2c1.7,0.6,3.8,0.9,6.3,0.9h20.1c2.6,0,4.7-0.3,6.4-0.9c1.5-0.5,2.7-1.3,3.6-2.2c0.9-0.9,1.5-2,1.9-3.4
					c0.5-1.6,0.7-3.5,0.7-5.6v-8.6c0-2-0.2-3.9-0.7-5.5c-0.4-1.4-1-2.5-1.9-3.4s-2.1-1.7-3.6-2.2c-1.7-0.6-3.8-0.9-6.4-0.9H748.6z
					 M766.1,641.9h-15c-3.5,0-6-0.9-7.8-2.7c-1.7-1.7-2.5-4.4-2.5-8v-5.9c0-3.7,0.8-6.3,2.4-8.1c1.7-1.9,4.4-2.9,7.9-2.9h15
					c3.4,0,6,0.9,7.8,2.7s2.6,4.5,2.6,8.3v5.9c0,3.7-0.9,6.3-2.6,8.1C772.1,641.1,769.6,641.9,766.1,641.9z M750.1,633.3
					L750.1,633.3L750.1,633.3z M767.3,633.3L767.3,633.3L767.3,633.3z M750,632.8c0.3,0,0.6,0.1,1.2,0.1h15c0.6,0,1,0,1.2-0.1
					c0.1-0.3,0.1-0.8,0.1-1.6v-5.9c0-1-0.1-1.6-0.2-2c-0.2,0-0.6-0.1-1.2-0.1h-15c-0.5,0-0.9,0-1.1,0.1c-0.1,0.4-0.2,1-0.2,2v5.9
					C749.9,632,749.9,632.5,750,632.8z M767.8,632.7L767.8,632.7L767.8,632.7z M749.6,623.5L749.6,623.5L749.6,623.5z"/>
			</g>
			<g>
				<path class="st16" d="M781.9,612.4c-1.4-1.4-3.1-2.6-5.3-3.3c-2.2-0.8-4.8-1.2-7.9-1.2h-20.1c-3.1,0-5.7,0.4-7.9,1.2
					s-3.9,1.9-5.3,3.3c-1.4,1.4-2.4,3.2-3,5.3s-0.9,4.3-0.9,6.8v8.6c0,2.5,0.3,4.8,0.9,6.8c0.6,2,1.6,3.8,3,5.2s3.1,2.6,5.3,3.3
					c2.2,0.8,4.8,1.2,7.9,1.2h20.1c3.1,0,5.7-0.4,7.9-1.2s4-1.9,5.3-3.3c1.4-1.4,2.4-3.2,3-5.2s0.9-4.3,0.9-6.8v-8.6
					c0-2.5-0.3-4.8-0.9-6.8S783.3,613.9,781.9,612.4z M772,631.3c0,2.4-0.4,4-1.3,4.9c-0.9,0.9-2.4,1.3-4.6,1.3h-15
					c-2.2,0-3.7-0.4-4.5-1.3c-0.8-0.9-1.3-2.5-1.3-4.9v-5.9c0-2.5,0.4-4.2,1.3-5.1c0.8-0.9,2.3-1.4,4.5-1.4h15
					c2.1,0,3.6,0.5,4.5,1.4s1.3,2.6,1.3,5.2L772,631.3L772,631.3z"/>
			</g>
		</g>
		<g>
			<g>
				<path class="st0" d="M805.7,654.2h-13.8c-2.5,0-4.5-2-4.5-4.5v-30.1c0-4.7,1.3-8.5,3.9-11.5c2.7-3.1,6.9-4.7,12.3-4.7h33.9
					c3.8,0,6.5,2.7,6.5,6.6v10.8c0,1.9-1.2,3.5-2.9,4.2l-12.2,4.6c-0.5,0.2-1.1,0.3-1.6,0.3h-0.6c-2.5,0-4.5-2-4.5-4.5v-2h-11.9
					v26.3C810.2,652.2,808.2,654.2,805.7,654.2z M796.4,645.2h4.8v-22.6c0-2.5,0.6-4.5,1.9-5.9c1-1.1,2.8-2.3,5.9-2.3h16.8
					c2.8,0,5,2,5.2,4.8l3.8-1.5v-5.3h-31.3c-2.7,0-4.5,0.6-5.5,1.6c-1.1,1.3-1.7,3.1-1.7,5.6L796.4,645.2L796.4,645.2z"/>
			</g>
			<g>
				<path class="st16" d="M837.4,607.9h-33.9c-4.1,0-7,1.1-8.9,3.2c-1.9,2.1-2.8,5-2.8,8.5v30.1h13.8v-27.1c0-1.4,0.3-2.3,0.8-2.9
					c0.5-0.6,1.4-0.8,2.6-0.8h16.8c0.5,0,0.8,0.3,0.8,0.8v5.7h0.6l12.2-4.6V610C839.4,608.6,838.8,607.9,837.4,607.9z"/>
			</g>
		</g>
		<g>
			<g>
				<path class="st0" d="M892.7,654.2h-32.3c-3.6,0-6.8-0.5-9.4-1.5c-2.8-1-5.2-2.5-7-4.5c-1.9-2-3.2-4.3-4-7
					c-0.7-2.4-1.1-5.2-1.1-8.1v-8.6c0-3,0.4-5.7,1.1-8.1c0.8-2.7,2.2-5.1,4-7c1.9-2,4.2-3.5,7-4.5c2.6-1,5.8-1.5,9.4-1.5h24.1
					c4.6,0,8.1,1.4,10.3,4.1c2.1,2.5,3.1,6,3.1,10.6v4c0,4.1-1,7.5-3,10.1c-0.5,0.6-1.1,1.3-1.8,1.9c2.3,0.2,4.1,2.1,4.1,4.5v11.1
					C897.2,652.2,895.2,654.2,892.7,654.2z M860.4,612.4c-2.6,0-4.7,0.3-6.3,0.9c-1.5,0.5-2.7,1.3-3.6,2.2c-0.9,0.9-1.5,2.1-1.9,3.4
					c-0.5,1.6-0.7,3.5-0.7,5.6v8.6c0,2.1,0.2,4,0.7,5.6c0.4,1.4,1,2.5,1.9,3.4s2.1,1.7,3.6,2.2c1.7,0.6,3.8,0.9,6.3,0.9h27.8v-2.1
					h-25.3c-3.6,0-6.2-0.9-7.9-2.8c-1.6-1.8-2.4-4.4-2.4-7.9v-6.5c0-0.4,0-0.7,0.1-1c-0.1-0.3-0.1-0.7-0.1-1v-0.2
					c0-3.5,0.8-6.1,2.6-7.9c1.7-1.8,4.3-2.7,7.7-2.7h15.2c2.5,0,4,0.9,4.8,1.7c0.9,0.9,2,2.4,2,5.1v1.5c0,3-1.5,5.4-4,6.4h3.4
					c1.2,0,2.7-0.2,3.3-0.9c0.8-1,1.2-2.6,1.2-4.7v-4c0-3.3-0.7-4.5-1-4.9c-0.4-0.5-1.7-0.8-3.4-0.8L860.4,612.4L860.4,612.4z"/>
			</g>
			<g>
				<path class="st16" d="M884.5,607.9h-24.1c-3.1,0-5.7,0.4-7.9,1.2s-3.9,1.9-5.3,3.3c-1.4,1.4-2.4,3.2-3,5.2s-0.9,4.3-0.9,6.8v8.6
					c0,2.5,0.3,4.8,0.9,6.8c0.6,2,1.6,3.8,3,5.2s3.1,2.6,5.3,3.3c2.2,0.8,4.8,1.2,7.9,1.2h32.3v-11.1h-29.8c-2.2,0-3.8-0.4-4.6-1.3
					c-0.8-0.9-1.2-2.5-1.2-4.9v-6.5h0.5l2.4,6.4h24.5c3.2,0,5.5-0.9,6.9-2.7s2.1-4.3,2.1-7.4v-4c0-3.5-0.7-6.1-2.1-7.7
					C890,608.7,887.7,607.9,884.5,607.9z M880.5,621.4c0,1.6-0.8,2.4-2.4,2.4h-21v-0.2c0-2.3,0.4-3.9,1.3-4.8s2.4-1.3,4.5-1.3h15.2
					c0.8,0,1.4,0.2,1.8,0.5c0.4,0.4,0.6,1,0.6,1.8L880.5,621.4L880.5,621.4z"/>
			</g>
		</g>
		<g>
			<g>
				<path class="st0" d="M912.8,654.2H899c-2.5,0-4.5-2-4.5-4.5v-30.1c0-4.7,1.3-8.5,3.9-11.5c2.7-3.1,6.9-4.7,12.3-4.7h33.8
					c3.8,0,6.5,2.7,6.5,6.6v10.8c0,1.9-1.2,3.5-2.9,4.2l-12.2,4.6c-0.5,0.2-1.1,0.3-1.6,0.3h-0.6c-2.5,0-4.5-2-4.5-4.5v-2h-11.9
					v26.3C917.3,652.2,915.3,654.2,912.8,654.2z M903.5,645.2h4.8v-22.6c0-2.5,0.6-4.5,1.9-5.9c1.4-1.5,3.4-2.3,5.9-2.3h16.8
					c2.8,0,5,2,5.2,4.8l3.8-1.5v-5.3h-31.3c-2.7,0-4.5,0.6-5.5,1.6c-1.1,1.3-1.7,3.1-1.7,5.6L903.5,645.2L903.5,645.2z"/>
			</g>
			<g>
				<path class="st16" d="M944.5,607.9h-33.9c-4.1,0-7,1.1-8.9,3.2c-1.9,2.1-2.8,5-2.8,8.5v30.1h13.8v-27.1c0-1.4,0.3-2.3,0.8-2.9
					c0.5-0.6,1.4-0.8,2.6-0.8h16.8c0.5,0,0.8,0.3,0.8,0.8v5.7h0.6l12.2-4.6V610C946.5,608.6,945.8,607.9,944.5,607.9z"/>
			</g>
		</g>
	</g>
</g>
</svg>
