<?xml version="1.0" encoding="utf-8"?>
<!-- Generator: Adobe Illustrator 25.0.0, SVG Export Plug-In . SVG Version: 6.00 Build 0)  -->
<svg version="1.1" id="Layer_1" xmlns="http://www.w3.org/2000/svg" xmlns:xlink="http://www.w3.org/1999/xlink" x="0px" y="0px"
	 viewBox="0 0 1024 768" style="enable-background:new 0 0 1024 768;" xml:space="preserve">
<path style="fill:#FFFFFF;" d="M986.98,625.41c-16.87,0-34.07,17-45.21,8.73c-1.2-0.89,0.26-2.98,0.26-4.49
	c0-33.37-41.72-60.43-93.17-60.43c-31.95,0-60.14,10.43-76.93,26.33c-14.02-18.19-41.68-30.57-73.52-30.57
	c-5.89,0-11.64,0.43-17.19,1.23c-29.13-25.02-46.5-62.77-136.4-62.77c-80.1,0-109.74,69.88-150.34,79.71
	c-27.4,6.63-19.66-38.84-96.81-43.74c-70.11-4.46-107.06,65.63-137.64,84.89c-17.08,10.76-41.63-6.84-64.74-6.84
	c-35.92,0-68.98,5.91-95.29,15.84v18.76v100.11V768h1024v-54.93v-61.01v-21.01C1013,627.45,1000.39,625.41,986.98,625.41z"/>
<path style="opacity:0.56;fill:#3F84BB;" d="M979.93,516.53h-23.82v-23.82c0-5.25-4.26-9.51-9.51-9.51h-12.41
	c-5.25,0-9.51,4.26-9.51,9.51v23.82h-23.82c-5.25,0-9.51,4.26-9.51,9.51v12.41c0,5.25,4.26,9.51,9.51,9.51h23.82v23.82
	c0,5.25,4.26,9.51,9.51,9.51h12.41c5.25,0,9.51-4.26,9.51-9.51v-23.82h23.82c5.25,0,9.51-4.26,9.51-9.51v-12.41
	C989.43,520.78,985.18,516.53,979.93,516.53z"/>
<path style="opacity:0.72;fill:#3F84BB;" d="M341.95,365.14h-11.91v-11.91c0-2.63-2.13-4.75-4.75-4.75h-6.2
	c-2.63,0-4.75,2.13-4.75,4.75v11.91h-11.91c-2.63,0-4.75,2.13-4.75,4.75v6.2c0,2.63,2.13,4.75,4.75,4.75h11.91v11.91
	c0,2.63,2.13,4.75,4.75,4.75h6.2c2.63,0,4.75-2.13,4.75-4.75v-11.91h11.91c2.63,0,4.75-2.13,4.75-4.75v-6.2
	C346.71,367.27,344.58,365.14,341.95,365.14z"/>
<path style="opacity:0.64;fill:#3F84BB;" d="M687.49,460.73h-11.91v-11.91c0-2.63-2.13-4.75-4.75-4.75h-6.2
	c-2.63,0-4.75,2.13-4.75,4.75v11.91h-11.91c-2.63,0-4.75,2.13-4.75,4.75v6.2c0,2.63,2.13,4.75,4.75,4.75h11.91v11.91
	c0,2.63,2.13,4.75,4.75,4.75h6.2c2.63,0,4.75-2.13,4.75-4.75v-11.91h11.91c2.63,0,4.75-2.13,4.75-4.75v-6.2
	C692.25,462.86,690.12,460.73,687.49,460.73z"/>
<path style="opacity:0.27;fill:#3F84BB;" d="M116.17,514.58h-15.35v-15.35c0-3.38-2.74-6.13-6.13-6.13h-7.99
	c-3.38,0-6.13,2.74-6.13,6.13v15.35H65.23c-3.38,0-6.13,2.74-6.13,6.13v7.99c0,3.38,2.74,6.13,6.13,6.13h15.35v15.35
	c0,3.38,2.74,6.13,6.13,6.13h7.99c3.38,0,6.13-2.74,6.13-6.13v-15.35h15.35c3.38,0,6.13-2.74,6.13-6.13v-7.99
	C122.3,517.32,119.56,514.58,116.17,514.58z"/>
</svg>
