<?xml version="1.0" encoding="utf-8"?>
<!-- Generator: Adobe Illustrator 22.1.0, SVG Export Plug-In . SVG Version: 6.00 Build 0)  -->
<svg version="1.1" id="Layer_1" xmlns="http://www.w3.org/2000/svg" xmlns:xlink="http://www.w3.org/1999/xlink" x="0px" y="0px"
	 viewBox="0 0 475 495" style="enable-background:new 0 0 475 495;" xml:space="preserve">
<style type="text/css">
	.st0{fill:#B2E3F5;stroke:#3F85BB;stroke-width:4;stroke-linejoin:round;stroke-miterlimit:10;}
	.st1{fill:#E4F2FC;stroke:#3F85BB;stroke-width:4;stroke-linejoin:round;stroke-miterlimit:10;}
	.st2{fill:#3F85BB;stroke:#3F85BB;stroke-width:4;stroke-linejoin:round;stroke-miterlimit:10;}
	.st3{fill:#3F85BB;}
</style>
<polygon class="st0" points="394,477 10.2,477 10.2,91.9 393.3,91.9 "/>
<polygon class="st1" points="393.3,91.9 463.3,22.7 94.7,22.7 10.2,91.9 "/>
<polygon class="st2" points="393.3,91.9 462.6,22 462.6,395.2 394,477 "/>
<g>
	<path class="st3" d="M304.4,132.2c0,5-1.7,9.2-5.1,12.6c-3.4,3.5-7.6,5.2-12.5,5.2h-37.6c-29.6,0-56.4,10.4-80.4,31.1
		c-23.9,20.7-38.2,45.9-42.8,75.4h175.9v12.2c0,43.1-15.8,82-47.4,116.6c-32.2,35.6-69.7,53.4-112.4,53.4c-4.2,0-10.4,0-18.6,0
		c-8.5-0.3-15-0.5-19.5-0.5c-4.6,0-8.5-1.7-11.7-5.1c-3.3-3.4-4.9-7.6-4.9-12.5c0-4.9,1.7-9,5.1-12.5c3.4-3.4,7.6-5.1,12.5-5.1
		c4.2,0,10.4,0,18.6,0c8.1,0,14.3,0,18.6,0c29.6,0,56.2-11.1,79.6-33.2c23.5-22.1,37.6-48,42.5-77.7H89.4v-17.6
		c0-42.8,16-80.2,47.9-112.2c31.9-32,69.2-48,111.9-48h37.6c4.9,0,9,1.7,12.5,5.2C302.7,123,304.4,127.2,304.4,132.2z"/>
</g>
</svg>
