<?xml version="1.0" encoding="utf-8"?>
<!-- Generator: Adobe Illustrator 27.8.1, SVG Export Plug-In . SVG Version: 6.00 Build 0)  -->
<svg version="1.1" id="Layer_1" xmlns="http://www.w3.org/2000/svg" xmlns:xlink="http://www.w3.org/1999/xlink" x="0px" y="0px"
	 viewBox="0 0 200 200" style="enable-background:new 0 0 200 200;" xml:space="preserve">
<style type="text/css">
	.st0{fill:url(#SVGID_1_);}
	.st1{fill:url(#SVGID_00000058556741912510401380000008676543810294307505_);}
	.st2{fill:#2F81C1;}
	.st3{fill:#3A3A3A;}
	.st4{fill:#4859A3;}
	.st5{fill:none;stroke:#ED5F92;stroke-width:3;stroke-linecap:round;stroke-miterlimit:10;}
	.st6{fill:#F4F4F4;}
	.st7{fill:none;stroke:#959DA0;stroke-width:4;stroke-linecap:round;stroke-miterlimit:10;}
</style>
<linearGradient id="SVGID_1_" gradientUnits="userSpaceOnUse" x1="18.0566" y1="184.1203" x2="174.9434" y2="15.8797" gradientTransform="matrix(1 0 0 -1 0 202)">
	<stop  offset="2.554087e-02" style="stop-color:#AAE1F9"/>
	<stop  offset="1" style="stop-color:#2F81C1"/>
</linearGradient>
<rect x="19" y="17" class="st0" width="155" height="170"/>
<linearGradient id="SVGID_00000115498734209879460420000016854508399134905234_" gradientUnits="userSpaceOnUse" x1="63.3227" y1="226.3316" x2="136.6773" y2="147.6684" gradientTransform="matrix(1 0 0 -1 0 202)">
	<stop  offset="0" style="stop-color:#2F81C1"/>
	<stop  offset="0.9745" style="stop-color:#AAE1F9"/>
</linearGradient>
<polygon style="fill:url(#SVGID_00000115498734209879460420000016854508399134905234_);" points="19,17 27,13 181,13 174,17 "/>
<polygon class="st2" points="181,13 174,17 174,187 181,180 "/>
<rect x="25" y="23" class="st3" width="144" height="159"/>
<path class="st4" d="M88.8,170.7h-33c-6,0-10.9-4.9-10.9-10.9l0,0c0-6,4.9-10.9,10.9-10.9h33c6,0,10.9,4.9,10.9,10.9l0,0
	C99.7,165.9,94.8,170.7,88.8,170.7z"/>
<g>
	<path class="st2" d="M33.8,43.3c2.5,0,2.8-1.3,2.8-2.6c0-1-0.1-1.9-0.3-2.9c-0.1-1-0.3-1.9-0.3-2.9c0-3.2,2.1-4.5,5-4.5h0.7v1.9
		h-0.6c-2,0-2.7,1.1-2.7,3c0,0.8,0.1,1.6,0.2,2.5c0.1,0.9,0.2,1.7,0.2,2.6c0,2.2-0.9,3.3-2.5,3.7v0.1c1.6,0.4,2.5,1.6,2.5,3.8
		c0,0.9-0.1,1.8-0.2,2.6c-0.1,0.9-0.2,1.7-0.2,2.5c0,1.9,0.8,3,2.7,3h0.6V58H41c-2.9,0-5-1.2-5-4.7c0-0.9,0.1-1.9,0.3-2.8
		c0.1-0.9,0.3-1.9,0.3-2.8c0-1.1-0.3-2.6-2.8-2.6V43.3z"/>
	<path class="st2" d="M41.7,128.1c-2.5,0-2.8,1.5-2.8,2.6c0,0.9,0.1,1.9,0.3,2.8c0.1,0.9,0.3,1.9,0.3,2.8c0,3.5-2.2,4.7-5,4.7h-0.7
		v-1.9h0.6c1.9,0,2.8-1.1,2.8-3c0-0.8-0.1-1.6-0.2-2.5c-0.1-0.8-0.3-1.7-0.3-2.6c0-2.2,1-3.4,2.5-3.8v-0.1c-1.5-0.4-2.5-1.5-2.5-3.7
		c0-0.9,0.1-1.8,0.3-2.6c0.1-0.8,0.2-1.7,0.2-2.5c0-1.9-0.7-2.9-2.7-3h-0.6v-1.9h0.7c2.9,0,5,1.3,5,4.5c0,1-0.1,1.9-0.3,2.9
		c-0.1,1-0.3,1.9-0.3,2.9c0,1.2,0.3,2.6,2.8,2.6L41.7,128.1L41.7,128.1z"/>
</g>
<line class="st5" x1="43" y1="64.5" x2="111.5" y2="64.5"/>
<line class="st5" x1="43" y1="77.5" x2="111.5" y2="77.5"/>
<line class="st5" x1="43" y1="91.5" x2="111.5" y2="91.5"/>
<line class="st5" x1="43" y1="105.5" x2="111.5" y2="105.5"/>
<rect x="122" y="23" class="st6" width="47" height="159"/>
<g>
	<line class="st7" x1="126" y1="28" x2="164" y2="28"/>
	<line class="st7" x1="126.1" y1="42.8" x2="160" y2="42.8"/>
	<line class="st7" x1="136.2" y1="57.6" x2="160" y2="57.6"/>
	<line class="st7" x1="143.3" y1="72.4" x2="157" y2="72.4"/>
	<line class="st7" x1="135.4" y1="87.2" x2="161" y2="87.2"/>
	<line class="st7" x1="126.5" y1="102" x2="164" y2="102"/>
	<line class="st7" x1="126.6" y1="116.8" x2="164" y2="116.8"/>
	<line class="st7" x1="126.7" y1="131.6" x2="164" y2="131.6"/>
	<line class="st7" x1="140.8" y1="146.4" x2="164" y2="146.4"/>
	<line class="st7" x1="137.9" y1="161.2" x2="164" y2="161.2"/>
	<line class="st7" x1="127" y1="176" x2="164" y2="176"/>
</g>
</svg>
