<?xml version="1.0" encoding="utf-8"?>
<!-- Generator: Adobe Illustrator 23.0.1, SVG Export Plug-In . SVG Version: 6.00 Build 0)  -->
<svg version="1.1" id="Layer_1" xmlns="http://www.w3.org/2000/svg" xmlns:xlink="http://www.w3.org/1999/xlink" x="0px" y="0px"
	 viewBox="0 0 141.3 124.9" style="enable-background:new 0 0 141.3 124.9;" xml:space="preserve">
<style type="text/css">
	.st0{fill:#2F81C1;}
	.st1{fill:url(#SVGID_1_);}
	.st2{fill:url(#SVGID_2_);}
	.st3{fill:#FFFFFF;}
	.st4{fill:#1D6799;}
</style>
<g>
	<path id="wing" class="st0" d="M49.02,32.38c0,0-37.18-19.22-1.01,16.62C48.02,48.99,54.14,40.27,49.02,32.38z"/>
	<g id="body">
		<path class="st0" d="M82.01,70.14c0,0,11.75,14.18,8.48-3.44C90.57,66.7,83.26,63.6,82.01,70.14z"/>
		
			<radialGradient id="SVGID_1_" cx="75.7112" cy="129.4593" r="28.5349" gradientTransform="matrix(1 0 0 -1 0 171.74)" gradientUnits="userSpaceOnUse">
			<stop  offset="0" style="stop-color:#AAE1F9"/>
			<stop  offset="1" style="stop-color:#2F81C1"/>
		</radialGradient>
		<circle class="st1" cx="75.71" cy="42.28" r="28.53"/>
		
			<linearGradient id="SVGID_2_" gradientUnits="userSpaceOnUse" x1="128.4191" y1="861.4715" x2="149.9681" y2="824.1477" gradientTransform="matrix(0.9829 0.1839 -0.1839 0.9829 91.2075 -813.8948)">
			<stop  offset="0" style="stop-color:#AAE1F9"/>
			<stop  offset="1" style="stop-color:#FFFFFF"/>
		</linearGradient>
		<path class="st2" d="M94.34,32.21c-6.21-11.83-13.26-8.56-16.7-5.71c-1.09,0.92-2.85,0.59-3.52-0.67
			c-2.27-3.94-7.64-9.4-17.62-0.67c-14.18,12.34-1.68,34.41,12.76,36c0.08,0,0.17,0,0.34,0.08C83.35,64.94,103.07,48.74,94.34,32.21
			z"/>
		<path class="st0" d="M86.71,38.76c-0.17-0.25-1.68-1.93-3.27-2.43c-2.77-0.76-3.86,1.01-3.86,1.01s-1.68,4.7-4.03,9.15
			c-1.34,2.6-2.52,4.62-3.61,6.04c-1.68,2.1-2.6,2.35-3.02,2.27c-0.59-0.08-2.27-1.17-3.11-9.99c-0.08-0.76-0.08-1.59-0.17-2.35
			l-0.17-5.04c0.08-0.59,0.17-1.17,0.17-1.76c0-3.78-1.59-6.88-3.61-6.88s-4.53,3.11-4.53,6.88c0,3.78,2.52,6.88,4.53,6.88
			c0.76,0,1.43-0.42,2.01-1.17c0.08,1.17,0.08,2.35,0.25,3.52c0.59,7.3,2.01,10.99,4.28,11.41h0.08c1.34,0.17,2.85-0.76,4.45-2.77
			c1.26-1.51,2.43-3.61,3.78-6.38c0.59-1.09,1.17-2.27,1.59-3.44c0.67-1.76,1.93-4.7,2.6-5.04c1.85-1.01,4.36-0.17,5.29,2.35
			C86.62,41.69,87.88,40.52,86.71,38.76z"/>
		<path class="st0" d="M104.25,42.28c0,0,13.93,38.35-5.37,16.7C98.87,58.98,98.04,47.82,104.25,42.28z"/>
	</g>
</g>
<path class="st0" d="M125.62,63.99H19.7c-2.21,0-4,1.79-4,4s1.79,4,4,4h3.24v43.67c0,1.19,0.97,2.16,2.16,2.16h95.13
	c1.19,0,2.16-0.97,2.16-2.16V72h3.24c2.21,0,4-1.79,4-4S127.83,63.99,125.62,63.99z"/>
<circle class="st3" cx="72.35" cy="90.91" r="16.99"/>
<g>
	<path class="st0" d="M79.87,85.93c0,1.99-0.69,3.7-2.08,5.14c-1.38,1.44-3.07,2.15-5.06,2.15v3.06c0,0.39-0.14,0.72-0.41,0.99
		s-0.6,0.41-0.99,0.41c-0.39,0-0.72-0.14-0.99-0.41s-0.41-0.6-0.41-0.99v-5.93h2.78c1.26,0,2.29-0.42,3.08-1.27
		c0.8-0.84,1.2-1.9,1.2-3.17c0-1.22-0.43-2.25-1.29-3.1c-0.86-0.84-1.89-1.27-3.09-1.27c-1.26,0-2.29,0.42-3.09,1.25
		c-0.81,0.83-1.21,1.89-1.21,3.16c0,0.36-0.14,0.69-0.41,0.98c-0.27,0.29-0.61,0.43-1,0.43c-0.39,0-0.74-0.14-1.02-0.43
		c-0.29-0.28-0.43-0.62-0.43-1.01c0-1.99,0.7-3.69,2.11-5.1c1.41-1.41,3.11-2.11,5.1-2.11c1.99,0,3.69,0.7,5.1,2.11
		S79.87,83.94,79.87,85.93z M72.74,101.63c0,0.39-0.14,0.73-0.42,1.03c-0.28,0.3-0.6,0.45-0.98,0.45c-0.38,0-0.7-0.13-0.98-0.39
		c-0.28-0.26-0.42-0.58-0.42-0.97s0.13-0.73,0.4-1.03c0.26-0.3,0.6-0.45,1-0.45c0.38,0,0.71,0.13,0.98,0.39
		C72.6,100.92,72.74,101.25,72.74,101.63z"/>
</g>
<rect x="22.94" y="72" class="st4" width="99.44" height="1.1"/>
</svg>
