<?xml version="1.0" encoding="utf-8"?>
<!-- Generator: Adobe Illustrator 22.1.0, SVG Export Plug-In . SVG Version: 6.00 Build 0)  -->
<svg version="1.1" id="Layer_1" xmlns="http://www.w3.org/2000/svg" xmlns:xlink="http://www.w3.org/1999/xlink" x="0px" y="0px"
	 viewBox="0 0 200 200" style="enable-background:new 0 0 200 200;" xml:space="preserve">
<style type="text/css">
	.st0{fill:none;stroke:#AAE1F9;stroke-width:3;stroke-miterlimit:10;}
	.st1{fill:url(#SVGID_1_);}
	.st2{fill:#FFFFFF;}
	.st3{fill:#2F81C1;}
	.st4{fill:none;stroke:#FDFEFF;stroke-width:3;stroke-miterlimit:10;}
	.st5{fill:url(#SVGID_2_);}
	.st6{fill:url(#SVGID_3_);}
</style>
<circle class="st0" cx="98.2" cy="114" r="71.1"/>
<g>
	<g>
		<g>
			<radialGradient id="SVGID_1_" cx="98.315" cy="42.3743" r="32.9625" gradientUnits="userSpaceOnUse">
				<stop  offset="2.554087e-02" style="stop-color:#AAE1F9"/>
				<stop  offset="1" style="stop-color:#2F81C1"/>
			</radialGradient>
			<circle class="st1" cx="98.3" cy="42.4" r="33"/>
		</g>
		<g>
			<g>
				<path class="st2" d="M122.1,32c-10.2-13.1-18-7.5-21.7-3.2c-1.1,1.4-3.2,1.4-4.3,0c-3.6-4.2-11.4-9.8-21.7,3.2
					C60,50.2,80.3,74.4,98.1,72.9c0.1,0,0.2,0,0.4,0C116.2,74.2,136.5,50.2,122.1,32z"/>
				<path class="st3" d="M107.4,45.3L107.4,45.3h-0.2c0,0-1.1,6-2.8,12c-1,3.4-2.1,6.1-3.1,8.2c-1.5,2.9-2.6,3.3-3.2,3.4l0,0
					c-0.7,0-3.1-0.9-6-11.3c-0.2-1-0.5-1.8-0.7-2.7l-2-9.4l0,0l0,0l0,0c-1-0.4-19.3-5.9-0.4,7.7c0.4,1.6,0.7,3.3,1.2,4.9
					c2.4,8.7,4.9,12.7,7.8,12.7h0.1c1.7-0.1,3.3-1.6,4.8-4.4c1.1-2.1,2.2-4.9,3.2-8.6c0.5-1.5,0.9-3.1,1.2-4.5
					C125.5,39,107.4,45.3,107.4,45.3z"/>
			</g>
		</g>
	</g>
</g>
<circle class="st4" cx="98.8" cy="42.4" r="38.4"/>
<g>
	<g>
		<g>
			<radialGradient id="SVGID_2_" cx="41.8823" cy="152.9825" r="32.9625" gradientUnits="userSpaceOnUse">
				<stop  offset="2.554087e-02" style="stop-color:#AAE1F9"/>
				<stop  offset="1" style="stop-color:#2F81C1"/>
			</radialGradient>
			<circle class="st5" cx="41.9" cy="153" r="33"/>
		</g>
		<g>
			<g>
				<path class="st2" d="M65.7,142.6c-10.2-13.1-18-7.5-21.7-3.2c-1.1,1.4-3.2,1.4-4.3,0c-3.6-4.2-11.4-9.8-21.7,3.2
					c-14.3,18.1,5.9,42.3,23.7,40.9c0.1,0,0.2,0,0.4,0C59.8,184.9,80,160.8,65.7,142.6z"/>
				<path class="st3" d="M50.9,155.9L50.9,155.9h-0.2c0,0-1.1,6-2.8,12c-1,3.4-2.1,6.1-3.1,8.2c-1.5,2.9-2.6,3.3-3.2,3.4l0,0
					c-0.7,0-3.1-0.9-6-11.3c-0.2-1-0.5-1.8-0.7-2.7l-2-9.4l0,0l0,0l0,0c-1-0.4-19.3-5.9-0.4,7.7c0.4,1.6,0.7,3.3,1.2,4.9
					c2.4,8.7,4.9,12.7,7.8,12.7h0.1c1.7-0.1,3.3-1.6,4.8-4.4c1.1-2.1,2.2-4.9,3.2-8.6c0.5-1.5,0.9-3.1,1.2-4.5
					C69.1,149.6,50.9,155.9,50.9,155.9z"/>
			</g>
		</g>
	</g>
</g>
<circle class="st4" cx="42.4" cy="153" r="38.4"/>
<g>
	<g>
		<g>
			<radialGradient id="SVGID_3_" cx="158.1338" cy="150.7251" r="32.9625" gradientUnits="userSpaceOnUse">
				<stop  offset="2.554087e-02" style="stop-color:#AAE1F9"/>
				<stop  offset="1" style="stop-color:#2F81C1"/>
			</radialGradient>
			<circle class="st6" cx="158.1" cy="150.7" r="33"/>
		</g>
		<g>
			<g>
				<path class="st2" d="M182,140.4c-10.2-13.1-18-7.5-21.7-3.2c-1.1,1.4-3.2,1.4-4.3,0c-3.6-4.2-11.4-9.8-21.7,3.2
					c-14.3,18.1,5.9,42.3,23.7,40.9c0.1,0,0.2,0,0.4,0C176,182.6,196.3,158.5,182,140.4z"/>
				<path class="st3" d="M167.2,153.7L167.2,153.7h-0.2c0,0-1.1,6-2.8,12c-1,3.4-2.1,6.1-3.1,8.2c-1.5,2.9-2.6,3.3-3.2,3.4l0,0
					c-0.7,0-3.1-0.9-6-11.3c-0.2-1-0.5-1.8-0.7-2.7l-2-9.4l0,0l0,0l0,0c-1-0.4-19.3-5.9-0.4,7.7c0.4,1.6,0.7,3.3,1.2,4.9
					c2.4,8.7,4.9,12.7,7.8,12.7h0.1c1.7-0.1,3.3-1.6,4.8-4.4c1.1-2.1,2.2-4.9,3.2-8.6c0.5-1.5,0.9-3.1,1.2-4.5
					C185.3,147.3,167.2,153.7,167.2,153.7z"/>
			</g>
		</g>
	</g>
</g>
<circle class="st4" cx="158.6" cy="150.7" r="38.4"/>
</svg>
