<?xml version="1.0" encoding="utf-8"?>
<!-- Generator: Adobe Illustrator 22.1.0, SVG Export Plug-In . SVG Version: 6.00 Build 0)  -->
<svg version="1.1" id="Layer_1" xmlns="http://www.w3.org/2000/svg" xmlns:xlink="http://www.w3.org/1999/xlink" x="0px" y="0px"
	 viewBox="0 0 1280 495" style="enable-background:new 0 0 1280 495;" xml:space="preserve">
<style type="text/css">
	.st0{fill:#3F85BB;}
	.st1{fill:#B2E3F5;}
	.st2{fill:url(#SVGID_1_);}
	.st3{fill:url(#SVGID_2_);}
	.st4{fill:url(#SVGID_3_);}
	.st5{fill:#FFFFFF;stroke:#FFFFFF;stroke-width:15;}
	.st6{fill:#2170A5;}
	.st7{fill:url(#SVGID_4_);}
	.st8{fill:url(#SVGID_5_);}
	.st9{enable-background:new    ;}
	.st10{fill:#2E7EBD;}
	.st11{fill:url(#SVGID_6_);}
	.st12{fill:#2F81C1;}
	.st13{fill:url(#SVGID_7_);}
	.st14{fill:url(#SVGID_8_);}
	.st15{fill:url(#SVGID_9_);}
	.st16{fill:url(#SVGID_10_);}
	.st17{fill:#FFFFFF;}
</style>
<g>
	<g>
		<path class="st0" d="M99.9,359.9c-5.2,0-9.4-4.2-9.4-9.4V137.1c0-5.2,4.2-9.4,9.4-9.4h122.7c5.2,0,9.4,4.2,9.4,9.4v213.5
			c0,5.2-4.2,9.4-9.4,9.4H99.9z"/>
		<path class="st1" d="M222.6,129.2c4.3,0,7.9,3.5,7.9,7.9v213.5c0,4.3-3.5,7.9-7.9,7.9H99.9c-4.3,0-7.9-3.5-7.9-7.9V137.1
			c0-4.3,3.5-7.9,7.9-7.9H222.6 M222.6,126.2H99.9c-6,0-10.9,4.9-10.9,10.9v213.5c0,6,4.9,10.9,10.9,10.9h122.7
			c6,0,10.9-4.9,10.9-10.9V137.1C233.4,131.1,228.6,126.2,222.6,126.2L222.6,126.2z"/>
	</g>
	<g>
		<linearGradient id="SVGID_1_" gradientUnits="userSpaceOnUse" x1="161.5611" y1="319.4909" x2="161.5611" y2="143.4185">
			<stop  offset="5.618000e-03" style="stop-color:#B2E3F5"/>
			<stop  offset="0.243" style="stop-color:#C1E8F7"/>
			<stop  offset="0.7151" style="stop-color:#DBEFFB"/>
			<stop  offset="1" style="stop-color:#E4F2FC"/>
		</linearGradient>
		<rect x="102.8" y="143.4" class="st2" width="117.6" height="176.1"/>
	</g>
	<circle class="st1" cx="161.2" cy="338.7" r="11.7"/>
</g>
<g>
	<g>
		<path class="st0" d="M301.4,415.3c-5.2,0-9.4-4.2-9.4-9.4V81.7c0-5.2,4.2-9.4,9.4-9.4h252.2c5.2,0,9.4,4.2,9.4,9.4V406
			c0,5.2-4.2,9.4-9.4,9.4H301.4z"/>
		<path class="st1" d="M553.6,73.8c4.3,0,7.9,3.5,7.9,7.9V406c0,4.3-3.5,7.9-7.9,7.9H301.4c-4.3,0-7.9-3.5-7.9-7.9V81.7
			c0-4.3,3.5-7.9,7.9-7.9H553.6 M553.6,70.8H301.4c-6,0-10.9,4.9-10.9,10.9V406c0,6,4.9,10.9,10.9,10.9h252.2
			c6,0,10.9-4.9,10.9-10.9V81.7C564.5,75.7,559.6,70.8,553.6,70.8L553.6,70.8z"/>
	</g>
	<g>
		<linearGradient id="SVGID_2_" gradientUnits="userSpaceOnUse" x1="427.5113" y1="372.2149" x2="427.5113" y2="83.3416">
			<stop  offset="5.618000e-03" style="stop-color:#B2E3F5"/>
			<stop  offset="0.243" style="stop-color:#C1E8F7"/>
			<stop  offset="0.7151" style="stop-color:#DBEFFB"/>
			<stop  offset="1" style="stop-color:#E4F2FC"/>
		</linearGradient>
		<rect x="303.8" y="83.3" class="st3" width="247.4" height="288.9"/>
	</g>
	<circle class="st1" cx="427.5" cy="394.9" r="13.3"/>
</g>
<g>
	<g>
		<path class="st0" d="M814.7,469.8c-3.4,0-5.3-2.2-6-4.3c-0.7-2.1-0.5-5.1,2.2-7.1l21.9-16.3c1.1-0.8,2.4-1.3,3.8-1.3h34.9v-12
			H622.9c-5.2,0-9.4-4.2-9.4-9.4V27.2c0-5.2,4.2-9.4,9.4-9.4h557.3c5.2,0,9.4,4.2,9.4,9.4v392.3c0,5.2-4.2,9.4-9.4,9.4H930.5v12h34
			c1.3,0,2.6,0.4,3.7,1.2l22.4,16.3c2.7,2,3,5,2.3,7.1c-0.7,2.1-2.6,4.4-6,4.4H814.7z"/>
		<path class="st1" d="M1180.1,19.3c4.3,0,7.9,3.5,7.9,7.9v392.3c0,4.3-3.5,7.9-7.9,7.9H932h-3v3v9v3h3h32.5c1,0,2,0.3,2.8,0.9
			l22.4,16.3c2.1,1.5,2.3,3.8,1.8,5.4c-0.5,1.6-2,3.3-4.6,3.3H814.7c-2.6,0-4.1-1.7-4.6-3.3c-0.5-1.6-0.4-3.9,1.7-5.4l21.9-16.3
			c0.8-0.6,1.9-1,2.9-1H870h3v-3v-9v-3h-3H622.9c-4.3,0-7.9-3.5-7.9-7.9V27.2c0-4.3,3.5-7.9,7.9-7.9H1180.1 M1180.1,16.3H622.9
			c-6,0-10.9,4.9-10.9,10.9v392.3c0,6,4.9,10.9,10.9,10.9H870v9h-33.4c-1.7,0-3.3,0.5-4.7,1.6L810,457.2c-6.1,4.5-2.9,14.1,4.7,14.1
			h172.2c7.6,0,10.8-9.7,4.6-14.2l-22.4-16.3c-1.3-1-3-1.5-4.6-1.5H932v-9h248.1c6,0,10.9-4.9,10.9-10.9V27.2
			C1191,21.2,1186.1,16.3,1180.1,16.3L1180.1,16.3z"/>
	</g>
	<g>
		<linearGradient id="SVGID_3_" gradientUnits="userSpaceOnUse" x1="901.5" y1="386.9457" x2="901.5" y2="41.2996">
			<stop  offset="5.618000e-03" style="stop-color:#B2E3F5"/>
			<stop  offset="0.243" style="stop-color:#C1E8F7"/>
			<stop  offset="0.7151" style="stop-color:#DBEFFB"/>
			<stop  offset="1" style="stop-color:#E4F2FC"/>
		</linearGradient>
		<rect x="640.1" y="41.3" class="st4" width="522.8" height="345.6"/>
	</g>
</g>
<g>
	<g>
		<path class="st5" d="M1047.5,163L1047.5,163c-1.9-4.4-21-3.9-71.7,6.6c-0.1-0.1-0.1-0.2-0.1-0.3c-0.1-0.2-0.1-0.4-0.3-0.6
			c-0.1-0.3-0.3-0.5-0.3-0.9c-0.1-0.2-0.1-0.3-0.2-0.5c-0.2-0.4-0.4-0.8-0.6-1.3c-0.1-0.1-0.1-0.3-0.3-0.5c-0.1-0.3-0.3-0.5-0.4-0.8
			c-0.1-0.2-0.2-0.4-0.3-0.5c-0.1-0.3-0.3-0.5-0.4-0.8c-0.1-0.2-0.2-0.3-0.3-0.5c-0.2-0.4-0.5-0.8-0.7-1.2c-0.1-0.1-0.2-0.3-0.3-0.5
			c-0.1-0.3-0.3-0.5-0.5-0.8c-0.1-0.2-0.2-0.3-0.3-0.5c-0.1-0.3-0.3-0.5-0.5-0.8c-0.1-0.1-0.2-0.3-0.3-0.5c-0.3-0.4-0.5-0.8-0.8-1.2
			c-0.1-0.1-0.2-0.3-0.3-0.4c-0.2-0.3-0.4-0.5-0.5-0.8c-0.1-0.1-0.3-0.3-0.3-0.5c-0.2-0.3-0.3-0.5-0.5-0.8c-0.1-0.1-0.2-0.3-0.3-0.5
			c-0.3-0.3-0.5-0.7-0.8-1.1c-0.1-0.1-0.2-0.3-0.3-0.4c-0.2-0.3-0.5-0.5-0.7-0.8c-0.1-0.1-0.3-0.3-0.4-0.5c-0.2-0.2-0.4-0.5-0.6-0.7
			c-0.1-0.1-0.3-0.3-0.4-0.5c-0.3-0.3-0.5-0.6-0.8-1c-0.1-0.1-0.2-0.3-0.3-0.3c-0.3-0.3-0.5-0.5-0.8-0.8c-0.1-0.1-0.3-0.3-0.4-0.4
			c-0.2-0.2-0.4-0.5-0.7-0.7c-0.1-0.1-0.3-0.3-0.4-0.4c-0.3-0.3-0.5-0.5-0.8-0.8c-0.1-0.1-0.2-0.2-0.3-0.3c-0.3-0.3-0.6-0.6-1-0.9
			c-0.1-0.1-0.3-0.3-0.4-0.3c-0.3-0.2-0.5-0.4-0.8-0.6c-0.1-0.1-0.3-0.3-0.4-0.3c-0.3-0.3-0.6-0.5-0.9-0.8c-0.1-0.1-0.2-0.1-0.3-0.2
			c-0.3-0.3-0.8-0.6-1.1-0.9c-0.1-0.1-0.3-0.2-0.4-0.3c-0.3-0.2-0.5-0.4-0.8-0.6c-0.1-0.1-0.3-0.2-0.4-0.3c-0.3-0.2-0.6-0.5-0.9-0.7
			c-0.1-0.1-0.2-0.1-0.3-0.2c-0.4-0.3-0.8-0.5-1.2-0.8c-0.1-0.1-0.3-0.2-0.4-0.3c-0.3-0.2-0.5-0.4-0.9-0.5c-0.1-0.1-0.3-0.2-0.5-0.3
			c-0.3-0.2-0.6-0.4-1-0.6c-0.1-0.1-0.2-0.1-0.3-0.2c-0.4-0.3-0.8-0.5-1.3-0.8c-0.1-0.1-0.3-0.1-0.4-0.2c-0.3-0.2-0.6-0.3-1-0.5
			c-0.1-0.1-0.3-0.1-0.5-0.3c-0.3-0.2-0.7-0.3-1-0.5c-0.1-0.1-0.2-0.1-0.3-0.2c-0.4-0.2-0.9-0.5-1.3-0.7c-0.1-0.1-0.3-0.1-0.4-0.2
			c-0.3-0.1-0.7-0.3-1-0.5c-0.1-0.1-0.3-0.1-0.5-0.2c-0.3-0.1-0.7-0.3-1-0.5c-0.1-0.1-0.3-0.1-0.3-0.1c-0.5-0.2-1-0.4-1.4-0.5
			c-0.1-0.1-0.3-0.1-0.3-0.1c-0.3-0.1-0.8-0.3-1.1-0.4c-0.1-0.1-0.3-0.1-0.5-0.2c-0.3-0.1-0.7-0.3-1.1-0.4c-0.1-0.1-0.3-0.1-0.4-0.1
			c-0.5-0.1-1-0.3-1.4-0.5c-0.1,0-0.2-0.1-0.3-0.1c-0.4-0.1-0.8-0.2-1.2-0.3c-0.1-0.1-0.3-0.1-0.5-0.1c-0.3-0.1-0.8-0.2-1.1-0.3
			c-0.1-0.1-0.3-0.1-0.4-0.1c-0.5-0.1-1-0.3-1.5-0.3c-0.1,0-0.2-0.1-0.3-0.1c-0.4-0.1-0.8-0.2-1.2-0.3c-0.1,0-0.3-0.1-0.5-0.1
			c-0.4-0.1-0.8-0.1-1.2-0.2c-0.1,0-0.3-0.1-0.4-0.1c-0.5-0.1-1-0.2-1.6-0.2h-0.2c-0.5-0.2-0.9-0.2-1.4-0.3c-0.1,0-0.3-0.1-0.5-0.1
			c-0.4-0.1-0.8-0.1-1.2-0.1c-0.1,0-0.3,0-0.5-0.1c-0.5-0.1-1.6-0.4-1.6-0.4h-0.1l-1.5,1h-0.5c0,0-0.8-0.8-1.2-1H913h-1.6h-1.6h-0.4
			c-0.5,0.2-1.6,1-1.6,1h-0.2c0,0-0.9-0.7-1.3-0.7c-0.1,0-0.3,0-0.5,0.1c-0.5,0.1-1,0.1-1.4,0.1c-0.1,0-0.3,0-0.5,0.1
			c-0.3,0.1-0.7,0.1-1.1,0.1c-0.2,0-0.5,0.3-0.5,0.3s-0.4,0-0.5,0l0,0c-12.8,1.5-24.5,6.8-34.1,14.5l0,0l0,0
			c-22-37.7-21.9-22.2-21.9-22.1c-17.5-15.4-32.3-20.1,1.3,49.7c-3.3,8.1-5.2,16.9-5.2,26.2c0,35.1,26.1,64.1,60,68.6h0.3h0.2
			c0.2,0.7,0.4,0.8,0.5,0.8c0.3,0.1,0.7,0.1,1.1,0.1c0.1,0,0.3,0,0.5,0.1c0.5,0.1,1,0.1,1.4,0.1c0.1,0,0.3,0,0.5,0.1
			c0.4,0,1.3-0.2,1.3-0.2h0.2c0,0,1,0.3,1.6,1h0.4h1.6h1.8h0.5c0.4-0.7,0.8-0.7,1.2-0.8c0.2,0,0.5,0,0.7-0.1c0.3,0,0.7-0.1,1-0.1
			c0.3,0,0.5-0.1,0.8-0.1c0.3,0,0.7-0.1,1-0.1c0.3,0,0.5-0.1,0.8-0.1c0.3-0.1,0.6-0.1,1-0.1c0.3,0,0.5-0.1,0.8-0.1
			c0.3-0.1,0.6-0.1,1-0.1c0.3-0.1,0.5-0.1,0.8-0.1s0.6-0.1,0.9-0.1s0.5-0.1,0.8-0.1c0.3-0.1,0.6-0.1,0.9-0.2
			c0.3-0.1,0.5-0.1,0.8-0.1s0.6-0.1,0.9-0.2s0.5-0.1,0.8-0.2s0.6-0.1,0.9-0.2s0.5-0.1,0.8-0.2c0.3-0.1,0.6-0.1,0.9-0.2
			s0.5-0.1,0.8-0.2c0.3-0.1,0.6-0.2,0.9-0.3s0.5-0.1,0.8-0.2s0.6-0.2,0.9-0.3c0.2-0.1,0.5-0.1,0.7-0.2c0.3-0.1,0.6-0.2,0.9-0.3
			c0.2-0.1,0.5-0.1,0.7-0.3c0.3-0.1,0.6-0.2,1-0.3c0.2-0.1,0.4-0.1,0.6-0.2c0.3-0.1,0.7-0.3,1-0.4c0.1-0.1,0.3-0.1,0.5-0.2
			c0.5-0.2,1-0.4,1.5-0.7c0.1-0.1,0.3-0.1,0.5-0.2c0.3-0.1,0.7-0.3,1-0.5c0.2-0.1,0.4-0.2,0.6-0.3c0.3-0.1,0.5-0.3,0.9-0.4
			c0.2-0.1,0.4-0.2,0.6-0.3c0.3-0.1,0.5-0.3,0.8-0.4c0.2-0.1,0.4-0.3,0.7-0.3c0.3-0.1,0.5-0.3,0.8-0.4c0.2-0.1,0.5-0.3,0.7-0.4
			c0.3-0.1,0.5-0.3,0.8-0.4c0.2-0.1,0.5-0.3,0.7-0.4c0.3-0.1,0.5-0.3,0.8-0.5c0.2-0.1,0.4-0.3,0.7-0.4c0.1-0.1,0.2-0.1,0.3-0.2l0,0
			c0,0,45.7,23.8,12.5-10.5l0,0c0.1-0.1,0.2-0.2,0.3-0.3c0.1-0.1,0.3-0.3,0.5-0.5c0.2-0.2,0.4-0.4,0.6-0.7c0.1-0.2,0.3-0.3,0.5-0.5
			c0.2-0.2,0.3-0.4,0.5-0.7c0.1-0.2,0.3-0.4,0.5-0.5c0.2-0.2,0.3-0.5,0.5-0.7c0.1-0.2,0.3-0.4,0.5-0.6c0.2-0.2,0.3-0.5,0.5-0.7
			c0.1-0.2,0.3-0.4,0.5-0.6c0.2-0.2,0.3-0.5,0.5-0.7c0.1-0.2,0.3-0.4,0.4-0.6c0.1-0.2,0.3-0.5,0.5-0.7c0.1-0.2,0.3-0.4,0.4-0.6
			c0.1-0.3,0.3-0.5,0.5-0.8c0.1-0.2,0.3-0.4,0.4-0.6c0.1-0.3,0.3-0.5,0.5-0.8c0.1-0.2,0.3-0.4,0.4-0.6c0.1-0.3,0.3-0.5,0.5-0.8
			c0.1-0.2,0.3-0.4,0.3-0.6c0.1-0.3,0.3-0.5,0.5-0.8c0.1-0.2,0.2-0.4,0.3-0.6c0.1-0.3,0.3-0.5,0.4-0.8c0.1-0.2,0.2-0.4,0.3-0.6
			c0.1-0.3,0.3-0.5,0.4-0.8c0.1-0.2,0.2-0.4,0.3-0.6c0.1-0.3,0.3-0.5,0.4-0.8c0.1-0.2,0.2-0.4,0.3-0.6c0.1-0.3,0.3-0.5,0.4-0.9
			c0.1-0.2,0.2-0.4,0.3-0.6c0.1-0.3,0.3-0.6,0.4-0.9c0.1-0.1,0.1-0.3,0.2-0.5c0.5-1.2,1-2.5,1.4-3.8c0.1-0.1,0.1-0.2,0.1-0.3
			c0.1-0.3,0.2-0.7,0.3-1c0.1-0.2,0.1-0.3,0.2-0.5c0.1-0.3,0.2-0.6,0.3-1c0.1-0.2,0.1-0.4,0.2-0.6c0.1-0.3,0.2-0.6,0.3-1
			c0.1-0.2,0.1-0.4,0.2-0.7c0.1-0.3,0.1-0.6,0.2-1c0.1-0.2,0.1-0.5,0.1-0.7c0.1-0.3,0.1-0.6,0.2-1c0.1-0.2,0.1-0.5,0.1-0.7
			c0.1-0.3,0.1-0.6,0.2-1c0.1-0.2,0.1-0.5,0.1-0.7c0.1-0.3,0.1-0.6,0.1-1c0.1-0.3,0.1-0.5,0.1-0.8c0.1-0.3,0.1-0.6,0.1-1
			c0.1-0.3,0.1-0.5,0.1-0.8c0.1-0.3,0.1-0.6,0.1-1c0-0.3,0.1-0.5,0.1-0.8c0.1-0.3-0.4-1-0.4-1v-0.3c0,0,2.2-0.8,3.2-1.2
			c11.1-3.4,56.1-17.7,48.4-18.8c-1.8-0.3-4.4-0.3-7.5-0.1C1052.8,167.5,1047.5,163,1047.5,163z"/>
		<g>
			<path class="st6" d="M949.7,254.4c0,0,45.7,23.8,12.5-10.5C962.2,243.8,950.5,246.7,949.7,254.4z"/>
			
				<linearGradient id="SVGID_4_" gradientUnits="userSpaceOnUse" x1="584.1831" y1="839.4716" x2="608.2603" y2="788.0341" gradientTransform="matrix(1 0 0 -1 244 931.5)">
				<stop  offset="0" style="stop-color:#AAE1F9"/>
				<stop  offset="6.361246e-03" style="stop-color:#A8E0F8"/>
				<stop  offset="0.145" style="stop-color:#83C3E7"/>
				<stop  offset="0.2898" style="stop-color:#65ABD9"/>
				<stop  offset="0.4415" style="stop-color:#4D98CF"/>
				<stop  offset="0.6024" style="stop-color:#3C8BC7"/>
				<stop  offset="0.7787" style="stop-color:#3283C2"/>
				<stop  offset="1" style="stop-color:#2F81C1"/>
			</linearGradient>
			<path class="st7" d="M867.6,141.9L867.6,141.9c-22.2-37.9-22-22.3-22-22.2c-18-15.8-33.1-20.4,3.6,54.8c0,0,0.5-19.6,21.9-28.6
				C871.1,145.8,869.8,144.3,867.6,141.9z"/>
			
				<radialGradient id="SVGID_5_" cx="659.2988" cy="783.2134" r="87.3773" gradientTransform="matrix(1 0 0 -1 244 931.5)" gradientUnits="userSpaceOnUse">
				<stop  offset="0" style="stop-color:#AAE1F9"/>
				<stop  offset="1" style="stop-color:#2F81C1"/>
			</radialGradient>
			<circle class="st8" cx="911.4" cy="196.1" r="69.7"/>
			<g class="st9">
				<g class="st9">
					<g>
						<path class="st10" d="M849.2,174.4L849.2,174.4L849.2,174.4z"/>
					</g>
				</g>
				<g>
					
						<linearGradient id="SVGID_6_" gradientUnits="userSpaceOnUse" x1="651.6017" y1="673.9626" x2="651.6017" y2="766.2393" gradientTransform="matrix(1 0 0 -1 244 931.5)">
						<stop  offset="0" style="stop-color:#AAE1F9"/>
						<stop  offset="1" style="stop-color:#FFFFFF"/>
					</linearGradient>
					<path class="st11" d="M908.9,171.6c-4,0.8-7.1,1.6-13.7,7.5c-2.1,1.8-4.2,1.6-5.3,0.8c-1-0.7-1.2-1.2-2.1-4
						c-2.8-8.7-6.5-11.7-12.8-10.3c-8.8,1.9-19.9,10.8-23.5,18.6c-10.1,22.1-1,49.7,21.7,65.4c29.2,20.4,64.1-2.5,69.6-27.1
						C949,195.4,921.7,171.4,908.9,171.6z M889.3,255.1c-1.2-0.3-2.3-1-3.4-1.6c2.1,0.6,4.1,1,6.1,1.2
						C891.1,255.3,890.2,255.3,889.3,255.1z"/>
					<path class="st12" d="M919.9,217.1c-1.2,2.1-3.6,4.3-5.3,5.9c-1.2,1-2.9,2.3-4.2,3.3c-2.4,1.9-5.2,3.3-7.6,5.1
						c-0.3,0.2-0.2,0.7-0.3,1c-1.1,3.6-2,6.2-2.2,6.7c-4.4,12.7-6.6,15.5-9.1,16c-5,1.1-15.7-8.8-21.1-27c-0.3-1.2-0.4-2.5-1-3.6
						c-0.6-1.4-2.3-2.7-3.2-4c-1.6-2-9.9-13.8-7.9-18.3c0.6-0.1,1.6,0,2.2,0.1c1.7,0.9,2.9,1.5,9.4,6.3c0.1,0.1,0.3,0.3,0.5,0.4l0,0
						l0,0c0.7,8.7,1,11.4,3.1,19.7c4.4,14.5,11.7,22.9,15.3,24l0,0l0,0l0,0l0,0l0,0l0,0l0,0l0,0c3.4,0.2,8.3-12.5,14.4-37.6
						c0.1,0.1,0.3,0.1,0.5,0.1l0,0C923.6,210.3,920.8,215.4,919.9,217.1"/>
				</g>
			</g>
			
				<linearGradient id="SVGID_7_" gradientUnits="userSpaceOnUse" x1="784.5526" y1="828.4252" x2="711.7736" y2="766.0433" gradientTransform="matrix(1 0 0 -1 244 931.5)">
				<stop  offset="0" style="stop-color:#AAE1F9"/>
				<stop  offset="1" style="stop-color:#2F81C1"/>
			</linearGradient>
			<path class="st13" d="M975.8,169.6c-10.4-25.3-35.4-43.1-64.4-43.1c-3.1,0-6.2,0.2-9.3,0.6c34.1,4.5,60.4,33.7,60.4,69.1
				s-26.3,64.5-60.4,69.1c3,0.4,6.2,0.6,9.3,0.6c36.3,0,66.1-27.7,69.3-63.2C1022.1,184.2,1110.4,141.6,975.8,169.6z"/>
			
				<linearGradient id="SVGID_8_" gradientUnits="userSpaceOnUse" x1="187.9709" y1="526.172" x2="187.9709" y2="562.8412" gradientTransform="matrix(0.9634 -0.2681 -0.2681 -0.9634 860.0568 726.6815)">
				<stop  offset="0" style="stop-color:#FFFFFF;stop-opacity:0"/>
				<stop  offset="0.8563" style="stop-color:#FFFFFF;stop-opacity:0.8563"/>
				<stop  offset="1" style="stop-color:#FFFFFF"/>
			</linearGradient>
			<path class="st14" d="M926.2,143.1c2.7,9.7-9,21.6-26.1,26.3s-33.3,0.8-36-9c-2.7-9.8,9-21.6,26.1-26.3
				C907.3,129.3,923.5,133.3,926.2,143.1z"/>
			<path class="st6" d="M981.1,202.2c0,0,20.7-28.4,66.4-39.2C1047.5,163,1057.1,171.1,981.1,202.2z"/>
			<path class="st6" d="M981.1,202.2c0,0,59.6-18.2,50.9-19.6C1023.2,181.2,998,185.4,981.1,202.2z"/>
		</g>
	</g>
</g>
<g>
	<g>
		
			<radialGradient id="SVGID_9_" cx="183.2572" cy="759.4094" r="61.5553" gradientTransform="matrix(1 0 0 -1 244 931.5)" gradientUnits="userSpaceOnUse">
			<stop  offset="0" style="stop-color:#AAE1F9"/>
			<stop  offset="1" style="stop-color:#2F81C1"/>
		</radialGradient>
		<circle class="st15" cx="428" cy="204.3" r="59"/>
		<g>
			<g>
				
					<linearGradient id="SVGID_10_" gradientUnits="userSpaceOnUse" x1="159.6926" y1="679.5112" x2="207.351" y2="762.0576" gradientTransform="matrix(1 0 0 -1 244 931.5)">
					<stop  offset="0" style="stop-color:#AAE1F9"/>
					<stop  offset="1" style="stop-color:#FFFFFF"/>
				</linearGradient>
				<path class="st16" d="M470.7,185c-18.3-23.3-32.3-13.3-38.7-5.7c-2,2.5-5.9,2.5-7.9,0c-6.6-7.7-20.3-17.4-38.7,5.7
					c-25.8,32.6,10.4,75.5,42.3,73c0.2,0,0.5,0,0.7,0C460.1,260.5,496.3,217.3,470.7,185z"/>
				<path class="st12" d="M444.6,209L444.6,209h-0.5c0,0-1.8,10.9-5,21.6c-1.8,6.1-3.6,11.2-5.5,14.8c-2.7,5.2-4.8,6.1-5.7,6.1l0,0
					c-1.4,0-5.5-1.6-10.9-20.5c-0.5-1.6-0.9-3.4-1.4-5l-3.6-17.1l0,0l0,0l0,0c-1.8-0.5-35.1-10.7-0.7,13.9c0.7,3,1.4,5.9,2.3,8.9
					c4.3,15.7,8.9,23.2,14.1,23.2h0.2c3-0.2,5.9-2.7,8.7-8c2-3.9,3.9-8.9,5.7-15.5c0.9-2.7,1.6-5.5,2-8.2
					C477.4,197.6,444.6,209,444.6,209z"/>
			</g>
		</g>
	</g>
</g>
<g>
	<g>
		<g>
			<circle class="st12" cx="161.2" cy="231.6" r="25.8"/>
		</g>
		<g>
			<g>
				<path class="st17" d="M179.9,223.4c-8-10.2-14.1-5.9-17-2.5c-0.9,1.1-2.5,1.1-3.4,0c-2.8-3.3-8.9-7.6-17,2.5
					c-11.2,14.2,4.6,33.1,18.5,31.9c0.1,0,0.2,0,0.3,0C175.2,256.4,191.1,237.6,179.9,223.4z"/>
				<path class="st12" d="M168.3,234L168.3,234h-0.2c0,0-0.9,4.7-2.2,9.3c-0.8,2.7-1.6,4.8-2.4,6.4c-1.1,2.3-2,2.6-2.5,2.7l0,0
					c-0.6,0-2.4-0.7-4.7-8.8c-0.2-0.8-0.4-1.4-0.6-2.1l-1.5-7.3l0,0l0,0l0,0c-0.8-0.3-15-4.6-0.3,6c0.3,1.2,0.6,2.6,1,3.8
					c1.9,6.8,3.8,9.9,6.1,9.9h0.1c1.3-0.1,2.6-1.2,3.7-3.4c0.9-1.6,1.7-3.8,2.5-6.7c0.4-1.1,0.7-2.4,1-3.5
					C182.4,229.1,168.3,234,168.3,234z"/>
			</g>
		</g>
	</g>
</g>
<g>
	<g>
		<path class="st0" d="M818.2,283.2c0,0.6-0.2,1.1-0.6,1.6c-0.4,0.4-0.9,0.6-1.5,0.6h-4.6c-3.6,0-6.9,1.3-9.9,3.8
			c-2.9,2.5-4.7,5.6-5.2,9.3h21.6v1.5c0,5.3-1.9,10.1-5.8,14.3c-4,4.4-8.6,6.6-13.8,6.6c-0.5,0-1.3,0-2.3,0c-1,0-1.8-0.1-2.4-0.1
			c-0.6,0-1-0.2-1.4-0.6c-0.4-0.4-0.6-0.9-0.6-1.5c0-0.6,0.2-1.1,0.6-1.5s0.9-0.6,1.5-0.6c0.5,0,1.3,0,2.3,0c1,0,1.8,0,2.3,0
			c3.6,0,6.9-1.4,9.8-4.1c2.9-2.7,4.6-5.9,5.2-9.5h-21.5v-2.2c0-5.3,2-9.8,5.9-13.8c3.9-3.9,8.5-5.9,13.7-5.9h4.6
			c0.6,0,1.1,0.2,1.5,0.6S818.2,282.6,818.2,283.2z"/>
	</g>
	<g>
		<path class="st0" d="M877.6,318.7c0,0.6-0.2,1.1-0.7,1.6c-0.5,0.5-1,0.7-1.6,0.7c-0.6,0-1.2-0.2-1.6-0.6c-0.4-0.4-0.6-0.9-0.6-1.5
			v-12.7c0-3-1.1-5.6-3.2-7.7c-2.1-2.1-4.7-3.2-7.7-3.2c-2.2,0-4.3,0.6-6.1,1.9c-1.9,1.3-3.2,3-4,5c-0.4,1.1-0.7,1.9-0.7,2.5
			c0,1.7,0,3.9,0,6.8c0,3.4,0,5.6,0,6.8c0,0.6-0.2,1.2-0.7,1.8c-0.5,0.6-1,0.8-1.6,0.8c-0.6,0-1.1-0.2-1.6-0.6
			c-0.4-0.4-0.6-0.9-0.6-1.5v-12.7c0-0.2,0-0.4,0-0.8c0-0.3,0-0.6,0-0.8c0-0.6-0.2-1.4-0.6-2.5c-0.8-2.2-2.1-3.9-4-5.2
			c-1.9-1.3-3.9-2-6.2-2c-3,0-5.6,1.1-7.8,3.2c-2.1,2.1-3.2,4.7-3.2,7.7c0,0,0,4.1,0,12.4c0,0.6-0.2,1.2-0.7,1.6
			c-0.5,0.5-1,0.7-1.6,0.7c-0.6,0-1.1-0.2-1.5-0.6s-0.7-0.9-0.7-1.5v-12.7c0-4.2,1.5-7.8,4.4-10.8c3-3,6.6-4.5,10.8-4.5
			c2.7,0,5.2,0.7,7.5,2c2.3,1.3,4.2,3.1,5.6,5.5c1.4-2.2,3.2-3.9,5.5-5.2c2.3-1.3,4.7-1.9,7.4-1.9c4.2,0,7.9,1.5,10.9,4.5
			c3,3,4.5,6.6,4.5,10.8L877.6,318.7z"/>
	</g>
	<g>
		<path class="st0" d="M911.2,318.5c0,0.6-0.2,1.1-0.7,1.5c-0.5,0.4-1,0.6-1.6,0.6c-1.1,0-1.8-0.6-2-1.8c0-0.2-0.1-1.2-0.1-3.1
			c-3,3.3-6.7,4.9-10.9,4.9c-4.2,0-7.9-1.5-10.9-4.5s-4.5-6.6-4.5-10.9c0-4.2,1.5-7.8,4.5-10.8s6.6-4.5,10.9-4.5
			c4.2,0,7.8,1.5,10.8,4.5s4.5,6.6,4.5,10.8V318.5z M906.7,305.2c0-3-1.1-5.6-3.2-7.7c-2.1-2.1-4.7-3.2-7.7-3.2
			c-3,0-5.6,1.1-7.7,3.2c-2.1,2.1-3.2,4.7-3.2,7.7s1.1,5.6,3.2,7.7c2.1,2.1,4.7,3.2,7.7,3.2c3,0,5.6-1.1,7.7-3.2
			C905.7,310.8,906.7,308.2,906.7,305.2z"/>
	</g>
	<g>
		<path class="st0" d="M929.1,289.9h3.9c0.6,0,1.1,0.2,1.6,0.7c0.5,0.4,0.7,0.9,0.7,1.5c0,0.6-0.2,1.2-0.6,1.6s-0.9,0.6-1.5,0.6
			c-0.5,0-1.2,0-2,0c-0.9,0-1.5,0-1.9,0c-3.1,0-5.6,1.1-7.8,3.2c-2.1,2.1-3.2,4.7-3.2,7.7v13c0,0.6-0.2,1.1-0.7,1.5
			c-0.5,0.4-1,0.6-1.6,0.6c-1.5,0-2.2-0.7-2.2-2.1v-13.1c0-4.2,1.5-7.8,4.5-10.8S924.9,289.9,929.1,289.9h3.9H929.1z"/>
	</g>
	<g>
		<path class="st0" d="M960,318.5c0,1.4-0.7,2.1-2.2,2.2c-1.8,0.1-3.2,0.1-4,0.1c-4.2,0-7.9-1.4-10.9-4.3c-3-2.9-4.5-6.4-4.5-10.6
			v-21c0-0.6,0.2-1.1,0.7-1.5c0.4-0.4,0.9-0.6,1.5-0.6c0.6,0,1.1,0.2,1.5,0.7c0.4,0.5,0.7,1,0.7,1.6v5.3h14.9c1.4,0,2,0.7,2,2.2
			c0,0.6-0.2,1.2-0.7,1.6c-0.5,0.4-1,0.7-1.6,0.7h-14.6v10.6c0,3,1.1,5.5,3.3,7.6s4.8,3.1,7.8,3.1c0.3,0,1,0,1.9,0
			c0.8,0,1.4,0,1.9,0c0.6,0,1.1,0.2,1.6,0.7C959.7,317.4,960,317.9,960,318.5z"/>
	</g>
	<g>
		<path class="st0" d="M1000.1,318.2c0,0.6-0.2,1.1-0.6,1.5c-0.4,0.4-0.9,0.6-1.5,0.6c-0.6,0-1.1-0.2-1.5-0.6
			c-0.4-0.4-0.6-0.9-0.6-1.5v-13.4h-29.3v13.4c0,0.6-0.2,1.1-0.6,1.5s-0.9,0.6-1.5,0.6s-1.1-0.2-1.5-0.6c-0.4-0.4-0.6-0.9-0.6-1.5
			v-17.9c0-5.2,1.9-9.7,5.6-13.4c3.7-3.7,8.2-5.6,13.4-5.6c5.2,0,9.7,1.9,13.4,5.6c3.7,3.7,5.6,8.2,5.6,13.4V318.2z M995.8,300.4
			c0-4-1.4-7.5-4.3-10.3c-2.9-2.9-6.3-4.3-10.4-4.3c-4,0-7.5,1.4-10.4,4.3c-2.9,2.9-4.3,6.3-4.3,10.3H995.8z"/>
	</g>
	<g>
		<path class="st0" d="M1024.9,295.3c0,4.4-1.9,7.9-5.8,10.6c-3.4,2.3-7.4,3.5-12,3.5v8.9c0,0.6-0.2,1.1-0.6,1.5
			c-0.4,0.4-0.9,0.6-1.5,0.6c-0.6,0-1.1-0.2-1.5-0.6c-0.4-0.4-0.6-0.9-0.6-1.5v-35.2c0-1.1,0.6-1.8,1.8-2.1c0.4-0.1,1.5-0.1,3.2-0.1
			c4.6,0,8.6,1.2,11.8,3.6C1023.2,287.2,1024.9,290.8,1024.9,295.3z M1020.5,295.2c0-3.5-1.4-6.1-4.2-7.9c-2.3-1.4-5.3-2-9.1-2
			l0.2,19.6c3.7,0,6.7-0.7,9-2C1019.1,301.3,1020.5,298.7,1020.5,295.2z"/>
	</g>
	<g>
		<path class="st0" d="M1032.1,318.2c0,0.6-0.2,1.1-0.6,1.5c-0.4,0.4-0.9,0.6-1.5,0.6s-1.1-0.2-1.5-0.6c-0.4-0.4-0.6-0.9-0.6-1.5
			v-35c0-0.6,0.2-1.1,0.6-1.5s0.9-0.6,1.5-0.6s1.1,0.2,1.5,0.6c0.4,0.4,0.6,0.9,0.6,1.5V318.2z"/>
	</g>
</g>
<g>
	<g>
		<path class="st0" d="M353.8,277.9c0,0.5-0.2,0.9-0.5,1.2c-0.3,0.3-0.7,0.5-1.2,0.5h-3.7c-2.9,0-5.5,1-7.8,3
			c-2.3,2-3.7,4.5-4.2,7.3h17.1v1.2c0,4.2-1.5,8-4.6,11.3c-3.1,3.5-6.8,5.2-10.9,5.2c-0.4,0-1,0-1.8,0c-0.8,0-1.5,0-1.9,0
			c-0.4,0-0.8-0.2-1.1-0.5c-0.3-0.3-0.5-0.7-0.5-1.2c0-0.5,0.2-0.9,0.5-1.2c0.3-0.3,0.7-0.5,1.2-0.5c0.4,0,1,0,1.8,0
			c0.8,0,1.4,0,1.8,0c2.9,0,5.5-1.1,7.7-3.2c2.3-2.2,3.7-4.7,4.1-7.5h-17v-1.7c0-4.2,1.5-7.8,4.7-10.9c3.1-3.1,6.7-4.7,10.9-4.7h3.7
			c0.5,0,0.9,0.2,1.2,0.5S353.8,277.4,353.8,277.9z"/>
	</g>
	<g>
		<path class="st0" d="M400.7,306c0,0.5-0.2,0.9-0.5,1.3c-0.4,0.4-0.8,0.5-1.2,0.5c-0.5,0-0.9-0.2-1.3-0.5c-0.3-0.3-0.5-0.7-0.5-1.2
			v-10c0-2.4-0.8-4.4-2.5-6.1c-1.7-1.7-3.7-2.5-6.1-2.5c-1.8,0-3.4,0.5-4.8,1.5c-1.5,1-2.5,2.3-3.1,4c-0.3,0.9-0.5,1.5-0.5,1.9
			c0,1.3,0,3.1,0,5.4c0,2.7,0,4.5,0,5.4c0,0.5-0.2,1-0.5,1.4c-0.4,0.4-0.8,0.7-1.3,0.7c-0.5,0-0.9-0.2-1.2-0.5
			c-0.3-0.3-0.5-0.7-0.5-1.2v-10c0-0.1,0-0.3,0-0.6c0-0.3,0-0.5,0-0.6c0-0.5-0.2-1.1-0.5-1.9c-0.6-1.7-1.7-3.1-3.2-4.1
			c-1.5-1-3.1-1.6-4.9-1.6c-2.4,0-4.5,0.8-6.1,2.5c-1.7,1.7-2.5,3.7-2.5,6.1c0,0,0,3.2,0,9.8c0,0.5-0.2,0.9-0.5,1.3
			c-0.4,0.4-0.8,0.5-1.2,0.5c-0.5,0-0.9-0.2-1.2-0.5c-0.3-0.3-0.5-0.7-0.5-1.2v-10c0-3.3,1.2-6.2,3.5-8.5c2.3-2.4,5.2-3.5,8.6-3.5
			c2.1,0,4.1,0.5,6,1.6c1.9,1,3.3,2.5,4.4,4.3c1.1-1.7,2.5-3.1,4.3-4.1c1.8-1,3.8-1.5,5.8-1.5c3.4,0,6.2,1.2,8.6,3.6
			c2.4,2.4,3.6,5.2,3.6,8.5L400.7,306z"/>
	</g>
	<g>
		<path class="st0" d="M427.3,305.8c0,0.5-0.2,0.9-0.5,1.2c-0.4,0.3-0.8,0.5-1.3,0.5c-0.9,0-1.4-0.5-1.6-1.4c0-0.2,0-1,0-2.5
			c-2.4,2.6-5.3,3.9-8.6,3.9c-3.4,0-6.2-1.2-8.6-3.6s-3.6-5.2-3.6-8.6c0-3.3,1.2-6.2,3.6-8.5s5.2-3.6,8.6-3.6c3.3,0,6.2,1.2,8.5,3.6
			c2.4,2.4,3.6,5.2,3.6,8.5V305.8z M423.8,295.3c0-2.4-0.8-4.4-2.5-6.1c-1.7-1.7-3.7-2.5-6.1-2.5c-2.4,0-4.4,0.8-6.1,2.5
			c-1.7,1.7-2.5,3.7-2.5,6.1c0,2.4,0.8,4.4,2.5,6.1c1.7,1.7,3.7,2.5,6.1,2.5c2.4,0,4.4-0.8,6.1-2.5
			C423,299.7,423.8,297.7,423.8,295.3z"/>
	</g>
	<g>
		<path class="st0" d="M441.5,283.2h3.1c0.5,0,0.9,0.2,1.3,0.5c0.4,0.3,0.5,0.7,0.5,1.2c0,0.5-0.2,0.9-0.5,1.2
			c-0.3,0.3-0.7,0.5-1.2,0.5c-0.4,0-0.9,0-1.6,0c-0.7,0-1.2,0-1.5,0c-2.4,0-4.5,0.8-6.1,2.5c-1.7,1.7-2.5,3.7-2.5,6.1v10.3
			c0,0.5-0.2,0.9-0.5,1.2c-0.4,0.3-0.8,0.5-1.2,0.5c-1.2,0-1.7-0.6-1.7-1.7v-10.3c0-3.3,1.2-6.2,3.6-8.5
			C435.3,284.4,438.2,283.2,441.5,283.2h3.1H441.5z"/>
	</g>
	<g>
		<path class="st0" d="M465.9,305.8c0,1.1-0.6,1.7-1.7,1.8c-1.5,0.1-2.5,0.1-3.2,0.1c-3.4,0-6.2-1.1-8.6-3.4
			c-2.4-2.3-3.6-5.1-3.6-8.4v-16.6c0-0.4,0.2-0.8,0.5-1.2c0.3-0.3,0.7-0.5,1.2-0.5c0.5,0,0.9,0.2,1.2,0.5c0.3,0.4,0.5,0.8,0.6,1.3
			v4.2h11.8c1.1,0,1.6,0.6,1.6,1.8c0,0.5-0.2,0.9-0.5,1.3c-0.4,0.3-0.8,0.5-1.3,0.5h-11.6v8.4c0,2.4,0.9,4.4,2.6,6
			c1.7,1.7,3.8,2.5,6.1,2.4c0.3,0,0.8,0,1.5,0c0.6,0,1.1,0,1.5,0c0.5,0,0.9,0.2,1.3,0.5C465.7,304.9,465.9,305.4,465.9,305.8z"/>
	</g>
	<g>
		<path class="st0" d="M497.7,305.6c0,0.5-0.2,0.9-0.5,1.2c-0.3,0.3-0.7,0.5-1.2,0.5c-0.5,0-0.9-0.2-1.2-0.5
			c-0.3-0.3-0.5-0.7-0.5-1.2V295H471v10.6c0,0.5-0.2,0.9-0.5,1.2c-0.3,0.3-0.7,0.5-1.2,0.5s-0.9-0.2-1.2-0.5
			c-0.3-0.3-0.5-0.7-0.5-1.2v-14.1c0-4.1,1.5-7.7,4.4-10.6c2.9-2.9,6.5-4.4,10.6-4.4c4.1,0,7.7,1.5,10.6,4.4
			c2.9,2.9,4.4,6.5,4.4,10.6V305.6z M494.2,291.5c0-3.2-1.1-5.9-3.4-8.2c-2.3-2.3-5-3.4-8.2-3.4c-3.2,0-5.9,1.1-8.2,3.4
			c-2.3,2.3-3.4,5-3.4,8.2H494.2z"/>
	</g>
	<g>
		<path class="st0" d="M517.3,287.5c0,3.5-1.5,6.3-4.6,8.4c-2.7,1.8-5.9,2.8-9.5,2.8v7.1c0,0.5-0.2,0.9-0.5,1.2
			c-0.3,0.3-0.7,0.5-1.2,0.5c-0.5,0-0.9-0.2-1.2-0.5c-0.3-0.3-0.5-0.7-0.5-1.2v-27.8c0-0.9,0.5-1.4,1.4-1.7c0.3-0.1,1.2-0.1,2.5-0.1
			c3.7,0,6.8,0.9,9.3,2.8C515.9,281.1,517.3,283.9,517.3,287.5z M513.8,287.4c0-2.8-1.1-4.9-3.4-6.2c-1.8-1.1-4.2-1.6-7.2-1.6
			l0.1,15.5c2.9,0,5.3-0.5,7.1-1.6C512.7,292.2,513.8,290.2,513.8,287.4z"/>
	</g>
	<g>
		<path class="st0" d="M523,305.6c0,0.5-0.2,0.9-0.5,1.2c-0.3,0.3-0.7,0.5-1.2,0.5s-0.9-0.2-1.2-0.5c-0.3-0.3-0.5-0.7-0.5-1.2v-27.7
			c0-0.5,0.2-0.9,0.5-1.2s0.7-0.5,1.2-0.5s0.9,0.2,1.2,0.5c0.3,0.3,0.5,0.7,0.5,1.2V305.6z"/>
	</g>
</g>
</svg>
