<?xml version="1.0" encoding="utf-8"?>
<!-- Generator: Adobe Illustrator 22.1.0, SVG Export Plug-In . SVG Version: 6.00 Build 0)  -->
<svg version="1.1" id="Layer_1" xmlns="http://www.w3.org/2000/svg" xmlns:xlink="http://www.w3.org/1999/xlink" x="0px" y="0px"
	 viewBox="0 0 400 326" style="enable-background:new 0 0 400 326;" xml:space="preserve">
<style type="text/css">
	.st0{fill:#FFFFFF;stroke:#FFFFFF;stroke-width:15;}
	.st1{fill:#2170A5;}
	.st2{fill:url(#SVGID_1_);}
	.st3{fill:url(#SVGID_2_);}
	.st4{enable-background:new    ;}
	.st5{fill:#2E7EBD;}
	.st6{fill:url(#SVGID_3_);}
	.st7{fill:#2F81C1;}
	.st8{fill:url(#SVGID_4_);}
	.st9{fill:url(#SVGID_5_);}
</style>
<g>
	<path class="st0" d="M386.6,89.8L386.6,89.8c-2.8-6.4-30.7-5.7-104.7,9.7c-0.1-0.1-0.1-0.3-0.2-0.4c-0.1-0.3-0.2-0.6-0.4-0.9
		c-0.2-0.4-0.4-0.8-0.5-1.3c-0.1-0.3-0.2-0.5-0.3-0.8c-0.3-0.6-0.6-1.2-0.9-1.9c-0.1-0.2-0.2-0.5-0.4-0.7c-0.2-0.4-0.4-0.8-0.6-1.2
		c-0.1-0.3-0.3-0.6-0.4-0.8c-0.2-0.4-0.4-0.8-0.6-1.2c-0.1-0.3-0.3-0.5-0.4-0.8c-0.3-0.6-0.7-1.2-1-1.8c-0.1-0.2-0.3-0.4-0.4-0.7
		c-0.2-0.4-0.5-0.8-0.7-1.2c-0.2-0.3-0.3-0.5-0.5-0.8c-0.2-0.4-0.5-0.8-0.7-1.1c-0.2-0.2-0.3-0.5-0.5-0.7c-0.4-0.6-0.7-1.1-1.1-1.7
		c-0.1-0.2-0.3-0.4-0.4-0.6c-0.3-0.4-0.6-0.8-0.8-1.2c-0.2-0.2-0.4-0.5-0.5-0.7c-0.3-0.4-0.5-0.7-0.8-1.1c-0.2-0.2-0.3-0.5-0.5-0.7
		c-0.4-0.5-0.8-1-1.2-1.6c-0.1-0.2-0.3-0.4-0.4-0.6c-0.3-0.4-0.7-0.8-1-1.2c-0.2-0.2-0.4-0.5-0.6-0.7c-0.3-0.3-0.6-0.7-0.9-1
		c-0.2-0.2-0.4-0.4-0.6-0.7c-0.4-0.5-0.8-0.9-1.2-1.4c-0.2-0.2-0.3-0.4-0.5-0.5c-0.4-0.4-0.8-0.8-1.2-1.2c-0.2-0.2-0.4-0.4-0.6-0.6
		c-0.3-0.3-0.6-0.7-1-1c-0.2-0.2-0.4-0.4-0.6-0.6c-0.4-0.4-0.8-0.8-1.2-1.2c-0.2-0.1-0.3-0.3-0.5-0.4c-0.5-0.4-0.9-0.9-1.4-1.3
		c-0.2-0.2-0.4-0.4-0.6-0.5c-0.4-0.3-0.7-0.6-1.1-0.9c-0.2-0.2-0.4-0.4-0.6-0.5c-0.4-0.4-0.9-0.7-1.3-1.1c-0.1-0.1-0.3-0.2-0.4-0.3
		c-0.5-0.4-1.1-0.9-1.6-1.3c-0.2-0.2-0.4-0.3-0.6-0.5c-0.4-0.3-0.8-0.6-1.2-0.9c-0.2-0.2-0.4-0.3-0.6-0.5c-0.4-0.3-0.9-0.7-1.3-1
		c-0.1-0.1-0.3-0.2-0.4-0.3c-0.6-0.4-1.2-0.8-1.7-1.2c-0.2-0.1-0.4-0.3-0.6-0.4c-0.4-0.3-0.8-0.6-1.3-0.8c-0.2-0.1-0.4-0.3-0.7-0.4
		c-0.5-0.3-0.9-0.6-1.4-0.9c-0.2-0.1-0.3-0.2-0.5-0.3c-0.6-0.4-1.2-0.7-1.9-1.1c-0.2-0.1-0.4-0.2-0.6-0.3c-0.5-0.3-0.9-0.5-1.4-0.8
		c-0.2-0.1-0.5-0.2-0.7-0.4c-0.5-0.3-1-0.5-1.5-0.8c-0.2-0.1-0.3-0.2-0.5-0.3c-0.6-0.3-1.3-0.7-1.9-1c-0.2-0.1-0.4-0.2-0.6-0.3
		c-0.5-0.2-1-0.5-1.5-0.7c-0.2-0.1-0.5-0.2-0.7-0.3c-0.5-0.2-1-0.4-1.5-0.7c-0.2-0.1-0.4-0.2-0.5-0.2c-0.7-0.3-1.4-0.6-2-0.8
		c-0.2-0.1-0.4-0.1-0.5-0.2c-0.5-0.2-1.1-0.4-1.6-0.6c-0.2-0.1-0.5-0.2-0.7-0.3c-0.5-0.2-1-0.4-1.6-0.6c-0.2-0.1-0.4-0.1-0.6-0.2
		c-0.7-0.2-1.4-0.5-2.1-0.7c-0.2,0-0.3-0.1-0.5-0.1c-0.6-0.2-1.1-0.3-1.7-0.5c-0.2-0.1-0.5-0.1-0.7-0.2c-0.5-0.1-1.1-0.3-1.6-0.4
		c-0.2-0.1-0.4-0.1-0.6-0.2c-0.7-0.2-1.5-0.4-2.2-0.5c-0.1,0-0.3-0.1-0.4-0.1c-0.6-0.1-1.2-0.3-1.8-0.4c-0.2,0-0.5-0.1-0.7-0.1
		c-0.6-0.1-1.1-0.2-1.7-0.3c-0.2,0-0.4-0.1-0.6-0.1c-0.8-0.1-1.5-0.3-2.3-0.4c-0.1,0-0.2,0-0.3,0c-0.7-0.1-1.3-0.2-2-0.3
		c-0.2,0-0.5-0.1-0.7-0.1c-0.6-0.1-1.1-0.1-1.7-0.2c-0.2,0-0.4,0-0.7-0.1c-0.8-0.1-1.5-0.1-2.3-0.2c-0.1,0-0.1,0-0.2,0
		c-0.7-0.1-1.4-0.1-2.2-0.1c-0.2,0-0.5,0-0.7,0c-0.6,0-1.2,0-1.7-0.1c-0.2,0-0.5,0-0.7,0c-0.8,0-1.6,0-2.4,0c-0.8,0-1.6,0-2.3,0
		c-0.2,0-0.4,0-0.6,0c-0.8,0-1.5,0-2.3,0.1c-0.1,0-0.2,0-0.3,0c-0.6,0-1.3,0.1-1.9,0.1c-0.2,0-0.5,0-0.7,0.1
		c-0.7,0.1-1.4,0.1-2.1,0.2c-0.2,0-0.4,0-0.7,0.1c-0.5,0.1-1,0.1-1.6,0.2c-0.3,0-0.6,0.1-0.8,0.1c-0.1,0-0.2,0-0.3,0l0,0
		c-18.8,2.2-36.1,10-50.2,21.4l0,0l0,0C91.5,3.6,91.7,26.4,91.7,26.5C65.9,3.9,44.2-3,93.6,99.6c-4.9,11.9-7.6,24.9-7.6,38.6
		c0,51.6,38.4,94.3,88.2,100.9l0,0c0.1,0,0.2,0,0.3,0c0.3,0,0.6,0.1,0.8,0.1c0.5,0.1,1,0.1,1.6,0.2c0.2,0,0.4,0,0.7,0.1
		c0.7,0.1,1.4,0.1,2.1,0.2c0.2,0,0.5,0,0.7,0.1c0.6,0,1.3,0.1,1.9,0.1c0.1,0,0.2,0,0.3,0c0.7,0,1.5,0.1,2.3,0.1c0.2,0,0.4,0,0.6,0
		c0.8,0,1.5,0,2.3,0c0.9,0,1.7,0,2.6,0c0.3,0,0.6,0,0.8,0c0.6,0,1.1,0,1.7-0.1c0.3,0,0.7,0,1-0.1c0.5,0,1-0.1,1.5-0.1
		c0.4,0,0.7-0.1,1.1-0.1c0.5,0,1-0.1,1.4-0.1s0.7-0.1,1.1-0.1c0.5-0.1,0.9-0.1,1.4-0.2c0.4,0,0.7-0.1,1.1-0.1
		c0.5-0.1,0.9-0.1,1.4-0.2c0.4-0.1,0.7-0.1,1.1-0.2c0.4-0.1,0.9-0.1,1.3-0.2c0.4-0.1,0.7-0.1,1.1-0.2c0.4-0.1,0.9-0.2,1.3-0.3
		c0.4-0.1,0.7-0.1,1.1-0.2c0.4-0.1,0.9-0.2,1.3-0.3c0.4-0.1,0.7-0.2,1.1-0.3c0.4-0.1,0.9-0.2,1.3-0.3c0.4-0.1,0.7-0.2,1.1-0.3
		c0.4-0.1,0.9-0.2,1.3-0.3c0.4-0.1,0.7-0.2,1.1-0.3c0.4-0.1,0.9-0.3,1.3-0.4c0.4-0.1,0.7-0.2,1.1-0.3c0.4-0.1,0.9-0.3,1.3-0.4
		c0.3-0.1,0.7-0.2,1-0.3c0.4-0.1,0.9-0.3,1.3-0.5c0.3-0.1,0.7-0.2,1-0.4c0.5-0.2,0.9-0.3,1.4-0.5c0.3-0.1,0.6-0.2,0.9-0.3
		c0.5-0.2,1-0.4,1.5-0.6c0.2-0.1,0.5-0.2,0.7-0.3c0.7-0.3,1.5-0.6,2.2-1c0.2-0.1,0.4-0.2,0.7-0.3c0.5-0.2,1-0.5,1.5-0.7
		c0.3-0.1,0.6-0.3,0.9-0.4c0.4-0.2,0.8-0.4,1.3-0.6c0.3-0.2,0.6-0.3,0.9-0.5c0.4-0.2,0.8-0.4,1.2-0.6c0.3-0.2,0.6-0.4,1-0.5
		c0.4-0.2,0.7-0.4,1.1-0.6c0.3-0.2,0.7-0.4,1-0.6c0.4-0.2,0.7-0.4,1.1-0.6c0.3-0.2,0.7-0.4,1-0.6c0.4-0.2,0.7-0.4,1.1-0.7
		c0.3-0.2,0.6-0.4,1-0.6c0.2-0.1,0.3-0.2,0.5-0.3l0,0c0,0,66.7,34.8,18.3-15.4l0,0c0.1-0.1,0.3-0.3,0.4-0.4c0.2-0.2,0.5-0.5,0.7-0.7
		c0.3-0.3,0.6-0.6,0.9-1c0.2-0.3,0.5-0.5,0.7-0.8c0.3-0.3,0.5-0.6,0.8-1c0.2-0.3,0.5-0.6,0.7-0.8c0.3-0.3,0.5-0.7,0.8-1
		c0.2-0.3,0.5-0.6,0.7-0.9c0.3-0.3,0.5-0.7,0.8-1c0.2-0.3,0.4-0.6,0.7-0.9c0.3-0.3,0.5-0.7,0.8-1c0.2-0.3,0.4-0.6,0.6-0.9
		c0.2-0.3,0.5-0.7,0.7-1s0.4-0.6,0.6-0.9c0.2-0.4,0.5-0.7,0.7-1.1c0.2-0.3,0.4-0.6,0.6-0.9c0.2-0.4,0.5-0.7,0.7-1.1
		c0.2-0.3,0.4-0.6,0.6-0.9c0.2-0.4,0.5-0.7,0.7-1.1c0.2-0.3,0.4-0.6,0.5-0.9c0.2-0.4,0.4-0.8,0.7-1.1c0.2-0.3,0.3-0.6,0.5-0.9
		c0.2-0.4,0.4-0.8,0.6-1.2c0.2-0.3,0.3-0.6,0.5-0.9c0.2-0.4,0.4-0.8,0.6-1.2c0.2-0.3,0.3-0.6,0.5-0.9c0.2-0.4,0.4-0.8,0.6-1.2
		c0.1-0.3,0.3-0.6,0.4-0.9c0.2-0.4,0.4-0.8,0.6-1.3c0.1-0.3,0.3-0.6,0.4-0.9c0.2-0.4,0.4-0.9,0.6-1.3c0.1-0.2,0.2-0.5,0.3-0.7
		c0.7-1.8,1.4-3.6,2.1-5.5c0.1-0.2,0.1-0.3,0.2-0.5c0.2-0.5,0.3-1,0.5-1.5c0.1-0.3,0.2-0.5,0.3-0.8c0.1-0.5,0.3-0.9,0.4-1.4
		c0.1-0.3,0.2-0.6,0.3-0.9c0.1-0.5,0.3-0.9,0.4-1.4c0.1-0.3,0.2-0.6,0.3-1c0.1-0.5,0.2-0.9,0.3-1.4c0.1-0.3,0.2-0.7,0.2-1
		c0.1-0.5,0.2-0.9,0.3-1.4c0.1-0.3,0.2-0.7,0.2-1c0.1-0.5,0.2-0.9,0.3-1.4c0.1-0.3,0.1-0.7,0.2-1c0.1-0.5,0.2-0.9,0.2-1.4
		c0.1-0.4,0.1-0.7,0.2-1.1c0.1-0.5,0.1-0.9,0.2-1.4c0.1-0.4,0.1-0.7,0.1-1.1c0.1-0.5,0.1-0.9,0.2-1.4c0-0.4,0.1-0.7,0.1-1.1
		c0.1-0.5,0.1-0.9,0.1-1.4c0-0.1,0-0.3,0-0.4c1.3-0.6,2.6-1.2,4-1.8c16.2-5,81.9-25.8,70.7-27.5c-2.7-0.4-6.5-0.5-11-0.1
		C394.4,96.3,386.6,89.8,386.6,89.8z"/>
	<g>
		<path class="st1" d="M243.7,223.3c0,0,66.7,34.8,18.3-15.4C262,207.9,245,212.1,243.7,223.3z"/>
		
			<linearGradient id="SVGID_1_" gradientUnits="userSpaceOnUse" x1="66.2425" y1="277.8895" x2="101.4178" y2="202.7424" gradientTransform="matrix(1 0 0 -1 0 264)">
			<stop  offset="0" style="stop-color:#AAE1F9"/>
			<stop  offset="6.361246e-03" style="stop-color:#A8E0F8"/>
			<stop  offset="0.145" style="stop-color:#83C3E7"/>
			<stop  offset="0.2898" style="stop-color:#65ABD9"/>
			<stop  offset="0.4415" style="stop-color:#4D98CF"/>
			<stop  offset="0.6024" style="stop-color:#3C8BC7"/>
			<stop  offset="0.7787" style="stop-color:#3283C2"/>
			<stop  offset="1" style="stop-color:#2F81C1"/>
		</linearGradient>
		<path class="st2" d="M123.9,59L123.9,59C91.5,3.6,91.7,26.4,91.7,26.5c-26.3-23.1-48.4-29.8,5.2,80c0,0,0.7-28.7,32-41.8
			C128.9,64.7,127,62.5,123.9,59z"/>
		
			<radialGradient id="SVGID_2_" cx="175.982" cy="195.6998" r="127.6529" gradientTransform="matrix(1 0 0 -1 0 264)" gradientUnits="userSpaceOnUse">
			<stop  offset="0" style="stop-color:#AAE1F9"/>
			<stop  offset="1" style="stop-color:#2F81C1"/>
		</radialGradient>
		<circle class="st3" cx="187.8" cy="138.2" r="101.8"/>
		<g class="st4">
			<g class="st4">
				<g>
					<path class="st5" d="M96.9,106.5L96.9,106.5L96.9,106.5z"/>
				</g>
			</g>
			<g>
				
					<linearGradient id="SVGID_3_" gradientUnits="userSpaceOnUse" x1="164.7369" y1="36.0909" x2="164.7369" y2="170.9015" gradientTransform="matrix(1 0 0 -1 0 264)">
					<stop  offset="0" style="stop-color:#AAE1F9"/>
					<stop  offset="1" style="stop-color:#FFFFFF"/>
				</linearGradient>
				<path class="st6" d="M184.2,102.3c-5.8,1.1-10.3,2.4-20,11c-3,2.7-6.1,2.3-7.8,1.1c-1.5-1-1.7-1.7-3-5.8
					c-4.1-12.7-9.5-17.1-18.7-15c-12.8,2.8-29.1,15.8-34.3,27.2c-14.8,32.3-1.5,72.6,31.7,95.6c42.7,29.8,93.6-3.6,101.7-39.6
					C242.7,137.2,202.9,102,184.2,102.3z M155.6,224.4c-1.7-0.5-3.3-1.4-4.9-2.3c3,0.9,6,1.5,8.9,1.8
					C158.2,224.6,156.8,224.6,155.6,224.4z"/>
				<path class="st7" d="M200.2,168.9c-1.7,3.1-5.2,6.3-7.8,8.6c-1.7,1.5-4.2,3.3-6.1,4.8c-3.5,2.8-7.6,4.8-11.1,7.5
					c-0.4,0.3-0.3,1-0.4,1.4c-1.6,5.2-2.9,9.1-3.2,9.8c-6.4,18.6-9.7,22.6-13.3,23.4c-7.3,1.6-22.9-12.9-30.8-39.4
					c-0.5-1.7-0.6-3.6-1.4-5.3c-0.9-2-3.3-4-4.7-5.8c-2.4-2.9-14.5-20.1-11.5-26.8c0.9-0.2,2.3,0,3.2,0.2c2.5,1.3,4.2,2.2,13.7,9.2
					c0.2,0.2,0.5,0.5,0.8,0.6l0,0l0,0c1,12.7,1.5,16.6,4.5,28.8c6.4,21.2,17.1,33.5,22.3,35.1l0,0l0,0l0,0l0,0l0,0l0,0l0,0l0,0
					c5,0.3,12.1-18.2,21.1-55c0.2,0.1,0.5,0.1,0.7,0.2l0,0C205.6,158.9,201.6,166.4,200.2,168.9"/>
			</g>
		</g>
		
			<linearGradient id="SVGID_4_" gradientUnits="userSpaceOnUse" x1="358.97" y1="261.7514" x2="252.6444" y2="170.6152" gradientTransform="matrix(1 0 0 -1 0 264)">
			<stop  offset="0" style="stop-color:#AAE1F9"/>
			<stop  offset="1" style="stop-color:#2F81C1"/>
		</linearGradient>
		<path class="st8" d="M281.9,99.4c-15.2-37-51.7-63-94.1-63c-4.6,0-9.1,0.3-13.6,0.9c49.8,6.6,88.2,49.3,88.2,100.9
			s-38.4,94.3-88.2,100.9c4.4,0.6,9,0.9,13.6,0.9c53,0,96.6-40.5,101.3-92.3C349.5,120.8,478.6,58.6,281.9,99.4z"/>
		
			<linearGradient id="SVGID_5_" gradientUnits="userSpaceOnUse" x1="-456.2105" y1="-1.8285" x2="-456.2105" y2="51.743" gradientTransform="matrix(0.9634 -0.2681 -0.2681 -0.9634 610.3043 -24.9662)">
			<stop  offset="0" style="stop-color:#FFFFFF;stop-opacity:0"/>
			<stop  offset="0.8563" style="stop-color:#FFFFFF;stop-opacity:0.8563"/>
			<stop  offset="1" style="stop-color:#FFFFFF"/>
		</linearGradient>
		<path class="st9" d="M209.5,60.7c4,14.2-13.2,31.5-38.2,38.4s-48.6,1.1-52.6-13.2s13.2-31.5,38.2-38.4S205.5,46.4,209.5,60.7z"/>
		<path class="st1" d="M289.6,147c0,0,30.2-41.5,97-57.3C386.6,89.8,400.7,101.7,289.6,147z"/>
		<path class="st1" d="M289.6,147c0,0,87-26.6,74.3-28.6C351.1,116.4,314.3,122.5,289.6,147z"/>
	</g>
</g>
<g>
	<g>
		<path class="st7" d="M66.7,260.1c0,0.9-0.3,1.6-0.9,2.2c-0.6,0.6-1.3,0.9-2.2,0.9h-6.5c-5.2,0-9.8,1.8-14,5.4
			c-4.2,3.6-6.6,8-7.4,13.1h30.6v2.1c0,7.5-2.7,14.3-8.2,20.3c-5.6,6.2-12.1,9.3-19.5,9.3c-0.7,0-1.8,0-3.2,0
			c-1.5-0.1-2.6-0.1-3.4-0.1c-0.8,0-1.5-0.3-2-0.9c-0.6-0.6-0.9-1.3-0.9-2.2c0-0.9,0.3-1.6,0.9-2.2c0.6-0.6,1.3-0.9,2.2-0.9
			c0.7,0,1.8,0,3.2,0c1.4,0,2.5,0,3.2,0c5.2,0,9.8-1.9,13.9-5.8s6.5-8.4,7.4-13.5H29.3v-3.1c0-7.4,2.8-13.9,8.3-19.5
			c5.6-5.6,12-8.4,19.5-8.4h6.5c0.9,0,1.6,0.3,2.2,0.9C66.4,258.5,66.7,259.2,66.7,260.1z"/>
		<path class="st7" d="M150.8,310.3c0,0.8-0.3,1.6-1,2.3c-0.6,0.7-1.4,1-2.2,1c-0.9,0-1.6-0.3-2.3-0.8c-0.6-0.6-0.9-1.3-0.8-2.1
			v-17.9c0-4.2-1.5-7.9-4.5-10.9c-3-3-6.6-4.5-10.9-4.5c-3.2,0-6,0.9-8.7,2.7c-2.6,1.8-4.5,4.2-5.6,7.1c-0.6,1.5-0.9,2.7-0.9,3.5
			c0,2.4,0,5.6,0,9.6c0,4.8,0,8,0,9.7c0,0.9-0.3,1.8-1,2.5s-1.4,1.2-2.3,1.2c-0.9,0-1.6-0.3-2.2-0.9c-0.6-0.6-0.9-1.3-0.8-2.2v-17.9
			c0-0.2,0-0.6,0-1.1c0-0.5,0-0.8,0-1.1c0-0.9-0.3-2-0.9-3.5c-1.1-3.1-3-5.5-5.7-7.4c-2.6-1.9-5.6-2.8-8.8-2.8c-4.3,0-8,1.5-11,4.5
			c-3,3-4.5,6.7-4.5,10.9c0-0.1,0,5.8,0,17.6c0,0.9-0.3,1.7-1,2.3c-0.6,0.7-1.4,1-2.2,1s-1.6-0.3-2.2-0.9c-0.6-0.6-0.9-1.3-0.9-2.2
			v-17.9c0-5.9,2.1-11,6.3-15.3c4.2-4.2,9.3-6.3,15.3-6.3c3.8,0,7.4,0.9,10.7,2.8c3.3,1.9,6,4.4,8,7.7c1.9-3.1,4.5-5.6,7.7-7.4
			c3.2-1.8,6.7-2.7,10.5-2.7c6,0,11.1,2.1,15.4,6.4c4.3,4.2,6.4,9.4,6.4,15.3L150.8,310.3z"/>
		<path class="st7" d="M198.4,310.1c0,0.9-0.3,1.6-1,2.2c-0.7,0.5-1.4,0.8-2.3,0.8c-1.6,0-2.5-0.8-2.9-2.5c-0.1-0.3-0.1-1.8-0.1-4.4
			c-4.3,4.6-9.5,7-15.5,7c-6,0-11.1-2.1-15.4-6.4s-6.4-9.4-6.4-15.4c0-6,2.1-11,6.4-15.3s9.4-6.4,15.4-6.4c6,0,11,2.1,15.3,6.4
			s6.4,9.3,6.4,15.3V310.1z M192.1,291.3c0-4.2-1.5-7.9-4.5-10.9c-3-3-6.6-4.5-10.9-4.5c-4.3,0-8,1.5-11,4.5c-3,3-4.5,6.7-4.5,10.9
			s1.5,7.9,4.5,10.9c3,3,6.7,4.5,11,4.5c4.2,0,7.9-1.5,10.9-4.5C190.6,299.2,192.1,295.5,192.1,291.3z"/>
		<path class="st7" d="M223.8,269.6h5.5c0.8,0,1.6,0.3,2.3,0.9s1,1.3,1,2.2c0,0.9-0.3,1.6-0.9,2.2s-1.3,0.9-2.2,0.9
			c-0.7,0-1.6,0-2.9,0s-2.2,0-2.7,0c-4.3,0-8,1.5-11,4.5c-3,3-4.5,6.7-4.5,10.9v18.4c0,0.8-0.3,1.6-1,2.2c-0.6,0.6-1.4,0.9-2.2,0.9
			c-2.1,0-3.1-1-3.1-3v-18.5c0-6,2.1-11,6.4-15.3S217.8,269.6,223.8,269.6h5.5H223.8z"/>
		<path class="st7" d="M267.5,310.1c0,2-1,3-3.1,3.1c-2.6,0.1-4.5,0.2-5.7,0.2c-6,0-11.1-2-15.4-6.1c-4.3-4.1-6.4-9.1-6.4-15.1
			v-29.7c0-0.8,0.3-1.5,0.9-2.1c0.6-0.6,1.3-0.9,2.2-0.9c0.8,0,1.6,0.3,2.2,1c0.6,0.7,1,1.4,1,2.3v7.5h21.1c1.9,0,2.9,1,2.9,3.1
			c0,0.9-0.3,1.7-1,2.3c-0.7,0.6-1.4,0.9-2.3,0.9h-20.7v15.1c0,4.2,1.5,7.8,4.6,10.8c3.1,3,6.7,4.4,11,4.4c0.5,0,1.4,0,2.7,0
			c1.1,0,2,0,2.7,0c0.9,0,1.6,0.3,2.3,1C267.2,308.5,267.5,309.2,267.5,310.1z"/>
		<path class="st7" d="M324.4,309.6c0,0.8-0.3,1.6-0.9,2.2c-0.6,0.6-1.3,0.9-2.2,0.9s-1.6-0.3-2.2-0.9c-0.6-0.6-0.9-1.3-0.9-2.2v-19
			h-41.6v19c0,0.9-0.3,1.6-0.9,2.2s-1.3,0.9-2.2,0.9c-0.8,0-1.6-0.3-2.2-0.9s-0.9-1.3-0.9-2.1v-25.3c0-7.4,2.6-13.8,7.9-19
			c5.3-5.3,11.6-7.9,19-7.9c7.4,0,13.7,2.6,19,7.9c5.3,5.3,7.9,11.6,7.9,19V309.6z M318.2,284.4c0-5.7-2-10.6-6.1-14.6
			c-4.1-4.1-9-6.1-14.7-6.1c-5.7,0-10.6,2-14.7,6.1c-4.1,4.1-6.1,8.9-6.1,14.6H318.2z"/>
		<path class="st7" d="M359.5,277.2c0,6.2-2.7,11.2-8.2,15c-4.9,3.3-10.5,4.9-17,4.9v12.7c0,0.8-0.3,1.6-0.9,2.2s-1.3,0.9-2.2,0.9
			c-0.9,0-1.6-0.3-2.2-0.8s-0.9-1.3-0.9-2.1v-49.8c0-1.6,0.9-2.6,2.5-3c0.6-0.1,2.1-0.2,4.5-0.2c6.6,0,12.2,1.7,16.7,5.1
			C357,265.8,359.5,270.8,359.5,277.2z M353.3,277.1c0-5-2-8.7-6-11.1c-3.2-1.9-7.5-2.9-12.9-2.9l0.3,27.8c5.2,0,9.5-0.9,12.7-2.8
			C351.2,285.7,353.3,282,353.3,277.1z"/>
		<path class="st7" d="M369.7,309.6c0,0.8-0.3,1.6-0.9,2.2c-0.6,0.6-1.3,0.9-2.2,0.9c-0.9,0-1.6-0.3-2.2-0.9
			c-0.6-0.6-0.9-1.3-0.9-2.2v-49.6c0-0.8,0.3-1.6,0.9-2.2c0.6-0.6,1.3-0.9,2.2-0.9c0.8,0,1.6,0.3,2.2,0.9c0.6,0.6,0.9,1.3,0.9,2.2
			V309.6z"/>
	</g>
	<g>
		<path class="st7" d="M66.7,260.1c0,0.9-0.3,1.6-0.9,2.2c-0.6,0.6-1.3,0.9-2.2,0.9h-6.5c-5.2,0-9.8,1.8-14,5.4
			c-4.2,3.6-6.6,8-7.4,13.1h30.6v2.1c0,7.5-2.7,14.3-8.2,20.3c-5.6,6.2-12.1,9.3-19.5,9.3c-0.7,0-1.8,0-3.2,0
			c-1.5-0.1-2.6-0.1-3.4-0.1c-0.8,0-1.5-0.3-2-0.9c-0.6-0.6-0.9-1.3-0.9-2.2c0-0.9,0.3-1.6,0.9-2.2c0.6-0.6,1.3-0.9,2.2-0.9
			c0.7,0,1.8,0,3.2,0c1.4,0,2.5,0,3.2,0c5.2,0,9.8-1.9,13.9-5.8s6.5-8.4,7.4-13.5H29.3v-3.1c0-7.4,2.8-13.9,8.3-19.5
			c5.6-5.6,12-8.4,19.5-8.4h6.5c0.9,0,1.6,0.3,2.2,0.9C66.4,258.5,66.7,259.2,66.7,260.1z"/>
		<path class="st7" d="M150.8,310.3c0,0.8-0.3,1.6-1,2.3c-0.6,0.7-1.4,1-2.2,1c-0.9,0-1.6-0.3-2.3-0.8c-0.6-0.6-0.9-1.3-0.8-2.1
			v-17.9c0-4.2-1.5-7.9-4.5-10.9c-3-3-6.6-4.5-10.9-4.5c-3.2,0-6,0.9-8.7,2.7c-2.6,1.8-4.5,4.2-5.6,7.1c-0.6,1.5-0.9,2.7-0.9,3.5
			c0,2.4,0,5.6,0,9.6c0,4.8,0,8,0,9.7c0,0.9-0.3,1.8-1,2.5s-1.4,1.2-2.3,1.2c-0.9,0-1.6-0.3-2.2-0.9c-0.6-0.6-0.9-1.3-0.8-2.2v-17.9
			c0-0.2,0-0.6,0-1.1c0-0.5,0-0.8,0-1.1c0-0.9-0.3-2-0.9-3.5c-1.1-3.1-3-5.5-5.7-7.4c-2.6-1.9-5.6-2.8-8.8-2.8c-4.3,0-8,1.5-11,4.5
			c-3,3-4.5,6.7-4.5,10.9c0-0.1,0,5.8,0,17.6c0,0.9-0.3,1.7-1,2.3c-0.6,0.7-1.4,1-2.2,1s-1.6-0.3-2.2-0.9c-0.6-0.6-0.9-1.3-0.9-2.2
			v-17.9c0-5.9,2.1-11,6.3-15.3c4.2-4.2,9.3-6.3,15.3-6.3c3.8,0,7.4,0.9,10.7,2.8c3.3,1.9,6,4.4,8,7.7c1.9-3.1,4.5-5.6,7.7-7.4
			c3.2-1.8,6.7-2.7,10.5-2.7c6,0,11.1,2.1,15.4,6.4c4.3,4.2,6.4,9.4,6.4,15.3L150.8,310.3z"/>
		<path class="st7" d="M198.4,310.1c0,0.9-0.3,1.6-1,2.2c-0.7,0.5-1.4,0.8-2.3,0.8c-1.6,0-2.5-0.8-2.9-2.5c-0.1-0.3-0.1-1.8-0.1-4.4
			c-4.3,4.6-9.5,7-15.5,7c-6,0-11.1-2.1-15.4-6.4s-6.4-9.4-6.4-15.4c0-6,2.1-11,6.4-15.3s9.4-6.4,15.4-6.4c6,0,11,2.1,15.3,6.4
			s6.4,9.3,6.4,15.3V310.1z M192.1,291.3c0-4.2-1.5-7.9-4.5-10.9c-3-3-6.6-4.5-10.9-4.5c-4.3,0-8,1.5-11,4.5c-3,3-4.5,6.7-4.5,10.9
			s1.5,7.9,4.5,10.9c3,3,6.7,4.5,11,4.5c4.2,0,7.9-1.5,10.9-4.5C190.6,299.2,192.1,295.5,192.1,291.3z"/>
		<path class="st7" d="M223.8,269.6h5.5c0.8,0,1.6,0.3,2.3,0.9s1,1.3,1,2.2c0,0.9-0.3,1.6-0.9,2.2s-1.3,0.9-2.2,0.9
			c-0.7,0-1.6,0-2.9,0s-2.2,0-2.7,0c-4.3,0-8,1.5-11,4.5c-3,3-4.5,6.7-4.5,10.9v18.4c0,0.8-0.3,1.6-1,2.2c-0.6,0.6-1.4,0.9-2.2,0.9
			c-2.1,0-3.1-1-3.1-3v-18.5c0-6,2.1-11,6.4-15.3S217.8,269.6,223.8,269.6h5.5H223.8z"/>
		<path class="st7" d="M267.5,310.1c0,2-1,3-3.1,3.1c-2.6,0.1-4.5,0.2-5.7,0.2c-6,0-11.1-2-15.4-6.1c-4.3-4.1-6.4-9.1-6.4-15.1
			v-29.7c0-0.8,0.3-1.5,0.9-2.1c0.6-0.6,1.3-0.9,2.2-0.9c0.8,0,1.6,0.3,2.2,1c0.6,0.7,1,1.4,1,2.3v7.5h21.1c1.9,0,2.9,1,2.9,3.1
			c0,0.9-0.3,1.7-1,2.3c-0.7,0.6-1.4,0.9-2.3,0.9h-20.7v15.1c0,4.2,1.5,7.8,4.6,10.8c3.1,3,6.7,4.4,11,4.4c0.5,0,1.4,0,2.7,0
			c1.1,0,2,0,2.7,0c0.9,0,1.6,0.3,2.3,1C267.2,308.5,267.5,309.2,267.5,310.1z"/>
		<path class="st7" d="M324.4,309.6c0,0.8-0.3,1.6-0.9,2.2c-0.6,0.6-1.3,0.9-2.2,0.9s-1.6-0.3-2.2-0.9c-0.6-0.6-0.9-1.3-0.9-2.2v-19
			h-41.6v19c0,0.9-0.3,1.6-0.9,2.2s-1.3,0.9-2.2,0.9c-0.8,0-1.6-0.3-2.2-0.9s-0.9-1.3-0.9-2.1v-25.3c0-7.4,2.6-13.8,7.9-19
			c5.3-5.3,11.6-7.9,19-7.9c7.4,0,13.7,2.6,19,7.9c5.3,5.3,7.9,11.6,7.9,19V309.6z M318.2,284.4c0-5.7-2-10.6-6.1-14.6
			c-4.1-4.1-9-6.1-14.7-6.1c-5.7,0-10.6,2-14.7,6.1c-4.1,4.1-6.1,8.9-6.1,14.6H318.2z"/>
		<path class="st7" d="M359.5,277.2c0,6.2-2.7,11.2-8.2,15c-4.9,3.3-10.5,4.9-17,4.9v12.7c0,0.8-0.3,1.6-0.9,2.2s-1.3,0.9-2.2,0.9
			c-0.9,0-1.6-0.3-2.2-0.8s-0.9-1.3-0.9-2.1v-49.8c0-1.6,0.9-2.6,2.5-3c0.6-0.1,2.1-0.2,4.5-0.2c6.6,0,12.2,1.7,16.7,5.1
			C357,265.8,359.5,270.8,359.5,277.2z M353.3,277.1c0-5-2-8.7-6-11.1c-3.2-1.9-7.5-2.9-12.9-2.9l0.3,27.8c5.2,0,9.5-0.9,12.7-2.8
			C351.2,285.7,353.3,282,353.3,277.1z"/>
		<path class="st7" d="M369.7,309.6c0,0.8-0.3,1.6-0.9,2.2c-0.6,0.6-1.3,0.9-2.2,0.9c-0.9,0-1.6-0.3-2.2-0.9
			c-0.6-0.6-0.9-1.3-0.9-2.2v-49.6c0-0.8,0.3-1.6,0.9-2.2c0.6-0.6,1.3-0.9,2.2-0.9c0.8,0,1.6,0.3,2.2,0.9c0.6,0.6,0.9,1.3,0.9,2.2
			V309.6z"/>
	</g>
</g>
</svg>
