<?xml version="1.0" encoding="utf-8"?>
<!-- Generator: Adobe Illustrator 22.1.0, SVG Export Plug-In . SVG Version: 6.00 Build 0)  -->
<svg version="1.1" id="Layer_1" xmlns="http://www.w3.org/2000/svg" xmlns:xlink="http://www.w3.org/1999/xlink" x="0px" y="0px"
	 viewBox="0 0 231.7 197.2" style="enable-background:new 0 0 231.7 197.2;" xml:space="preserve">
<style type="text/css">
	.st0{fill:url(#SVGID_1_);}
	.st1{fill:url(#SVGID_2_);}
	.st2{fill:#2F81C1;}
</style>
<g>
	
		<radialGradient id="SVGID_1_" cx="117.6505" cy="114.6702" r="75.9182" gradientTransform="matrix(1 0 0 -1 0 147.7333)" gradientUnits="userSpaceOnUse">
		<stop  offset="0" style="stop-color:#AAE1F9"/>
		<stop  offset="1" style="stop-color:#2F81C1"/>
	</radialGradient>
	<circle class="st0" cx="118.6" cy="72.8" r="72.8"/>
	<g>
		<g>
			
				<linearGradient id="SVGID_2_" gradientUnits="userSpaceOnUse" x1="88.5876" y1="16.0262" x2="147.3662" y2="117.8334" gradientTransform="matrix(1 0 0 -1 0 147.7333)">
				<stop  offset="0" style="stop-color:#AAE1F9"/>
				<stop  offset="1" style="stop-color:#FFFFFF"/>
			</linearGradient>
			<path class="st1" d="M171.3,49.1c-22.6-28.7-39.9-16.4-47.7-7c-2.5,3.1-7.2,3.1-9.8,0c-8.1-9.5-25.1-21.5-47.7,7
				c-31.8,40.1,12.8,93.1,52.1,90.1c0.3,0,0.6,0,0.8,0C158.2,142.2,202.8,88.9,171.3,49.1z"/>
			<path class="st2" d="M138.9,79.2L138.9,79.2h-0.6c0,0-2.2,13.4-6.1,26.5c-2.2,7.5-4.5,13.7-6.7,18.1c-3.3,6.4-5.9,7.5-7,7.5l0,0
				c-1.7,0-6.7-2-13.4-25.1c-0.6-2-1.1-4.2-1.7-6.1l-4.5-20.9l0,0l0,0l0,0c-2.2-0.6-42.9-13.1-0.8,17c0.8,3.6,1.7,7.2,2.8,10.9
				c5.3,19.2,10.9,28.4,17.3,28.4h0.3c3.6-0.3,7.2-3.3,10.6-9.8c2.5-4.7,4.7-10.9,7-19c1.1-3.3,2-6.7,2.5-10
				C179.1,65.2,138.9,79.2,138.9,79.2z"/>
		</g>
	</g>
</g>
<g>
	<g>
		<path class="st2" d="M27.9,153.6c0,0.6-0.2,1-0.6,1.4c-0.4,0.4-0.9,0.6-1.4,0.6h-4.3c-3.4,0-6.5,1.2-9.2,3.6
			c-2.7,2.4-4.4,5.2-4.9,8.6h20.1v1.4c0,4.9-1.8,9.4-5.4,13.3c-3.7,4.1-8,6.1-12.9,6.1c-0.5,0-1.2,0-2.1,0c-1,0-1.7-0.1-2.2-0.1
			c-0.5,0-1-0.2-1.3-0.6c-0.4-0.4-0.6-0.9-0.6-1.4c0-0.6,0.2-1,0.6-1.4c0.4-0.4,0.9-0.6,1.4-0.6c0.5,0,1.2,0,2.1,0
			c0.9,0,1.6,0,2.1,0c3.4,0,6.4-1.3,9.1-3.8c2.7-2.5,4.3-5.5,4.9-8.9h-20v-2c0-4.9,1.8-9.2,5.5-12.8c3.7-3.7,7.9-5.5,12.8-5.5h4.3
			c0.6,0,1,0.2,1.4,0.6C27.7,152.5,27.9,153,27.9,153.6z"/>
		<path class="st2" d="M83.2,186.6c0,0.6-0.2,1.1-0.6,1.5c-0.4,0.4-0.9,0.6-1.5,0.6c-0.6,0-1.1-0.2-1.5-0.6
			c-0.4-0.4-0.6-0.8-0.6-1.4V175c0-2.8-1-5.2-3-7.2c-2-2-4.4-3-7.1-3c-2.1,0-4,0.6-5.7,1.8c-1.7,1.2-3,2.8-3.7,4.7
			c-0.4,1-0.6,1.8-0.6,2.3c0,1.6,0,3.7,0,6.3c0,3.1,0,5.3,0,6.4c0,0.6-0.2,1.2-0.6,1.7c-0.4,0.5-0.9,0.8-1.5,0.8
			c-0.6,0-1.1-0.2-1.5-0.6c-0.4-0.4-0.6-0.9-0.5-1.4V175c0-0.1,0-0.4,0-0.7c0-0.3,0-0.5,0-0.7c0-0.6-0.2-1.3-0.6-2.3
			c-0.7-2-2-3.6-3.7-4.9c-1.7-1.2-3.7-1.8-5.8-1.8c-2.8,0-5.2,1-7.2,3c-2,2-3,4.4-3,7.2c0,0,0,3.8,0,11.6c0,0.6-0.2,1.1-0.6,1.5
			c-0.4,0.4-0.9,0.6-1.5,0.6c-0.6,0-1-0.2-1.4-0.6c-0.4-0.4-0.6-0.9-0.6-1.4v-11.8c0-3.9,1.4-7.3,4.1-10c2.8-2.8,6.1-4.2,10.1-4.2
			c2.5,0,4.8,0.6,7,1.8c2.2,1.2,3.9,2.9,5.2,5.1c1.3-2,3-3.7,5.1-4.8c2.1-1.2,4.4-1.8,6.9-1.8c4,0,7.3,1.4,10.1,4.2
			c2.8,2.8,4.2,6.1,4.2,10.1L83.2,186.6z"/>
		<path class="st2" d="M114.5,186.5c0,0.6-0.2,1.1-0.6,1.4c-0.4,0.4-0.9,0.5-1.5,0.5c-1,0-1.7-0.6-1.9-1.7c0-0.2-0.1-1.2-0.1-2.9
			c-2.8,3.1-6.2,4.6-10.2,4.6c-4,0-7.3-1.4-10.1-4.2s-4.2-6.2-4.2-10.1c0-3.9,1.4-7.3,4.2-10.1s6.2-4.2,10.1-4.2
			c3.9,0,7.3,1.4,10.1,4.2s4.2,6.1,4.2,10.1V186.5z M110.4,174.1c0-2.8-1-5.2-3-7.2c-2-2-4.4-3-7.2-3c-2.8,0-5.2,1-7.2,3
			c-2,2-3,4.4-3,7.2s1,5.2,3,7.2c2,2,4.4,3,7.2,3c2.8,0,5.2-1,7.2-3C109.4,179.3,110.4,176.9,110.4,174.1z"/>
		<path class="st2" d="M131.2,159.9h3.6c0.6,0,1.1,0.2,1.5,0.6s0.6,0.9,0.6,1.4c0,0.6-0.2,1.1-0.6,1.5c-0.4,0.4-0.9,0.6-1.4,0.6
			c-0.4,0-1.1,0-1.9,0c-0.8,0-1.4,0-1.8,0c-2.8,0-5.3,1-7.2,3c-2,2-3,4.4-3,7.2v12.1c0,0.6-0.2,1-0.6,1.4c-0.4,0.4-0.9,0.6-1.5,0.6
			c-1.4,0-2-0.7-2-2v-12.2c0-3.9,1.4-7.3,4.2-10.1C123.9,161.3,127.3,159.9,131.2,159.9h3.6H131.2z"/>
		<path class="st2" d="M160,186.5c0,1.3-0.7,2-2,2.1c-1.7,0.1-3,0.1-3.7,0.1c-4,0-7.3-1.3-10.1-4c-2.8-2.7-4.2-6-4.2-9.9v-19.5
			c0-0.5,0.2-1,0.6-1.4c0.4-0.4,0.9-0.6,1.4-0.6c0.6,0,1,0.2,1.4,0.6c0.4,0.4,0.6,0.9,0.7,1.5v4.9h13.9c1.3,0,1.9,0.7,1.9,2.1
			c0,0.6-0.2,1.1-0.6,1.5c-0.4,0.4-0.9,0.6-1.5,0.6H144v9.9c0,2.8,1,5.2,3,7.1c2,2,4.4,2.9,7.2,2.9c0.3,0,0.9,0,1.8,0
			c0.7,0,1.3,0,1.8,0c0.6,0,1.1,0.2,1.5,0.6C159.7,185.4,160,185.9,160,186.5z"/>
		<path class="st2" d="M197.4,186.2c0,0.6-0.2,1-0.6,1.4c-0.4,0.4-0.9,0.6-1.4,0.6c-0.6,0-1-0.2-1.4-0.6c-0.4-0.4-0.6-0.9-0.6-1.4
			v-12.5H166v12.5c0,0.6-0.2,1-0.6,1.4c-0.4,0.4-0.9,0.6-1.4,0.6c-0.6,0-1-0.2-1.4-0.6c-0.4-0.4-0.6-0.8-0.6-1.4v-16.7
			c0-4.9,1.7-9.1,5.2-12.5c3.5-3.5,7.6-5.2,12.5-5.2c4.9,0,9,1.7,12.5,5.2c3.5,3.5,5.2,7.6,5.2,12.5V186.2z M193.3,169.6
			c0-3.7-1.3-7-4-9.6c-2.7-2.7-5.9-4-9.7-4c-3.8,0-7,1.3-9.6,4c-2.7,2.7-4,5.9-4,9.6H193.3z"/>
		<path class="st2" d="M220.5,164.8c0,4.1-1.8,7.4-5.4,9.9c-3.2,2.2-6.9,3.2-11.2,3.2v8.3c0,0.6-0.2,1-0.6,1.4s-0.9,0.6-1.4,0.6
			c-0.6,0-1-0.2-1.4-0.6c-0.4-0.4-0.6-0.8-0.6-1.4v-32.8c0-1,0.6-1.7,1.7-2c0.4-0.1,1.4-0.1,3-0.1c4.3,0,8,1.1,11,3.4
			C218.8,157.3,220.5,160.7,220.5,164.8z M216.4,164.8c0-3.3-1.3-5.7-4-7.3c-2.1-1.3-5-1.9-8.5-1.9l0.2,18.3c3.4,0,6.2-0.6,8.3-1.8
			C215,170.4,216.4,168,216.4,164.8z"/>
		<path class="st2" d="M227.2,186.2c0,0.6-0.2,1-0.6,1.4c-0.4,0.4-0.9,0.6-1.4,0.6c-0.6,0-1-0.2-1.4-0.6c-0.4-0.4-0.6-0.9-0.6-1.4
			v-32.6c0-0.6,0.2-1,0.6-1.4c0.4-0.4,0.9-0.6,1.4-0.6c0.6,0,1,0.2,1.4,0.6c0.4,0.4,0.6,0.9,0.6,1.4V186.2z"/>
	</g>
	<g>
		<path class="st2" d="M27.9,153.6c0,0.6-0.2,1-0.6,1.4c-0.4,0.4-0.9,0.6-1.4,0.6h-4.3c-3.4,0-6.5,1.2-9.2,3.6
			c-2.7,2.4-4.4,5.2-4.9,8.6h20.1v1.4c0,4.9-1.8,9.4-5.4,13.3c-3.7,4.1-8,6.1-12.9,6.1c-0.5,0-1.2,0-2.1,0c-1,0-1.7-0.1-2.2-0.1
			c-0.5,0-1-0.2-1.3-0.6c-0.4-0.4-0.6-0.9-0.6-1.4c0-0.6,0.2-1,0.6-1.4c0.4-0.4,0.9-0.6,1.4-0.6c0.5,0,1.2,0,2.1,0
			c0.9,0,1.6,0,2.1,0c3.4,0,6.4-1.3,9.1-3.8c2.7-2.5,4.3-5.5,4.9-8.9h-20v-2c0-4.9,1.8-9.2,5.5-12.8c3.7-3.7,7.9-5.5,12.8-5.5h4.3
			c0.6,0,1,0.2,1.4,0.6C27.7,152.5,27.9,153,27.9,153.6z"/>
		<path class="st2" d="M83.2,186.6c0,0.6-0.2,1.1-0.6,1.5c-0.4,0.4-0.9,0.6-1.5,0.6c-0.6,0-1.1-0.2-1.5-0.6
			c-0.4-0.4-0.6-0.8-0.6-1.4V175c0-2.8-1-5.2-3-7.2c-2-2-4.4-3-7.1-3c-2.1,0-4,0.6-5.7,1.8c-1.7,1.2-3,2.8-3.7,4.7
			c-0.4,1-0.6,1.8-0.6,2.3c0,1.6,0,3.7,0,6.3c0,3.1,0,5.3,0,6.4c0,0.6-0.2,1.2-0.6,1.7c-0.4,0.5-0.9,0.8-1.5,0.8
			c-0.6,0-1.1-0.2-1.5-0.6c-0.4-0.4-0.6-0.9-0.5-1.4V175c0-0.1,0-0.4,0-0.7c0-0.3,0-0.5,0-0.7c0-0.6-0.2-1.3-0.6-2.3
			c-0.7-2-2-3.6-3.7-4.9c-1.7-1.2-3.7-1.8-5.8-1.8c-2.8,0-5.2,1-7.2,3c-2,2-3,4.4-3,7.2c0,0,0,3.8,0,11.6c0,0.6-0.2,1.1-0.6,1.5
			c-0.4,0.4-0.9,0.6-1.5,0.6c-0.6,0-1-0.2-1.4-0.6c-0.4-0.4-0.6-0.9-0.6-1.4v-11.8c0-3.9,1.4-7.3,4.1-10c2.8-2.8,6.1-4.2,10.1-4.2
			c2.5,0,4.8,0.6,7,1.8c2.2,1.2,3.9,2.9,5.2,5.1c1.3-2,3-3.7,5.1-4.8c2.1-1.2,4.4-1.8,6.9-1.8c4,0,7.3,1.4,10.1,4.2
			c2.8,2.8,4.2,6.1,4.2,10.1L83.2,186.6z"/>
		<path class="st2" d="M114.5,186.5c0,0.6-0.2,1.1-0.6,1.4c-0.4,0.4-0.9,0.5-1.5,0.5c-1,0-1.7-0.6-1.9-1.7c0-0.2-0.1-1.2-0.1-2.9
			c-2.8,3.1-6.2,4.6-10.2,4.6c-4,0-7.3-1.4-10.1-4.2s-4.2-6.2-4.2-10.1c0-3.9,1.4-7.3,4.2-10.1s6.2-4.2,10.1-4.2
			c3.9,0,7.3,1.4,10.1,4.2s4.2,6.1,4.2,10.1V186.5z M110.4,174.1c0-2.8-1-5.2-3-7.2c-2-2-4.4-3-7.2-3c-2.8,0-5.2,1-7.2,3
			c-2,2-3,4.4-3,7.2s1,5.2,3,7.2c2,2,4.4,3,7.2,3c2.8,0,5.2-1,7.2-3C109.4,179.3,110.4,176.9,110.4,174.1z"/>
		<path class="st2" d="M131.2,159.9h3.6c0.6,0,1.1,0.2,1.5,0.6s0.6,0.9,0.6,1.4c0,0.6-0.2,1.1-0.6,1.5c-0.4,0.4-0.9,0.6-1.4,0.6
			c-0.4,0-1.1,0-1.9,0c-0.8,0-1.4,0-1.8,0c-2.8,0-5.3,1-7.2,3c-2,2-3,4.4-3,7.2v12.1c0,0.6-0.2,1-0.6,1.4c-0.4,0.4-0.9,0.6-1.5,0.6
			c-1.4,0-2-0.7-2-2v-12.2c0-3.9,1.4-7.3,4.2-10.1C123.9,161.3,127.3,159.9,131.2,159.9h3.6H131.2z"/>
		<path class="st2" d="M160,186.5c0,1.3-0.7,2-2,2.1c-1.7,0.1-3,0.1-3.7,0.1c-4,0-7.3-1.3-10.1-4c-2.8-2.7-4.2-6-4.2-9.9v-19.5
			c0-0.5,0.2-1,0.6-1.4c0.4-0.4,0.9-0.6,1.4-0.6c0.6,0,1,0.2,1.4,0.6c0.4,0.4,0.6,0.9,0.7,1.5v4.9h13.9c1.3,0,1.9,0.7,1.9,2.1
			c0,0.6-0.2,1.1-0.6,1.5c-0.4,0.4-0.9,0.6-1.5,0.6H144v9.9c0,2.8,1,5.2,3,7.1c2,2,4.4,2.9,7.2,2.9c0.3,0,0.9,0,1.8,0
			c0.7,0,1.3,0,1.8,0c0.6,0,1.1,0.2,1.5,0.6C159.7,185.4,160,185.9,160,186.5z"/>
		<path class="st2" d="M197.4,186.2c0,0.6-0.2,1-0.6,1.4c-0.4,0.4-0.9,0.6-1.4,0.6c-0.6,0-1-0.2-1.4-0.6c-0.4-0.4-0.6-0.9-0.6-1.4
			v-12.5H166v12.5c0,0.6-0.2,1-0.6,1.4c-0.4,0.4-0.9,0.6-1.4,0.6c-0.6,0-1-0.2-1.4-0.6c-0.4-0.4-0.6-0.8-0.6-1.4v-16.7
			c0-4.9,1.7-9.1,5.2-12.5c3.5-3.5,7.6-5.2,12.5-5.2c4.9,0,9,1.7,12.5,5.2c3.5,3.5,5.2,7.6,5.2,12.5V186.2z M193.3,169.6
			c0-3.7-1.3-7-4-9.6c-2.7-2.7-5.9-4-9.7-4c-3.8,0-7,1.3-9.6,4c-2.7,2.7-4,5.9-4,9.6H193.3z"/>
		<path class="st2" d="M220.5,164.8c0,4.1-1.8,7.4-5.4,9.9c-3.2,2.2-6.9,3.2-11.2,3.2v8.3c0,0.6-0.2,1-0.6,1.4s-0.9,0.6-1.4,0.6
			c-0.6,0-1-0.2-1.4-0.6c-0.4-0.4-0.6-0.8-0.6-1.4v-32.8c0-1,0.6-1.7,1.7-2c0.4-0.1,1.4-0.1,3-0.1c4.3,0,8,1.1,11,3.4
			C218.8,157.3,220.5,160.7,220.5,164.8z M216.4,164.8c0-3.3-1.3-5.7-4-7.3c-2.1-1.3-5-1.9-8.5-1.9l0.2,18.3c3.4,0,6.2-0.6,8.3-1.8
			C215,170.4,216.4,168,216.4,164.8z"/>
		<path class="st2" d="M227.2,186.2c0,0.6-0.2,1-0.6,1.4c-0.4,0.4-0.9,0.6-1.4,0.6c-0.6,0-1-0.2-1.4-0.6c-0.4-0.4-0.6-0.9-0.6-1.4
			v-32.6c0-0.6,0.2-1,0.6-1.4c0.4-0.4,0.9-0.6,1.4-0.6c0.6,0,1,0.2,1.4,0.6c0.4,0.4,0.6,0.9,0.6,1.4V186.2z"/>
	</g>
</g>
</svg>
