<?xml version="1.0" encoding="utf-8"?>
<!-- Generator: Adobe Illustrator 27.8.1, SVG Export Plug-In . SVG Version: 6.00 Build 0)  -->
<svg version="1.1" xmlns="http://www.w3.org/2000/svg" xmlns:xlink="http://www.w3.org/1999/xlink" x="0px" y="0px"
	 viewBox="0 0 500 500" style="enable-background:new 0 0 500 500;" xml:space="preserve">
<style type="text/css">
	.st0{fill:#D3D3D3;}
	.st1{fill:#A045DB;}
	.st2{fill:#D39FFC;}
	.st3{fill:#FFFFFF;}
	.st4{fill:#EDEDED;}
	.st5{fill:#727272;}
	.st6{fill:#CCCCCC;}
	.st7{fill:#ACEABC;}
	.st8{fill:#F5EBFF;}
	.st9{fill:#F9EEC0;}
	.st10{fill:#BCD845;}
	.st11{fill:#D845A3;}
	.st12{fill:#45D8D8;}
	.st13{fill:#D8A045;}
	.st14{fill:#45D8CD;}
	.st15{fill:#D647C9;}
	.st16{fill:#F4C500;}
	.st17{fill:#C1C1C1;}
</style>
<g id="egg">
	<g>
		<rect x="19.6" y="155.3" class="st0" width="465.9" height="318.8"/>
	</g>
	<g>
		<rect x="19.6" y="63" class="st1" width="237.8" height="40.9"/>
	</g>
	<g>
		<rect x="19.6" y="103.8" class="st2" width="465.9" height="51.5"/>
	</g>
	<g>
		<rect x="162.7" y="161" class="st3" width="316.3" height="308.4"/>
	</g>
	<g>
		<rect x="27.8" y="161" class="st4" width="125" height="61.3"/>
	</g>
	<g>
		<rect x="27.8" y="231.7" class="st4" width="125" height="26.9"/>
	</g>
	<g>
		<path class="st5" d="M135.7,248.7H37.6c-1.9,0-3.5-1.6-3.5-3.5s1.6-3.5,3.5-3.5h98.1c1.9,0,3.5,1.6,3.5,3.5
			S137.6,248.7,135.7,248.7z"/>
	</g>
	<g>
		<rect x="27.8" y="262.8" class="st4" width="125" height="26.9"/>
	</g>
	<g>
		<path class="st5" d="M135.7,279.8H37.6c-1.9,0-3.5-1.6-3.5-3.5s1.6-3.5,3.5-3.5h98.1c1.9,0,3.5,1.6,3.5,3.5
			S137.6,279.8,135.7,279.8z"/>
	</g>
	<g>
		<rect x="27.8" y="294" class="st4" width="125" height="26.9"/>
	</g>
	<g>
		<path class="st5" d="M135.7,310.9H37.6c-1.9,0-3.5-1.6-3.5-3.5s1.6-3.5,3.5-3.5h98.1c1.9,0,3.5,1.6,3.5,3.5
			S137.6,310.9,135.7,310.9z"/>
	</g>
	<g>
		<rect x="27.8" y="325.1" class="st4" width="125" height="26.9"/>
	</g>
	<g>
		<path class="st5" d="M135.7,342H37.6c-1.9,0-3.5-1.6-3.5-3.5s1.6-3.5,3.5-3.5h98.1c1.9,0,3.5,1.6,3.5,3.5S137.6,342,135.7,342z"/>
	</g>
	<g>
		<rect x="27.8" y="356.2" class="st4" width="125" height="26.9"/>
	</g>
	<g>
		<path class="st5" d="M135.7,373.1H37.6c-1.9,0-3.5-1.6-3.5-3.5s1.6-3.5,3.5-3.5h98.1c1.9,0,3.5,1.6,3.5,3.5
			S137.6,373.1,135.7,373.1z"/>
	</g>
	<g>
		<rect x="27.8" y="387.3" class="st4" width="125" height="26.9"/>
	</g>
	<g>
		<path class="st5" d="M135.7,404.2H37.6c-1.9,0-3.5-1.6-3.5-3.5s1.6-3.5,3.5-3.5h98.1c1.9,0,3.5,1.6,3.5,3.5
			S137.6,404.2,135.7,404.2z"/>
	</g>
	<g>
		<path class="st6" d="M86.7,178h-49c-1.9,0-3.5-1.6-3.5-3.5s1.6-3.5,3.5-3.5h49c1.9,0,3.5,1.6,3.5,3.5S88.6,178,86.7,178z"/>
	</g>
	<g>
		<path class="st6" d="M135.7,178h-31.9c-1.9,0-3.5-1.6-3.5-3.5s1.6-3.5,3.5-3.5h31.9c1.9,0,3.5,1.6,3.5,3.5S137.6,178,135.7,178z"
			/>
	</g>
	<g>
		<path class="st6" d="M86.7,193.5h-49c-1.9,0-3.5-1.6-3.5-3.5s1.6-3.5,3.5-3.5h49c1.9,0,3.5,1.6,3.5,3.5S88.6,193.5,86.7,193.5z"/>
	</g>
	<g>
		<path class="st6" d="M135.7,193.5h-31.9c-1.9,0-3.5-1.6-3.5-3.5s1.6-3.5,3.5-3.5h31.9c1.9,0,3.5,1.6,3.5,3.5
			S137.6,193.5,135.7,193.5z"/>
	</g>
	<g>
		<path class="st6" d="M86.7,209.1h-49c-1.9,0-3.5-1.6-3.5-3.5s1.6-3.5,3.5-3.5h49c1.9,0,3.5,1.6,3.5,3.5S88.6,209.1,86.7,209.1z"/>
	</g>
	<g>
		<path class="st6" d="M135.7,209.1h-31.9c-1.9,0-3.5-1.6-3.5-3.5s1.6-3.5,3.5-3.5h31.9c1.9,0,3.5,1.6,3.5,3.5
			S137.6,209.1,135.7,209.1z"/>
	</g>
	<g>
		<path class="st7" d="M125.5,135.7H43.7c-3.4,0-6.1-2.7-6.1-6.1v0c0-3.4,2.7-6.1,6.1-6.1h81.7c3.4,0,6.1,2.7,6.1,6.1v0
			C131.6,133,128.9,135.7,125.5,135.7z"/>
	</g>
	<g>
		<path class="st8" d="M232.5,135.7h-81.7c-3.4,0-6.1-2.7-6.1-6.1v0c0-3.4,2.7-6.1,6.1-6.1h81.7c3.4,0,6.1,2.7,6.1,6.1v0
			C238.7,133,235.9,135.7,232.5,135.7z"/>
	</g>
	<g>
		<path class="st9" d="M340.4,135.7h-81.7c-3.4,0-6.1-2.7-6.1-6.1v0c0-3.4,2.7-6.1,6.1-6.1h81.7c3.4,0,6.1,2.7,6.1,6.1v0
			C346.6,133,343.8,135.7,340.4,135.7z"/>
	</g>
	<g>
		
			<rect x="315.5" y="204.3" transform="matrix(0.9999 -1.474759e-02 1.474759e-02 0.9999 -3.7967 4.7475)" class="st10" width="9" height="110.9"/>
	</g>
	<g>
		<rect x="216.2" y="313.8" class="st11" width="104.6" height="3"/>
	</g>
	<g>
		
			<rect x="311.4" y="281.1" transform="matrix(0.8464 -0.5326 0.5326 0.8464 -93.2643 241.9153)" class="st12" width="122.6" height="3"/>
	</g>
	<g>
		<rect x="319.3" y="315.3" class="st13" width="3" height="110.9"/>
	</g>
	<g>
		
			<rect x="366.2" y="285.3" transform="matrix(0.5012 -0.8653 0.8653 0.5012 -112.9049 494.7599)" class="st14" width="13" height="120"/>
	</g>
	<g>
		<path class="st15" d="M330,321.3l-9.9-4.7c-23.9-11.4-37.3-26.5-39.9-44.7c-2.2-15.5,3.7-33.6,17-52.3c10-14,20.8-23.6,20.9-23.7
			l2,2.2c-0.4,0.4-41.9,37.6-36.9,73.4c2.1,15.2,12.4,28.1,30.6,38.5c-4.2-5.2-9.6-13.3-13.2-24.2c-10.8-32.4,3.5-62.6,17.3-82.2
			l2.5,1.7c-19.2,27.3-25.1,54.7-17,79.4c6.2,18.7,18.2,29.4,18.4,29.5L330,321.3z"/>
	</g>
	<g>
		<path class="st15" d="M411.1,385.3c-35.1,0-57.4-16.7-70.3-31.6c-15.7-18.2-21.2-37.2-21.4-38l2.9-0.8c0.1,0.2,5.5,19.3,20.9,37
			c20.5,23.6,47.8,33.6,81.3,29.7l0.3,3C420,385.1,415.5,385.3,411.1,385.3z"/>
	</g>
	<g>
		<circle class="st16" cx="320.8" cy="315.3" r="19.2"/>
	</g>
	<g>
		<circle class="st1" cx="319.2" cy="204.4" r="19.2"/>
	</g>
	<g>
		<circle class="st1" cx="320.8" cy="426.2" r="19.2"/>
	</g>
	<g>
		<circle class="st1" cx="216.2" cy="315.3" r="19.2"/>
	</g>
	<g>
		<circle class="st1" cx="424.6" cy="250" r="19.2"/>
	</g>
	<g>
		<circle class="st1" cx="424.6" cy="375.4" r="19.2"/>
	</g>
	<g>
		<rect x="262.2" y="63" class="st17" width="223.3" height="40.9"/>
	</g>
</g>
<g id="nest">
</g>
</svg>
