<?xml version="1.0" encoding="utf-8"?>
<!-- Generator: Adobe Illustrator 27.8.1, SVG Export Plug-In . SVG Version: 6.00 Build 0)  -->
<svg version="1.1" id="Layer_1" xmlns="http://www.w3.org/2000/svg" xmlns:xlink="http://www.w3.org/1999/xlink" x="0px" y="0px"
	 viewBox="0 0 500 500" style="enable-background:new 0 0 500 500;" xml:space="preserve">
<style type="text/css">
	.st0{fill:#333333;}
	.st1{fill:#999999;}
	.st2{fill:#71D868;}
	.st3{fill:#FFFFFF;}
	.st4{fill:#F4F4F4;}
	.st5{fill:#C6C6C6;}
	.st6{fill:#D7FCD4;}
	.st7{fill:#66BF5C;}
	.st8{fill:#C0D5FC;}
	.st9{fill:#406FC1;}
	.st10{fill:#353535;}
	.st11{fill:#C13D3D;}
	.st12{fill:#CC841B;}
	.st13{fill:#D3D3D3;}
	.st14{fill:#93BF86;}
</style>
<g id="egg">
	<g>
		<path class="st0" d="M255.9,168.7h-197c-7.3,0-13.3-5.9-13.3-13.3V37.6c0-7.3,5.9-13.3,13.3-13.3h197c7.3,0,13.3,5.9,13.3,13.3
			v117.8C269.2,162.7,263.3,168.7,255.9,168.7z"/>
		<path class="st1" d="M255.9,172.2h-197c-9.3,0-16.8-7.5-16.8-16.8V37.6c0-9.3,7.5-16.8,16.8-16.8h197c9.3,0,16.8,7.5,16.8,16.8
			v117.8C272.7,164.7,265.2,172.2,255.9,172.2z M58.9,27.8c-5.4,0-9.8,4.4-9.8,9.8v117.8c0,5.4,4.4,9.8,9.8,9.8h197
			c5.4,0,9.8-4.4,9.8-9.8V37.6c0-5.4-4.4-9.8-9.8-9.8H58.9z"/>
	</g>
	<g>
		<path class="st2" d="M151.8,149l-26.4-80.1l-13.9,37.9l-10.1-11.3l-10.1,40.3L75.5,88.5L68.7,100H48.6c-1.9,0-3.5-1.6-3.5-3.5
			s1.6-3.5,3.5-3.5h16.1l12.6-21.3l13,39.1l7.5-29.9l11.1,12.5l16.9-45.9l23.6,71.9l5-31l17.8,0.4c1.9,0,3.5,1.6,3.4,3.6
			c0,1.9-1.7,3.4-3.6,3.4l-11.8-0.2L151.8,149z"/>
	</g>
	<g>
		<path class="st2" d="M212.6,136.5c-23.2,0-42-18.8-42-42s18.8-42,42-42s42,18.8,42,42S235.8,136.5,212.6,136.5z M212.6,59.5
			c-19.3,0-35,15.7-35,35s15.7,35,35,35s35-15.7,35-35S231.9,59.5,212.6,59.5z"/>
	</g>
	<g>
		<g>
			<path class="st3" d="M186.7,93c0-4.4,1.2-7.9,3.6-10.4s5.4-3.7,9.2-3.7c2.5,0,4.7,0.6,6.6,1.8c2,1.2,3.5,2.8,4.5,4.9
				s1.5,4.5,1.5,7.1c0,2.7-0.5,5.1-1.6,7.2s-2.6,3.7-4.6,4.8c-2,1.1-4.1,1.6-6.5,1.6c-2.5,0-4.7-0.6-6.7-1.8c-2-1.2-3.5-2.9-4.5-4.9
				C187.2,97.5,186.7,95.3,186.7,93z M190.3,93c0,3.2,0.9,5.7,2.6,7.6c1.7,1.8,3.9,2.8,6.5,2.8s4.8-0.9,6.5-2.8s2.6-4.5,2.6-7.9
				c0-2.2-0.4-4.1-1.1-5.7c-0.7-1.6-1.8-2.9-3.2-3.8s-3-1.3-4.7-1.3c-2.5,0-4.6,0.9-6.4,2.6C191.2,86.2,190.3,89,190.3,93z"/>
		</g>
		<g>
			<path class="st3" d="M216.5,105.9V79.3h3.5v13.2l13.2-13.2h4.8l-11.2,10.8l11.6,15.8h-4.6l-9.5-13.5l-4.4,4.2v9.2L216.5,105.9
				L216.5,105.9z"/>
		</g>
	</g>
	<g>
		<g>
			<rect x="42.2" y="192.7" class="st0" width="420.1" height="283.8"/>
		</g>
		<g>
			<path class="st1" d="M458.8,196.2V473H45.7V196.2H458.8 M465.8,189.2h-7H45.7h-7v7V473v7h7h413.1h7v-7V196.2L465.8,189.2
				L465.8,189.2z"/>
		</g>
	</g>
	<g>
		<rect x="245.1" y="196.2" class="st4" width="213.7" height="276.8"/>
	</g>
	<g>
		<rect x="245.1" y="196.2" class="st5" width="213.7" height="73"/>
	</g>
	<g>
		<rect x="252.2" y="310.1" class="st6" width="201.1" height="24.5"/>
	</g>
	<g>
		<rect x="256.1" y="315.5" class="st7" width="26.2" height="13.6"/>
	</g>
	<g>
		<path class="st1" d="M385.8,325.8h-93.7c-1.9,0-3.5-1.6-3.5-3.5s1.6-3.5,3.5-3.5h93.7c1.9,0,3.5,1.6,3.5,3.5
			S387.7,325.8,385.8,325.8z"/>
	</g>
	<g>
		<rect x="251.4" y="341.7" class="st8" width="201.1" height="24.5"/>
	</g>
	<g>
		<rect x="255.3" y="347.1" class="st9" width="26.2" height="13.6"/>
	</g>
	<g>
		<path class="st1" d="M385,357.4h-93.7c-1.9,0-3.5-1.6-3.5-3.5s1.6-3.5,3.5-3.5H385c1.9,0,3.5,1.6,3.5,3.5S386.9,357.4,385,357.4z"
			/>
	</g>
	<g>
		<rect x="251.4" y="385.5" class="st8" width="201.1" height="24.5"/>
	</g>
	<g>
		<rect x="255.3" y="391" class="st9" width="26.2" height="13.6"/>
	</g>
	<g>
		<path class="st1" d="M385,401.3h-93.7c-1.9,0-3.5-1.6-3.5-3.5s1.6-3.5,3.5-3.5H385c1.9,0,3.5,1.6,3.5,3.5S386.9,401.3,385,401.3z"
			/>
	</g>
	<g>
		<rect x="251.4" y="415.5" class="st6" width="201.1" height="24.5"/>
	</g>
	<g>
		<rect x="255.3" y="420.9" class="st7" width="26.2" height="13.6"/>
	</g>
	<g>
		<path class="st1" d="M385,431.3h-93.7c-1.9,0-3.5-1.6-3.5-3.5s1.6-3.5,3.5-3.5H385c1.9,0,3.5,1.6,3.5,3.5S386.9,431.3,385,431.3z"
			/>
	</g>
	<g>
		<path class="st1" d="M354.2,232.6h-93.7c-1.9,0-3.5-1.6-3.5-3.5s1.6-3.5,3.5-3.5h93.7c1.9,0,3.5,1.6,3.5,3.5
			S356.1,232.6,354.2,232.6z"/>
	</g>
	<g>
		<path class="st10" d="M354.2,218.4h-93.7c-1.9,0-3.5-1.6-3.5-3.5s1.6-3.5,3.5-3.5h93.7c1.9,0,3.5,1.6,3.5,3.5
			S356.1,218.4,354.2,218.4z"/>
	</g>
	<g>
		<path class="st11" d="M88.9,221.1H67.6c-1.9,0-3.5-1.6-3.5-3.5s1.6-3.5,3.5-3.5h21.3c1.9,0,3.5,1.6,3.5,3.5S90.8,221.1,88.9,221.1
			z"/>
	</g>
	<g>
		<path class="st12" d="M124,221.1h-21.3c-1.9,0-3.5-1.6-3.5-3.5s1.6-3.5,3.5-3.5H124c1.9,0,3.5,1.6,3.5,3.5S125.9,221.1,124,221.1z
			"/>
	</g>
	<g>
		<path class="st11" d="M88.9,232.6H67.6c-1.9,0-3.5-1.6-3.5-3.5s1.6-3.5,3.5-3.5h21.3c1.9,0,3.5,1.6,3.5,3.5S90.8,232.6,88.9,232.6
			z"/>
	</g>
	<g>
		<path class="st13" d="M173.7,232.6h-71c-1.9,0-3.5-1.6-3.5-3.5s1.6-3.5,3.5-3.5h71c1.9,0,3.5,1.6,3.5,3.5S175.6,232.6,173.7,232.6
			z"/>
	</g>
	<g>
		<path class="st11" d="M88.9,244.2H67.6c-1.9,0-3.5-1.6-3.5-3.5s1.6-3.5,3.5-3.5h21.3c1.9,0,3.5,1.6,3.5,3.5S90.8,244.2,88.9,244.2
			z"/>
	</g>
	<g>
		<path class="st11" d="M100,255.7H78.6c-1.9,0-3.5-1.6-3.5-3.5c0-1.9,1.6-3.5,3.5-3.5H100c1.9,0,3.5,1.6,3.5,3.5
			C103.5,254.1,101.9,255.7,100,255.7z"/>
	</g>
	<g>
		<path class="st13" d="M139.6,255.7h-25.9c-1.9,0-3.5-1.6-3.5-3.5c0-1.9,1.6-3.5,3.5-3.5h25.9c1.9,0,3.5,1.6,3.5,3.5
			C143.1,254.1,141.5,255.7,139.6,255.7z"/>
	</g>
	<g>
		<path class="st11" d="M99.6,267.2H78.3c-1.9,0-3.5-1.6-3.5-3.5s1.6-3.5,3.5-3.5h21.3c1.9,0,3.5,1.6,3.5,3.5
			S101.5,267.2,99.6,267.2z"/>
	</g>
	<g>
		<path class="st11" d="M88.2,278.8H66.9c-1.9,0-3.5-1.6-3.5-3.5s1.6-3.5,3.5-3.5h21.3c1.9,0,3.5,1.6,3.5,3.5S90.1,278.8,88.2,278.8
			z"/>
	</g>
	<g>
		<path class="st13" d="M134.7,267.2h-21.3c-1.9,0-3.5-1.6-3.5-3.5s1.6-3.5,3.5-3.5h21.3c1.9,0,3.5,1.6,3.5,3.5
			S136.6,267.2,134.7,267.2z"/>
	</g>
	<g>
		<path class="st14" d="M170.3,278.8h-71c-1.9,0-3.5-1.6-3.5-3.5s1.6-3.5,3.5-3.5h71c1.9,0,3.5,1.6,3.5,3.5S172.2,278.8,170.3,278.8
			z"/>
	</g>
	<g>
		<path class="st14" d="M170.3,290.3h-71c-1.9,0-3.5-1.6-3.5-3.5s1.6-3.5,3.5-3.5h71c1.9,0,3.5,1.6,3.5,3.5S172.2,290.3,170.3,290.3
			z"/>
	</g>
	<g>
		<path class="st14" d="M170.2,301.8h-71c-1.9,0-3.5-1.6-3.5-3.5s1.6-3.5,3.5-3.5h71c1.9,0,3.5,1.6,3.5,3.5S172.1,301.8,170.2,301.8
			z"/>
	</g>
	<g>
		<path class="st14" d="M150.3,313.6H99.2c-1.9,0-3.5-1.6-3.5-3.5s1.6-3.5,3.5-3.5h51.1c1.9,0,3.5,1.6,3.5,3.5
			S152.2,313.6,150.3,313.6z"/>
	</g>
	<g>
		<path class="st11" d="M88.9,329.2H67.6c-1.9,0-3.5-1.6-3.5-3.5s1.6-3.5,3.5-3.5h21.3c1.9,0,3.5,1.6,3.5,3.5S90.8,329.2,88.9,329.2
			z"/>
	</g>
	<g>
		<path class="st13" d="M117.5,329.2h-14.8c-1.9,0-3.5-1.6-3.5-3.5s1.6-3.5,3.5-3.5h14.8c1.9,0,3.5,1.6,3.5,3.5
			S119.4,329.2,117.5,329.2z"/>
	</g>
	<g>
		<path class="st11" d="M88.9,340.8H67.6c-1.9,0-3.5-1.6-3.5-3.5s1.6-3.5,3.5-3.5h21.3c1.9,0,3.5,1.6,3.5,3.5S90.8,340.8,88.9,340.8
			z"/>
	</g>
	<g>
		<path class="st11" d="M100,352.3H78.6c-1.9,0-3.5-1.6-3.5-3.5s1.6-3.5,3.5-3.5H100c1.9,0,3.5,1.6,3.5,3.5S101.9,352.3,100,352.3z"
			/>
	</g>
	<g>
		<path class="st13" d="M218,352.3H113.7c-1.9,0-3.5-1.6-3.5-3.5s1.6-3.5,3.5-3.5H218c1.9,0,3.5,1.6,3.5,3.5S219.9,352.3,218,352.3z
			"/>
	</g>
	<g>
		<path class="st11" d="M99.6,363.8H78.3c-1.9,0-3.5-1.6-3.5-3.5s1.6-3.5,3.5-3.5h21.3c1.9,0,3.5,1.6,3.5,3.5
			S101.5,363.8,99.6,363.8z"/>
	</g>
	<g>
		<path class="st11" d="M88.2,375.4H66.9c-1.9,0-3.5-1.6-3.5-3.5s1.6-3.5,3.5-3.5h21.3c1.9,0,3.5,1.6,3.5,3.5S90.1,375.4,88.2,375.4
			z"/>
	</g>
	<g>
		<path class="st13" d="M134.7,363.8h-21.3c-1.9,0-3.5-1.6-3.5-3.5s1.6-3.5,3.5-3.5h21.3c1.9,0,3.5,1.6,3.5,3.5
			S136.6,363.8,134.7,363.8z"/>
	</g>
	<g>
		<path class="st14" d="M170.3,375.4h-71c-1.9,0-3.5-1.6-3.5-3.5s1.6-3.5,3.5-3.5h71c1.9,0,3.5,1.6,3.5,3.5S172.2,375.4,170.3,375.4
			z"/>
	</g>
	<g>
		<path class="st14" d="M134.8,386.9H99.3c-1.9,0-3.5-1.6-3.5-3.5s1.6-3.5,3.5-3.5h35.5c1.9,0,3.5,1.6,3.5,3.5
			S136.7,386.9,134.8,386.9z"/>
	</g>
	<g>
		<path class="st11" d="M88,401.7H66.7c-1.9,0-3.5-1.6-3.5-3.5s1.6-3.5,3.5-3.5H88c1.9,0,3.5,1.6,3.5,3.5S89.9,401.7,88,401.7z"/>
	</g>
	<g>
		<path class="st13" d="M116.6,401.7h-14.8c-1.9,0-3.5-1.6-3.5-3.5s1.6-3.5,3.5-3.5h14.8c1.9,0,3.5,1.6,3.5,3.5
			S118.5,401.7,116.6,401.7z"/>
	</g>
	<g>
		<path class="st11" d="M88,413.2H66.7c-1.9,0-3.5-1.6-3.5-3.5s1.6-3.5,3.5-3.5H88c1.9,0,3.5,1.6,3.5,3.5S89.9,413.2,88,413.2z"/>
	</g>
	<g>
		<path class="st11" d="M99.1,424.8H77.7c-1.9,0-3.5-1.6-3.5-3.5s1.6-3.5,3.5-3.5h21.4c1.9,0,3.5,1.6,3.5,3.5S101,424.8,99.1,424.8z
			"/>
	</g>
	<g>
		<path class="st13" d="M138.7,424.8h-25.9c-1.9,0-3.5-1.6-3.5-3.5s1.6-3.5,3.5-3.5h25.9c1.9,0,3.5,1.6,3.5,3.5
			S140.6,424.8,138.7,424.8z"/>
	</g>
	<g>
		<path class="st11" d="M98.7,436.3H77.3c-1.9,0-3.5-1.6-3.5-3.5s1.6-3.5,3.5-3.5h21.4c1.9,0,3.5,1.6,3.5,3.5
			S100.6,436.3,98.7,436.3z"/>
	</g>
	<g>
		<path class="st13" d="M194.4,436.3h-82c-1.9,0-3.5-1.6-3.5-3.5s1.6-3.5,3.5-3.5h82c1.9,0,3.5,1.6,3.5,3.5S196.3,436.3,194.4,436.3
			z"/>
	</g>
	<g>
		<path class="st11" d="M98.7,447.8H77.3c-1.9,0-3.5-1.6-3.5-3.5s1.6-3.5,3.5-3.5h21.4c1.9,0,3.5,1.6,3.5,3.5
			S100.6,447.8,98.7,447.8z"/>
	</g>
	<g>
		<path class="st13" d="M170.2,447.8h-57.8c-1.9,0-3.5-1.6-3.5-3.5s1.6-3.5,3.5-3.5h57.8c1.9,0,3.5,1.6,3.5,3.5
			S172.1,447.8,170.2,447.8z"/>
	</g>
	<g>
		<path class="st11" d="M98.3,459.4H77c-1.9,0-3.5-1.6-3.5-3.5s1.6-3.5,3.5-3.5h21.3c1.9,0,3.5,1.6,3.5,3.5S100.2,459.4,98.3,459.4z
			"/>
	</g>
	<g>
		<path class="st13" d="M133.4,459.4h-21.3c-1.9,0-3.5-1.6-3.5-3.5s1.6-3.5,3.5-3.5h21.3c1.9,0,3.5,1.6,3.5,3.5
			S135.3,459.4,133.4,459.4z"/>
	</g>
	<g>
		<path class="st13" d="M385,141.4c-24.7,0-44.8-20.1-44.8-44.8c0-24.7,20.1-44.8,44.8-44.8s44.8,20.1,44.8,44.8
			C429.8,121.3,409.7,141.4,385,141.4z M385,58.8c-20.8,0-37.8,17-37.8,37.8c0,20.8,17,37.8,37.8,37.8s37.8-17,37.8-37.8
			C422.8,75.8,405.8,58.8,385,58.8z"/>
	</g>
	<g>
		<path class="st13" d="M410.5,96.6c0-14.1-11.5-25.6-25.6-25.6s-25.6,11.5-25.6,25.6c0,10.9,6.8,20.2,16.4,23.9
			c-3.3,2.2-6.2,6.3-6.3,13.5c0,0,17.7,8,28.3,1.2c0,0,1.5-8.8-5.2-14.2C403,117.7,410.5,108,410.5,96.6z M375,98.2
			c-1.6,0.1-2.9-1-3.1-2.6c-0.1-1.6,1-2.9,2.6-3.1c1.6-0.1,2.9,1,3.1,2.6C377.7,96.7,376.5,98.1,375,98.2z M395.1,99.2
			c-1.6,0.1-2.9-1-3.1-2.6c-0.1-1.6,1-2.9,2.6-3.1c1.6-0.1,2.9,1,3.1,2.6C397.8,97.7,396.7,99,395.1,99.2z"/>
	</g>
</g>
<g id="nest">
</g>
</svg>
