<?xml version="1.0" encoding="utf-8"?>
<!-- Generator: Adobe Illustrator 22.1.0, SVG Export Plug-In . SVG Version: 6.00 Build 0)  -->
<svg version="1.1" id="Layer_1" xmlns="http://www.w3.org/2000/svg" xmlns:xlink="http://www.w3.org/1999/xlink" x="0px" y="0px"
	 viewBox="0 0 396 288" style="enable-background:new 0 0 396 288;" xml:space="preserve">
<style type="text/css">
	.st0{fill:none;stroke:#e7e7e7;stroke-width:0.25;stroke-miterlimit:10;}
	.st1{fill:none;stroke:#e7e7e7;stroke-width:0.2353;stroke-miterlimit:10;}
	.st2{fill:none;stroke:#e7e7e7;stroke-width:0.2206;stroke-miterlimit:10;}
	.st3{fill:none;stroke:#e7e7e7;stroke-width:0.2059;stroke-miterlimit:10;}
	.st4{fill:none;stroke:#e7e7e7;stroke-width:0.1912;stroke-miterlimit:10;}
	.st5{fill:none;stroke:#e7e7e7;stroke-width:0.1765;stroke-miterlimit:10;}
	.st6{fill:none;stroke:#e7e7e7;stroke-width:0.1618;stroke-miterlimit:10;}
	.st7{fill:none;stroke:#e7e7e7;stroke-width:0.1471;stroke-miterlimit:10;}
	.st8{fill:none;stroke:#e7e7e7;stroke-width:0.1324;stroke-miterlimit:10;}
	.st9{fill:none;stroke:#e7e7e7;stroke-width:0.1176;stroke-miterlimit:10;}
	.st10{fill:none;stroke:#e7e7e7;stroke-width:0.1029;stroke-miterlimit:10;}
	.st11{fill:none;stroke:#e7e7e7;stroke-width:8.823530e-02;stroke-miterlimit:10;}
	.st12{fill:none;stroke:#e7e7e7;stroke-width:7.352941e-02;stroke-miterlimit:10;}
	.st13{fill:none;stroke:#e7e7e7;stroke-width:5.882353e-02;stroke-miterlimit:10;}
	.st14{fill:none;stroke:#e7e7e7;stroke-width:4.411765e-02;stroke-miterlimit:10;}
	.st15{fill:none;stroke:#e7e7e7;stroke-width:2.941176e-02;stroke-miterlimit:10;}
	.st16{fill:none;stroke:#e7e7e7;stroke-width:1.470588e-02;stroke-miterlimit:10;}
	.st17{fill:none;}
</style>
<g id="New_Symbol_6">
</g>
<polyline class="st0" points="396,276.7 312.7,248 267.3,204.7 198,235.3 115.3,259.3 96,231.3 58.7,217.3 8,184 "/>
<polyline class="st0" points="75.3,248 96,231.3 150,230.3 234.7,155.3 381.3,92 396,112.7 396,251.3 300.7,164.7 267.3,204.7 
	229.3,251.3 115.3,259.3 105.3,184 224.7,204.7 298,144 396,94.7 "/>
<line class="st0" x1="105.3" y1="184" x2="58.7" y2="217.3"/>
<line class="st0" x1="75.3" y1="248" x2="29.9" y2="198.4"/>
<line class="st0" x1="224.7" y1="204.7" x2="234.7" y2="155.3"/>
<line class="st0" x1="300.7" y1="164.7" x2="386.6" y2="99.4"/>
<line class="st0" x1="298" y1="144" x2="396" y2="251.3"/>
<line class="st0" x1="224.7" y1="204.7" x2="300.7" y2="164.7"/>
<line class="st0" x1="229.3" y1="251.3" x2="308.7" y2="288"/>
<line class="st0" x1="312.7" y1="248" x2="229.3" y2="251.3"/>
<line class="st0" x1="150" y1="230.3" x2="229.3" y2="251.3"/>
<line class="st0" x1="29.9" y1="198.4" x2="105.3" y2="184"/>
<line class="st0" x1="75.3" y1="248" x2="150" y2="230.3"/>
<line class="st0" x1="189.7" y1="237.8" x2="224.7" y2="204.7"/>
<line class="st0" x1="234.7" y1="155.3" x2="298" y2="144"/>
<line class="st0" x1="267.3" y1="204.7" x2="396" y2="251.3"/>
<line class="st0" x1="312.7" y1="248" x2="402.7" y2="249.7"/>
<line class="st0" x1="184.2" y1="197.7" x2="189.7" y2="237.8"/>
<line class="st0" x1="150" y1="230.3" x2="105.3" y2="184"/>
<line class="st0" x1="310.2" y1="157.4" x2="396" y2="163.3"/>
<line class="st0" x1="229.3" y1="251.3" x2="251.3" y2="288"/>
<line class="st0" x1="75.3" y1="248" x2="112.7" y2="288"/>
<line class="st0" x1="381.3" y1="92" x2="396" y2="48.7"/>
<line class="st0" x1="105.3" y1="184" x2="170.7" y2="120.7"/>
<line class="st0" x1="234.7" y1="155.3" x2="170.7" y2="120.7"/>
<line class="st0" x1="381.3" y1="92" x2="170.7" y2="120.7"/>
<line class="st0" x1="105.3" y1="184" x2="300.7" y2="164.7"/>
<line class="st0" x1="231.4" y1="171.5" x2="298" y2="144"/>
<line class="st0" x1="300.7" y1="164.7" x2="322.9" y2="224.8"/>
<line class="st0" x1="312.7" y1="248" x2="322.9" y2="224.8"/>
<line class="st0" x1="229.3" y1="251.3" x2="322.9" y2="224.8"/>
<line class="st0" x1="115.3" y1="259.3" x2="251.3" y2="288"/>
<circle class="st0" cx="105.3" cy="184" r="5.7"/>
<circle class="st0" cx="300.7" cy="164.7" r="11"/>
<circle class="st0" cx="229.7" cy="250.9" r="10.7"/>
<circle class="st0" cx="300.7" cy="164.7" r="5.7"/>
<circle class="st0" cx="224.7" cy="204.7" r="5"/>
<g>
	<line class="st0" x1="251.5" y1="288" x2="396" y2="288"/>
	<path class="st1" d="M251.5,288c0,0,141.1-0.7,144.5-14.5"/>
	<path class="st2" d="M251.5,288c0,0,137.7-1.5,144.5-29"/>
	<path class="st3" d="M251.5,288c0,0,134.3-2.2,144.5-43.5"/>
	<path class="st4" d="M251.5,288c0,0,130.9-2.9,144.5-58"/>
	<path class="st5" d="M251.5,288c0,0,127.5-3.7,144.5-72.5"/>
	<path class="st6" d="M251.5,288c0,0,124.1-4.4,144.5-87"/>
	<path class="st7" d="M251.5,288c0,0,120.7-5.1,144.5-101.5"/>
	<path class="st8" d="M251.5,288c0,0,117.4-5.8,144.5-116"/>
	<path class="st9" d="M251.5,288c0,0,114-6.6,144.5-130.4"/>
	<path class="st10" d="M251.5,288c0,0,110.6-7.3,144.5-144.9"/>
	<path class="st11" d="M251.5,288c0,0,107.2-8,144.5-159.4"/>
	<path class="st12" d="M251.5,288c0,0,103.8-8.8,144.5-173.9"/>
	<path class="st13" d="M251.5,288c0,0,100.4-9.5,144.5-188.4"/>
	<path class="st14" d="M251.5,288c0,0,97-10.2,144.5-202.9"/>
	<path class="st15" d="M251.5,288c0,0,93.6-11,144.5-217.4"/>
	<path class="st16" d="M251.5,288c0,0,90.2-11.7,144.5-231.9"/>
	<path class="st17" d="M251.5,288c0,0,86.8-12.4,144.5-246.4"/>
</g>
</svg>
