<?xml version="1.0" encoding="utf-8"?>
<!-- Generator: Adobe Illustrator 27.8.1, SVG Export Plug-In . SVG Version: 6.00 Build 0)  -->
<svg version="1.1" id="Layer_1" xmlns="http://www.w3.org/2000/svg" xmlns:xlink="http://www.w3.org/1999/xlink" x="0px" y="0px"
	 viewBox="0 0 106.8 106.8" style="enable-background:new 0 0 106.8 106.8;" xml:space="preserve">
<style type="text/css">
	.st0{fill:#2ABA5A;}
</style>
<g>
	<path class="st0" d="M37.9,40.7c-5.9,0-8.9,5.5-8.9,11.6c0,5.9,3.2,11.3,8.9,11.3c5.7,0,8.9-5.2,8.9-11.5
		C46.8,46.5,43.9,40.7,37.9,40.7z"/>
	<path class="st0" d="M53.4,9.1C28.9,9.1,9.1,28.9,9.1,53.4c0,24.5,19.8,44.3,44.3,44.3c24.5,0,44.3-19.8,44.3-44.3
		C97.7,28.9,77.9,9.1,53.4,9.1z M37.7,66.5c-7.3,0-12.5-5.7-12.5-14.1c0-8.8,5.5-14.6,12.9-14.6c7.6,0,12.5,5.8,12.5,14.1
		C50.6,61.4,44.8,66.5,37.7,66.5z M70.6,66l-9.2-13.6l-2.6,3V66h-3.6V38.2h3.6v13.4H59c0.7-1.1,1.5-2.1,2.2-3l8.5-10.4h4.5L64,50
		l10.8,16H70.6z"/>
</g>
</svg>
