<?xml version="1.0" encoding="utf-8"?>
<!-- Generator: Adobe Illustrator 27.8.1, SVG Export Plug-In . SVG Version: 6.00 Build 0)  -->
<svg version="1.1" id="Layer_1" xmlns="http://www.w3.org/2000/svg" xmlns:xlink="http://www.w3.org/1999/xlink" x="0px" y="0px"
	 viewBox="0 0 500 500" style="enable-background:new 0 0 500 500;" xml:space="preserve">
<style type="text/css">
	.st0{opacity:0.24;}
	.st1{fill:#FFFFFF;}
	.st2{fill:url(#SVGID_1_);}
	.st3{fill:#CCCCCC;}
	.st4{fill:#77CE72;}
	.st5{fill:#468FCC;}
	.st6{fill:#39B53E;}
	.st7{fill:#999999;}
	.st8{fill:#5E5E5E;}
	.st9{opacity:0.44;}
	.st10{fill:url(#SVGID_00000065785777817010634200000003368665333341851791_);}
	.st11{fill:#E0965A;}
	.st12{opacity:0.74;}
	.st13{fill:url(#SVGID_00000005956892272636089210000013222021583867817893_);}
	.st14{fill:#EA5EA7;}
	.st15{fill:url(#SVGID_00000021832440455609078510000006587327893649625774_);}
	.st16{fill:url(#SVGID_00000118369560389481908420000006802834439989487533_);}
	.st17{fill:url(#SVGID_00000033339942680985960640000016948338947737810594_);}
	.st18{fill:url(#SVGID_00000147912835880266459410000012467831462908130480_);}
</style>
<g id="egg">
	<g class="st0">
		<g>
			<path class="st1" d="M471.8,160.4H99.2c-6.6,0-12-5.4-12-12v-99c0-6.6,5.4-12,12-12h372.6c6.6,0,12,5.4,12,12v99
				C483.8,155,478.4,160.4,471.8,160.4z"/>
			
				<linearGradient id="SVGID_1_" gradientUnits="userSpaceOnUse" x1="85.7002" y1="403.1001" x2="485.2998" y2="403.1001" gradientTransform="matrix(1 0 0 -1 0 502)">
				<stop  offset="0" style="stop-color:#AAE1F9"/>
				<stop  offset="1" style="stop-color:#2F81C1"/>
			</linearGradient>
			<path class="st2" d="M471.8,161.9H99.2c-7.4,0-13.5-6.1-13.5-13.5v-99c0-7.4,6.1-13.5,13.5-13.5h372.6c7.4,0,13.5,6.1,13.5,13.5
				v99C485.3,155.8,479.2,161.9,471.8,161.9z M99.2,38.9c-5.8,0-10.5,4.7-10.5,10.5v99c0,5.8,4.7,10.5,10.5,10.5h372.6
				c5.8,0,10.5-4.7,10.5-10.5v-99c0-5.8-4.7-10.5-10.5-10.5H99.2z"/>
		</g>
		<g>
			<path class="st3" d="M425.6,69.9h-24.2c-5.4,0-9.8-4.4-9.8-9.8l0,0c0-5.4,4.4-9.8,9.8-9.8h24.2V69.9z"/>
		</g>
		<g>
			<path class="st4" d="M449.8,69.9h-24.2V50.2h24.2c5.4,0,9.8,4.4,9.8,9.8l0,0C459.6,65.5,455.2,69.9,449.8,69.9z"/>
		</g>
		<g>
			<path class="st3" d="M471.2,154.9H99.8c-4.2,0-7.6-3.4-7.6-7.6v-7.6c0-4.2,3.4-7.6,7.6-7.6h371.4c4.2,0,7.6,3.4,7.6,7.6v7.6
				C478.7,151.6,475.3,154.9,471.2,154.9z"/>
		</g>
		<g>
			<path class="st5" d="M142.4,149.9H106c-3.5,0-6.3-2.8-6.3-6.3l0,0c0-3.5,2.8-6.3,6.3-6.3h36.4c3.5,0,6.3,2.8,6.3,6.3l0,0
				C148.7,147.1,145.9,149.9,142.4,149.9z"/>
		</g>
		<g>
			<path class="st6" d="M119.3,75.8h-8.8c-2.7,0-4.9-2.2-4.9-4.9l0,0c0-2.7,2.2-4.9,4.9-4.9h8.8c2.7,0,4.9,2.2,4.9,4.9l0,0
				C124.2,73.6,122,75.8,119.3,75.8z"/>
		</g>
		<g>
			<path class="st5" d="M143.4,75.8h-8.8c-2.7,0-4.9-2.2-4.9-4.9l0,0c0-2.7,2.2-4.9,4.9-4.9h8.8c2.7,0,4.9,2.2,4.9,4.9l0,0
				C148.3,73.6,146.1,75.8,143.4,75.8z"/>
		</g>
		<g>
			<path class="st7" d="M349.9,90.5H105.6c-1.9,0-3.5-1.6-3.5-3.5s1.6-3.5,3.5-3.5h244.3c1.9,0,3.5,1.6,3.5,3.5
				S351.8,90.5,349.9,90.5z"/>
		</g>
		<g>
			<path class="st7" d="M349.9,102.4H105.6c-1.9,0-3.5-1.6-3.5-3.5s1.6-3.5,3.5-3.5h244.3c1.9,0,3.5,1.6,3.5,3.5
				S351.8,102.4,349.9,102.4z"/>
		</g>
		<g>
			<path class="st7" d="M280.9,115.1H105.6c-1.9,0-3.5-1.6-3.5-3.5s1.6-3.5,3.5-3.5h175.3c1.9,0,3.5,1.6,3.5,3.5
				S282.8,115.1,280.9,115.1z"/>
		</g>
		<g>
			<path class="st8" d="M217.8,58.3H107.7c-1.9,0-3.5-1.6-3.5-3.5s1.6-3.5,3.5-3.5h110.1c1.9,0,3.5,1.6,3.5,3.5
				S219.7,58.3,217.8,58.3z"/>
		</g>
		<g>
			<path class="st8" d="M243.4,58.3h-9.8c-1.9,0-3.5-1.6-3.5-3.5s1.6-3.5,3.5-3.5h9.8c1.9,0,3.5,1.6,3.5,3.5S245.3,58.3,243.4,58.3z
				"/>
		</g>
	</g>
	<g class="st9">
		<g>
			<path class="st1" d="M443.1,199.1H70.5c-6.6,0-12-5.4-12-12v-99c0-6.6,5.4-12,12-12h372.6c6.6,0,12,5.4,12,12v99
				C455.1,193.7,449.7,199.1,443.1,199.1z"/>
			
				<linearGradient id="SVGID_00000168080506429663849470000007396671118863274647_" gradientUnits="userSpaceOnUse" x1="57" y1="364.3999" x2="456.5996" y2="364.3999" gradientTransform="matrix(1 0 0 -1 0 502)">
				<stop  offset="0" style="stop-color:#AAE1F9"/>
				<stop  offset="1" style="stop-color:#2F81C1"/>
			</linearGradient>
			<path style="fill:url(#SVGID_00000168080506429663849470000007396671118863274647_);" d="M443.1,200.6H70.5
				c-7.4,0-13.5-6.1-13.5-13.5v-99c0-7.4,6.1-13.5,13.5-13.5h372.6c7.4,0,13.5,6.1,13.5,13.5v99
				C456.6,194.5,450.5,200.6,443.1,200.6z M70.5,77.6c-5.8,0-10.5,4.7-10.5,10.5v99c0,5.8,4.7,10.5,10.5,10.5h372.6
				c5.8,0,10.5-4.7,10.5-10.5v-99c0-5.8-4.7-10.5-10.5-10.5H70.5z"/>
		</g>
		<g>
			<path class="st3" d="M396.9,108.6h-24.2c-5.4,0-9.8-4.4-9.8-9.8l0,0c0-5.4,4.4-9.8,9.8-9.8h24.2V108.6z"/>
		</g>
		<g>
			<path class="st11" d="M421.1,108.6h-24.2V89h24.2c5.4,0,9.8,4.4,9.8,9.8l0,0C430.9,104.2,426.5,108.6,421.1,108.6z"/>
		</g>
		<g>
			<path class="st3" d="M442.5,193.7H71.1c-4.2,0-7.6-3.4-7.6-7.6v-7.6c0-4.2,3.4-7.6,7.6-7.6h371.4c4.2,0,7.6,3.4,7.6,7.6v7.6
				C450,190.3,446.6,193.7,442.5,193.7z"/>
		</g>
		<g>
			<path class="st5" d="M113.7,188.6H77.3c-3.5,0-6.3-2.8-6.3-6.3l0,0c0-3.5,2.8-6.3,6.3-6.3h36.4c3.5,0,6.3,2.8,6.3,6.3l0,0
				C120,185.8,117.2,188.6,113.7,188.6z"/>
		</g>
		<g>
			<path class="st6" d="M90.6,114.5h-8.8c-2.7,0-4.9-2.2-4.9-4.9l0,0c0-2.7,2.2-4.9,4.9-4.9h8.8c2.7,0,4.9,2.2,4.9,4.9l0,0
				C95.5,112.3,93.3,114.5,90.6,114.5z"/>
		</g>
		<g>
			<path class="st7" d="M321.2,129.3H76.9c-1.9,0-3.5-1.6-3.5-3.5s1.6-3.5,3.5-3.5h244.3c1.9,0,3.5,1.6,3.5,3.5
				S323.1,129.3,321.2,129.3z"/>
		</g>
		<g>
			<path class="st7" d="M321.2,141.1H76.9c-1.9,0-3.5-1.6-3.5-3.5s1.6-3.5,3.5-3.5h244.3c1.9,0,3.5,1.6,3.5,3.5
				S323.1,141.1,321.2,141.1z"/>
		</g>
		<g>
			<path class="st7" d="M252.2,153.8H76.9c-1.9,0-3.5-1.6-3.5-3.5s1.6-3.5,3.5-3.5h175.3c1.9,0,3.5,1.6,3.5,3.5
				S254.1,153.8,252.2,153.8z"/>
		</g>
		<g>
			<path class="st8" d="M189.1,97H79c-1.9,0-3.5-1.6-3.5-3.5S77.1,90,79,90h110.1c1.9,0,3.5,1.6,3.5,3.5S191,97,189.1,97z"/>
		</g>
		<g>
			<path class="st8" d="M214.7,97h-9.8c-1.9,0-3.5-1.6-3.5-3.5s1.6-3.5,3.5-3.5h9.8c1.9,0,3.5,1.6,3.5,3.5S216.6,97,214.7,97z"/>
		</g>
	</g>
	<g class="st12">
		<g>
			<path class="st1" d="M417.3,242.5H44.7c-6.6,0-12-5.4-12-12v-99c0-6.6,5.4-12,12-12h372.6c6.6,0,12,5.4,12,12v99
				C429.3,237.1,423.9,242.5,417.3,242.5z"/>
			
				<linearGradient id="SVGID_00000016776418468715730670000008092175469303342212_" gradientUnits="userSpaceOnUse" x1="31.2002" y1="321" x2="430.7998" y2="321" gradientTransform="matrix(1 0 0 -1 0 502)">
				<stop  offset="0" style="stop-color:#AAE1F9"/>
				<stop  offset="1" style="stop-color:#2F81C1"/>
			</linearGradient>
			<path style="fill:url(#SVGID_00000016776418468715730670000008092175469303342212_);" d="M417.3,244H44.7
				c-7.4,0-13.5-6.1-13.5-13.5v-99c0-7.4,6.1-13.5,13.5-13.5h372.6c7.4,0,13.5,6.1,13.5,13.5v99C430.8,237.9,424.7,244,417.3,244z
				 M44.7,121c-5.8,0-10.5,4.7-10.5,10.5v99c0,5.8,4.7,10.5,10.5,10.5h372.6c5.8,0,10.5-4.7,10.5-10.5v-99c0-5.8-4.7-10.5-10.5-10.5
				H44.7z"/>
		</g>
		<g>
			<path class="st3" d="M371.1,152H347c-5.4,0-9.8-4.4-9.8-9.8l0,0c0-5.4,4.4-9.8,9.8-9.8h24.2V152H371.1z"/>
		</g>
		<g>
			<path class="st4" d="M395.3,152h-24.2v-19.6h24.2c5.4,0,9.8,4.4,9.8,9.8l0,0C405.1,147.6,400.7,152,395.3,152z"/>
		</g>
		<g>
			<path class="st3" d="M416.7,237.1H45.3c-4.2,0-7.6-3.4-7.6-7.6V222c0-4.2,3.4-7.6,7.6-7.6h371.4c4.2,0,7.6,3.4,7.6,7.6v7.6
				C424.3,233.7,420.9,237.1,416.7,237.1z"/>
		</g>
		<g>
			<path class="st5" d="M88,232H51.5c-3.5,0-6.3-2.8-6.3-6.3l0,0c0-3.5,2.8-6.3,6.3-6.3H88c3.5,0,6.3,2.8,6.3,6.3l0,0
				C94.3,229.2,91.5,232,88,232z"/>
		</g>
		<g>
			<path class="st6" d="M64.8,158H56c-2.7,0-4.9-2.2-4.9-4.9l0,0c0-2.7,2.2-4.9,4.9-4.9h8.8c2.7,0,4.9,2.2,4.9,4.9l0,0
				C69.8,155.8,67.6,158,64.8,158z"/>
		</g>
		<g>
			<path class="st5" d="M88.9,158h-8.8c-2.7,0-4.9-2.2-4.9-4.9l0,0c0-2.7,2.2-4.9,4.9-4.9h8.8c2.7,0,4.9,2.2,4.9,4.9l0,0
				C93.8,155.8,91.6,158,88.9,158z"/>
		</g>
		<g>
			<path class="st14" d="M113,158h-8.8c-2.7,0-4.9-2.2-4.9-4.9l0,0c0-2.7,2.2-4.9,4.9-4.9h8.8c2.7,0,4.9,2.2,4.9,4.9l0,0
				C117.9,155.8,115.7,158,113,158z"/>
		</g>
		<g>
			<path class="st7" d="M295.4,172.7H51.2c-1.9,0-3.5-1.6-3.5-3.5s1.6-3.5,3.5-3.5h244.2c1.9,0,3.5,1.6,3.5,3.5
				S297.3,172.7,295.4,172.7z"/>
		</g>
		<g>
			<path class="st7" d="M184,184.5H51.2c-1.9,0-3.5-1.6-3.5-3.5s1.6-3.5,3.5-3.5H184c1.9,0,3.5,1.6,3.5,3.5S185.9,184.5,184,184.5z"
				/>
		</g>
		<g>
			<path class="st8" d="M163.3,140.4h-110c-1.9,0-3.5-1.6-3.5-3.5s1.6-3.5,3.5-3.5h110c1.9,0,3.5,1.6,3.5,3.5
				S165.2,140.4,163.3,140.4z"/>
		</g>
		<g>
			<path class="st8" d="M189,140.4h-9.9c-1.9,0-3.5-1.6-3.5-3.5s1.6-3.5,3.5-3.5h9.9c1.9,0,3.5,1.6,3.5,3.5S190.9,140.4,189,140.4z"
				/>
		</g>
	</g>
	<g class="st0">
		<g>
			<path class="st1" d="M471.8,470H99.2c-6.6,0-12-5.4-12-12v-99c0-6.6,5.4-12,12-12h372.6c6.6,0,12,5.4,12,12v99
				C483.8,464.6,478.4,470,471.8,470z"/>
			
				<linearGradient id="SVGID_00000137823932311214246140000014728927325709461398_" gradientUnits="userSpaceOnUse" x1="85.7002" y1="93.5" x2="485.2998" y2="93.5" gradientTransform="matrix(1 0 0 -1 0 502)">
				<stop  offset="0" style="stop-color:#AAE1F9"/>
				<stop  offset="1" style="stop-color:#2F81C1"/>
			</linearGradient>
			<path style="fill:url(#SVGID_00000137823932311214246140000014728927325709461398_);" d="M471.8,471.5H99.2
				c-7.4,0-13.5-6.1-13.5-13.5v-99c0-7.4,6.1-13.5,13.5-13.5h372.6c7.4,0,13.5,6.1,13.5,13.5v99
				C485.3,465.4,479.2,471.5,471.8,471.5z M99.2,348.5c-5.8,0-10.5,4.7-10.5,10.5v99c0,5.8,4.7,10.5,10.5,10.5h372.6
				c5.8,0,10.5-4.7,10.5-10.5v-99c0-5.8-4.7-10.5-10.5-10.5H99.2z"/>
		</g>
		<g>
			<path class="st3" d="M425.6,379.5h-24.2c-5.4,0-9.8-4.4-9.8-9.8l0,0c0-5.4,4.4-9.8,9.8-9.8h24.2V379.5z"/>
		</g>
		<g>
			<path class="st4" d="M449.8,379.5h-24.2v-19.6h24.2c5.4,0,9.8,4.4,9.8,9.8l0,0C459.6,375.1,455.2,379.5,449.8,379.5z"/>
		</g>
		<g>
			<path class="st3" d="M471.2,464.6H99.8c-4.2,0-7.6-3.4-7.6-7.6v-7.6c0-4.2,3.4-7.6,7.6-7.6h371.4c4.2,0,7.6,3.4,7.6,7.6v7.6
				C478.7,461.2,475.3,464.6,471.2,464.6z"/>
		</g>
		<g>
			<path class="st5" d="M142.4,459.5H106c-3.5,0-6.3-2.8-6.3-6.3l0,0c0-3.5,2.8-6.3,6.3-6.3h36.4c3.5,0,6.3,2.8,6.3,6.3l0,0
				C148.7,456.7,145.9,459.5,142.4,459.5z"/>
		</g>
		<g>
			<path class="st6" d="M119.3,385.4h-8.8c-2.7,0-4.9-2.2-4.9-4.9l0,0c0-2.7,2.2-4.9,4.9-4.9h8.8c2.7,0,4.9,2.2,4.9,4.9l0,0
				C124.2,383.2,122,385.4,119.3,385.4z"/>
		</g>
		<g>
			<path class="st5" d="M143.4,385.4h-8.8c-2.7,0-4.9-2.2-4.9-4.9l0,0c0-2.7,2.2-4.9,4.9-4.9h8.8c2.7,0,4.9,2.2,4.9,4.9l0,0
				C148.3,383.2,146.1,385.4,143.4,385.4z"/>
		</g>
		<g>
			<path class="st14" d="M167.4,385.4h-8.8c-2.7,0-4.9-2.2-4.9-4.9l0,0c0-2.7,2.2-4.9,4.9-4.9h8.8c2.7,0,4.9,2.2,4.9,4.9l0,0
				C172.4,383.2,170.2,385.4,167.4,385.4z"/>
		</g>
		<g>
			<path class="st7" d="M349.9,400.2H105.6c-1.9,0-3.5-1.6-3.5-3.5s1.6-3.5,3.5-3.5h244.3c1.9,0,3.5,1.6,3.5,3.5
				S351.8,400.2,349.9,400.2z"/>
		</g>
		<g>
			<path class="st7" d="M349.9,412H105.6c-1.9,0-3.5-1.6-3.5-3.5s1.6-3.5,3.5-3.5h244.3c1.9,0,3.5,1.6,3.5,3.5S351.8,412,349.9,412z
				"/>
		</g>
		<g>
			<path class="st7" d="M280.9,424.7H105.6c-1.9,0-3.5-1.6-3.5-3.5s1.6-3.5,3.5-3.5h175.3c1.9,0,3.5,1.6,3.5,3.5
				S282.8,424.7,280.9,424.7z"/>
		</g>
		<g>
			<path class="st8" d="M217.8,367.9H107.7c-1.9,0-3.5-1.6-3.5-3.5s1.6-3.5,3.5-3.5h110.1c1.9,0,3.5,1.6,3.5,3.5
				S219.7,367.9,217.8,367.9z"/>
		</g>
		<g>
			<path class="st8" d="M243.4,367.9h-9.8c-1.9,0-3.5-1.6-3.5-3.5s1.6-3.5,3.5-3.5h9.8c1.9,0,3.5,1.6,3.5,3.5
				S245.3,367.9,243.4,367.9z"/>
		</g>
	</g>
	<g class="st9">
		<g>
			<path class="st1" d="M443.1,435.1H70.5c-6.6,0-12-5.4-12-12v-99c0-6.6,5.4-12,12-12h372.6c6.6,0,12,5.4,12,12v99
				C455.1,429.7,449.7,435.1,443.1,435.1z"/>
			
				<linearGradient id="SVGID_00000072963816139885647680000013760167851032876957_" gradientUnits="userSpaceOnUse" x1="57" y1="128.4004" x2="456.5996" y2="128.4004" gradientTransform="matrix(1 0 0 -1 0 502)">
				<stop  offset="0" style="stop-color:#AAE1F9"/>
				<stop  offset="1" style="stop-color:#2F81C1"/>
			</linearGradient>
			<path style="fill:url(#SVGID_00000072963816139885647680000013760167851032876957_);" d="M443.1,436.6H70.5
				c-7.4,0-13.5-6.1-13.5-13.5v-99c0-7.4,6.1-13.5,13.5-13.5h372.6c7.4,0,13.5,6.1,13.5,13.5v99
				C456.6,430.5,450.5,436.6,443.1,436.6z M70.5,313.6c-5.8,0-10.5,4.7-10.5,10.5v99c0,5.8,4.7,10.5,10.5,10.5h372.6
				c5.8,0,10.5-4.7,10.5-10.5v-99c0-5.8-4.7-10.5-10.5-10.5H70.5z"/>
		</g>
		<g>
			<path class="st3" d="M396.9,344.6h-24.2c-5.4,0-9.8-4.4-9.8-9.8l0,0c0-5.4,4.4-9.8,9.8-9.8h24.2V344.6z"/>
		</g>
		<g>
			<path class="st4" d="M421.1,344.6h-24.2V325h24.2c5.4,0,9.8,4.4,9.8,9.8l0,0C430.9,340.2,426.5,344.6,421.1,344.6z"/>
		</g>
		<g>
			<path class="st3" d="M442.5,429.7H71.1c-4.2,0-7.6-3.4-7.6-7.6v-7.6c0-4.2,3.4-7.6,7.6-7.6h371.4c4.2,0,7.6,3.4,7.6,7.6v7.6
				C450,426.3,446.6,429.7,442.5,429.7z"/>
		</g>
		<g>
			<path class="st5" d="M113.7,424.6H77.3c-3.5,0-6.3-2.8-6.3-6.3l0,0c0-3.5,2.8-6.3,6.3-6.3h36.4c3.5,0,6.3,2.8,6.3,6.3l0,0
				C120,421.8,117.2,424.6,113.7,424.6z"/>
		</g>
		<g>
			<path class="st6" d="M90.6,350.5h-8.8c-2.7,0-4.9-2.2-4.9-4.9l0,0c0-2.7,2.2-4.9,4.9-4.9h8.8c2.7,0,4.9,2.2,4.9,4.9l0,0
				C95.5,348.3,93.3,350.5,90.6,350.5z"/>
		</g>
		<g>
			<path class="st5" d="M114.7,350.5h-8.8c-2.7,0-4.9-2.2-4.9-4.9l0,0c0-2.7,2.2-4.9,4.9-4.9h8.8c2.7,0,4.9,2.2,4.9,4.9l0,0
				C119.6,348.3,117.4,350.5,114.7,350.5z"/>
		</g>
		<g>
			<path class="st14" d="M138.8,350.5H130c-2.7,0-4.9-2.2-4.9-4.9l0,0c0-2.7,2.2-4.9,4.9-4.9h8.8c2.7,0,4.9,2.2,4.9,4.9l0,0
				C143.7,348.3,141.5,350.5,138.8,350.5z"/>
		</g>
		<g>
			<path class="st7" d="M321.2,365.2H76.9c-1.9,0-3.5-1.6-3.5-3.5s1.6-3.5,3.5-3.5h244.3c1.9,0,3.5,1.6,3.5,3.5
				S323.1,365.2,321.2,365.2z"/>
		</g>
		<g>
			<path class="st7" d="M321.2,377.1H76.9c-1.9,0-3.5-1.6-3.5-3.5s1.6-3.5,3.5-3.5h244.3c1.9,0,3.5,1.6,3.5,3.5
				S323.1,377.1,321.2,377.1z"/>
		</g>
		<g>
			<path class="st7" d="M252.2,389.8H76.9c-1.9,0-3.5-1.6-3.5-3.5s1.6-3.5,3.5-3.5h175.3c1.9,0,3.5,1.6,3.5,3.5
				S254.1,389.8,252.2,389.8z"/>
		</g>
		<g>
			<path class="st8" d="M189.1,333H79c-1.9,0-3.5-1.6-3.5-3.5s1.6-3.5,3.5-3.5h110.1c1.9,0,3.5,1.6,3.5,3.5S191,333,189.1,333z"/>
		</g>
		<g>
			<path class="st8" d="M214.7,333h-9.8c-1.9,0-3.5-1.6-3.5-3.5s1.6-3.5,3.5-3.5h9.8c1.9,0,3.5,1.6,3.5,3.5S216.6,333,214.7,333z"/>
		</g>
	</g>
	<g class="st12">
		<g>
			<path class="st1" d="M417.3,396.7H44.7c-6.6,0-12-5.4-12-12v-99c0-6.6,5.4-12,12-12h372.6c6.6,0,12,5.4,12,12v99
				C429.3,391.3,423.9,396.7,417.3,396.7z"/>
			
				<linearGradient id="SVGID_00000122682138605959542550000000254241907026932895_" gradientUnits="userSpaceOnUse" x1="31.2002" y1="166.7998" x2="430.7998" y2="166.7998" gradientTransform="matrix(1 0 0 -1 0 502)">
				<stop  offset="0" style="stop-color:#AAE1F9"/>
				<stop  offset="1" style="stop-color:#2F81C1"/>
			</linearGradient>
			<path style="fill:url(#SVGID_00000122682138605959542550000000254241907026932895_);" d="M417.3,398.2H44.7
				c-7.4,0-13.5-6.1-13.5-13.5v-99c0-7.4,6.1-13.5,13.5-13.5h372.6c7.4,0,13.5,6.1,13.5,13.5v99
				C430.8,392.1,424.7,398.2,417.3,398.2z M44.7,275.2c-5.8,0-10.5,4.7-10.5,10.5v99c0,5.8,4.7,10.5,10.5,10.5h372.6
				c5.8,0,10.5-4.7,10.5-10.5v-99c0-5.8-4.7-10.5-10.5-10.5H44.7z"/>
		</g>
		<g>
			<path class="st3" d="M371.1,306.1H347c-5.4,0-9.8-4.4-9.8-9.8l0,0c0-5.4,4.4-9.8,9.8-9.8h24.2v19.6H371.1z"/>
		</g>
		<g>
			<path class="st4" d="M395.3,306.1h-24.2v-19.6h24.2c5.4,0,9.8,4.4,9.8,9.8l0,0C405.1,301.8,400.7,306.1,395.3,306.1z"/>
		</g>
		<g>
			<path class="st3" d="M416.7,391.2H45.3c-4.2,0-7.6-3.4-7.6-7.6V376c0-4.2,3.4-7.6,7.6-7.6h371.4c4.2,0,7.6,3.4,7.6,7.6v7.6
				C424.3,387.8,420.9,391.2,416.7,391.2z"/>
		</g>
		<g>
			<path class="st5" d="M88,386.2H51.5c-3.5,0-6.3-2.8-6.3-6.3l0,0c0-3.5,2.8-6.3,6.3-6.3H88c3.5,0,6.3,2.8,6.3,6.3l0,0
				C94.3,383.4,91.5,386.2,88,386.2z"/>
		</g>
		<g>
			<path class="st6" d="M64.8,312.1H56c-2.7,0-4.9-2.2-4.9-4.9l0,0c0-2.7,2.2-4.9,4.9-4.9h8.8c2.7,0,4.9,2.2,4.9,4.9l0,0
				C69.8,309.9,67.6,312.1,64.8,312.1z"/>
		</g>
		<g>
			<path class="st5" d="M88.9,312.1h-8.8c-2.7,0-4.9-2.2-4.9-4.9l0,0c0-2.7,2.2-4.9,4.9-4.9h8.8c2.7,0,4.9,2.2,4.9,4.9l0,0
				C93.8,309.9,91.6,312.1,88.9,312.1z"/>
		</g>
		<g>
			<path class="st14" d="M113,312.1h-8.8c-2.7,0-4.9-2.2-4.9-4.9l0,0c0-2.7,2.2-4.9,4.9-4.9h8.8c2.7,0,4.9,2.2,4.9,4.9l0,0
				C117.9,309.9,115.7,312.1,113,312.1z"/>
		</g>
		<g>
			<path class="st7" d="M295.4,326.8H51.2c-1.9,0-3.5-1.6-3.5-3.5s1.6-3.5,3.5-3.5h244.2c1.9,0,3.5,1.6,3.5,3.5
				S297.3,326.8,295.4,326.8z"/>
		</g>
		<g>
			<path class="st7" d="M295.4,338.6H51.2c-1.9,0-3.5-1.6-3.5-3.5s1.6-3.5,3.5-3.5h244.2c1.9,0,3.5,1.6,3.5,3.5
				S297.3,338.6,295.4,338.6z"/>
		</g>
		<g>
			<path class="st8" d="M163.3,294.6h-110c-1.9,0-3.5-1.6-3.5-3.5s1.6-3.5,3.5-3.5h110c1.9,0,3.5,1.6,3.5,3.5
				S165.2,294.6,163.3,294.6z"/>
		</g>
		<g>
			<path class="st8" d="M189,294.6h-9.9c-1.9,0-3.5-1.6-3.5-3.5s1.6-3.5,3.5-3.5h9.9c1.9,0,3.5,1.6,3.5,3.5S190.9,294.6,189,294.6z"
				/>
		</g>
	</g>
	<g>
		<g>
			<path class="st1" d="M391.2,322.1H18.5c-6.6,0-12-5.4-12-12v-99c0-6.6,5.4-12,12-12h372.6c6.6,0,12,5.4,12,12v99
				C403.2,316.7,397.8,322.1,391.2,322.1z"/>
			
				<linearGradient id="SVGID_00000123433616626455832670000013020928327090811026_" gradientUnits="userSpaceOnUse" x1="5" y1="241.4001" x2="404.6012" y2="241.4001" gradientTransform="matrix(1 0 0 -1 0 502)">
				<stop  offset="0" style="stop-color:#AAE1F9"/>
				<stop  offset="1" style="stop-color:#2F81C1"/>
			</linearGradient>
			<path style="fill:url(#SVGID_00000123433616626455832670000013020928327090811026_);" d="M391.2,323.6H18.5
				c-7.4,0-13.5-6.1-13.5-13.5v-99c0-7.4,6.1-13.5,13.5-13.5h372.6c7.4,0,13.5,6.1,13.5,13.5v99c0.1,3.5-1.3,6.9-3.8,9.5
				C398.2,322.2,394.8,323.6,391.2,323.6z M18.5,200.6c-5.8,0-10.5,4.7-10.5,10.5v99c0,5.8,4.7,10.5,10.5,10.5h372.7
				c2.8,0,5.5-1.1,7.4-3.1c2-2,3-4.6,3-7.4v-99c0-5.8-4.7-10.5-10.5-10.5H18.5z"/>
		</g>
		<g>
			<path class="st3" d="M345,231.6h-24.2c-5.4,0-9.8-4.4-9.8-9.8l0,0c0-5.4,4.4-9.8,9.8-9.8H345V231.6z"/>
		</g>
		<g>
			<path class="st4" d="M369.2,231.6H345V212h24.2c5.4,0,9.8,4.4,9.8,9.8l0,0C379,227.2,374.6,231.6,369.2,231.6z"/>
		</g>
		<g>
			<path class="st3" d="M390.5,316.7H19.2c-4.2,0-7.6-3.4-7.6-7.6v-7.6c0-4.2,3.4-7.6,7.6-7.6h371.4c4.2,0,7.6,3.4,7.6,7.6v7.6
				C398.1,313.3,394.7,316.7,390.5,316.7z"/>
		</g>
		<g>
			<path class="st5" d="M61.8,311.6H25.4c-3.5,0-6.3-2.8-6.3-6.3l0,0c0-3.5,2.8-6.3,6.3-6.3h36.4c3.5,0,6.3,2.8,6.3,6.3l0,0
				C68.1,308.8,65.3,311.6,61.8,311.6z"/>
		</g>
		<g>
			<path class="st6" d="M38.7,237.5h-8.8c-2.7,0-4.9-2.2-4.9-4.9l0,0c0-2.7,2.2-4.9,4.9-4.9h8.8c2.7,0,4.9,2.2,4.9,4.9l0,0
				C43.6,235.3,41.4,237.5,38.7,237.5z"/>
		</g>
		<g>
			<path class="st5" d="M62.8,237.5H54c-2.7,0-4.9-2.2-4.9-4.9l0,0c0-2.7,2.2-4.9,4.9-4.9h8.8c2.7,0,4.9,2.2,4.9,4.9l0,0
				C67.7,235.3,65.5,237.5,62.8,237.5z"/>
		</g>
		<g>
			<path class="st14" d="M86.8,237.5H78c-2.7,0-4.9-2.2-4.9-4.9l0,0c0-2.7,2.2-4.9,4.9-4.9h8.8c2.7,0,4.9,2.2,4.9,4.9l0,0
				C91.7,235.3,89.5,237.5,86.8,237.5z"/>
		</g>
		<g>
			<path class="st7" d="M269.3,252.3H25c-1.9,0-3.5-1.6-3.5-3.5s1.6-3.5,3.5-3.5h244.3c1.9,0,3.5,1.6,3.5,3.5
				S271.2,252.3,269.3,252.3z"/>
		</g>
		<g>
			<path class="st7" d="M269.3,264.1H25c-1.9,0-3.5-1.6-3.5-3.5s1.6-3.5,3.5-3.5h244.3c1.9,0,3.5,1.6,3.5,3.5
				S271.2,264.1,269.3,264.1z"/>
		</g>
		<g>
			<path class="st7" d="M200.2,276.8H25c-1.9,0-3.5-1.6-3.5-3.5s1.6-3.5,3.5-3.5h175.2c1.9,0,3.5,1.6,3.5,3.5
				S202.1,276.8,200.2,276.8z"/>
		</g>
		<g>
			<path class="st8" d="M137.2,220H27.1c-1.9,0-3.5-1.6-3.5-3.5s1.6-3.5,3.5-3.5h110.1c1.9,0,3.5,1.6,3.5,3.5S139.1,220,137.2,220z"
				/>
		</g>
		<g>
			<path class="st8" d="M162.8,220h-9.9c-1.9,0-3.5-1.6-3.5-3.5s1.6-3.5,3.5-3.5h9.9c1.9,0,3.5,1.6,3.5,3.5S164.7,220,162.8,220z"/>
		</g>
	</g>
</g>
<g id="nest">
</g>
</svg>
