<?xml version="1.0" encoding="utf-8"?>
<!-- Generator: Adobe Illustrator 22.1.0, SVG Export Plug-In . SVG Version: 6.00 Build 0)  -->
<svg version="1.1" id="Layer_1" xmlns="http://www.w3.org/2000/svg" xmlns:xlink="http://www.w3.org/1999/xlink" x="0px" y="0px"
	 viewBox="0 0 200 200" style="enable-background:new 0 0 200 200;" xml:space="preserve">
<style type="text/css">
	.st0{fill:none;stroke:#E9F9FF;stroke-linecap:round;stroke-miterlimit:10;}
	.st1{fill:none;stroke:#E9F9FF;stroke-width:1.2857;stroke-linecap:round;stroke-miterlimit:10;}
	.st2{fill:none;stroke:#E9F9FF;stroke-width:1.5714;stroke-linecap:round;stroke-miterlimit:10;}
	.st3{fill:none;stroke:#E9F9FF;stroke-width:1.8571;stroke-linecap:round;stroke-miterlimit:10;}
	.st4{fill:none;stroke:#E9F9FF;stroke-width:2.1429;stroke-linecap:round;stroke-miterlimit:10;}
	.st5{fill:none;stroke:#E9F9FF;stroke-width:2.4286;stroke-linecap:round;stroke-miterlimit:10;}
	.st6{fill:none;stroke:#E9F9FF;stroke-width:2.7143;stroke-linecap:round;stroke-miterlimit:10;}
	.st7{fill:none;stroke:#E9F9FF;stroke-width:3;stroke-linecap:round;stroke-miterlimit:10;}
	.st8{fill:url(#SVGID_1_);}
	.st9{enable-background:new    ;}
	.st10{fill:#AAE1F9;}
	.st11{clip-path:url(#SVGID_3_);enable-background:new    ;}
	.st12{fill:url(#SVGID_4_);}
	.st13{fill:url(#SVGID_5_);}
	.st14{fill:url(#SVGID_6_);}
</style>
<g>
	<line class="st0" x1="10" y1="8" x2="95.1" y2="8"/>
	<line class="st1" x1="10.1" y1="21.1" x2="95.2" y2="21.1"/>
	<line class="st2" x1="10.2" y1="34.1" x2="95.3" y2="34.1"/>
	<line class="st3" x1="10.2" y1="47.2" x2="95.3" y2="47.2"/>
	<line class="st4" x1="10.3" y1="60.3" x2="95.4" y2="60.3"/>
	<line class="st5" x1="10.4" y1="73.4" x2="95.5" y2="73.4"/>
	<line class="st6" x1="10.5" y1="86.4" x2="95.6" y2="86.4"/>
	<line class="st7" x1="10.6" y1="99.5" x2="95.7" y2="99.5"/>
	<line class="st6" x1="10.6" y1="112.7" x2="95.7" y2="112.7"/>
	<line class="st5" x1="10.6" y1="125.8" x2="95.7" y2="125.8"/>
	<line class="st4" x1="10.6" y1="139" x2="95.7" y2="139"/>
	<line class="st3" x1="10.6" y1="152.1" x2="95.7" y2="152.1"/>
	<line class="st2" x1="10.6" y1="165.3" x2="95.7" y2="165.3"/>
	<line class="st1" x1="10.6" y1="178.4" x2="95.7" y2="178.4"/>
	<line class="st0" x1="10.6" y1="191.6" x2="95.7" y2="191.6"/>
</g>
<linearGradient id="SVGID_1_" gradientUnits="userSpaceOnUse" x1="155.1255" y1="43.7621" x2="163.9376" y2="52.1737" gradientTransform="matrix(1 0 0 -1 0 200)">
	<stop  offset="0" style="stop-color:#549ED2"/>
	<stop  offset="0.2305" style="stop-color:#7ABCE3"/>
	<stop  offset="0.4941" style="stop-color:#AAE1F9"/>
	<stop  offset="0.5959" style="stop-color:#A6DEF7"/>
	<stop  offset="0.6859" style="stop-color:#9CD6F2"/>
	<stop  offset="0.7714" style="stop-color:#8AC8EA"/>
	<stop  offset="0.8542" style="stop-color:#70B4DF"/>
	<stop  offset="0.9343" style="stop-color:#509AD0"/>
	<stop  offset="1" style="stop-color:#2F81C1"/>
</linearGradient>
<path class="st8" d="M135.9,118.7c0,0-8.3,3.8-9.4,9.5l56,58.2c0,0,7-3.5,10.5-10.5L135.9,118.7z"/>
<g>
	<g class="st9">
		<g>
			<path class="st10" d="M78.3,24.9c27-3.2,56.9,17.7,66.7,46.7s-4.2,55-31.2,58.2c-27,3.2-57-17.8-66.8-46.7S51.2,28,78.3,24.9z"/>
		</g>
		<g class="st9">
			<g>
				<defs>
					<path id="SVGID_2_" d="M136,119.7l-10,9.4c-5.7,5.4-13.3,9-22.3,10c-27,3.2-56.9-17.7-66.7-46.7c-6.5-19.3-2.5-37.4,9-48.2
						l10-9.4C44.6,45.6,40.5,63.6,47,83c9.8,29,39.6,49.9,66.7,46.7C122.7,128.7,130.3,125.1,136,119.7z"/>
				</defs>
				<clipPath id="SVGID_3_">
					<use xlink:href="#SVGID_2_"  style="overflow:visible;"/>
				</clipPath>
				<g class="st11">
					
						<linearGradient id="SVGID_4_" gradientUnits="userSpaceOnUse" x1="34.5486" y1="145.1962" x2="114.143" y2="59.8417" gradientTransform="matrix(1 0 0 -1 0 200)">
						<stop  offset="2.554087e-02" style="stop-color:#AAE1F9"/>
						<stop  offset="1" style="stop-color:#2F81C1"/>
					</linearGradient>
					<path class="st12" d="M136,119.7l-10,9.4c-5.7,5.4-13.3,9-22.3,10c-27,3.2-56.9-17.7-66.7-46.7c-6.5-19.3-2.5-37.4,9-48.2
						l10-9.4C44.6,45.6,40.5,63.6,47,83c9.8,29,39.6,49.9,66.7,46.7C122.7,128.7,130.3,125.1,136,119.7"/>
				</g>
			</g>
		</g>
	</g>
</g>
<g>
	
		<linearGradient id="SVGID_5_" gradientUnits="userSpaceOnUse" x1="60.1511" y1="161.0504" x2="131.7597" y2="84.2597" gradientTransform="matrix(1 0 0 -1 0 200)">
		<stop  offset="0" style="stop-color:#AAE1F9"/>
		<stop  offset="0.2012" style="stop-color:#A6DEF7"/>
		<stop  offset="0.3791" style="stop-color:#9CD6F2"/>
		<stop  offset="0.5482" style="stop-color:#8AC8EA"/>
		<stop  offset="0.7119" style="stop-color:#70B4DF"/>
		<stop  offset="0.8702" style="stop-color:#509AD0"/>
		<stop  offset="1" style="stop-color:#2F81C1"/>
	</linearGradient>
	<path class="st13" d="M80,30.1c24.3-2.9,51.2,16,60,42.1s-3.8,49.6-28.1,52.4s-51.2-16-60-42.1S55.7,32.9,80,30.1z"/>
</g>
<linearGradient id="SVGID_6_" gradientUnits="userSpaceOnUse" x1="57.5953" y1="153.1778" x2="116.1187" y2="90.4192" gradientTransform="matrix(1 0 0 -1 0 200)">
	<stop  offset="0" style="stop-color:#FFFFFF"/>
	<stop  offset="0.1138" style="stop-color:#FFFFFF;stop-opacity:0.8862"/>
	<stop  offset="1" style="stop-color:#FFFFFF;stop-opacity:0"/>
</linearGradient>
<path class="st14" d="M64.4,81.2c-7.5-23,3.1-43.6,23.6-46.4c-3-0.4-6-0.4-9-0.1C58.2,37.2,47.4,58,55,81.1s30.5,39.8,51.3,37.2
	c0.1,0,0.3,0,0.4-0.1C88.7,116.1,70.8,101,64.4,81.2z"/>
</svg>
