<?xml version="1.0" encoding="utf-8"?>
<!-- Generator: Adobe Illustrator 22.1.0, SVG Export Plug-In . SVG Version: 6.00 Build 0)  -->
<svg version="1.1" id="Layer_1" xmlns="http://www.w3.org/2000/svg" xmlns:xlink="http://www.w3.org/1999/xlink" x="0px" y="0px"
	 viewBox="0 0 200 200" style="enable-background:new 0 0 200 200;" xml:space="preserve">
<style type="text/css">
	.st0{fill:url(#SVGID_1_);}
	.st1{fill:none;stroke:#AAE1F9;stroke-miterlimit:10;}
	.st2{fill:none;stroke:#FFFFFF;stroke-width:3;stroke-miterlimit:10;}
</style>
<linearGradient id="SVGID_1_" gradientUnits="userSpaceOnUse" x1="27" y1="100.483" x2="178" y2="100.483">
	<stop  offset="2.554087e-02" style="stop-color:#AAE1F9"/>
	<stop  offset="1" style="stop-color:#2F81C1"/>
</linearGradient>
<rect x="27" y="13.8" class="st0" width="151" height="173.4"/>
<line class="st1" x1="62.9" y1="13.3" x2="62.9" y2="186.7"/>
<line class="st1" x1="102" y1="13.3" x2="102" y2="186.7"/>
<line class="st1" x1="139.3" y1="13.3" x2="139.3" y2="186.7"/>
<line class="st1" x1="27" y1="100.5" x2="178" y2="100.5"/>
<line class="st1" x1="27" y1="140.6" x2="178" y2="140.6"/>
<line class="st1" x1="27" y1="53.9" x2="178" y2="53.9"/>
<g>
	<g>
		<g>
			<circle class="st2" cx="102" cy="97.7" r="65.7"/>
		</g>
		<g>
			<g>
				<path class="st2" d="M149.5,75.8c-20.4-26.1-35.9-15-43.3-6.4c-2.2,2.7-6.4,2.7-8.6,0C90.5,61.1,75,50,54.3,75.8
					c-28.5,36.2,11.8,84.4,47.3,81.5c0.2,0,0.5,0,0.7,0C137.7,160,178.1,112,149.5,75.8z"/>
				<path class="st2" d="M120.2,103.3L120.2,103.3h-0.5c0,0-2.2,12-5.7,24.1c-2,6.9-4.2,12.3-6.1,16.5c-2.9,5.9-5.2,6.6-6.4,6.9l0,0
					c-1.5,0-6.1-1.7-12-22.6c-0.5-2-1-3.7-1.5-5.4l-3.9-18.9l0,0l0,0l0,0c-2-0.7-38.8-11.8-0.7,15.5c0.7,3.2,1.5,6.6,2.5,9.8
					c4.9,17.4,9.8,25.6,15.7,25.6h0.2c3.4-0.2,6.6-3.2,9.6-8.8c2.2-4.2,4.4-9.8,6.4-17.2c1-2.9,1.7-6.1,2.5-9.1
					C156.6,90.6,120.2,103.3,120.2,103.3z"/>
			</g>
		</g>
	</g>
</g>
<polyline class="st1" points="30.5,5.5 18.5,5.5 18.5,92.5 5.5,100.5 17.5,108.5 17.5,193.5 30.5,193.5 "/>
</svg>
