<?xml version="1.0" encoding="utf-8"?>
<!-- Generator: Adobe Illustrator 27.8.1, SVG Export Plug-In . SVG Version: 6.00 Build 0)  -->
<svg version="1.1" id="Layer_1" xmlns="http://www.w3.org/2000/svg" xmlns:xlink="http://www.w3.org/1999/xlink" x="0px" y="0px"
	 viewBox="0 0 200 200" style="enable-background:new 0 0 200 200;" xml:space="preserve">
<style type="text/css">
	.st0{fill:url(#SVGID_1_);}
	.st1{fill:none;stroke:#AAE1F9;stroke-miterlimit:10;}
	.st2{fill:none;stroke:#FFFFFF;stroke-width:3;stroke-miterlimit:10;}
	.st3{fill:none;stroke:#28C1EA;stroke-width:4;stroke-miterlimit:10;}
	.st4{fill:#44EA8B;}
</style>
<linearGradient id="SVGID_1_" gradientUnits="userSpaceOnUse" x1="128.1764" y1="170.9538" x2="128.1764" y2="24.7326">
	<stop  offset="0.3638" style="stop-color:#490094"/>
	<stop  offset="1" style="stop-color:#55CDFF"/>
</linearGradient>
<rect x="64.5" y="24.7" class="st0" width="127.3" height="146.2"/>
<line class="st1" x1="94.8" y1="24.3" x2="94.8" y2="170.5"/>
<line class="st1" x1="127.8" y1="24.3" x2="127.8" y2="170.5"/>
<line class="st1" x1="159.2" y1="24.3" x2="159.2" y2="170.5"/>
<line class="st1" x1="64.5" y1="97.8" x2="191.8" y2="97.8"/>
<line class="st1" x1="64.5" y1="131.7" x2="191.8" y2="131.7"/>
<line class="st1" x1="64.5" y1="58.5" x2="191.8" y2="58.5"/>
<g>
	<g>
		<g>
			<circle class="st2" cx="127.8" cy="95.5" r="55.4"/>
		</g>
		<g>
			<g>
				<path class="st2" d="M167.8,77c-17.2-22-30.3-12.6-36.5-5.4c-1.9,2.3-5.4,2.3-7.3,0c-6-7-19.1-16.4-36.5,5.4
					c-24,30.5,10,71.2,39.9,68.7c0.2,0,0.4,0,0.6,0C157.9,148,191.9,107.5,167.8,77z"/>
				<path class="st2" d="M143.1,100.2L143.1,100.2h-0.4c0,0-1.9,10.1-4.8,20.3c-1.7,5.8-3.5,10.4-5.1,13.9c-2.4,5-4.4,5.6-5.4,5.8
					l0,0c-1.3,0-5.1-1.4-10.1-19.1c-0.4-1.7-0.8-3.1-1.3-4.6l-3.3-15.9l0,0l0,0l0,0c-1.7-0.6-32.7-10-0.6,13.1
					c0.6,2.7,1.3,5.6,2.1,8.3c4.1,14.7,8.3,21.6,13.2,21.6h0.2c2.9-0.2,5.6-2.7,8.1-7.4c1.9-3.5,3.7-8.3,5.4-14.5
					c0.8-2.4,1.4-5.1,2.1-7.7C173.8,89.5,143.1,100.2,143.1,100.2z"/>
			</g>
		</g>
	</g>
</g>
<polyline class="st3" points="67.5,17.7 57.3,17.7 57.3,91.1 46.4,97.8 56.5,104.6 56.5,176.3 67.5,176.3 "/>
<path class="st4" d="M34.6,93.6h-3.8c-1.8,0-3.2-1.4-3.2-3.2v-3.8c0-1.8-1.4-3.2-3.2-3.2h-6.3c-1.8,0-3.2,1.4-3.2,3.2v3.8
	c0,1.8-1.4,3.2-3.2,3.2H8c-1.8,0-3.2,1.4-3.2,3.2v6.3c0,1.8,1.4,3.2,3.2,3.2h3.8c1.8,0,3.2,1.4,3.2,3.2v3.8c0,1.8,1.4,3.2,3.2,3.2
	h6.3c1.8,0,3.2-1.4,3.2-3.2v-3.8c0-1.8,1.4-3.2,3.2-3.2h3.8c1.8,0,3.2-1.4,3.2-3.2v-6.3C37.8,95.1,36.4,93.6,34.6,93.6z"/>
</svg>
