<?xml version="1.0" encoding="utf-8"?>
<!-- Generator: Adobe Illustrator 27.8.1, SVG Export Plug-In . SVG Version: 6.00 Build 0)  -->
<svg version="1.1" id="Layer_1" xmlns="http://www.w3.org/2000/svg" xmlns:xlink="http://www.w3.org/1999/xlink" x="0px" y="0px"
	 viewBox="0 0 106.8 106.8" style="enable-background:new 0 0 106.8 106.8;" xml:space="preserve">
<style type="text/css">
	.st0{fill:#B98DFF;}
</style>
<g id="rBxfQb_00000056392748741869499580000014002938375984820881_">
	<g>
		<path class="st0" d="M88.4,43.9c-0.3,0-0.5,0-0.7,0c-1.9,0-3.7,0-5.6,0c-0.6,0-1.2,0.2-1.5,0.8c-0.3,0.6-0.2,1.2,0.2,1.7
			c3.1,4.4,6.1,8.9,9.2,13.3c0.7,1,2,1,2.7,0c3.1-4.4,6.1-8.9,9.2-13.3c0.2-0.2,0.3-0.5,0.3-0.8c0.2-1-0.6-1.8-1.7-1.8
			c-2.1,0-4.1,0-6.2,0c-0.4,0-0.6-0.1-0.7-0.6C88.5,22.3,68.1,7.4,45.3,10.8c-8.2,1.2-15.4,4.6-21.7,10C11.8,31,6.3,47.2,9.6,62.4
			c3,13.5,10.8,23.3,23,29.6c5.9,3,12.3,4.5,18.9,4.5c0.6,0,1.2-0.2,1.7-0.5c0.9-0.6,1.3-1.8,0.9-2.8c-0.3-1.1-1.3-1.8-2.5-1.8
			c-3,0-5.9-0.3-8.8-1C23.1,85.5,10.6,66,14.6,45.9C18.5,26.1,37.8,12.7,57.8,16c13.8,2.3,25.4,12,29.9,25.4
			C87.9,42.2,88.2,43,88.4,43.9z M56.5,50.8c0.1-0.1,0.2-0.2,0.4-0.3c4.1-4.1,8.2-8.2,12.3-12.3c1.4-1.4,2.8-2.8,4.2-4.2
			c0.5-0.5,0.6-1.1,0.4-1.7c-0.2-0.6-0.7-0.9-1.4-1c-0.5,0-1,0.2-1.3,0.6c-4.6,4.6-9.2,9.2-13.7,13.8c-1,1-2,2-3,3
			c0.4,0.3,0.8,0.6,1.2,1C55.8,50,56.1,50.4,56.5,50.8z M55.5,53.4c0-2.1-1.7-3.8-3.8-3.8c-2.1,0-3.8,1.7-3.8,3.8
			c0,2.1,1.7,3.8,3.7,3.8C53.8,57.2,55.5,55.5,55.5,53.4z M49.1,48.6c-2.6-2.6-5.2-5.2-7.8-7.8c-0.2-0.2-0.6-0.3-0.8-0.4
			c-0.7-0.1-1.3,0.2-1.6,0.8c-0.3,0.6-0.2,1.3,0.4,1.9c2.5,2.5,5,5,7.5,7.6c0.1,0.1,0.2,0.1,0.1,0.1C47.7,50,48.4,49.3,49.1,48.6z"
			/>
		<path class="st0" d="M88.4,43.9c-0.3-0.9-0.5-1.8-0.8-2.6c-4.5-13.3-16-23.1-29.9-25.4c-20-3.3-39.3,10.1-43.2,29.9
			c-4,20.1,8.5,39.6,28.3,44.4c2.9,0.7,5.8,1,8.8,1c1.2,0,2.2,0.7,2.5,1.8c0.3,1,0,2.2-0.9,2.8c-0.5,0.3-1.1,0.5-1.7,0.5
			c-6.7,0-13-1.4-18.9-4.5c-12.2-6.3-20-16.2-23-29.6C6.3,47.2,11.8,31,23.6,20.9c6.3-5.4,13.5-8.8,21.7-10
			c22.8-3.4,43.3,11.4,48.3,32.5c0.1,0.4,0.3,0.6,0.7,0.6c2.1,0,4.1,0,6.2,0c1.1,0,1.8,0.8,1.7,1.8c0,0.3-0.2,0.5-0.3,0.8
			c-3,4.4-6.1,8.9-9.2,13.3c-0.7,1-2,1-2.7,0c-3.1-4.4-6.1-8.9-9.2-13.3c-0.4-0.6-0.5-1.1-0.2-1.7c0.3-0.6,0.8-0.8,1.5-0.8
			c1.9,0,3.7,0,5.6,0C87.9,43.9,88.1,43.9,88.4,43.9z"/>
		<path class="st0" d="M56.5,50.8c-0.4-0.5-0.7-0.9-1-1.2c-0.3-0.3-0.8-0.6-1.2-1c1-1,2-2,3-3c4.6-4.6,9.2-9.2,13.7-13.8
			c0.4-0.4,0.8-0.7,1.3-0.6c0.7,0,1.1,0.4,1.4,1c0.2,0.6,0.1,1.2-0.4,1.7c-1.4,1.4-2.8,2.8-4.2,4.2c-4.1,4.1-8.2,8.2-12.3,12.3
			C56.7,50.6,56.6,50.7,56.5,50.8z"/>
		<path class="st0" d="M55.5,53.4c0,2.1-1.7,3.8-3.8,3.8c-2.1,0-3.7-1.7-3.7-3.8c0-2.1,1.7-3.8,3.8-3.8
			C53.8,49.6,55.5,51.3,55.5,53.4z"/>
		<path class="st0" d="M49.1,48.6c-0.7,0.7-1.4,1.4-2.2,2.2c0,0-0.1,0-0.1-0.1c-2.5-2.5-5-5-7.5-7.6c-0.6-0.6-0.7-1.3-0.4-1.9
			c0.3-0.6,0.9-0.9,1.6-0.8c0.3,0,0.6,0.2,0.8,0.4C43.9,43.4,46.5,46,49.1,48.6z"/>
	</g>
</g>
</svg>
