<?xml version="1.0" encoding="utf-8"?>
<!-- Generator: Adobe Illustrator 22.1.0, SVG Export Plug-In . SVG Version: 6.00 Build 0)  -->
<svg version="1.1" id="Layer_1" xmlns="http://www.w3.org/2000/svg" xmlns:xlink="http://www.w3.org/1999/xlink" x="0px" y="0px"
	 viewBox="0 0 100 100" style="enable-background:new 0 0 100 100;" xml:space="preserve">
<style type="text/css">
	.st0{fill:#BDDFF4;}
	.st1{fill:#3884BE;}
	.st2{fill:#76B6DD;}
</style>
<rect x="8" y="13" class="st0" width="80" height="80"/>
<polygon class="st1" points="8,13 14,7 94,7 88,13 "/>
<polygon class="st2" points="94,7 88,13 88,93 94,86 "/>
<g>
	<path class="st1" d="M63.6,53c0,4.8-1.4,9.1-4.1,12.9c-3,4.1-6.8,6.2-11.5,6.2c-4.7,0-8.5-2.1-11.5-6.2c-2.8-3.8-4.1-8-4.1-12.9
		c0-4.8,1.4-9.1,4.1-12.8c3-4.1,6.8-6.2,11.5-6.2c4.7,0,8.5,2.1,11.5,6.2C62.2,44,63.6,48.2,63.6,53z M58.7,53
		c0-3.8-0.8-6.9-2.5-9.5c-2-3-4.7-4.5-8.3-4.5c-3.6,0-6.3,1.5-8.3,4.5c-1.7,2.6-2.5,5.8-2.5,9.5c0,3.7,0.8,6.9,2.5,9.5
		c2,3,4.7,4.6,8.3,4.6c3.6,0,6.3-1.5,8.3-4.6C57.8,59.8,58.7,56.7,58.7,53z"/>
</g>
</svg>
