<?xml version="1.0" encoding="utf-8"?>
<!-- Generator: Adobe Illustrator 27.8.1, SVG Export Plug-In . SVG Version: 6.00 Build 0)  -->
<svg version="1.1" id="Layer_1" xmlns="http://www.w3.org/2000/svg" xmlns:xlink="http://www.w3.org/1999/xlink" x="0px" y="0px"
	 viewBox="0 0 1366 768" style="enable-background:new 0 0 1366 768;" xml:space="preserve">
<style type="text/css">
	.st0{fill:#2F81C1;}
	.st1{fill:url(#SVGID_1_);}
	.st2{fill:url(#SVGID_00000135692382383391010430000007287462317675634856_);}
	.st3{fill:#1D6493;}
	.st4{fill:#1D567C;}
	.st5{fill:#8CC1E5;}
	.st6{fill:#0D2D3F;}
	.st7{fill:#2E93CC;}
	.st8{fill:none;stroke:#2F81C1;stroke-miterlimit:10;}
</style>
<path id="wing" class="st0" d="M-311.2-4.5c0,0-44.3-22.9-1.2,19.8C-312.4,15.3-305.1,4.9-311.2-4.5z"/>
<g id="body">
	<path class="st0" d="M-271.9,40.5c0,0,14,16.9,10.1-4.1C-261.7,36.4-270.4,32.7-271.9,40.5z"/>
	
		<radialGradient id="SVGID_1_" cx="-279.4396" cy="760.8491" r="34" gradientTransform="matrix(1 0 0 -1 0 768.1102)" gradientUnits="userSpaceOnUse">
		<stop  offset="0" style="stop-color:#AAE1F9"/>
		<stop  offset="1" style="stop-color:#2F81C1"/>
	</radialGradient>
	<circle class="st1" cx="-279.4" cy="7.3" r="34"/>
	
		<linearGradient id="SVGID_00000103944373198385051710000018234406072648909952_" gradientUnits="userSpaceOnUse" x1="-285.4135" y1="892.5567" x2="-259.7374" y2="848.0845" gradientTransform="matrix(0.9829 0.1839 -0.1839 0.9829 145.3299 -800.6481)">
		<stop  offset="0" style="stop-color:#AAE1F9"/>
		<stop  offset="1" style="stop-color:#FFFFFF"/>
	</linearGradient>
	<path style="fill:url(#SVGID_00000103944373198385051710000018234406072648909952_);" d="M-257.2-4.7c-7.4-14.1-15.8-10.2-19.9-6.8
		c-1.3,1.1-3.4,0.7-4.2-0.8c-2.7-4.7-9.1-11.2-21-0.8c-16.9,14.7-2,41,15.2,42.9c0.1,0,0.2,0,0.4,0.1
		C-270.3,34.3-246.8,15-257.2-4.7z"/>
	<path class="st0" d="M-266.3,3.1c-0.2-0.3-2-2.3-3.9-2.9c-3.3-0.9-4.6,1.2-4.6,1.2s-2,5.6-4.8,10.9c-1.6,3.1-3,5.5-4.3,7.2
		c-2,2.5-3.1,2.8-3.6,2.7c-0.7-0.1-2.7-1.4-3.7-11.9c-0.1-0.9-0.1-1.9-0.2-2.8l-0.2-6c0.1-0.7,0.2-1.4,0.2-2.1
		c0-4.5-1.9-8.2-4.3-8.2s-5.4,3.7-5.4,8.2s3,8.2,5.4,8.2c0.9,0,1.7-0.5,2.4-1.4c0.1,1.4,0.1,2.8,0.3,4.2c0.7,8.7,2.4,13.1,5.1,13.6
		h0.1c1.6,0.2,3.4-0.9,5.3-3.3c1.5-1.8,2.9-4.3,4.5-7.6c0.7-1.3,1.4-2.7,1.9-4.1c0.8-2.1,2.3-5.6,3.1-6c2.2-1.2,5.2-0.2,6.3,2.8
		C-266.4,6.6-264.9,5.2-266.3,3.1z"/>
	<path class="st0" d="M-245.4,7.3c0,0,16.6,45.7-6.4,19.9C-251.8,27.2-252.8,13.9-245.4,7.3z"/>
	<g>
		
			<rect x="-255.1" y="-25.7" transform="matrix(0.7864 -0.6177 0.6177 0.7864 -47.3585 -157.7265)" class="st3" width="6.7" height="30.6"/>
		
			<rect x="-245.2" y="1.4" transform="matrix(0.7864 -0.6177 0.6177 0.7864 -53.0002 -148.93)" class="st4" width="6.7" height="1.5"/>
		<path class="st5" d="M-241.9,7.6L-244,5l5.3-4.2l2.1,2.6c1.1,1.5,0.9,3.6-0.6,4.7l0,0C-238.6,9.3-240.7,9.1-241.9,7.6z"/>
		<polygon class="st5" points="-258.5,-24.5 -263.9,-27.7 -265.7,-26.3 -263.8,-20.3 		"/>
		
			<rect x="-266.8" y="-30" transform="matrix(0.7864 -0.6177 0.6177 0.7864 -39.2252 -170.2269)" class="st6" width="2.1" height="3.3"/>
		
			<rect x="-253.3" y="-25.6" transform="matrix(0.7864 -0.6177 0.6177 0.7864 -47.4422 -157.8112)" class="st7" width="2.7" height="30.6"/>
	</g>
</g>
<g>
	<line class="st8" x1="683" y1="768" x2="163.3" y2="0"/>
	<line class="st8" x1="683" y1="768" x2="136.1" y2="0.4"/>
	<line class="st8" x1="683" y1="768" x2="108.9" y2="0.7"/>
	<line class="st8" x1="683" y1="768" x2="81.7" y2="1.1"/>
	<line class="st8" x1="683" y1="768" x2="54.4" y2="1.4"/>
	<line class="st8" x1="683" y1="768" x2="27.2" y2="1.8"/>
	<line class="st8" x1="683" y1="768" x2="0" y2="2.2"/>
</g>
<g>
	<line class="st8" x1="1366" y1="0" x2="683" y2="768"/>
	<line class="st8" x1="1339.4" y1="0.4" x2="683" y2="768"/>
	<line class="st8" x1="1312.7" y1="0.7" x2="683" y2="768"/>
	<line class="st8" x1="1286.1" y1="1.1" x2="683" y2="768"/>
	<line class="st8" x1="1259.5" y1="1.4" x2="683" y2="768"/>
	<line class="st8" x1="1232.8" y1="1.8" x2="683" y2="768"/>
	<line class="st8" x1="1206.2" y1="2.2" x2="683" y2="768"/>
</g>
</svg>
