<?xml version="1.0" encoding="utf-8"?>
<!-- Generator: Adobe Illustrator 27.8.1, SVG Export Plug-In . SVG Version: 6.00 Build 0)  -->
<svg version="1.1" id="Layer_1" xmlns="http://www.w3.org/2000/svg" xmlns:xlink="http://www.w3.org/1999/xlink" x="0px" y="0px"
	 viewBox="0 0 60 60" style="enable-background:new 0 0 60 60;" xml:space="preserve">
<style type="text/css">
	.st0{fill:url(#SVGID_1_);}
	.st1{fill:#2F81C1;}
	.st2{fill:#365489;}
	.st3{fill:#73B4EA;}
	.st4{fill:url(#SVGID_00000036227343038267600830000017968602526205611683_);}
	.st5{fill:url(#SVGID_00000027589627928311363200000000309194038351796377_);}
</style>
<g>
	<g>
		<radialGradient id="SVGID_1_" cx="29.9001" cy="29.9253" r="13.8558" gradientUnits="userSpaceOnUse">
			<stop  offset="0" style="stop-color:#AAE1F9"/>
			<stop  offset="1" style="stop-color:#2F81C1"/>
		</radialGradient>
		<path class="st0" d="M29.9,43.8c-7.6,0-13.9-6.2-13.9-13.9s6.2-13.9,13.9-13.9s13.9,6.2,13.9,13.9S37.5,43.8,29.9,43.8z
			 M29.9,17.1c-7.1,0-12.9,5.8-12.9,12.9c0,7.1,5.8,12.9,12.9,12.9S42.8,37,42.8,29.9C42.8,22.8,37,17.1,29.9,17.1z"/>
	</g>
	<g>
		<g>
			<path class="st1" d="M39.6,25.6c-4.1-5.3-7.3-3-8.8-1.3c-0.5,0.6-1.3,0.6-1.8,0c-1.5-1.7-4.6-3.9-8.8,1.3
				c-5.8,7.4,2.4,17.1,9.6,16.5c0.1,0,0.1,0,0.2,0C37.2,42.7,45.4,32.9,39.6,25.6z M33.6,34.3c-0.1,0.6-0.3,1.2-0.5,1.8
				c-0.4,1.5-0.8,2.6-1.3,3.5c-0.6,1.2-1.3,1.7-1.9,1.8h-0.1c-1.2,0-2.2-1.7-3.2-5.2c-0.2-0.7-0.4-1.3-0.5-2
				c-7.7-5.5-0.3-3.2,0.2-3.1l0.8,3.8c0.1,0.4,0.2,0.8,0.3,1.1c1.2,4.2,2.1,4.6,2.5,4.6c0.2,0,0.7-0.2,1.3-1.4
				c0.4-0.8,0.8-1.9,1.2-3.3c0.7-2.4,1.1-4.9,1.1-4.9h0.1C33.6,31.1,41,28.5,33.6,34.3z"/>
		</g>
	</g>
</g>
<g>
	<path class="st2" d="M29.8,46.3c-9.1,0-16.5-7.4-16.5-16.5c0-9.1,7.4-16.5,16.5-16.5s16.5,7.4,16.5,16.5
		C46.3,38.9,38.9,46.3,29.8,46.3z M29.8,13.5c-9,0-16.3,7.3-16.3,16.3c0,9,7.3,16.3,16.3,16.3s16.3-7.3,16.3-16.3
		C46.1,20.8,38.8,13.5,29.8,13.5z"/>
</g>
<g>
	<path class="st2" d="M29.8,48.6l0-0.5c10,0,18.1-8.1,18.1-18.1v-0.1h0.5V30C48.4,40.2,40.1,48.6,29.8,48.6z M11.2,30L11.2,30
		c0-10.3,8.3-18.6,18.5-18.6l0,0.5c-10,0-18.1,8.2-18.1,18.1L11.2,30z"/>
</g>
<g>
	<path class="st3" d="M29.9,49.7c-4.8,0-9.4-1.7-13-4.9l0.3-0.4c3.5,3.1,8,4.8,12.6,4.8c2.1,0,4.2-0.3,6.2-1l0.2,0.5
		C34.2,49.4,32.1,49.7,29.9,49.7z M49.2,33.8l-0.5-0.1c0.2-1.2,0.4-2.5,0.4-3.7c0-5.5-2.4-10.8-6.5-14.5l0.1-0.2l0.2-0.2l-0.2,0.2
		l0.2-0.2c4.3,3.7,6.7,9.2,6.7,14.8C49.6,31.3,49.5,32.6,49.2,33.8z M11,26.3l-0.5-0.1c0.7-3.4,2.2-6.6,4.5-9.2
		c2.3-2.6,5.2-4.5,8.4-5.7l0.2,0.5c-3.2,1.1-6,3-8.2,5.5C13.2,19.9,11.7,23,11,26.3z"/>
</g>
<g>
	
		<radialGradient id="SVGID_00000068673646728164888930000013659623240321390738_" cx="10.878" cy="31.1438" r="7.7309" gradientUnits="userSpaceOnUse">
		<stop  offset="0" style="stop-color:#AAE1F9"/>
		<stop  offset="1" style="stop-color:#2F81C1"/>
	</radialGradient>
	<path style="fill:url(#SVGID_00000068673646728164888930000013659623240321390738_);" d="M18.9,38.2C7.7,35.1,6.4,33.1,6.3,31.9
		c0-0.6,0.4-1.1,0.8-1.4c-3.6-2.3-5-3.9-4.5-5.1c1-2.6,11.5-0.7,14.6,0l-0.2,1c-6.1-1.2-13-1.8-13.5-0.6c-0.1,0.2-0.2,1.2,4.8,4.4
		l0.9,0.6l-1,0.3c-0.2,0.1-1,0.4-1,0.9c0,0.5,0.9,2.3,11.9,5.4L18.9,38.2z"/>
</g>
<g>
	
		<radialGradient id="SVGID_00000114779569202335391440000004619177580210701966_" cx="49.024" cy="31.144" r="7.8455" gradientUnits="userSpaceOnUse">
		<stop  offset="0" style="stop-color:#AAE1F9"/>
		<stop  offset="1" style="stop-color:#2F81C1"/>
	</radialGradient>
	<path style="fill:url(#SVGID_00000114779569202335391440000004619177580210701966_);" d="M40.7,38.2l-0.3-1
		c11.3-3.1,12.2-4.9,12.2-5.4c0-0.4-0.7-0.7-1-0.8l-1-0.3l0.9-0.6c5.1-3.1,5-4.2,5-4.4c-0.5-1.2-7.6-0.7-13.9,0.6l-0.2-1
		c3.3-0.6,14-2.6,15,0c0.5,1.2-1,2.8-4.6,5.1c0.5,0.3,0.8,0.8,0.8,1.4C53.7,33.1,52.3,35.1,40.7,38.2z"/>
</g>
</svg>
