<?xml version="1.0" encoding="utf-8"?>
<!-- Generator: Adobe Illustrator 22.1.0, SVG Export Plug-In . SVG Version: 6.00 Build 0)  -->
<svg version="1.1" id="Layer_1" xmlns="http://www.w3.org/2000/svg" xmlns:xlink="http://www.w3.org/1999/xlink" x="0px" y="0px"
	 viewBox="0 0 60 72.1" style="enable-background:new 0 0 60 72.1;" xml:space="preserve">
<style type="text/css">
	.st0{fill:#2F81C1;}
	.st1{fill:#FFFFFF;}
</style>
<g>
	<g>
		<circle class="st0" cx="29.7" cy="30.3" r="26.7"/>
	</g>
	<g>
		<g>
			<path class="st1" d="M49,21.6C40.7,11,34.4,15.5,31.4,19c-0.9,1.1-2.6,1.1-3.5,0c-2.9-3.4-9.2-7.9-17.6,2.6
				c-11.6,14.7,4.8,34.3,19.2,33.1c0.1,0,0.2,0,0.3,0C44.2,55.8,60.6,36.3,49,21.6z"/>
			<path class="st0" d="M37.1,32.7L37.1,32.7h-0.2c0,0-0.9,4.9-2.3,9.8c-0.8,2.8-1.7,5-2.5,6.7c-1.2,2.4-2.1,2.7-2.6,2.8l0,0
				c-0.6,0-2.5-0.7-4.9-9.2c-0.2-0.8-0.4-1.5-0.6-2.2l-1.6-7.7l0,0l0,0l0,0c-0.8-0.3-15.8-4.8-0.3,6.3c0.3,1.3,0.6,2.7,1,4
				c2,7.1,4,10.4,6.4,10.4h0.1c1.4-0.1,2.7-1.3,3.9-3.6c0.9-1.7,1.8-4,2.6-7c0.4-1.2,0.7-2.5,1-3.7C51.9,27.5,37.1,32.7,37.1,32.7z"
				/>
		</g>
	</g>
</g>
<g>
	<g>
		<path class="st0" d="M7.1,59.9c0,0.1-0.1,0.3-0.2,0.4c-0.1,0.1-0.2,0.2-0.4,0.2H5.5c-0.9,0-1.7,0.3-2.4,0.9
			c-0.7,0.6-1.1,1.4-1.3,2.2h5.2v0.4c0,1.3-0.5,2.4-1.4,3.5c-1,1.1-2.1,1.6-3.3,1.6c-0.1,0-0.3,0-0.6,0c-0.3,0-0.4,0-0.6,0
			c-0.1,0-0.3-0.1-0.3-0.2c-0.1-0.1-0.1-0.2-0.1-0.4c0-0.1,0.1-0.3,0.2-0.4C0.9,68,1,67.9,1.2,67.9c0.1,0,0.3,0,0.6,0
			c0.2,0,0.4,0,0.6,0c0.9,0,1.7-0.3,2.4-1c0.7-0.7,1.1-1.4,1.3-2.3H0.7v-0.5c0-1.3,0.5-2.4,1.4-3.3c1-1,2.1-1.4,3.3-1.4h1.1
			c0.1,0,0.3,0.1,0.4,0.2C7.1,59.6,7.1,59.7,7.1,59.9z"/>
		<path class="st0" d="M21.5,68.5c0,0.1-0.1,0.3-0.2,0.4C21.2,69,21.1,69,21,69c-0.2,0-0.3,0-0.4-0.1c-0.1-0.1-0.2-0.2-0.1-0.4v-3.1
			c0-0.7-0.3-1.4-0.8-1.9c-0.5-0.5-1.1-0.8-1.9-0.8c-0.5,0-1,0.2-1.5,0.5c-0.4,0.3-0.8,0.7-1,1.2c-0.1,0.3-0.2,0.5-0.2,0.6
			c0,0.4,0,1,0,1.6c0,0.8,0,1.4,0,1.7c0,0.2-0.1,0.3-0.2,0.4C14.9,69,14.8,69,14.6,69c-0.1,0-0.3-0.1-0.4-0.2
			c-0.1-0.1-0.1-0.2-0.1-0.4v-3.1c0,0,0-0.1,0-0.2c0-0.1,0-0.1,0-0.2c0-0.1,0-0.3-0.1-0.6c-0.2-0.5-0.5-0.9-1-1.3
			c-0.5-0.3-1-0.5-1.5-0.5c-0.7,0-1.4,0.3-1.9,0.8c-0.5,0.5-0.8,1.1-0.8,1.9c0,0,0,1,0,3c0,0.2-0.1,0.3-0.2,0.4
			c-0.1,0.1-0.2,0.2-0.4,0.2S8,68.9,7.9,68.8c-0.1-0.1-0.2-0.2-0.2-0.4v-3.1c0-1,0.4-1.9,1.1-2.6c0.7-0.7,1.6-1.1,2.6-1.1
			c0.7,0,1.3,0.2,1.8,0.5c0.6,0.3,1,0.8,1.4,1.3c0.3-0.5,0.8-1,1.3-1.3c0.6-0.3,1.2-0.5,1.8-0.5c1,0,1.9,0.4,2.6,1.1
			c0.7,0.7,1.1,1.6,1.1,2.6L21.5,68.5z"/>
		<path class="st0" d="M29.7,68.4c0,0.2-0.1,0.3-0.2,0.4c-0.1,0.1-0.2,0.1-0.4,0.1c-0.3,0-0.4-0.1-0.5-0.4c0,0,0-0.3,0-0.8
			c-0.7,0.8-1.6,1.2-2.6,1.2c-1,0-1.9-0.4-2.6-1.1c-0.7-0.7-1.1-1.6-1.1-2.6c0-1,0.4-1.9,1.1-2.6c0.7-0.7,1.6-1.1,2.6-1.1
			c1,0,1.9,0.4,2.6,1.1c0.7,0.7,1.1,1.6,1.1,2.6V68.4z M28.6,65.2c0-0.7-0.3-1.4-0.8-1.9c-0.5-0.5-1.1-0.8-1.9-0.8
			c-0.7,0-1.4,0.3-1.9,0.8c-0.5,0.5-0.8,1.1-0.8,1.9s0.3,1.3,0.8,1.9c0.5,0.5,1.1,0.8,1.9,0.8c0.7,0,1.3-0.3,1.9-0.8
			C28.3,66.6,28.6,65.9,28.6,65.2z"/>
		<path class="st0" d="M34,61.5H35c0.1,0,0.3,0.1,0.4,0.2s0.2,0.2,0.2,0.4c0,0.2-0.1,0.3-0.2,0.4c-0.1,0.1-0.2,0.2-0.4,0.2
			c-0.1,0-0.3,0-0.5,0c-0.2,0-0.4,0-0.5,0c-0.7,0-1.4,0.3-1.9,0.8c-0.5,0.5-0.8,1.1-0.8,1.9v3.2c0,0.1-0.1,0.3-0.2,0.4
			c-0.1,0.1-0.2,0.2-0.4,0.2c-0.4,0-0.5-0.2-0.5-0.5v-3.2c0-1,0.4-1.9,1.1-2.6C32.1,61.9,33,61.5,34,61.5H35H34z"/>
		<path class="st0" d="M41.5,68.4c0,0.3-0.2,0.5-0.5,0.5c-0.4,0-0.8,0-1,0c-1,0-1.9-0.3-2.6-1c-0.7-0.7-1.1-1.6-1.1-2.6v-5.1
			c0-0.1,0.1-0.3,0.2-0.4c0.1-0.1,0.2-0.2,0.4-0.2c0.1,0,0.3,0.1,0.4,0.2c0.1,0.1,0.2,0.2,0.2,0.4v1.3h3.6c0.3,0,0.5,0.2,0.5,0.5
			c0,0.2-0.1,0.3-0.2,0.4c-0.1,0.1-0.2,0.2-0.4,0.2h-3.5v2.6c0,0.7,0.3,1.3,0.8,1.9c0.5,0.5,1.2,0.8,1.9,0.7c0.1,0,0.2,0,0.5,0
			c0.2,0,0.4,0,0.5,0c0.1,0,0.3,0.1,0.4,0.2C41.4,68.2,41.5,68.3,41.5,68.4z"/>
		<path class="st0" d="M51.2,68.4c0,0.1-0.1,0.3-0.2,0.4c-0.1,0.1-0.2,0.2-0.4,0.2s-0.3-0.1-0.4-0.2c-0.1-0.1-0.2-0.2-0.2-0.4v-3.3
			h-7.1v3.3c0,0.1-0.1,0.3-0.2,0.4c-0.1,0.1-0.2,0.2-0.4,0.2c-0.1,0-0.3,0-0.4-0.1c-0.1-0.1-0.2-0.2-0.2-0.4V64
			c0-1.3,0.5-2.4,1.4-3.3c0.9-0.9,2-1.4,3.3-1.4c1.3,0,2.4,0.5,3.3,1.4c0.9,0.9,1.4,2,1.4,3.3V68.4z M50.2,64c0-1-0.3-1.8-1-2.5
			c-0.7-0.7-1.5-1-2.5-1c-1,0-1.8,0.3-2.5,1c-0.7,0.7-1,1.5-1,2.5H50.2z"/>
		<path class="st0" d="M57.3,62.8c0,1.1-0.5,1.9-1.4,2.6c-0.8,0.6-1.8,0.8-2.9,0.8v2.2c0,0.1-0.1,0.3-0.2,0.4
			c-0.1,0.1-0.2,0.2-0.4,0.2c-0.1,0-0.3,0-0.4-0.1s-0.2-0.2-0.2-0.4v-8.5c0-0.3,0.1-0.4,0.4-0.5c0.1,0,0.4,0,0.8,0
			c1.1,0,2.1,0.3,2.9,0.9C56.8,60.8,57.3,61.7,57.3,62.8z M56.2,62.8c0-0.9-0.3-1.5-1-1.9c-0.6-0.3-1.3-0.5-2.2-0.5l0,4.8
			c0.9,0,1.6-0.2,2.2-0.5C55.8,64.2,56.2,63.6,56.2,62.8z"/>
		<path class="st0" d="M59,68.4c0,0.1-0.1,0.3-0.2,0.4c-0.1,0.1-0.2,0.2-0.4,0.2c-0.1,0-0.3-0.1-0.4-0.2C58,68.6,58,68.5,58,68.4
			v-8.5c0-0.1,0.1-0.3,0.2-0.4c0.1-0.1,0.2-0.2,0.4-0.2c0.1,0,0.3,0.1,0.4,0.2c0.1,0.1,0.2,0.2,0.2,0.4V68.4z"/>
	</g>
	<g>
		<path class="st0" d="M7.1,59.9c0,0.1-0.1,0.3-0.2,0.4c-0.1,0.1-0.2,0.2-0.4,0.2H5.5c-0.9,0-1.7,0.3-2.4,0.9
			c-0.7,0.6-1.1,1.4-1.3,2.2h5.2v0.4c0,1.3-0.5,2.4-1.4,3.5c-1,1.1-2.1,1.6-3.3,1.6c-0.1,0-0.3,0-0.6,0c-0.3,0-0.4,0-0.6,0
			c-0.1,0-0.3-0.1-0.3-0.2c-0.1-0.1-0.1-0.2-0.1-0.4c0-0.1,0.1-0.3,0.2-0.4C0.9,68,1,67.9,1.2,67.9c0.1,0,0.3,0,0.6,0
			c0.2,0,0.4,0,0.6,0c0.9,0,1.7-0.3,2.4-1c0.7-0.7,1.1-1.4,1.3-2.3H0.7v-0.5c0-1.3,0.5-2.4,1.4-3.3c1-1,2.1-1.4,3.3-1.4h1.1
			c0.1,0,0.3,0.1,0.4,0.2C7.1,59.6,7.1,59.7,7.1,59.9z"/>
		<path class="st0" d="M21.5,68.5c0,0.1-0.1,0.3-0.2,0.4C21.2,69,21.1,69,21,69c-0.2,0-0.3,0-0.4-0.1c-0.1-0.1-0.2-0.2-0.1-0.4v-3.1
			c0-0.7-0.3-1.4-0.8-1.9c-0.5-0.5-1.1-0.8-1.9-0.8c-0.5,0-1,0.2-1.5,0.5c-0.4,0.3-0.8,0.7-1,1.2c-0.1,0.3-0.2,0.5-0.2,0.6
			c0,0.4,0,1,0,1.6c0,0.8,0,1.4,0,1.7c0,0.2-0.1,0.3-0.2,0.4C14.9,69,14.8,69,14.6,69c-0.1,0-0.3-0.1-0.4-0.2
			c-0.1-0.1-0.1-0.2-0.1-0.4v-3.1c0,0,0-0.1,0-0.2c0-0.1,0-0.1,0-0.2c0-0.1,0-0.3-0.1-0.6c-0.2-0.5-0.5-0.9-1-1.3
			c-0.5-0.3-1-0.5-1.5-0.5c-0.7,0-1.4,0.3-1.9,0.8c-0.5,0.5-0.8,1.1-0.8,1.9c0,0,0,1,0,3c0,0.2-0.1,0.3-0.2,0.4
			c-0.1,0.1-0.2,0.2-0.4,0.2S8,68.9,7.9,68.8c-0.1-0.1-0.2-0.2-0.2-0.4v-3.1c0-1,0.4-1.9,1.1-2.6c0.7-0.7,1.6-1.1,2.6-1.1
			c0.7,0,1.3,0.2,1.8,0.5c0.6,0.3,1,0.8,1.4,1.3c0.3-0.5,0.8-1,1.3-1.3c0.6-0.3,1.2-0.5,1.8-0.5c1,0,1.9,0.4,2.6,1.1
			c0.7,0.7,1.1,1.6,1.1,2.6L21.5,68.5z"/>
		<path class="st0" d="M29.7,68.4c0,0.2-0.1,0.3-0.2,0.4c-0.1,0.1-0.2,0.1-0.4,0.1c-0.3,0-0.4-0.1-0.5-0.4c0,0,0-0.3,0-0.8
			c-0.7,0.8-1.6,1.2-2.6,1.2c-1,0-1.9-0.4-2.6-1.1c-0.7-0.7-1.1-1.6-1.1-2.6c0-1,0.4-1.9,1.1-2.6c0.7-0.7,1.6-1.1,2.6-1.1
			c1,0,1.9,0.4,2.6,1.1c0.7,0.7,1.1,1.6,1.1,2.6V68.4z M28.6,65.2c0-0.7-0.3-1.4-0.8-1.9c-0.5-0.5-1.1-0.8-1.9-0.8
			c-0.7,0-1.4,0.3-1.9,0.8c-0.5,0.5-0.8,1.1-0.8,1.9s0.3,1.3,0.8,1.9c0.5,0.5,1.1,0.8,1.9,0.8c0.7,0,1.3-0.3,1.9-0.8
			C28.3,66.6,28.6,65.9,28.6,65.2z"/>
		<path class="st0" d="M34,61.5H35c0.1,0,0.3,0.1,0.4,0.2s0.2,0.2,0.2,0.4c0,0.2-0.1,0.3-0.2,0.4c-0.1,0.1-0.2,0.2-0.4,0.2
			c-0.1,0-0.3,0-0.5,0c-0.2,0-0.4,0-0.5,0c-0.7,0-1.4,0.3-1.9,0.8c-0.5,0.5-0.8,1.1-0.8,1.9v3.2c0,0.1-0.1,0.3-0.2,0.4
			c-0.1,0.1-0.2,0.2-0.4,0.2c-0.4,0-0.5-0.2-0.5-0.5v-3.2c0-1,0.4-1.9,1.1-2.6C32.1,61.9,33,61.5,34,61.5H35H34z"/>
		<path class="st0" d="M41.5,68.4c0,0.3-0.2,0.5-0.5,0.5c-0.4,0-0.8,0-1,0c-1,0-1.9-0.3-2.6-1c-0.7-0.7-1.1-1.6-1.1-2.6v-5.1
			c0-0.1,0.1-0.3,0.2-0.4c0.1-0.1,0.2-0.2,0.4-0.2c0.1,0,0.3,0.1,0.4,0.2c0.1,0.1,0.2,0.2,0.2,0.4v1.3h3.6c0.3,0,0.5,0.2,0.5,0.5
			c0,0.2-0.1,0.3-0.2,0.4c-0.1,0.1-0.2,0.2-0.4,0.2h-3.5v2.6c0,0.7,0.3,1.3,0.8,1.9c0.5,0.5,1.2,0.8,1.9,0.7c0.1,0,0.2,0,0.5,0
			c0.2,0,0.4,0,0.5,0c0.1,0,0.3,0.1,0.4,0.2C41.4,68.2,41.5,68.3,41.5,68.4z"/>
		<path class="st0" d="M51.2,68.4c0,0.1-0.1,0.3-0.2,0.4c-0.1,0.1-0.2,0.2-0.4,0.2s-0.3-0.1-0.4-0.2c-0.1-0.1-0.2-0.2-0.2-0.4v-3.3
			h-7.1v3.3c0,0.1-0.1,0.3-0.2,0.4c-0.1,0.1-0.2,0.2-0.4,0.2c-0.1,0-0.3,0-0.4-0.1c-0.1-0.1-0.2-0.2-0.2-0.4V64
			c0-1.3,0.5-2.4,1.4-3.3c0.9-0.9,2-1.4,3.3-1.4c1.3,0,2.4,0.5,3.3,1.4c0.9,0.9,1.4,2,1.4,3.3V68.4z M50.2,64c0-1-0.3-1.8-1-2.5
			c-0.7-0.7-1.5-1-2.5-1c-1,0-1.8,0.3-2.5,1c-0.7,0.7-1,1.5-1,2.5H50.2z"/>
		<path class="st0" d="M57.3,62.8c0,1.1-0.5,1.9-1.4,2.6c-0.8,0.6-1.8,0.8-2.9,0.8v2.2c0,0.1-0.1,0.3-0.2,0.4
			c-0.1,0.1-0.2,0.2-0.4,0.2c-0.1,0-0.3,0-0.4-0.1s-0.2-0.2-0.2-0.4v-8.5c0-0.3,0.1-0.4,0.4-0.5c0.1,0,0.4,0,0.8,0
			c1.1,0,2.1,0.3,2.9,0.9C56.8,60.8,57.3,61.7,57.3,62.8z M56.2,62.8c0-0.9-0.3-1.5-1-1.9c-0.6-0.3-1.3-0.5-2.2-0.5l0,4.8
			c0.9,0,1.6-0.2,2.2-0.5C55.8,64.2,56.2,63.6,56.2,62.8z"/>
		<path class="st0" d="M59,68.4c0,0.1-0.1,0.3-0.2,0.4c-0.1,0.1-0.2,0.2-0.4,0.2c-0.1,0-0.3-0.1-0.4-0.2C58,68.6,58,68.5,58,68.4
			v-8.5c0-0.1,0.1-0.3,0.2-0.4c0.1-0.1,0.2-0.2,0.4-0.2c0.1,0,0.3,0.1,0.4,0.2c0.1,0.1,0.2,0.2,0.2,0.4V68.4z"/>
	</g>
</g>
</svg>
