<?xml version="1.0" encoding="utf-8"?>
<!-- Generator: Adobe Illustrator 24.2.0, SVG Export Plug-In . SVG Version: 6.00 Build 0)  -->
<svg version="1.1" id="Layer_1" xmlns="http://www.w3.org/2000/svg" xmlns:xlink="http://www.w3.org/1999/xlink" x="0px" y="0px"
	 viewBox="0 0 200 200" style="enable-background:new 0 0 200 200;" xml:space="preserve">
<g>
	<path style="fill:#3883BE;" d="M118.2,110.4c3.2-1.9,4.8-4.8,4.8-8.7c0-3.9-1.6-6.9-4.8-8.8c-2.5-1.5-6-2.3-10.2-2.3l0.2,22
		C112.3,112.6,115.6,111.9,118.2,110.4z"/>
	<path style="fill:#3883BE;" d="M67.1,95.9c-3.2,3.2-4.8,7.1-4.8,11.6h32.9c0-4.5-1.6-8.4-4.8-11.6c-3.2-3.2-7.1-4.8-11.7-4.8
		C74.2,91.1,70.3,92.7,67.1,95.9z"/>
	<path style="fill:#3883BE;" d="M184.8,34.2c-2.4-2.1-6.1-2.1-8.5,0c-1.6,1.5-2.4,3.3-2.2,5.5c0.1,0.9,0.2,0.7-0.7,1
		c-5.1,1.8-10.1,3.6-15.2,5.4c-2,0.7-3.9,1.4-5.9,2.1c-0.5,0.2-0.7,0.1-0.9-0.3c-0.2-0.5-0.5-0.9-0.8-1.3c-2.5-3-5.6-4.2-9.4-3.6
		c-0.4,0.1-0.6-0.1-0.7-0.4c-0.6-1.7-1.2-3.5-1.8-5.2c-0.2-0.4-0.1-0.6,0.3-0.8c1.5-0.6,2.8-1.6,3.7-3c0.2-0.3,0.4-0.3,0.7-0.2
		c2.4,1.2,4.8,2.4,7.2,3.6c0.3,0.2,0.5,0.4,0.4,0.8c-0.4,2.8,2.2,5.1,4.9,4.4c1.6-0.4,2.8-1.8,2.9-3.4c0.1-1.7-0.7-3.2-2.2-3.9
		c-1.5-0.7-3.3-0.4-4.5,0.8c-0.3,0.3-0.6,0.3-1,0.1c-2.4-1.2-4.8-2.4-7.2-3.6c-0.3-0.1-0.4-0.3-0.2-0.6c1.2-3.7,0-7.4-3.2-9.7
		c-0.3-0.2-0.3-0.3-0.2-0.7c1.1-2.2,2.2-4.4,3.3-6.7c0.2-0.3,0.3-0.4,0.7-0.3c2.3,0.4,4.3-1.2,4.5-3.6c0.2-2.1-1.4-4-3.7-4.2
		c-1.6-0.1-3.2,0.9-3.8,2.3c-0.7,1.6-0.4,3.2,0.8,4.4c0.2,0.2,0.4,0.4,0.2,0.8c-1.1,2.2-2.2,4.4-3.3,6.5c-0.2,0.4-0.4,0.5-0.8,0.3
		c-3.5-1.1-7.2,0.1-9.4,3.1c-0.3,0.5-0.6,0.5-1.1,0.3c-3.9-2-7.9-3.9-11.8-5.8c-1-0.5-1-0.5-0.8-1.6c0.7-3.9-3.2-7.4-7-6.3
		c-2.5,0.7-4.5,3.1-4.2,6c0.2,2.1,1.7,4.1,3.8,4.8c2.3,0.7,4.7,0.1,6.1-1.6c0.4-0.4,0.7-0.6,1.1-0.3c0.1,0,0.2,0.1,0.2,0.1
		c4.1,2,8.2,4,12.2,6c0.3,0.1,0.4,0.3,0.3,0.6c-0.5,1.4-0.6,2.9-0.3,4.3c0.1,0.4,0,0.5-0.4,0.7c-1.8,0.6-3.6,1.3-5.4,1.9
		c-0.3,0.1-0.5,0.1-0.8-0.2c-1.5-1.9-3.9-1.9-5.3-0.9c-1.5,1-2.1,2.8-1.6,4.5c0.4,1.4,1.9,2.8,3.9,2.7c2.2-0.1,4-1.9,3.8-4.1
		c0-0.4,0.1-0.5,0.4-0.6c1.8-0.6,3.7-1.3,5.5-2c0.3-0.1,0.5,0,0.6,0.3c0.7,1.2,1.6,2.3,2.8,3.1c0.3,0.2,0.3,0.3,0.1,0.6
		c-1.1,2.2-2.1,4.4-3.2,6.6c-1.9,3.9-3.8,7.8-5.7,11.6c-0.1,0.3-0.3,0.4-0.6,0.3c-2-0.3-3.7,0.2-5.1,1.6c-0.2,0.2-0.3,0.2-0.5,0.1
		c-1.5-1-3-2-4.5-3c-2.3-1.6-4.7-3.1-7-4.7c-0.7-0.4-0.7-0.4-0.4-1.1c0.5-1.1,0.8-2.3,0.7-3.6c-0.1-2.4-1-4.5-2.8-6.1
		c-0.3-0.2-0.3-0.4-0.1-0.7c1.4-2,2.7-4.1,4.1-6.2c0.2-0.3,0.3-0.3,0.6-0.2c0.6,0.2,1.2,0.2,1.8,0.1c1.6-0.3,2.7-1.2,3.1-2.8
		c0.5-1.5,0.1-2.9-1.1-4c-1.5-1.4-3.8-1.4-5.3-0.1c-1.5,1.4-1.7,3.7-0.4,5.4c0.3,0.3,0.3,0.5,0,0.9c-1.3,2-2.6,3.9-3.9,5.9
		c-0.3,0.4-0.5,0.5-1,0.3c-3-1.4-6.8-0.8-9.1,1.4c-0.3,0.3-0.6,0.7-0.9,0.8c-0.4,0.1-0.8-0.4-1.1-0.6c-2-1.3-4.1-2.7-6.1-4
		c-0.2-0.2-0.3-0.3-0.2-0.6c0.3-0.8,0.2-1.6,0-2.4c-0.6-1.8-2.5-3-4.3-2.7c-2,0.4-3.5,2-3.4,4c0.1,1.6,0.8,2.8,2.2,3.5
		c1.5,0.7,2.9,0.5,4.2-0.5c0.3-0.2,0.5-0.2,0.9,0c2.3,1.5,4.5,3,6.8,4.5c0.3,0.2,0.3,0.3,0.2,0.6c-0.7,1.5-1,3.2-0.7,4.9
		c0.1,0.4-0.1,0.5-0.4,0.6c-1.8,0.3-3.6,0.7-5.5,1c-0.5,0.1-0.7,0-0.8-0.5c-0.5-1.6-1.4-2.9-2.6-4c-1.9-1.7-4.1-2.5-6.7-2.4
		c-0.5,0-0.6-0.1-0.7-0.6c-0.6-3.5-1.3-7-1.9-10.5c-0.7-3.9-1.4-7.7-2.1-11.6c-0.1-0.5,0-0.8,0.5-1c2.7-1.1,4.3-4.1,3.8-6.9
		c-0.5-3.1-3.3-5.6-6.7-5.4C61.8,4.5,58.8,7.3,59,11c0.2,3.7,3.2,6.2,6.3,6.1c0.4,0,0.5,0.1,0.6,0.5c0.1,0.8,0.3,1.6,0.4,2.4
		c1.2,6.7,2.4,13.3,3.6,20c0.1,0.4,0,0.6-0.4,0.7c-1.5,0.5-2.8,1.3-3.9,2.5c-0.3,0.3-0.5,0.3-0.8,0.1c-1.8-1.3-3.6-2.6-5.4-3.9
		c-0.3-0.2-0.4-0.4-0.3-0.8c0.6-1.8,0.2-3.4-1.2-4.7c-1.3-1.3-3.3-1.6-5-0.8c-1.6,0.7-2.7,2.5-2.6,4.2c0.1,1.8,1,3.1,2.6,3.9
		c1.6,0.7,3.1,0.6,4.5-0.4c0.4-0.3,0.7-0.3,1.1,0c1.7,1.3,3.5,2.5,5.3,3.8c0.3,0.2,0.4,0.4,0.2,0.8c-0.8,1.4-1.2,3-1.1,4.6
		c0,0.6-0.2,0.8-0.7,0.9c-3.2,0.6-6.3,1.1-9.5,1.7c-2.1,0.4-4.1,0.7-6.2,1.1c-0.4,0.1-0.6,0-0.7-0.4c-0.1-0.4-0.3-0.8-0.6-1.1
		c-1.7-2.5-4.7-3.5-7.6-2.5c-2.3,0.8-4.5,3.4-4.2,6.6c0.3,3.8,4,6.6,7.8,5.7c3.2-0.7,5.2-3.7,5-6.2c0-0.3,0.1-0.5,0.5-0.6
		c0.6-0.1,1.2-0.2,1.8-0.3c4.7-0.9,9.4-1.7,14.2-2.6c0.3-0.1,0.5,0,0.7,0.4c0.4,1.3,1,2.4,1.9,3.4c2,2.2,4.4,3.3,7.3,3.3
		c1,0,0.8,0.1,1,0.8c0.2,1,0.4,1.9,0.5,2.9c-6.4,1-12.6,3.9-17.4,8.6c-6.9,6.7-10.5,14.8-10.4,24.5c0,1.1-0.3,1.7-1.3,2.2
		c-3.2,1.5-5.7,3.8-7.9,6.5c-8,9.9-6.2,25.3,3.8,33.1c3.5,2.7,7.4,4.2,11.6,5.1h37c0.3,0.4,0.7,0.8,1.3,1.1c0.3,0.2,0.4,0.3,0.3,0.7
		c-0.1,0.5-0.2,1-0.3,1.5c-0.3,1.7-0.6,3.3-0.9,5c0,0.3-0.1,0.4-0.5,0.3c-0.7-0.1-1.3,0-2,0.2c-2.7,0.7-4.6,2.3-5.5,5
		c-0.1,0.3-0.3,0.5-0.6,0.4c-1.4-0.3-2.7-0.5-4.1-0.8c-2.8-0.5-5.5-1-8.3-1.5c-0.3-0.1-0.4-0.2-0.4-0.5c0-0.4,0-0.7-0.1-1.1
		c-0.5-2-1.8-3.3-3.9-3.8c-2-0.4-3.8,0.2-5.1,1.8c-1.8,2.3-1.3,5.8,1.2,7.3c2.5,1.6,5.8,0.8,7.3-1.8c0.2-0.3,0.1-0.7,0.5-0.8
		c0.3-0.1,0.6,0.1,0.9,0.1c3.9,0.7,7.9,1.4,11.8,2.1c0.4,0.1,0.5,0.2,0.5,0.6c-0.1,1.3,0.2,2.5,0.8,3.7c0.2,0.3,0.2,0.4-0.1,0.6
		c-1.5,1-2.9,2.1-4.3,3.1c-0.2,0.2-0.3,0.1-0.5,0c-0.8-0.6-1.7-0.9-2.8-0.7c-1.9,0.3-3.1,2-2.9,3.9c0.2,1.7,1.8,3.1,3.5,3.1
		c2.4,0,4-2.3,3.3-4.6c-0.1-0.3-0.1-0.5,0.2-0.7c1.4-1,2.8-2,4.2-3c0.2-0.2,0.4-0.2,0.6,0c0.9,1,1.9,1.6,3.1,2
		c0.3,0.1,0.3,0.2,0.3,0.5c-0.6,3.2-1.2,6.4-1.8,9.6c-0.5,2.7-1,5.3-1.4,8c0,0.3-0.2,0.4-0.4,0.4c-0.3,0-0.6,0-0.8,0.1
		c-2.8,0.5-4.5,3-4.1,5.8c0.4,2.7,3.1,4.6,5.8,4.2c2.7-0.4,4.6-2.9,4.3-5.6c-0.2-1.7-1.1-3-2.5-3.8c-0.3-0.2-0.8-0.2-0.9-0.6
		c-0.1-0.3,0.1-0.7,0.2-1.1c0.7-3.9,1.4-7.9,2.2-11.8c0.3-1.6,0.6-3.3,0.9-4.9c0.1-0.3,0.1-0.4,0.5-0.4c0.5,0.1,1,0,1.5-0.1
		c2.9-0.6,4.9-2.3,5.9-5.1c0.1-0.2,0.2-0.3,0.4-0.3c1.5,0.3,2.9,0.6,4.4,0.8c0.3,0.1,0.4,0.2,0.4,0.5c-0.2,1.3,0,2.6,0.6,3.8
		c0.1,0.2,0,0.3-0.2,0.4c-1.8,1.2-3.6,2.4-5.4,3.5c-0.2,0.2-0.4,0.1-0.6,0c-1.3-1-3.1-0.9-4.2,0.3c-1,1.1-1.1,2.8-0.1,4
		c0.8,1.1,2.5,1.5,3.8,0.9c1.4-0.7,2.1-2.2,1.6-3.6c-0.1-0.3,0-0.5,0.2-0.6c1.7-1.1,3.5-2.3,5.2-3.4c0.3-0.2,0.5-0.2,0.8,0.1
		c2.1,2.2,4.9,2.8,7.7,1.5c0.3-0.1,0.4-0.1,0.6,0.2c1.1,1.6,2.1,3.2,3.2,4.9c0.2,0.2,0.1,0.3-0.1,0.5c-1,1.2-0.9,2.9,0,4
		c1,1.1,2.6,1.4,3.9,0.6c1.3-0.8,1.9-2.4,1.3-3.8c-0.6-1.4-2.2-2.2-3.7-1.8c-0.3,0.1-0.5,0-0.7-0.2c-1-1.6-2.1-3.2-3.2-4.8
		c-0.2-0.2-0.2-0.4,0.1-0.6c0.4-0.3,0.7-0.7,1-1.1c1.4-2.1,1.6-4.3,0.5-6.6c-0.1-0.3-0.1-0.4,0.2-0.6c0.8-0.5,1.6-1,2.4-1.6
		c2.3-1.5,4.5-3,6.8-4.5c0.3-0.2,0.5-0.2,0.8,0.1c1,0.9,2.2,1.3,3.6,1.2c3.2-0.4,4.9-3.8,3.3-6.6c-0.8-1.5-2.2-2.3-3.9-2.3
		c-1.6,0-2.9,0.7-3.8,2.1c-0.8,1.3-0.9,2.6-0.4,4c0.1,0.2,0.1,0.4-0.2,0.5c-0.2,0.1-0.5,0.3-0.7,0.4c-2.9,1.9-5.7,3.8-8.6,5.8
		c-0.2,0.1-0.3,0.1-0.5-0.1c-0.8-0.9-1.7-1.5-2.9-1.9c-0.2-0.1-0.3-0.2-0.3-0.4c0.3-1.5,0.6-3,0.8-4.5c0-0.3,0.2-0.4,0.4-0.4
		c1.7-0.2,2.9-1.7,2.7-3.5c-0.2-1.3-1-2.2-2.2-2.6c-1.2-0.3-2.3,0-3.2,1c-0.8,1-0.9,2.1-0.4,3.3c0.3,0.6,0.7,1.1,1.3,1.4
		c0.2,0.1,0.4,0.2,0.3,0.5c-0.3,1.5-0.6,3.1-0.8,4.7c0,0.3-0.2,0.3-0.4,0.3c-1.1,0-2.1,0.2-3.1,0.7c-0.3,0.1-0.4,0.1-0.6-0.2
		c-3.1-4.6-6.1-9.2-9.2-13.7c-0.2-0.2-0.1-0.4,0-0.6h44.1c2.4-0.6,4.8-1.1,7-2.3c7.2-3.6,11.5-9.3,13.1-17.1c0.1-0.3,0.2-0.7,0.3-1
		v-6.5c-0.1-0.1-0.1-0.3-0.2-0.4c-1.5-8-5.8-13.9-13.1-17.7c-0.8-0.4-0.9-1-0.9-1.7c-0.6-10.8-8.6-20.6-19.1-23.4
		c-6.6-1.7-13-1.2-19.1,2.1c-1.1,0.6-1.8,0.6-2.6-0.5c-1.9-2.3-4.1-4.3-6.5-6c-4.1-3-8.8-4.8-13.7-5.5c2.5-3.7,4.9-7.3,7.4-11
		c0.2-0.3,0.3-0.3,0.6-0.2c1.2,0.7,2.6,0.9,4,0.9c0.4,0,0.5,0.1,0.6,0.5c0.2,0.9,0.3,1.8,0.5,2.8c0.5,0,1,0,1.4,0
		c-0.2-1-0.4-2.1-0.6-3.1c-0.1-0.4,0-0.5,0.4-0.6c1.4-0.4,2.6-1.2,3.6-2.3c0.3-0.3,0.5-0.3,0.8-0.1c1.3,0.9,2.6,1.7,3.8,2.6
		c2.6,1.8,5.3,3.5,7.9,5.3c0.3,0.2,0.3,0.3,0.2,0.6c-0.4,0.9-0.5,1.9-0.4,2.9c0.5,3.2,3.3,5.3,6.4,4.9c3.1-0.4,5.2-3.2,4.8-6.4
		c0-0.4,0-0.6,0.4-0.7c2.4-0.8,4.8-1.7,7.2-2.5c0.4-0.1,0.5,0,0.6,0.3c0.8,1.7,2.1,3,3.7,3.9c2.1,1.2,4.4,1.6,6.8,1
		c0.3-0.1,0.5,0,0.6,0.3c0.1,0.4,0.3,0.8,0.4,1.2c1.7,4.7,3.4,9.4,5,14c0.1,0.4,0.2,0.6-0.3,0.8c-2.4,1.4-3.7,4.5-2.9,7.2
		c0.8,2.9,3.6,4.9,6.7,4.7c3.2-0.2,5.8-2.8,6-5.9c0.3-4.1-3.2-7.1-6.6-6.9c-0.2,0-0.5,0-0.7,0c-0.4,0.1-0.6-0.1-0.7-0.5
		c-0.6-1.6-1.1-3.2-1.7-4.8c-1.2-3.4-2.4-6.8-3.7-10.2c-0.2-0.5-0.1-0.7,0.4-1c1.5-0.8,2.7-1.9,3.5-3.3c0.2-0.3,0.3-0.3,0.6-0.2
		c2.1,1,4.1,1.9,6.2,2.8c0.3,0.1,0.4,0.3,0.4,0.7c-0.3,1.9,0.8,3.9,2.5,4.7c1.9,0.9,4.1,0.4,5.4-1.2c1.5-1.9,1.3-4.7-0.5-6.2
		c-1.9-1.7-4.7-1.5-6.4,0.5c-0.2,0.3-0.4,0.3-0.7,0.1c-2.1-0.9-4.1-1.9-6.2-2.8c-0.3-0.1-0.4-0.3-0.3-0.6c0.5-1.6,0.6-3.2,0.2-4.8
		c-0.1-0.3,0-0.5,0.3-0.6c1.2-0.4,2.3-0.8,3.4-1.2c6-2.1,12-4.3,18-6.5c0.5-0.2,0.6,0,0.8,0.3c1.2,1.8,2.8,2.8,5,3
		c2.8,0.2,5.4-1.4,6.4-4C187.6,38.9,186.9,36,184.8,34.2z M89.2,163.6c-2.5,0-4.5-2-4.5-4.5c0-2.4,2-4.4,4.5-4.4
		c2.5,0,4.5,2,4.5,4.4C93.7,161.6,91.7,163.6,89.2,163.6z M108.1,159.6c2.2,0,3.9,1.7,3.9,3.9c0,2.2-1.8,3.9-3.9,3.9
		c-2.1,0-3.9-1.8-3.9-3.9C104.3,161.2,106,159.6,108.1,159.6z M96.8,147.6c1.7,2.6,3.4,5.1,5.2,7.7c0.6,0.9,1.2,1.8,1.9,2.8
		c0.1,0.2,0.2,0.3-0.1,0.5c-0.7,0.7-1.3,1.4-1.7,2.3c-0.1,0.2-0.1,0.4-0.3,0.3c-0.9-0.2-1.8-0.3-2.6-0.5c-0.7-0.1-1.4-0.3-2.1-0.4
		c-0.2,0-0.4-0.1-0.3-0.4c0.4-3.5-1.7-6.7-4.9-7.9c-0.6-0.2-0.6-0.2-0.5-0.8c0.4-2.1,0.8-4.2,1.2-6.3c0.1-0.3,0.2-0.5,0.6-0.5
		c0.4,0,0.8-0.1,1.1-0.3c0.3-0.2,0.4-0.1,0.5,0.2C95.4,145.4,96.1,146.5,96.8,147.6z M72.6,55.5c-3,0-5.7-2.6-5.6-5.7
		c0-3.2,2.5-5.6,5.7-5.6c3.2,0,5.6,2.5,5.6,5.7C78.2,53,75.6,55.5,72.6,55.5z M131.2,88.3c0-0.7,0.2-1.2,0.7-1.7
		c0.5-0.5,1-0.7,1.7-0.7s1.2,0.2,1.7,0.7c0.5,0.5,0.7,1,0.7,1.7v39.2c0,0.7-0.2,1.2-0.7,1.7c-0.5,0.5-1,0.7-1.7,0.7
		s-1.2-0.2-1.7-0.7s-0.7-1-0.7-1.7V88.3z M103.1,88.3c0-1.3,0.7-2,2-2.4c0.4-0.1,1.6-0.1,3.6-0.1c5.2,0,9.6,1.3,13.3,4c4,3,6,7,6,12
		c0,4.9-2.2,8.9-6.5,11.9c-3.8,2.6-8.3,3.9-13.5,3.9v10c0,0.7-0.2,1.2-0.7,1.7c-0.5,0.5-1,0.7-1.7,0.7s-1.2-0.2-1.7-0.7
		c-0.5-0.4-0.7-1-0.7-1.7V88.3z M100.1,107.5v20c0,0.7-0.2,1.2-0.7,1.7s-1,0.7-1.7,0.7s-1.2-0.2-1.7-0.7s-0.7-1-0.7-1.7v-15.1H62.3
		v15.1c0,0.7-0.2,1.2-0.7,1.7c-0.5,0.5-1,0.7-1.7,0.7s-1.2-0.2-1.7-0.7c-0.5-0.4-0.7-1-0.7-1.7v-20c0-5.9,2.1-10.9,6.2-15.1
		c4.2-4.2,9.2-6.3,15-6.3c5.9,0,10.9,2.1,15,6.3C98,96.6,100.1,101.6,100.1,107.5z M91,51.3c-2.4,3.5-4.8,7.1-7.1,10.6
		c-0.2,0.3-0.4,0.6-0.6,0.9c-2.5-0.3-5-0.3-7.5,0c-0.1-0.4-0.1-0.8-0.2-1.2c-0.1-0.8-0.3-1.6-0.4-2.3c0-0.3,0.2-0.3,0.4-0.4
		c1.5-0.5,2.8-1.3,3.9-2.5c1.9-2,2.8-4.4,2.6-7.2c0-0.8,0-0.9,0.8-1c1.8-0.3,3.6-0.6,5.4-1c0.3-0.1,0.5,0,0.6,0.3
		c0.5,1.2,1.2,2.3,2.2,3.1C91.4,50.9,91.2,51.1,91,51.3z M96.5,49.3c-2.8-0.1-4.9-2.2-4.9-5c0-2.8,2.3-4.9,5.1-4.9
		c2.7,0,4.9,2.3,4.8,5.1C101.5,47.4,99.1,49.4,96.5,49.3z M130.9,28.9c0-2.8,2.2-5,5-5c2.8,0,4.9,2.2,4.9,5c0,2.7-2.2,4.9-5,4.9
		C133.1,33.8,130.9,31.6,130.9,28.9z M133.7,50.9c-0.2,1.1-0.1,2.3,0.1,3.4c0.1,0.4,0,0.6-0.4,0.7c-2.5,0.9-4.9,1.7-7.4,2.6
		c-0.2,0.1-0.4,0-0.5-0.2c-0.4-0.7-1-1.2-1.7-1.7c-0.3-0.2-0.2-0.4-0.1-0.6c1.5-3,2.9-6,4.4-8.9c1.5-3,2.9-6,4.4-9
		c0.1-0.2,0.1-0.5,0.6-0.4c0.6,0.2,1.3,0.3,2,0.4c0.6,0.1,1.2,0,1.8,0c0.3,0,0.4,0.1,0.5,0.3c0.6,1.9,1.3,3.8,2,5.6
		c0.1,0.3,0,0.5-0.3,0.6C136.1,45.2,134.3,47.6,133.7,50.9z M143.1,58.1c-3,0-5.6-2.6-5.6-5.5c0-3.3,2.5-5.8,5.6-5.8
		c3.2,0,5.7,2.5,5.7,5.7C148.7,55.6,146.3,58.1,143.1,58.1z"/>
</g>
</svg>
