<?xml version="1.0" standalone="no"?>
<!DOCTYPE svg PUBLIC "-//W3C//DTD SVG 20010904//EN"
 "http://www.w3.org/TR/2001/REC-SVG-20010904/DTD/svg10.dtd">
<svg version="1.0" xmlns="http://www.w3.org/2000/svg"
 width="700.000000pt" height="700.000000pt" viewBox="0 0 700.000000 700.000000"
 preserveAspectRatio="xMidYMid meet">
<metadata>
Created by potrace 1.11, written by Peter Selinger 2001-2013
</metadata>
<g transform="translate(0.000000,700.000000) scale(0.100000,-0.100000)"
fill="#000000" stroke="none">
<path d="M3250 6574 c-791 -71 -1449 -372 -1985 -909 -496 -495 -792 -1097
-891 -1815 -25 -175 -25 -595 0 -770 99 -718 395 -1320 891 -1815 435 -436
975 -728 1570 -850 237 -48 353 -59 630 -59 277 0 393 11 630 59 796 163 1507
643 1961 1323 269 403 430 835 500 1342 25 175 25 595 0 770 -99 718 -395
1320 -891 1815 -494 495 -1105 795 -1810 890 -114 16 -506 28 -605 19z m1440
-1340 c351 -66 710 -337 1049 -789 289 -385 416 -736 428 -1180 11 -391 -60
-701 -248 -1082 -159 -324 -389 -626 -660 -869 -422 -378 -878 -604 -1372
-680 -131 -20 -720 -24 -842 -5 -545 83 -1029 333 -1463 755 -692 674 -980
1553 -766 2341 73 270 210 532 410 785 103 129 385 405 491 480 260 182 483
258 723 247 268 -13 487 -123 733 -369 139 -140 183 -169 264 -176 104 -9 131
6 298 167 161 156 255 227 381 289 189 94 383 123 574 86z"/>
<path d="M4845 3314 c-104 -16 -251 -49 -384 -88 -84 -25 -155 -46 -156 -48
-2 -2 -15 -64 -30 -138 -114 -579 -279 -1179 -417 -1520 -145 -358 -249 -516
-371 -570 l-49 -22 -54 27 c-148 72 -306 378 -467 900 -90 294 -111 379 -207
845 -51 245 -97 450 -104 457 -16 17 -247 79 -406 109 -162 30 -330 34 -384 9
-101 -48 -56 -156 150 -356 114 -110 257 -228 466 -383 l146 -109 22 -96 c77
-340 209 -763 320 -1026 114 -271 254 -461 386 -525 73 -36 188 -35 267 2 182
85 353 357 523 828 33 93 166 540 199 670 9 36 20 81 26 101 7 30 32 55 142
145 281 231 515 462 587 581 28 46 35 67 35 112 0 51 -2 56 -32 74 -33 19
-145 30 -208 21z"/>
</g>
</svg>
