<?xml version="1.0" encoding="utf-8"?>
<!-- Generator: Adobe Illustrator 22.1.0, SVG Export Plug-In . SVG Version: 6.00 Build 0)  -->
<svg version="1.1" id="Layer_1" xmlns="http://www.w3.org/2000/svg" xmlns:xlink="http://www.w3.org/1999/xlink" x="0px" y="0px"
	 viewBox="0 0 106.8 106.8" style="enable-background:new 0 0 106.8 106.8;" xml:space="preserve">
<style type="text/css">
	.st0{fill:url(#SVGID_1_);}
	.st1{fill:url(#SVGID_2_);}
	.st2{fill:#2F81C1;}
</style>
<radialGradient id="SVGID_1_" cx="53.0443" cy="62.385" r="33.0637" gradientTransform="matrix(-0.9977 6.736153e-02 6.736153e-02 0.9977 102.0256 10.4051)" gradientUnits="userSpaceOnUse">
	<stop  offset="0" style="stop-color:#AAE1F9"/>
	<stop  offset="1" style="stop-color:#2F81C1"/>
</radialGradient>
<path class="st0" d="M26,79.5C32.2,90.1,44,97,57.1,96.1c12.3-0.9,22.6-8.2,27.7-18.7c22,4.2,27.2,6.9,2.8-20.5c0,0,0-0.1-0.1-0.1
	c-3-16.3-17.9-28.1-34.9-27c-4.7,0.3-9,1.6-12.9,3.6c-4-3.4-8.7-5.3-6.1,4c-6.8,5.6-11.2,13.7-11.9,22.9C5.3,72.7-12.3,91.3,26,79.5
	z"/>
<g>
	
		<linearGradient id="SVGID_2_" gradientUnits="userSpaceOnUse" x1="20.063" y1="53.9503" x2="68.4629" y2="53.9503" gradientTransform="matrix(-0.998 6.298619e-02 6.298619e-02 0.998 101.4673 8.0749)">
		<stop  offset="0" style="stop-color:#AAE1F9"/>
		<stop  offset="1" style="stop-color:#FFFFFF"/>
	</linearGradient>
	<path class="st1" d="M36.7,68c0.7,11.5,8.7,20.4,17.8,19.8c2.8-0.2,5.3-1.2,7.4-2.9c0.1,0,0.1,0,0.2,0l0,0c2.4,1.4,5,2.1,7.7,1.9
		C78.9,86.3,85.7,76.5,85,65c-0.1-1.9-0.4-3.7-0.9-5.5C82,48.9,71.5,41.3,59.3,42c-11.4,0.7-20.4,8.6-22.1,18.5
		C36.7,62.9,36.5,65.4,36.7,68z"/>
</g>
<path class="st2" d="M48,74.5l1.6,1.5l3.5-3.9l3,3.2l1.5-1.5l-3.1-3.3l2.2-2.5l0.2,0c0-0.1,0-0.1,0-0.2l0.2-0.2L57,67.5
	c4.7-37.2,12.1-0.3,12.1-0.3l0.2,0l3,3.1l-3.6,4l1.6,1.5l3.5-3.9l3,3.2l1.5-1.5l-3.1-3.3l2.6-2.9l-1.6-1.5l-2.5,2.8l-2.9-3.1
	c-10.2-34.1-15.1-5-16,1.4L53,68.9L50,65.7l-1.5,1.5l3.1,3.3L48,74.5z"/>
<g>
	<path class="st2" d="M43.2,18.7c0,1-0.4,2-1.2,2.8c-0.8,0.8-1.8,1.2-2.8,1.2c-1,0-2-0.4-2.8-1.2c-0.8-0.8-1.2-1.8-1.2-2.8
		s0.4-2,1.2-2.8c0.8-0.8,1.8-1.2,2.8-1.2c1,0,2,0.4,2.8,1.2C42.8,16.7,43.2,17.6,43.2,18.7z M42.3,18.7c0-0.8-0.3-1.5-1-2.2
		c-0.7-0.7-1.4-1-2.2-1c-0.8,0-1.5,0.3-2.2,1c-0.7,0.7-1,1.4-1,2.2c0,0.8,0.3,1.5,1,2.2s1.4,1,2.2,1c0.8,0,1.5-0.3,2.2-1
		C42,20.2,42.3,19.5,42.3,18.7z"/>
	<path class="st2" d="M49.9,22.1c0,0.1,0,0.2-0.1,0.3c-0.1,0.1-0.2,0.1-0.3,0.1s-0.2,0-0.3-0.1s-0.1-0.2-0.1-0.3v-2.6
		c0-0.6-0.2-1.1-0.6-1.5c-0.4-0.4-0.9-0.6-1.5-0.6c-0.6,0-1.1,0.2-1.5,0.6c-0.4,0.4-0.6,0.9-0.6,1.5l0,2.7c0,0.3-0.1,0.4-0.4,0.4
		c-0.1,0-0.2,0-0.3-0.1s-0.1-0.2-0.1-0.3v-7.6c0-0.1,0-0.2,0.1-0.3c0.1-0.1,0.2-0.1,0.3-0.1s0.2,0,0.3,0.1c0.1,0.1,0.1,0.2,0.1,0.3
		v2.9c0.6-0.7,1.3-1,2.2-1c0.8,0,1.6,0.3,2.2,0.9c0.6,0.6,0.9,1.3,0.9,2.2V22.1z"/>
	<path class="st2" d="M60.3,22.1c0,0.1,0,0.2-0.1,0.3s-0.2,0.1-0.3,0.1s-0.2,0-0.3-0.1c-0.1-0.1-0.1-0.2-0.1-0.3v-2.5
		c0-0.6-0.2-1.1-0.6-1.5c-0.4-0.4-0.9-0.6-1.5-0.6c-0.6,0-1.1,0.2-1.5,0.6c-0.4,0.4-0.6,0.9-0.6,1.5c0,0,0,0.8,0,2.5
		c0,0.1,0,0.2-0.1,0.3s-0.2,0.1-0.3,0.1s-0.2,0-0.3-0.1c-0.1-0.1-0.1-0.2-0.1-0.3v-2.5c0-0.8,0.3-1.6,0.9-2.2
		c0.6-0.6,1.3-0.9,2.2-0.9c0.8,0,1.6,0.3,2.2,0.9c0.6,0.6,0.9,1.3,0.9,2.2L60.3,22.1z"/>
	<path class="st2" d="M66.9,19.5c0,0.8-0.3,1.6-0.9,2.2c-0.6,0.6-1.3,0.9-2.2,0.9c-0.8,0-1.6-0.3-2.2-0.9c-0.6-0.6-0.9-1.3-0.9-2.2
		c0-0.8,0.3-1.6,0.9-2.2s1.3-0.9,2.2-0.9c0.8,0,1.6,0.3,2.2,0.9C66.6,17.9,66.9,18.7,66.9,19.5z M66,19.5c0-0.6-0.2-1.1-0.6-1.5
		c-0.4-0.4-0.9-0.6-1.5-0.6c-0.6,0-1.1,0.2-1.5,0.6c-0.4,0.4-0.6,0.9-0.6,1.5c0,0.6,0.2,1.1,0.6,1.5c0.4,0.4,0.9,0.6,1.5,0.6
		c0.6,0,1.1-0.2,1.5-0.6C65.8,20.6,66,20.1,66,19.5z"/>
	<path class="st2" d="M68.6,21.9c0,0.2-0.1,0.3-0.2,0.4c-0.1,0.1-0.2,0.2-0.4,0.2c-0.2,0-0.3,0-0.4-0.1c-0.1-0.1-0.2-0.2-0.2-0.4
		s0.1-0.3,0.2-0.4c0.1-0.1,0.2-0.2,0.4-0.2c0.2,0,0.3,0.1,0.4,0.2C68.5,21.7,68.6,21.8,68.6,21.9z"/>
	<path class="st2" d="M70.1,21.9c0,0.2-0.1,0.3-0.2,0.4c-0.1,0.1-0.2,0.2-0.4,0.2c-0.2,0-0.3,0-0.4-0.1C69.1,22.3,69,22.1,69,22
		s0.1-0.3,0.2-0.4c0.1-0.1,0.2-0.2,0.4-0.2c0.2,0,0.3,0.1,0.4,0.2C70.1,21.7,70.1,21.8,70.1,21.9z"/>
	<path class="st2" d="M71.7,21.9c0,0.2-0.1,0.3-0.2,0.4c-0.1,0.1-0.2,0.2-0.4,0.2c-0.2,0-0.3,0-0.4-0.1c-0.1-0.1-0.2-0.2-0.2-0.4
		s0.1-0.3,0.2-0.4c0.1-0.1,0.2-0.2,0.4-0.2c0.2,0,0.3,0.1,0.4,0.2C71.6,21.7,71.7,21.8,71.7,21.9z"/>
</g>
</svg>
