<?xml version="1.0" encoding="utf-8"?>
<!-- Generator: Adobe Illustrator 22.1.0, SVG Export Plug-In . SVG Version: 6.00 Build 0)  -->
<svg version="1.1" id="Layer_1" xmlns="http://www.w3.org/2000/svg" xmlns:xlink="http://www.w3.org/1999/xlink" x="0px" y="0px"
	 viewBox="0 0 106.8 106.8" style="enable-background:new 0 0 106.8 106.8;" xml:space="preserve">
<style type="text/css">
	.st0{fill:url(#SVGID_1_);}
	.st1{fill:url(#SVGID_2_);}
	.st2{fill:#55B2F2;}
	.st3{fill:#2F81C1;}
	.st4{fill:url(#SVGID_3_);}
	.Ani{fill: red;}
	@keyframes Ani {
		 0% {
				 opacity: 0;
				 transform: scale(1);
				 transform-origin: center;
		 }
		 100% {
				 opacity: 1;
				 transform: scale(1.2);
				 transform-origin: center;
		 }
 }

		 .Ani {
				 animation: Ani 1.5s linear;
				 -webkit-animation: Ani 1.5s linear;
				 animation-iteration-count: 2;
				 animation-play-state: running;
		 }
</style>
<radialGradient id="SVGID_1_" cx="59.9137" cy="53.3607" r="31.5677" gradientTransform="matrix(0.795 -0.6066 0.6066 0.795 -25.9218 43.7761)" gradientUnits="userSpaceOnUse">
	<stop  offset="0" style="stop-color:#AAE1F9"/>
	<stop  offset="1" style="stop-color:#2F81C1"/>
</radialGradient>
<path class="st0" d="M74.9,31.1c-11-5.5-24.6-4.7-35.1,3.3C30,41.9,25.5,53.7,27,65.2c-10.1,38.4,2.8,23.2,9,18.8c0,0,0.1,0,0.1,0
	c11.6,11.9,30.5,13.6,44,3.3c3.7-2.8,6.6-6.3,8.8-10.1c5.2,0.5,19.2,1.4,2.9-6.7c2.5-8.4,1.7-17.6-2.7-25.6
	C115.3,29.3,94.5,26.1,74.9,31.1z"/>
<linearGradient id="SVGID_2_" gradientUnits="userSpaceOnUse" x1="27.2918" y1="65.6647" x2="75.7063" y2="65.6647" gradientTransform="matrix(0.795 -0.6066 0.6066 0.795 -25.9218 43.7761)">
	<stop  offset="0" style="stop-color:#AAE1F9"/>
	<stop  offset="1" style="stop-color:#FFFFFF"/>
</linearGradient>
<path class="st1" d="M73,48.6c-7-9.2-18.5-12.1-25.8-6.6c-2.2,1.7-3.7,3.9-4.6,6.5c0,0-0.1,0.1-0.1,0.1c0,0,0,0,0,0
	c-2.7,0.2-5.3,1.1-7.5,2.7c-7.2,5.5-7.4,17.4-0.4,26.6c1.2,1.5,2.4,2.8,3.8,4c7.6,7.7,20.6,8.2,30.2,0.8c9.1-6.9,12.2-18.5,8.1-27.6
	C75.8,52.9,74.6,50.7,73,48.6z"/>
<g>
	<ellipse transform="matrix(0.8384 -0.5451 0.5451 0.8384 -36.2986 19.3446)" class="st2" cx="14.5" cy="70.9" rx="7.6" ry="9.2"/>
	<ellipse transform="matrix(0.8384 -0.5451 0.5451 0.8384 -36.7939 18.9221)" class="st3" cx="13.5" cy="71.5" rx="7.6" ry="9.2"/>

		<linearGradient id="SVGID_3_" gradientUnits="userSpaceOnUse" x1="7.6447" y1="45.6164" x2="20.9813" y2="45.6164" gradientTransform="matrix(0.8384 -0.5451 0.5451 0.8384 -23.3511 41.0668)">
		<stop  offset="0" style="stop-color:#AAE1F9"/>
		<stop  offset="1" style="stop-color:#FFFFFF"/>
	</linearGradient>
	<path class="st4" d="M19.1,67.9c2.4,3.8,1.9,8.4-1.2,10.4c-3.1,2-7.6,0.6-10-3.2C5.5,71.4,6,66.7,9.1,64.7
		C12.2,62.7,16.7,64.1,19.1,67.9z"/>
	<rect x="20.9" y="77.9" transform="matrix(0.8384 -0.5451 0.5451 0.8384 -41.5125 25.208)" class="st2" width="1.7" height="9.4"/>
	<g>
		<path class="st3" d="M12.6,69.8c0,0.1,0.1,0.1,0.1,0.2l0.5,4.4c0,0.2,0,0.3-0.1,0.4c-0.1,0.1-0.2,0.1-0.3,0.1c0,0-0.1-0.1-0.2-0.1
			l-3.8-2.2c0,0-0.1-0.1-0.1-0.1c-0.1-0.1-0.1-0.2-0.1-0.3c0-0.1,0.1-0.2,0.2-0.3c0.1-0.1,0.3-0.1,0.4,0l3.1,1.8L11.8,70
			c0-0.2,0-0.3,0.2-0.4c0.1-0.1,0.2-0.1,0.3-0.1C12.4,69.6,12.5,69.7,12.6,69.8z"/>
		<path class="st3" d="M17,69c0.1,0.2,0.1,0.3,0,0.4l-0.8,2.3l1.5-0.9c0.1-0.1,0.2-0.1,0.3-0.1c0.1,0,0.2,0.1,0.2,0.2
			c0.1,0.1,0.1,0.2,0.1,0.3c0,0.1-0.1,0.2-0.2,0.3L15.6,73c-0.1,0.1-0.2,0.1-0.3,0.1S15.1,73,15,72.9C15,72.8,15,72.7,15,72.6
			c0-0.1,0-0.2,0.1-0.3l1.1-3.1c-0.2-0.2-0.4-0.4-0.7-0.4c-0.3-0.1-0.6,0-0.8,0.2c-0.3,0.2-0.4,0.4-0.5,0.7c-0.1,0.3,0,0.6,0.2,0.8
			c0.1,0.1,0.1,0.2,0.1,0.3c0,0.1-0.1,0.2-0.2,0.2c-0.1,0.1-0.2,0.1-0.3,0.1c-0.1,0-0.2-0.1-0.3-0.2c-0.3-0.4-0.4-0.9-0.3-1.4
			c0.1-0.5,0.4-0.9,0.8-1.2c0.4-0.3,0.9-0.4,1.4-0.3C16.2,68.2,16.6,68.4,17,69C16.9,68.9,17,68.9,17,69z"/>
	</g>
</g>
<g>
	<path class="Ani" d="M26.3,25.9c0.3,0.4,0.4,1,0.2,1.6c-0.2,0.6-0.5,1-0.8,1.3c-0.4,0.3-0.9,0.3-1.6,0.3c-0.7-0.1-1.1-0.3-1.4-0.7L14.2,16
		c-0.3-0.4-0.3-1-0.1-1.7c0.2-0.6,0.5-1,0.8-1.2c0.4-0.3,0.9-0.3,1.6-0.2c0.7,0.1,1.1,0.3,1.4,0.7L26.3,25.9z M29.3,30.2
		c0.3,0.4,0.3,0.9,0.2,1.6c-0.2,0.7-0.4,1.1-0.8,1.4c-0.4,0.2-0.9,0.3-1.5,0.3c-0.7,0-1.1-0.3-1.4-0.7c-0.3-0.4-0.3-0.9-0.2-1.6
		c0.2-0.7,0.4-1.1,0.8-1.4c0.4-0.2,0.9-0.3,1.5-0.3C28.5,29.6,29,29.8,29.3,30.2z"/>
</g>
<path class="st3" d="M52,54.8c0,0,18.9,42-8.7,10.3c-0.1-0.8-0.5-1.7-1.1-2.4c-1.7-2.2-4.6-2.8-6.5-1.3c-1.9,1.5-2.1,4.4-0.4,6.6
	c1.7,2.2,4.6,2.8,6.5,1.3c0.7-0.5,1.2-1.3,1.4-2.1c8.1,8.6,24.8,24.1,10.7-11.4c1.7-2.9,6.5-4.4,6.5-4.4l-1.3-1.7
	C57,49.4,52,54.8,52,54.8z"/>
</svg>
