<?xml version="1.0" encoding="utf-8"?>
<!-- Generator: Adobe Illustrator 22.1.0, SVG Export Plug-In . SVG Version: 6.00 Build 0)  -->
<svg version="1.1" id="Layer_1" xmlns="http://www.w3.org/2000/svg" xmlns:xlink="http://www.w3.org/1999/xlink" x="0px" y="0px"
	 viewBox="0 0 200 200" style="enable-background:new 0 0 200 200;" xml:space="preserve">
<style type="text/css">
	.st0{fill:url(#SVGID_1_);}
	.st1{fill:#AAE1F9;}
	.st2{fill:none;stroke:url(#SVGID_2_);stroke-width:2;stroke-miterlimit:10;}
	.st3{fill:none;stroke:#E3F8FF;stroke-width:3;stroke-miterlimit:10;}
</style>
<radialGradient id="SVGID_1_" cx="101" cy="100" r="80" gradientTransform="matrix(1 0 0 -1 0 200)" gradientUnits="userSpaceOnUse">
	<stop  offset="2.554087e-02" style="stop-color:#AAE1F9"/>
	<stop  offset="1" style="stop-color:#2F81C1"/>
</radialGradient>
<circle class="st0" cx="101" cy="100" r="80"/>
<path class="st1" d="M181,98.7l-1.2-0.3l1.2-0.3c-0.1-0.2-0.6-2.6-1.9-6.2c-3.9-39.6-37.1-70.7-77.5-71.5c-1-0.3-1.6-0.4-1.7-0.4
	l-0.1,0.4c-0.1,0-0.2,0-0.4,0L99.3,20c-0.1,0-0.7,0.2-1.7,0.4C55,21.9,20.7,57,20.7,100c0,43.8,35.6,79.4,79.4,79.4
	c42.3,0,77-33.3,79.3-75.1C180.5,101.1,181,99,181,98.7z M40.8,85.5c-0.6,4.1-0.9,8.5-1,13.2h-15c0-0.1,0-0.1-0.1-0.2
	c0-0.1,0.1-0.2,0.1-0.4C26.8,96.1,32,90.9,40.8,85.5z M177,98.7h-15.3c0-5.1-0.4-9.9-1.2-14.3c8.3,4.8,13.6,9.6,16.4,12.3
	C176.9,97.3,177,98,177,98.7z M159.1,98.7h-27.8c-0.1-9.8-1.1-18.6-2.8-26.4c11.9,2.5,21.6,6.4,29.2,10.5
	C158.6,87.8,159.1,93.1,159.1,98.7z M129.6,98.7h-29.1V69.6c0.4,0,0.7,0,1.1,0c9.2,0,17.6,0.9,25.1,2.3
	C128.5,79.9,129.6,88.8,129.6,98.7z M101.6,67.9c-0.4,0-0.7,0-1.1,0V41.2c0.4,0,0.7,0,1.1,0c4.7,0,9.2,0.3,13.6,0.9
	c4.2,7.3,8.3,16.6,11.1,28.1C118.9,68.7,110.7,67.9,101.6,67.9z M101.6,38.6c-0.4,0-0.7,0-1.1,0V23.3c2.4,2.2,7.6,7.5,13,16
	C109.8,38.8,105.8,38.6,101.6,38.6z M98.9,23.3v15.3c-4.6,0.1-8.8,0.6-12.9,1.4C91.2,31.1,96.4,25.6,98.9,23.3z M98.9,41.2V68
	c-9.2,0.2-17.5,1.2-24.9,2.8c2.6-11.3,6.4-20.6,10.4-27.8C89,41.9,93.8,41.3,98.9,41.2z M98.9,69.6v29h-28
	c0.1-9.7,1.1-18.4,2.7-26.1C81.1,70.9,89.5,69.8,98.9,69.6z M69.1,98.7H42.4c0-5.2,0.4-10.1,1.2-14.8c7.2-4.1,16.6-8.2,28.1-10.9
	C70.2,80.6,69.2,89.2,69.1,98.7z M39.8,100.4c0,4,0.3,7.9,0.9,11.5c-7.1-4.5-11.8-8.9-14.4-11.5H39.8z M42.4,100.4h26.8
	c0.1,9,0.9,17.1,2.3,24.5c-11.5-2.8-20.8-7-28-11.3C42.8,109.3,42.4,104.9,42.4,100.4z M70.8,100.4h28v28c-9.5-0.2-18-1.3-25.6-3.1
	C71.8,117.9,70.9,109.6,70.8,100.4z M98.9,130.1v27.8c-5-0.2-9.9-0.7-14.6-1.8c-4.1-7.5-8-17.1-10.6-29
	C81.1,128.8,89.5,129.9,98.9,130.1z M98.9,160.4v15.3c-2.4-2.3-7.6-7.8-12.9-16.8C90,159.8,94.3,160.3,98.9,160.4z M100.6,175.8
	v-15.4c0.4,0,0.7,0,1.1,0c4.2,0,8.2-0.3,11.9-0.7C108.2,168.3,103,173.6,100.6,175.8z M101.6,157.9c-0.4,0-0.7,0-1.1,0v-27.8
	c0.4,0,0.7,0,1.1,0c9.2,0,17.5-0.9,24.9-2.4c-2.8,12-7,21.7-11.3,29.2C110.9,157.6,106.3,157.9,101.6,157.9z M101.6,128.4
	c-0.4,0-0.7,0-1.1,0v-28h29.1c-0.1,9.4-1.1,18-2.7,25.6C119.4,127.5,111,128.4,101.6,128.4z M131.3,100.4h27.8c0,5-0.5,9.7-1.4,14.3
	c-7.5,4.2-17.2,8.3-29,10.8C130.3,118.1,131.3,109.7,131.3,100.4z M161.7,100.4h15.2c-2.7,2.8-8.1,7.7-16.3,12.7
	C161.3,109.1,161.6,104.9,161.7,100.4z M176.8,94.2c-3.3-3.1-8.8-7.6-16.6-12c-1.9-10.3-5.5-19-9.9-26.1c5.1,3.9,9.8,8.5,13.9,13.8
	c6.7,8.6,10.5,17.2,12.5,22.8C176.7,93.2,176.7,93.7,176.8,94.2z M157.3,80.7c-7.7-4-17.4-7.8-29.2-10.2
	c-2.7-11.4-6.6-20.7-10.8-28.1c10.2,1.7,19.3,5,27.4,10C150.9,60.6,155.1,70.1,157.3,80.7z M115.7,39.6c-4.6-7.6-9.2-12.8-12.2-15.8
	c5.5,1.7,15.6,5.6,25.8,13.2c4.2,3.1,8,6.6,11.3,10.3C133.6,43.7,125.3,41,115.7,39.6z M83.7,40.5c-10.9,2.3-20,6.7-27.4,11.9
	c4.1-5.7,9-10.8,14.8-15.3c9.7-7.6,19.6-11.5,24.9-13.2C93,26.9,88.3,32.4,83.7,40.5z M82.1,43.4c-3.9,7.4-7.6,16.6-10,27.8
	C60.7,73.8,51.3,77.7,44,81.7c1.6-8.5,4.4-16.3,8.4-23.4C61.2,51,71.1,46,82.1,43.4z M41.1,83.3c-6.8,4.1-11.7,8.1-14.7,10.9
	c2.3-5.4,6.8-14.9,14.5-24.3c2-2.5,4.1-4.8,6.3-7C44.6,68.9,42.4,75.6,41.1,83.3z M23.5,98.5l-0.2,0.1v-0.1H23.5z M41.1,114.2
	c1.5,8.4,4.1,15.9,7.5,22.3c-2.6-2.6-5.1-5.4-7.5-8.4c-7.7-9.7-12.3-19.5-14.5-25.2C29.4,105.8,34.2,110,41.1,114.2z M43.9,115.9
	c6.9,3.9,16.2,8,27.9,10.8C74.2,138.4,78,148,82,155.6c-10.2-2.5-19.4-7.2-27.7-13.8C49.3,133.9,45.8,125.3,43.9,115.9z M83.7,158.5
	c4.3,7.6,8.7,13,11.7,16.2c-5.4-2.3-14.9-6.8-24.3-14.5c-4.5-3.7-8.5-7.7-12-11.9C66,152.7,74.2,156.4,83.7,158.5z M115.8,159.4
	c8.1-1.2,15.2-3.4,21.4-6.3c-2.4,2.4-5,4.7-7.8,7c-9.7,7.7-19.5,12.3-25.2,14.5C107.2,171.7,111.5,166.6,115.8,159.4z M117.5,156.6
	c4-7.2,8.2-16.9,10.9-29.2c11.7-2.5,21.3-6.4,28.9-10.5c-2.5,11.5-7.7,21.9-15.4,31.1C134.6,152.2,126.4,155.1,117.5,156.6z
	 M160.2,115.3c8-4.6,13.5-9.4,16.7-12.5c0,0.3,0,0.7,0,1c-1.9,5.7-5.8,15-12.7,24.3c-4.7,6.3-10.1,11.7-16.1,16
	C153.5,136.3,158,126.7,160.2,115.3z M174.9,82.2c-2.2-4.3-5-9-8.7-13.8c-4.6-6-11.1-12.5-19.8-17.9c-4.9-6.6-10.5-11.7-15.6-15.6
	c-7-5.2-13.9-8.7-19.4-11C142.6,28.6,167.7,51.9,174.9,82.2z M88.1,24c-5.3,2.3-11.9,5.8-18.5,10.9c-6.4,5-13.4,12-19,21.7
	C46,60.4,42.1,64.5,39,68.4C30.2,79,25.5,89.6,23.4,94.8C25.9,58.8,53.1,29.6,88.1,24z M23.3,101.9c1.9,5.2,6.7,16.4,15.6,27.7
	c3.6,4.6,8.1,9.4,13.7,13.9c5.2,7.9,11.3,14.1,17,18.7c8.9,7.3,17.8,11.8,23.5,14.3C54.6,173,24.3,141,23.3,101.9z M106.4,176.6
	c5.9-2.4,15.1-7,24.5-14.3c4.2-3.3,8.6-7.4,12.8-12.4c10.1-5.9,17.5-13.4,22.6-20.2c4.2-5.7,7.3-11.3,9.6-16.1
	C169.8,147.4,141.4,173.7,106.4,176.6z"/>
<linearGradient id="SVGID_2_" gradientUnits="userSpaceOnUse" x1="100" y1="12" x2="100" y2="190" gradientTransform="matrix(1 0 0 -1 0 200)">
	<stop  offset="0" style="stop-color:#89C7EA"/>
	<stop  offset="0.9745" style="stop-color:#AAE1F9"/>
</linearGradient>
<circle class="st2" cx="100" cy="99" r="88"/>
<circle class="st3" cx="100" cy="100" r="95.5"/>
</svg>
