<?xml version="1.0" encoding="utf-8"?>
<!-- Generator: Adobe Illustrator 24.2.0, SVG Export Plug-In . SVG Version: 6.00 Build 0)  -->
<svg version="1.1" id="Layer_1" xmlns="http://www.w3.org/2000/svg" xmlns:xlink="http://www.w3.org/1999/xlink" x="0px" y="0px"
	 viewBox="0 0 200 200" style="enable-background:new 0 0 200 200;" xml:space="preserve">
<g id="_x37_fv42g.tif">
	<g>
		<g>
			<path style="fill:#3883BE;" d="M149.8,71.8c0,0.6,0.1,1.1,0.4,1.6c0.1,0.3,0.1,0.4-0.1,0.6c-1.6,1.4-3.2,2.9-4.9,4.3
				c-0.5,0.4-0.8,0.4-1.3-0.1c-1.8-1.9-3.6-3.8-5.4-5.8c-1-1-1.9-2.1-2.8-3.2c-0.6-0.6-0.6-1,0-1.5c1.3-1.2,2.6-2.4,3.9-3.6
				c0.4-0.4,0.9-0.5,1.5-0.4c0.8,0.1,1.5,0.1,2.3,0.1c1.1,0,1.6-0.5,1.9-1.6c0.1-0.7,0.1-1.3,0.2-2c0-0.6,0.3-1.1,0.7-1.5
				c2.3-2.2,4.5-4.3,6.7-6.5c1-1,2-1.9,3.2-2.5c4.9-2.6,10-3.1,15.1-0.6c0.1,0,0.1,0.1,0.2,0.1c0.5,0.3,0.7,0.7,0.6,1.1
				c-0.1,0.5-0.5,0.7-1.1,0.8c-1.6,0.1-3.1,0.5-4.6,1.2c-4.6,2.1-6.2,6.8-4.5,11.4c0,0.1,0.1,0.2,0.1,0.4c0.4,0.9,0.4,0.9-0.3,1.6
				c-1.4,1.4-2.9,2.7-4.3,4.1c-0.2,0.2-0.4,0.2-0.6,0c-0.4-0.4-0.8-0.8-1.3-1.1C152.9,67.1,149.8,69,149.8,71.8z"/>
		</g>
		<g>
			<path style="fill:#3883BE;" d="M193,97.4c0.1,4.3-2.9,6.4-6.3,5.5c-1.7-0.5-2.8-1.6-3.9-2.9c-3.4-4.1-6.9-8.1-10.4-12.2
				c-4-4.7-8-9.4-11.9-14.2c-0.3-0.3-0.5-0.7-0.8-1c-0.2-0.2-0.2-0.4,0-0.6c1.6-1.4,3.2-2.9,4.7-4.3c0.3-0.3,0.4-0.1,0.6,0.1
				c1.7,1.7,3.5,3.4,5.2,5.1c7,7,14,13.9,20.9,20.9C192.4,95,193,96.5,193,97.4z"/>
		</g>
	</g>
</g>
<g>
	<g>
		<path style="fill:#3883BE;" d="M118.2,92.9c-2.5-1.5-6-2.3-10.2-2.3l0.2,22c4.2,0,7.5-0.7,10-2.2c3.2-1.9,4.8-4.8,4.8-8.7
			C122.9,97.8,121.4,94.8,118.2,92.9z"/>
	</g>
	<g>
		<path style="fill:#3883BE;" d="M78.7,91.1c-4.5,0-8.4,1.6-11.6,4.8c-3.2,3.2-4.8,7.1-4.8,11.6h32.9c0-4.5-1.6-8.4-4.8-11.6
			C87.2,92.7,83.3,91.1,78.7,91.1z"/>
	</g>
	<g>
		<path style="fill:#3883BE;" d="M159.8,115.7c-1.5-8-5.8-13.9-13.1-17.7c-0.8-0.4-0.9-1-0.9-1.7c-0.6-10.8-8.6-20.6-19.1-23.4
			c-6.6-1.7-13-1.2-19.1,2.1c-1.1,0.6-1.8,0.6-2.6-0.5c-1.9-2.3-4.1-4.3-6.5-6c-12.5-9-30.8-7.6-41.8,3.1
			c-6.9,6.7-10.5,14.8-10.4,24.5c0,1.1-0.3,1.7-1.3,2.2c-3.2,1.5-5.7,3.8-7.9,6.5c-8,9.9-6.2,25.3,3.8,33.1
			c3.5,2.7,7.4,4.2,11.6,5.1h86.9c2.4-0.6,4.8-1.1,7-2.3c7.2-3.6,11.5-9.3,13.1-17.1c0.1-0.3,0.2-0.7,0.3-1v-6.5
			C159.9,116,159.9,115.9,159.8,115.7z M100.1,127.5c0,0.7-0.2,1.2-0.7,1.7s-1,0.7-1.7,0.7s-1.2-0.2-1.7-0.7s-0.7-1-0.7-1.7v-15.1
			H62.3v15.1c0,0.7-0.2,1.2-0.7,1.7c-0.5,0.5-1,0.7-1.7,0.7s-1.2-0.2-1.7-0.7c-0.5-0.4-0.7-1-0.7-1.7v-20c0-5.9,2.1-10.9,6.2-15.1
			c4.2-4.2,9.2-6.3,15-6.3c5.9,0,10.9,2.1,15,6.3c4.2,4.2,6.2,9.2,6.2,15.1V127.5z M121.4,113.7c-3.8,2.6-8.3,3.9-13.5,3.9v10
			c0,0.7-0.2,1.2-0.7,1.7c-0.5,0.5-1,0.7-1.7,0.7s-1.2-0.2-1.7-0.7c-0.5-0.4-0.7-1-0.7-1.7V88.3c0-1.3,0.7-2,2-2.4
			c0.4-0.1,1.6-0.1,3.6-0.1c5.2,0,9.6,1.3,13.3,4c4,3,6,7,6,12C127.9,106.7,125.8,110.7,121.4,113.7z M136,127.5
			c0,0.7-0.2,1.2-0.7,1.7c-0.5,0.5-1,0.7-1.7,0.7s-1.2-0.2-1.7-0.7s-0.7-1-0.7-1.7V88.3c0-0.7,0.2-1.2,0.7-1.7
			c0.5-0.5,1-0.7,1.7-0.7s1.2,0.2,1.7,0.7c0.5,0.5,0.7,1,0.7,1.7V127.5z"/>
	</g>
</g>
<g>
	<path style="fill:#3883BE;" d="M131,71c-0.5,0-0.9-0.4-1-0.9l-3-20c-0.1-0.5,0.3-1.1,0.8-1.1c0.6-0.1,1.1,0.3,1.1,0.8l3,20
		c0.1,0.5-0.3,1.1-0.8,1.1C131.1,71,131,71,131,71z"/>
</g>
<g>
	<path style="fill:#3883BE;" d="M159,84h-14c-0.6,0-1-0.4-1-1s0.4-1,1-1h14c0.6,0,1,0.4,1,1S159.6,84,159,84z"/>
</g>
<g>
	<path style="fill:#3883BE;" d="M125,70c-0.4,0-0.8-0.3-0.9-0.7l-4-12c-0.2-0.5,0.1-1.1,0.6-1.3c0.5-0.2,1.1,0.1,1.3,0.6l4,12
		c0.2,0.5-0.1,1.1-0.6,1.3C125.2,70,125.1,70,125,70z"/>
</g>
<g>
	<path style="fill:#3883BE;" d="M152,92c-0.2,0-0.3,0-0.4-0.1l-6-3c-0.5-0.2-0.7-0.8-0.4-1.3s0.8-0.7,1.3-0.4l6,3
		c0.5,0.2,0.7,0.8,0.4,1.3C152.7,91.8,152.4,92,152,92z"/>
</g>
<g id="JqL4V0.tif">
	<g>
		<path style="fill:#3883BE;" d="M43,76.5c-0.5,0-1.2,0-1.9-0.2c-0.9-0.3-1.4,0-2,0.6c-6.7,6.8-13.5,13.5-20.3,20.3
			c-1.8,1.8-4.2,2.1-6,0.7c-2.1-1.5-2.5-4.4-0.9-6.4c0.3-0.4,0.6-0.7,1-1c6.7-6.7,13.3-13.3,20-20c0.6-0.6,0.7-1.1,0.5-1.8
			c-0.7-3.7,0.3-6.9,3.1-9.4c2.8-2.5,6.1-3.1,9.7-2c0.8,0.2,0.8,0.5,0.3,1.1c-1.7,1.7-3.5,3.5-5.2,5.2c-0.4,0.4-0.6,0.7-0.1,1.2
			c1.3,1.2,2.5,2.4,3.7,3.7c0.5,0.5,0.8,0.5,1.3,0c1.7-1.7,3.4-3.4,5.1-5.1c0.7-0.7,0.8-0.6,1.1,0.3C54.6,69.9,49.9,76.5,43,76.5z"
			/>
	</g>
</g>
<g id="dFrCqO.tif">
	<g>
		<path style="fill:#3883BE;" d="M61.2,55.2c0.7,0.4,1.2,0.8,1.6,1.5c0.3,0.4,0.2,0.6-0.2,0.8c-2.5,1.4-5,2.7-7.5,4.1
			c-0.4,0.2-0.6,0.2-0.8-0.3c-0.3-0.7-0.4-1.4-0.4-2.2c0.1-0.4,0.2-0.7,0.3-1.1c0.4-0.7,0.8-1.2,1.5-1.6c0.3-0.2,0.5-0.1,0.6,0.2
			c0.2,0.4,0.5,0.8,0.7,1.2c0.1,0.2,0.2,0.2,0.3,0.1c0.2-0.1,0.5-0.3,0.7-0.4c0.2-0.1,0.2-0.2,0.1-0.3c-0.2-0.4-0.4-0.8-0.6-1.2
			c-0.2-0.3-0.1-0.5,0.2-0.7c0.7-0.4,1.4-0.4,2.1-0.4C60.5,55,60.8,55.1,61.2,55.2z"/>
		<path style="fill:#3883BE;" d="M57,61.5c0-0.1,0.1-0.2,0.2-0.2c1.3-0.7,2.6-1.4,3.9-2.2c0.3-0.2,0.4-0.1,0.6,0.2
			c0.2,0.4,0.2,0.4-0.1,0.8c-1.1,1.2-2.1,2.4-3.1,3.6c-0.2,0.2-0.3,0.2-0.4,0c-0.3-0.6-0.7-1.2-1-1.8C57,61.7,57,61.6,57,61.5z"/>
		<path style="fill:#3883BE;" d="M58.7,64.3c0,0,0.1-0.1,0.1-0.1c1.1-1.2,2.2-2.5,3.2-3.7c0.2-0.3,0.2-0.3,0.4,0.1
			c0.2,0.3,0.3,0.7,0.5,1c0.1,0.2,0.1,0.3,0,0.4c-1.1,1.2-2.1,2.4-3.2,3.6c-0.2,0.3-0.2,0.2-0.4,0c-0.2-0.3-0.4-0.7-0.6-1
			C58.7,64.5,58.6,64.4,58.7,64.3z"/>
		<path style="fill:#3883BE;" d="M59.9,66.4c0-0.1,0.1-0.1,0.1-0.2c1-1.2,2.1-2.4,3.1-3.5c0.2-0.2,0.2-0.2,0.4,0
			c0.2,0.4,0.4,0.7,0.6,1.1c0.1,0.1,0.1,0.2,0,0.4c-1,1.2-2.1,2.4-3.1,3.5c-0.1,0.1-0.2,0.2-0.3,0c-0.2-0.4-0.4-0.7-0.6-1.1
			C59.9,66.5,59.8,66.5,59.9,66.4z"/>
		<path style="fill:#3883BE;" d="M65.3,66.4c0,0.1-0.1,0.2-0.2,0.3c-1.1,0.6-2.3,1.2-3.4,1.9c-0.1,0-0.2,0.1-0.3,0.1
			c-0.1,0-0.2-0.1-0.3-0.2c-0.1-0.1,0-0.2,0.1-0.2c1-1.2,2.1-2.3,3.1-3.5c0.1-0.1,0.2-0.1,0.3,0c0.2,0.5,0.5,1,0.7,1.4
			C65.3,66.3,65.3,66.4,65.3,66.4z"/>
	</g>
</g>
</svg>
