<?xml version="1.0" encoding="utf-8"?>
<!-- Generator: Adobe Illustrator 22.0.1, SVG Export Plug-In . SVG Version: 6.00 Build 0)  -->
<svg version="1.1" id="Layer_1" xmlns="http://www.w3.org/2000/svg" xmlns:xlink="http://www.w3.org/1999/xlink" x="0px" y="0px"
	 viewBox="0 0 60 60" style="enable-background:new 0 0 60 60;" xml:space="preserve">
<style type="text/css">
	.st0{fill:none;stroke:#AAE1F9;stroke-linecap:round;stroke-miterlimit:10;stroke-dasharray:4;}
	.st1{fill:#2F81C1;}
	.st2{fill:#AAE1F9;}
	.st3{fill:none;stroke:#AAE1F9;stroke-miterlimit:10;}
</style>
<circle class="st0" cx="31" cy="33" r="22"/>
<g>
	<circle class="st1" cx="30.7" cy="11.3" r="7.3"/>
	<g>
		<g>
			<path class="st2" d="M36,8.9c-2.3-2.9-4-1.7-4.8-0.7c-0.3,0.3-0.7,0.3-1,0c-0.8-0.9-2.5-2.2-4.8,0.7c-3.2,4,1.3,9.4,5.3,9.1
				c0,0,0.1,0,0.1,0C34.7,18.3,39.2,12.9,36,8.9z"/>
			<path class="st1" d="M32.7,11.9L32.7,11.9L32.7,11.9c-0.1,0-0.3,1.3-0.7,2.7c-0.2,0.8-0.5,1.4-0.7,1.8c-0.3,0.6-0.6,0.8-0.7,0.8
				c0,0,0,0,0,0c-0.2,0-0.7-0.2-1.3-2.5c-0.1-0.2-0.1-0.4-0.2-0.6l-0.4-2.1c0,0,0,0,0,0c0,0,0,0,0,0l0,0c-0.2-0.1-4.3-1.3-0.1,1.7
				c0.1,0.4,0.2,0.7,0.3,1.1c0.5,1.9,1.1,2.9,1.7,2.9c0,0,0,0,0,0c0.4,0,0.7-0.3,1.1-1c0.2-0.5,0.5-1.1,0.7-1.9
				c0.1-0.3,0.2-0.7,0.3-1C36.8,10.5,32.7,11.9,32.7,11.9z"/>
		</g>
	</g>
</g>
<g>
	<circle class="st1" cx="12.4" cy="44.6" r="7.3"/>
	<g>
		<g>
			<path class="st2" d="M17.7,42.2c-2.3-2.9-4-1.7-4.8-0.7c-0.3,0.3-0.7,0.3-1,0c-0.8-0.9-2.5-2.2-4.8,0.7c-3.2,4,1.3,9.4,5.3,9.1
				c0,0,0.1,0,0.1,0C16.4,51.6,20.9,46.2,17.7,42.2z"/>
			<path class="st1" d="M14.4,45.2L14.4,45.2L14.4,45.2c-0.1,0-0.3,1.3-0.7,2.7c-0.2,0.8-0.5,1.4-0.7,1.8c-0.3,0.6-0.6,0.8-0.7,0.8
				c0,0,0,0,0,0c-0.2,0-0.7-0.2-1.3-2.5c-0.1-0.2-0.1-0.4-0.2-0.6l-0.4-2.1c0,0,0,0,0,0c0,0,0,0,0,0l0,0c-0.2-0.1-4.3-1.3-0.1,1.7
				c0.1,0.4,0.2,0.7,0.3,1.1c0.5,1.9,1.1,2.9,1.7,2.9c0,0,0,0,0,0c0.4,0,0.7-0.3,1.1-1c0.2-0.5,0.5-1.1,0.7-1.9
				c0.1-0.3,0.2-0.7,0.3-1C18.5,43.8,14.4,45.2,14.4,45.2z"/>
		</g>
	</g>
</g>
<g>
	<circle class="st1" cx="48.6" cy="45.1" r="7.3"/>
	<g>
		<g>
			<path class="st2" d="M53.9,42.7c-2.3-2.9-4-1.7-4.8-0.7c-0.3,0.3-0.7,0.3-1,0c-0.8-0.9-2.5-2.2-4.8,0.7c-3.2,4,1.3,9.4,5.3,9.1
				c0,0,0.1,0,0.1,0C52.6,52.1,57.1,46.7,53.9,42.7z"/>
			<path class="st1" d="M50.6,45.7L50.6,45.7L50.6,45.7c-0.1,0-0.3,1.3-0.7,2.7c-0.2,0.8-0.5,1.4-0.7,1.8c-0.3,0.6-0.6,0.8-0.7,0.8
				c0,0,0,0,0,0c-0.2,0-0.7-0.2-1.3-2.5c-0.1-0.2-0.1-0.4-0.2-0.6l-0.4-2.1c0,0,0,0,0,0c0,0,0,0,0,0l0,0c-0.2-0.1-4.3-1.3-0.1,1.7
				c0.1,0.4,0.2,0.7,0.3,1.1c0.5,1.9,1.1,2.9,1.7,2.9c0,0,0,0,0,0c0.4,0,0.7-0.3,1.1-1c0.2-0.5,0.5-1.1,0.7-1.9
				c0.1-0.3,0.2-0.7,0.3-1C54.7,44.3,50.6,45.7,50.6,45.7z"/>
		</g>
	</g>
</g>
<circle class="st3" cx="12.4" cy="44.6" r="9"/>
<circle class="st3" cx="30.7" cy="11.3" r="9"/>
<circle class="st3" cx="48.6" cy="45.1" r="9"/>
</svg>
