<?xml version="1.0" encoding="utf-8"?>
<!-- Generator: Adobe Illustrator 22.0.1, SVG Export Plug-In . SVG Version: 6.00 Build 0)  -->
<svg version="1.1" id="Layer_1" xmlns="http://www.w3.org/2000/svg" xmlns:xlink="http://www.w3.org/1999/xlink" x="0px" y="0px"
	 viewBox="0 0 60 60" style="enable-background:new 0 0 60 60;" xml:space="preserve">
<style type="text/css">
	.st0{fill:#2F81C1;}
	.st1{fill:none;stroke:#000000;stroke-linecap:round;stroke-miterlimit:10;}
	.st2{fill:#AAE1F9;}
</style>
<path class="st0" d="M36.7,16.5H5.3c-1,0-1.8-0.8-1.8-1.8V7.3c0-1,0.8-1.8,1.8-1.8h31.3c1,0,1.8,0.8,1.8,1.8v7.3
	C38.5,15.7,37.7,16.5,36.7,16.5z"/>
<path class="st0" d="M37.2,33H5.8c-1,0-1.8-0.8-1.8-1.8v-7.3c0-1,0.8-1.8,1.8-1.8h31.3c1,0,1.8,0.8,1.8,1.8v7.3
	C39,32.2,38.2,33,37.2,33z"/>
<path class="st0" d="M37.2,50H5.8c-1,0-1.8-0.8-1.8-1.8v-7.3c0-1,0.8-1.8,1.8-1.8h31.3c1,0,1.8,0.8,1.8,1.8v7.3
	C39,49.2,38.2,50,37.2,50z"/>
<polyline class="st1" points="43,10 47,14 57,4 "/>
<polyline class="st1" points="43,26 47,30 57,20 "/>
<polyline class="st1" points="43,43 47,47 57,37 "/>
<g>
	<path class="st2" d="M20.8,7.7L20.8,7.7l-1.4,0.7l-0.2-0.8L21,6.7h0.9v7.8h-1V7.7z"/>
</g>
<g>
	<path class="st2" d="M18.5,31.5v-0.6l0.8-0.8c2-1.9,2.9-2.9,2.9-4.1c0-0.8-0.4-1.5-1.5-1.5c-0.7,0-1.3,0.4-1.7,0.7l-0.3-0.7
		c0.5-0.5,1.3-0.8,2.2-0.8c1.7,0,2.4,1.2,2.4,2.3c0,1.4-1,2.6-2.7,4.2L20,30.6v0h3.5v0.9H18.5z"/>
</g>
<g>
	<path class="st2" d="M18.8,47.3c0.3,0.2,1,0.5,1.7,0.5c1.4,0,1.8-0.9,1.8-1.5c0-1.1-1-1.6-2-1.6h-0.6v-0.8h0.6
		c0.8,0,1.7-0.4,1.7-1.3c0-0.6-0.4-1.2-1.4-1.2c-0.6,0-1.2,0.3-1.6,0.5l-0.3-0.8c0.4-0.3,1.2-0.6,2-0.6c1.5,0,2.2,0.9,2.2,1.9
		c0,0.8-0.5,1.5-1.4,1.8v0c1,0.2,1.7,0.9,1.7,2c0,1.2-1,2.3-2.8,2.3c-0.9,0-1.6-0.3-2-0.5L18.8,47.3z"/>
</g>
</svg>
