<?xml version="1.0" encoding="utf-8"?>
<!-- Generator: Adobe Illustrator 22.0.1, SVG Export Plug-In . SVG Version: 6.00 Build 0)  -->
<svg version="1.1" id="Layer_1" xmlns="http://www.w3.org/2000/svg" xmlns:xlink="http://www.w3.org/1999/xlink" x="0px" y="0px"
	 viewBox="0 0 400 262.3" style="enable-background:new 0 0 400 262.3;" xml:space="preserve">
<style type="text/css">
	.st0{fill:#FFFFFF;stroke:#FFFFFF;stroke-width:15;}
	.st1{fill:#2170A5;}
	.st2{fill:url(#SVGID_1_);}
	.st3{fill:url(#SVGID_2_);}
	.st4{enable-background:new    ;}
	.st5{fill:#2E7EBD;}
	.st6{fill:url(#SVGID_3_);}
	.st7{fill:#2F81C1;}
	.st8{fill:url(#SVGID_4_);}
	.st9{fill:url(#SVGID_5_);}
</style>
<g>
	<path class="st0" d="M386.6,89.8L386.6,89.8c-2.8-6.4-30.7-5.7-104.7,9.7c-0.1-0.1-0.1-0.3-0.2-0.4c-0.1-0.3-0.2-0.6-0.4-0.9
		c-0.2-0.4-0.4-0.8-0.5-1.3c-0.1-0.3-0.2-0.5-0.3-0.8c-0.3-0.6-0.6-1.2-0.9-1.9c-0.1-0.2-0.2-0.5-0.4-0.7c-0.2-0.4-0.4-0.8-0.6-1.2
		c-0.1-0.3-0.3-0.6-0.4-0.8c-0.2-0.4-0.4-0.8-0.6-1.2c-0.1-0.3-0.3-0.5-0.4-0.8c-0.3-0.6-0.7-1.2-1-1.8c-0.1-0.2-0.3-0.4-0.4-0.7
		c-0.2-0.4-0.5-0.8-0.7-1.2c-0.2-0.3-0.3-0.5-0.5-0.8c-0.2-0.4-0.5-0.8-0.7-1.1c-0.2-0.2-0.3-0.5-0.5-0.7c-0.4-0.6-0.7-1.1-1.1-1.7
		c-0.1-0.2-0.3-0.4-0.4-0.6c-0.3-0.4-0.6-0.8-0.8-1.2c-0.2-0.2-0.4-0.5-0.5-0.7c-0.3-0.4-0.5-0.7-0.8-1.1c-0.2-0.2-0.3-0.5-0.5-0.7
		c-0.4-0.5-0.8-1-1.2-1.6c-0.1-0.2-0.3-0.4-0.4-0.6c-0.3-0.4-0.7-0.8-1-1.2c-0.2-0.2-0.4-0.5-0.6-0.7c-0.3-0.3-0.6-0.7-0.9-1
		c-0.2-0.2-0.4-0.4-0.6-0.7c-0.4-0.5-0.8-0.9-1.2-1.4c-0.2-0.2-0.3-0.4-0.5-0.5c-0.4-0.4-0.8-0.8-1.2-1.2c-0.2-0.2-0.4-0.4-0.6-0.6
		c-0.3-0.3-0.6-0.7-1-1c-0.2-0.2-0.4-0.4-0.6-0.6c-0.4-0.4-0.8-0.8-1.2-1.2c-0.2-0.1-0.3-0.3-0.5-0.4c-0.5-0.4-0.9-0.9-1.4-1.3
		c-0.2-0.2-0.4-0.4-0.6-0.5c-0.4-0.3-0.7-0.6-1.1-0.9c-0.2-0.2-0.4-0.4-0.6-0.5c-0.4-0.4-0.9-0.7-1.3-1.1c-0.1-0.1-0.3-0.2-0.4-0.3
		c-0.5-0.4-1.1-0.9-1.6-1.3c-0.2-0.2-0.4-0.3-0.6-0.5c-0.4-0.3-0.8-0.6-1.2-0.9c-0.2-0.2-0.4-0.3-0.6-0.5c-0.4-0.3-0.9-0.7-1.3-1
		c-0.1-0.1-0.3-0.2-0.4-0.3c-0.6-0.4-1.2-0.8-1.7-1.2c-0.2-0.1-0.4-0.3-0.6-0.4c-0.4-0.3-0.8-0.6-1.3-0.8c-0.2-0.1-0.4-0.3-0.7-0.4
		c-0.5-0.3-0.9-0.6-1.4-0.9c-0.2-0.1-0.3-0.2-0.5-0.3c-0.6-0.4-1.2-0.7-1.9-1.1c-0.2-0.1-0.4-0.2-0.6-0.3c-0.5-0.3-0.9-0.5-1.4-0.8
		c-0.2-0.1-0.5-0.2-0.7-0.4c-0.5-0.3-1-0.5-1.5-0.8c-0.2-0.1-0.3-0.2-0.5-0.3c-0.6-0.3-1.3-0.7-1.9-1c-0.2-0.1-0.4-0.2-0.6-0.3
		c-0.5-0.2-1-0.5-1.5-0.7c-0.2-0.1-0.5-0.2-0.7-0.3c-0.5-0.2-1-0.4-1.5-0.7c-0.2-0.1-0.4-0.2-0.5-0.2c-0.7-0.3-1.4-0.6-2-0.8
		c-0.2-0.1-0.4-0.1-0.5-0.2c-0.5-0.2-1.1-0.4-1.6-0.6c-0.2-0.1-0.5-0.2-0.7-0.3c-0.5-0.2-1-0.4-1.6-0.6c-0.2-0.1-0.4-0.1-0.6-0.2
		c-0.7-0.2-1.4-0.5-2.1-0.7c-0.2,0-0.3-0.1-0.5-0.1c-0.6-0.2-1.1-0.3-1.7-0.5c-0.2-0.1-0.5-0.1-0.7-0.2c-0.5-0.1-1.1-0.3-1.6-0.4
		c-0.2-0.1-0.4-0.1-0.6-0.2c-0.7-0.2-1.5-0.4-2.2-0.5c-0.1,0-0.3-0.1-0.4-0.1c-0.6-0.1-1.2-0.3-1.8-0.4c-0.2,0-0.5-0.1-0.7-0.1
		c-0.6-0.1-1.1-0.2-1.7-0.3c-0.2,0-0.4-0.1-0.6-0.1c-0.8-0.1-1.5-0.3-2.3-0.4c-0.1,0-0.2,0-0.3,0c-0.7-0.1-1.3-0.2-2-0.3
		c-0.2,0-0.5-0.1-0.7-0.1c-0.6-0.1-1.1-0.1-1.7-0.2c-0.2,0-0.4,0-0.7-0.1c-0.8-0.1-1.5-0.1-2.3-0.2c-0.1,0-0.1,0-0.2,0
		c-0.7-0.1-1.4-0.1-2.2-0.1c-0.2,0-0.5,0-0.7,0c-0.6,0-1.2,0-1.7-0.1c-0.2,0-0.5,0-0.7,0c-0.8,0-1.6,0-2.4,0c-0.8,0-1.6,0-2.3,0
		c-0.2,0-0.4,0-0.6,0c-0.8,0-1.5,0-2.3,0.1c-0.1,0-0.2,0-0.3,0c-0.6,0-1.3,0.1-1.9,0.1c-0.2,0-0.5,0-0.7,0.1
		c-0.7,0.1-1.4,0.1-2.1,0.2c-0.2,0-0.4,0-0.7,0.1c-0.5,0.1-1,0.1-1.6,0.2c-0.3,0-0.6,0.1-0.8,0.1c-0.1,0-0.2,0-0.3,0c0,0,0,0,0,0
		C155.3,39.8,138,47.6,123.9,59c0,0,0,0,0,0l0,0C91.5,3.6,91.7,26.4,91.7,26.5C65.9,3.9,44.2-3,93.6,99.6
		c-4.9,11.9-7.6,24.9-7.6,38.6c0,51.6,38.4,94.3,88.2,100.9c0,0,0,0,0,0c0.1,0,0.2,0,0.3,0c0.3,0,0.6,0.1,0.8,0.1
		c0.5,0.1,1,0.1,1.6,0.2c0.2,0,0.4,0,0.7,0.1c0.7,0.1,1.4,0.1,2.1,0.2c0.2,0,0.5,0,0.7,0.1c0.6,0,1.3,0.1,1.9,0.1c0.1,0,0.2,0,0.3,0
		c0.7,0,1.5,0.1,2.3,0.1c0.2,0,0.4,0,0.6,0c0.8,0,1.5,0,2.3,0c0.9,0,1.7,0,2.6,0c0.3,0,0.6,0,0.8,0c0.6,0,1.1,0,1.7-0.1
		c0.3,0,0.7,0,1-0.1c0.5,0,1-0.1,1.5-0.1c0.4,0,0.7-0.1,1.1-0.1c0.5,0,1-0.1,1.4-0.1c0.4,0,0.7-0.1,1.1-0.1c0.5-0.1,0.9-0.1,1.4-0.2
		c0.4,0,0.7-0.1,1.1-0.1c0.5-0.1,0.9-0.1,1.4-0.2c0.4-0.1,0.7-0.1,1.1-0.2c0.4-0.1,0.9-0.1,1.3-0.2c0.4-0.1,0.7-0.1,1.1-0.2
		c0.4-0.1,0.9-0.2,1.3-0.3c0.4-0.1,0.7-0.1,1.1-0.2c0.4-0.1,0.9-0.2,1.3-0.3c0.4-0.1,0.7-0.2,1.1-0.3c0.4-0.1,0.9-0.2,1.3-0.3
		c0.4-0.1,0.7-0.2,1.1-0.3c0.4-0.1,0.9-0.2,1.3-0.3c0.4-0.1,0.7-0.2,1.1-0.3c0.4-0.1,0.9-0.3,1.3-0.4c0.4-0.1,0.7-0.2,1.1-0.3
		c0.4-0.1,0.9-0.3,1.3-0.4c0.3-0.1,0.7-0.2,1-0.3c0.4-0.1,0.9-0.3,1.3-0.5c0.3-0.1,0.7-0.2,1-0.4c0.5-0.2,0.9-0.3,1.4-0.5
		c0.3-0.1,0.6-0.2,0.9-0.3c0.5-0.2,1-0.4,1.5-0.6c0.2-0.1,0.5-0.2,0.7-0.3c0.7-0.3,1.5-0.6,2.2-1c0.2-0.1,0.4-0.2,0.7-0.3
		c0.5-0.2,1-0.5,1.5-0.7c0.3-0.1,0.6-0.3,0.9-0.4c0.4-0.2,0.8-0.4,1.3-0.6c0.3-0.2,0.6-0.3,0.9-0.5c0.4-0.2,0.8-0.4,1.2-0.6
		c0.3-0.2,0.6-0.4,1-0.5c0.4-0.2,0.7-0.4,1.1-0.6c0.3-0.2,0.7-0.4,1-0.6c0.4-0.2,0.7-0.4,1.1-0.6c0.3-0.2,0.7-0.4,1-0.6
		c0.4-0.2,0.7-0.4,1.1-0.7c0.3-0.2,0.6-0.4,1-0.6c0.2-0.1,0.3-0.2,0.5-0.3c0,0,0,0,0,0c0,0,66.7,34.8,18.3-15.4c0,0,0,0,0,0
		c0.1-0.1,0.3-0.3,0.4-0.4c0.2-0.2,0.5-0.5,0.7-0.7c0.3-0.3,0.6-0.6,0.9-1c0.2-0.3,0.5-0.5,0.7-0.8c0.3-0.3,0.5-0.6,0.8-1
		c0.2-0.3,0.5-0.6,0.7-0.8c0.3-0.3,0.5-0.7,0.8-1c0.2-0.3,0.5-0.6,0.7-0.9c0.3-0.3,0.5-0.7,0.8-1c0.2-0.3,0.4-0.6,0.7-0.9
		c0.3-0.3,0.5-0.7,0.8-1c0.2-0.3,0.4-0.6,0.6-0.9c0.2-0.3,0.5-0.7,0.7-1c0.2-0.3,0.4-0.6,0.6-0.9c0.2-0.4,0.5-0.7,0.7-1.1
		c0.2-0.3,0.4-0.6,0.6-0.9c0.2-0.4,0.5-0.7,0.7-1.1c0.2-0.3,0.4-0.6,0.6-0.9c0.2-0.4,0.5-0.7,0.7-1.1c0.2-0.3,0.4-0.6,0.5-0.9
		c0.2-0.4,0.4-0.8,0.7-1.1c0.2-0.3,0.3-0.6,0.5-0.9c0.2-0.4,0.4-0.8,0.6-1.2c0.2-0.3,0.3-0.6,0.5-0.9c0.2-0.4,0.4-0.8,0.6-1.2
		c0.2-0.3,0.3-0.6,0.5-0.9c0.2-0.4,0.4-0.8,0.6-1.2c0.1-0.3,0.3-0.6,0.4-0.9c0.2-0.4,0.4-0.8,0.6-1.3c0.1-0.3,0.3-0.6,0.4-0.9
		c0.2-0.4,0.4-0.9,0.6-1.3c0.1-0.2,0.2-0.5,0.3-0.7c0.7-1.8,1.4-3.6,2.1-5.5c0.1-0.2,0.1-0.3,0.2-0.5c0.2-0.5,0.3-1,0.5-1.5
		c0.1-0.3,0.2-0.5,0.3-0.8c0.1-0.5,0.3-0.9,0.4-1.4c0.1-0.3,0.2-0.6,0.3-0.9c0.1-0.5,0.3-0.9,0.4-1.4c0.1-0.3,0.2-0.6,0.3-1
		c0.1-0.5,0.2-0.9,0.3-1.4c0.1-0.3,0.2-0.7,0.2-1c0.1-0.5,0.2-0.9,0.3-1.4c0.1-0.3,0.2-0.7,0.2-1c0.1-0.5,0.2-0.9,0.3-1.4
		c0.1-0.3,0.1-0.7,0.2-1c0.1-0.5,0.2-0.9,0.2-1.4c0.1-0.4,0.1-0.7,0.2-1.1c0.1-0.5,0.1-0.9,0.2-1.4c0.1-0.4,0.1-0.7,0.1-1.1
		c0.1-0.5,0.1-0.9,0.2-1.4c0-0.4,0.1-0.7,0.1-1.1c0.1-0.5,0.1-0.9,0.1-1.4c0-0.1,0-0.3,0-0.4c1.3-0.6,2.6-1.2,4-1.8
		c16.2-5,81.9-25.8,70.7-27.5c-2.7-0.4-6.5-0.5-11-0.1C394.4,96.3,386.6,89.8,386.6,89.8z"/>
	<g>
		<path class="st1" d="M243.7,223.3c0,0,66.7,34.8,18.3-15.4C262,207.9,245,212.1,243.7,223.3z"/>
		<linearGradient id="SVGID_1_" gradientUnits="userSpaceOnUse" x1="66.2432" y1="-13.8898" x2="101.4185" y2="61.2573">
			<stop  offset="0" style="stop-color:#AAE1F9"/>
			<stop  offset="6.361246e-03" style="stop-color:#A8E0F8"/>
			<stop  offset="0.145" style="stop-color:#83C3E7"/>
			<stop  offset="0.2898" style="stop-color:#65ABD9"/>
			<stop  offset="0.4415" style="stop-color:#4D98CF"/>
			<stop  offset="0.6024" style="stop-color:#3C8BC7"/>
			<stop  offset="0.7787" style="stop-color:#3283C2"/>
			<stop  offset="1" style="stop-color:#2F81C1"/>
		</linearGradient>
		<path class="st2" d="M123.9,59L123.9,59C91.5,3.6,91.7,26.4,91.7,26.5c-26.3-23.1-48.4-29.8,5.2,80c0,0,0.7-28.7,32-41.8
			C128.9,64.7,127,62.5,123.9,59z"/>
		<radialGradient id="SVGID_2_" cx="175.982" cy="68.3002" r="127.6529" gradientUnits="userSpaceOnUse">
			<stop  offset="0" style="stop-color:#AAE1F9"/>
			<stop  offset="1" style="stop-color:#2F81C1"/>
		</radialGradient>
		<circle class="st3" cx="187.8" cy="138.2" r="101.8"/>
		<g class="st4">
			<g class="st4">
				<g>
					<polygon class="st5" points="96.9,106.5 96.9,106.5 96.9,106.5 					"/>
				</g>
			</g>
			<g>
				<linearGradient id="SVGID_3_" gradientUnits="userSpaceOnUse" x1="164.7181" y1="227.9718" x2="164.7181" y2="93.1527">
					<stop  offset="0" style="stop-color:#AAE1F9"/>
					<stop  offset="1" style="stop-color:#FFFFFF"/>
				</linearGradient>
				<path class="st6" d="M184.2,102.3c-5.8,1.1-10.3,2.4-20,11c-3,2.7-6.1,2.3-7.8,1.1c-1.5-1-1.7-1.7-3-5.8
					c-4.1-12.7-9.5-17.1-18.7-15c-12.8,2.8-29.1,15.8-34.3,27.2c-14.8,32.3-1.5,72.6,31.7,95.6c42.7,29.8,93.6-3.6,101.7-39.6
					C242.7,137.2,202.9,102,184.2,102.3z M155.6,224.4c-1.7-0.5-3.3-1.4-4.9-2.3c3,0.9,6,1.5,8.9,1.8
					C158.2,224.6,156.8,224.6,155.6,224.4z"/>
				<path class="st7" d="M200.2,168.9c-1.7,3.1-5.2,6.3-7.8,8.6c-1.7,1.5-4.2,3.3-6.1,4.8c-3.5,2.8-7.6,4.8-11.1,7.5
					c-0.4,0.3-0.3,1-0.4,1.4c-1.6,5.2-2.9,9.1-3.2,9.8c-6.4,18.6-9.7,22.6-13.3,23.4c-7.3,1.6-22.9-12.9-30.8-39.4
					c-0.5-1.7-0.6-3.6-1.4-5.3c-0.9-2-3.3-4-4.7-5.8c-2.4-2.9-14.5-20.1-11.5-26.8c0.9-0.2,2.3,0,3.2,0.2c2.5,1.3,4.2,2.2,13.7,9.2
					c0.2,0.2,0.5,0.5,0.8,0.6l0,0l0,0c1,12.7,1.5,16.6,4.5,28.8c6.4,21.2,17.1,33.5,22.3,35.1c0,0,0,0,0,0c0,0,0,0,0,0c0,0,0,0,0,0
					c0,0,0,0,0,0c0,0,0,0,0,0c0,0,0,0,0,0c0,0,0,0,0,0c0,0,0,0,0,0c5,0.3,12.1-18.2,21.1-55c0.2,0.1,0.5,0.1,0.7,0.2l0,0
					C205.6,158.9,201.6,166.4,200.2,168.9"/>
			</g>
		</g>
		<linearGradient id="SVGID_4_" gradientUnits="userSpaceOnUse" x1="358.9692" y1="2.2476" x2="252.6436" y2="93.3838">
			<stop  offset="0" style="stop-color:#AAE1F9"/>
			<stop  offset="1" style="stop-color:#2F81C1"/>
		</linearGradient>
		<path class="st8" d="M281.9,99.4c-15.2-37-51.7-63-94.1-63c-4.6,0-9.1,0.3-13.6,0.9c49.8,6.6,88.2,49.3,88.2,100.9
			s-38.4,94.3-88.2,100.9c4.4,0.6,9,0.9,13.6,0.9c53,0,96.6-40.5,101.3-92.3C349.5,120.8,478.6,58.6,281.9,99.4z"/>

			<linearGradient id="SVGID_5_" gradientUnits="userSpaceOnUse" x1="-377.3294" y1="191.703" x2="-377.3294" y2="138.1459" gradientTransform="matrix(0.9634 -0.2681 0.2681 0.9634 483.3473 -186.7015)">
			<stop  offset="0" style="stop-color:#FFFFFF;stop-opacity:0"/>
			<stop  offset="0.8563" style="stop-color:#FFFFFF;stop-opacity:0.8563"/>
			<stop  offset="1" style="stop-color:#FFFFFF"/>
		</linearGradient>
		<path class="st9" d="M209.5,60.7c4,14.2-13.2,31.5-38.2,38.4s-48.6,1.1-52.6-13.2s13.2-31.5,38.2-38.4S205.5,46.4,209.5,60.7z"/>
		<path class="st1" d="M289.6,147c0,0,30.2-41.5,97-57.3C386.6,89.8,400.7,101.7,289.6,147z"/>
		<path class="st1" d="M289.6,147c0,0,87-26.6,74.3-28.6C351.1,116.4,314.3,122.5,289.6,147z"/>
	</g>
</g>
</svg>
