<?xml version="1.0" encoding="utf-8"?>
<!-- Generator: Adobe Illustrator 24.2.0, SVG Export Plug-In . SVG Version: 6.00 Build 0)  -->
<svg version="1.1" id="Layer_1" xmlns="http://www.w3.org/2000/svg" xmlns:xlink="http://www.w3.org/1999/xlink" x="0px" y="0px"
	 viewBox="0 0 400 400" style="enable-background:new 0 0 400 400;" xml:space="preserve">
<g>
	<g>
		<path style="fill:#FFFFFF;" d="M271.4,341.1c-41.6,0-75.5-33.9-75.5-75.5c0-16.2,5.2-31.4,14.1-43.9c-8.1,7.5-19,12.1-30.8,12.1
			c-25.1,0-45.5-20.4-45.5-45.5c0-4.2,0.6-8.3,1.7-12.3l-19.2-20.7c-0.7,0.3-1.4,0.6-2.1,0.8v71.2c13.3,7.9,21.8,22.3,21.8,38.2
			c0,24.4-19.9,44.3-44.3,44.3s-44.3-19.9-44.3-44.3c0-15.5,7.9-29.6,20.8-37.6v-72.2c-10.9-4.1-20.6-11.2-28-20.3
			c-9.5-11.8-14.8-26.6-14.8-41.7c0-36.6,29.8-66.4,66.4-66.4c36.6,0,66.4,29.8,66.4,66.4c0,10.8-2.6,21.2-7.5,30.7l18.2,19.6
			c3.4-0.8,7-1.2,10.6-1.2c3.7,0,7.3,0.4,10.9,1.3l39.4-40.4c-0.8-3.3-1.2-6.6-1.2-10c0-23.8,19.4-43.2,43.2-43.2
			s43.2,19.4,43.2,43.2c0,15.1-8,29.1-20.6,36.8v63c31.2,9.7,52.9,38.6,52.9,72c0,12.1-2.8,23.5-7.9,33.6
			c-3.1,6.2,48.4,62.1,43.7,67.3c-5,5.5-66.2-39.9-72.5-36.1C298.8,337.2,285.6,341.1,271.4,341.1z M223,176.4
			c1.1,3.9,1.6,7.9,1.6,12c0,9-2.6,17.4-7.2,24.5c8.3-8.5,18.6-15.1,30.3-18.9V151L223,176.4z"/>
	</g>
	<g>
		<g>
			<linearGradient id="SVGID_1_" gradientUnits="userSpaceOnUse" x1="269.767" y1="266.9187" x2="269.767" y2="95.1215">
				<stop  offset="0" style="stop-color:#2E3192"/>
				<stop  offset="1" style="stop-color:#662D91"/>
			</linearGradient>
			<path style="fill:url(#SVGID_1_);" d="M269.8,266.9L269.8,266.9c-6.4,0-11.5-5.2-11.5-11.5V106.7c0-6.4,5.2-11.5,11.5-11.5h0
				c6.4,0,11.5,5.2,11.5,11.5v148.7C281.3,261.8,276.1,266.9,269.8,266.9z"/>
		</g>
		<g>
			<linearGradient id="SVGID_2_" gradientUnits="userSpaceOnUse" x1="223.6472" y1="197.7195" x2="223.6472" y2="87.0696">
				<stop  offset="0" style="stop-color:#2E3192"/>
				<stop  offset="1" style="stop-color:#662D91"/>
			</linearGradient>
			<polygon style="fill:url(#SVGID_2_);" points="185.8,197.7 169.3,181.6 261.5,87.1 278,103.2 			"/>
		</g>
		<g>
			<linearGradient id="SVGID_3_" gradientUnits="userSpaceOnUse" x1="133.7125" y1="197.5056" x2="133.7125" y2="87.2835">
				<stop  offset="0" style="stop-color:#2E3192"/>
				<stop  offset="1" style="stop-color:#662D91"/>
			</linearGradient>
			<polygon style="fill:url(#SVGID_3_);" points="169.1,197.5 81.4,103 98.4,87.3 186,181.8 			"/>
		</g>
		<g>
			<circle style="fill:#93278F;" cx="90.4" cy="94.6" r="54.8"/>
		</g>
		<g>
			<ellipse style="fill:#841484;" cx="90.4" cy="110.7" rx="19.1" ry="17.9"/>
		</g>
		<g>
			<linearGradient id="SVGID_4_" gradientUnits="userSpaceOnUse" x1="89.8392" y1="95.1215" x2="89.8392" y2="44.3894">
				<stop  offset="0.3176" style="stop-color:#FFFFFF;stop-opacity:0"/>
				<stop  offset="1" style="stop-color:#FFFFFF"/>
			</linearGradient>
			<ellipse style="fill:url(#SVGID_4_);" cx="89.8" cy="69.8" rx="34.6" ry="25.4"/>
		</g>
		<g>
			<linearGradient id="SVGID_5_" gradientUnits="userSpaceOnUse" x1="89.8987" y1="266.9187" x2="89.8987" y2="104.3455">
				<stop  offset="0" style="stop-color:#2E3192"/>
				<stop  offset="1" style="stop-color:#662D91"/>
			</linearGradient>
			<path style="fill:url(#SVGID_5_);" d="M89.9,266.9L89.9,266.9c-6.4,0-11.5-4.9-11.5-10.9V115.3c0-6,5.2-10.9,11.5-10.9h0
				c6.4,0,11.5,4.9,11.5,10.9V256C101.4,262,96.3,266.9,89.9,266.9z"/>
		</g>
		<g>
			<circle style="fill:#662D91;" cx="270.3" cy="94.6" r="31.6"/>
		</g>
		<g>
			<circle style="fill:#29ABE2;" cx="178" cy="189.2" r="34"/>
		</g>
		<g>
			<circle style="fill:#0071BC;" cx="90.4" cy="266.4" r="32.8"/>
		</g>
		<g>
			<circle style="fill:#1B1464;" cx="270.3" cy="266.4" r="63.9"/>
		</g>
		<g>
			<path style="fill:#FFFFFF;" d="M226.1,292.8v-55.5h7.7v26.9l23.2-26.9h9.2l-23.9,27.5l25.5,28h-9.7l-24.3-27.5v27.5H226.1z"/>
			<path style="fill:#FFFFFF;" d="M298.6,236.3c3.1,0,6.1,0.3,8.9,0.8c2.8,0.5,5.4,1.3,7.7,2.5l-1.3,6.1c-2.4-0.9-4.9-1.7-7.5-2.2
				c-2.6-0.6-5.2-0.8-7.8-0.8c-6.9,0-12.3,2-16.2,6c-3.9,4-5.9,9.7-5.9,17.1c0,7.1,1.9,12.5,5.6,16.3c3.7,3.8,9.3,5.7,16.7,5.7
				c1.8,0,3.6-0.1,5.4-0.4c1.8-0.2,3.3-0.6,4.6-1v-18.1h7v22.4c-2.1,0.9-4.8,1.6-8.1,2.2c-3.3,0.6-6.6,0.9-9.8,0.9
				c-4.6,0-8.6-0.7-12.2-2c-3.6-1.4-6.7-3.3-9.2-5.7c-2.5-2.5-4.4-5.4-5.7-8.9c-1.3-3.4-2-7.2-2-11.4c0-4.3,0.7-8.3,2-11.9
				c1.4-3.6,3.3-6.7,5.9-9.3c2.6-2.6,5.7-4.6,9.3-6C289.8,237,294,236.3,298.6,236.3z"/>
		</g>
		<g>
			<linearGradient id="SVGID_6_" gradientUnits="userSpaceOnUse" x1="270.2986" y1="258.5577" x2="270.2986" y2="207.8257">
				<stop  offset="0.3176" style="stop-color:#FFFFFF;stop-opacity:0"/>
				<stop  offset="1" style="stop-color:#FFFFFF"/>
			</linearGradient>
			<ellipse style="fill:url(#SVGID_6_);" cx="270.3" cy="233.2" rx="34.6" ry="25.4"/>
		</g>
		<g>
			<linearGradient id="SVGID_7_" gradientUnits="userSpaceOnUse" x1="177.1864" y1="193.6613" x2="177.1864" y2="159.3996">
				<stop  offset="0.3176" style="stop-color:#FFFFFF;stop-opacity:0"/>
				<stop  offset="1" style="stop-color:#FFFFFF"/>
			</linearGradient>
			<ellipse style="fill:url(#SVGID_7_);" cx="177.2" cy="176.5" rx="23.4" ry="17.1"/>
		</g>
		<g>
			<linearGradient id="SVGID_8_" gradientUnits="userSpaceOnUse" x1="89.5583" y1="273.2185" x2="89.5583" y2="238.9567">
				<stop  offset="0.3176" style="stop-color:#FFFFFF;stop-opacity:0"/>
				<stop  offset="1" style="stop-color:#FFFFFF"/>
			</linearGradient>
			<ellipse style="fill:url(#SVGID_8_);" cx="89.6" cy="256.1" rx="23.4" ry="17.1"/>
		</g>
		<g>
			<linearGradient id="SVGID_9_" gradientUnits="userSpaceOnUse" x1="270.5796" y1="101.4212" x2="270.5796" y2="67.1594">
				<stop  offset="0.3176" style="stop-color:#FFFFFF;stop-opacity:0"/>
				<stop  offset="1" style="stop-color:#FFFFFF"/>
			</linearGradient>
			<ellipse style="fill:url(#SVGID_9_);" cx="270.6" cy="84.3" rx="23.4" ry="17.1"/>
		</g>
		<g>
			<ellipse style="fill:#0E91C4;" cx="177.8" cy="206.8" rx="17.1" ry="10.3"/>
		</g>
		<g>
			<ellipse style="fill:#046499;" cx="90.1" cy="285" rx="19.4" ry="11.6"/>
		</g>
	</g>
</g>
</svg>
