<?xml version="1.0" encoding="utf-8"?>
<!-- Generator: Adobe Illustrator 22.1.0, SVG Export Plug-In . SVG Version: 6.00 Build 0)  -->
<svg version="1.1" id="Design" xmlns="http://www.w3.org/2000/svg" xmlns:xlink="http://www.w3.org/1999/xlink" x="0px" y="0px"
	 viewBox="0 0 288 59.5" style="enable-background:new 0 0 288 59.5;" xml:space="preserve">
<style type="text/css">
	.st0{fill:none;stroke:#E1F4FF;stroke-width:0.25;stroke-miterlimit:10;}
	.st1{fill:none;stroke:#DCF2FF;stroke-width:0.25;stroke-miterlimit:10;}
	.st2{fill:none;stroke:#D7F0FF;stroke-width:0.25;stroke-miterlimit:10;}
	.st3{fill:none;stroke:#D3EEFF;stroke-width:0.25;stroke-miterlimit:10;}
	.st4{fill:none;stroke:#CEECFF;stroke-width:0.25;stroke-miterlimit:10;}
	.st5{fill:none;stroke:#C9EAFF;stroke-width:0.25;stroke-miterlimit:10;}
	.st6{fill:none;stroke:#C4E8FF;stroke-width:0.25;stroke-miterlimit:10;}
	.st7{fill:none;stroke:#BFE6FF;stroke-width:0.25;stroke-miterlimit:10;}
	.st8{fill:none;stroke:#BBE4FF;stroke-width:0.25;stroke-miterlimit:10;}
	.st9{fill:none;stroke:#B6E2FF;stroke-width:0.25;stroke-miterlimit:10;}
	.st10{fill:none;stroke:#B1E0FF;stroke-width:0.25;stroke-miterlimit:10;}
	.st11{fill:none;stroke:#ACDEFF;stroke-width:0.25;stroke-miterlimit:10;}
	.st12{fill:none;stroke:#A7DCFF;stroke-width:0.25;stroke-miterlimit:10;}
	.st13{fill:none;stroke:#A3DAFF;stroke-width:0.25;stroke-miterlimit:10;}
	.st14{fill:none;stroke:#9ED8FF;stroke-width:0.25;stroke-miterlimit:10;}
	.st15{fill:none;stroke:#99D6FF;stroke-width:0.25;stroke-miterlimit:10;}
	.st16{fill:none;stroke:#9FD9FF;stroke-width:0.2667;stroke-miterlimit:10;}
	.st17{fill:none;stroke:#A6DBFF;stroke-width:0.2833;stroke-miterlimit:10;}
	.st18{fill:none;stroke:#ACDEFF;stroke-width:0.3;stroke-miterlimit:10;}
	.st19{fill:none;stroke:#B2E0FF;stroke-width:0.3167;stroke-miterlimit:10;}
	.st20{fill:none;stroke:#B9E3FF;stroke-width:0.3333;stroke-miterlimit:10;}
	.st21{fill:none;stroke:#BFE6FF;stroke-width:0.35;stroke-miterlimit:10;}
	.st22{fill:none;stroke:#C5E8FF;stroke-width:0.3667;stroke-miterlimit:10;}
	.st23{fill:none;stroke:#CCEBFF;stroke-width:0.3833;stroke-miterlimit:10;}
	.st24{fill:none;stroke:#D2EDFF;stroke-width:0.4;stroke-miterlimit:10;}
	.st25{fill:none;stroke:#D8F0FF;stroke-width:0.4167;stroke-miterlimit:10;}
	.st26{fill:none;stroke:#DFF3FF;stroke-width:0.4333;stroke-miterlimit:10;}
	.st27{fill:none;stroke:#E5F5FF;stroke-width:0.45;stroke-miterlimit:10;}
	.st28{fill:none;stroke:#EBF8FF;stroke-width:0.4667;stroke-miterlimit:10;}
	.st29{fill:none;stroke:#F2FAFF;stroke-width:0.4833;stroke-miterlimit:10;}
	.st30{fill:none;stroke:#F8FDFF;stroke-width:0.5;stroke-miterlimit:10;}
	.st31{fill:none;stroke:#F5FBFF;stroke-width:0.75;stroke-miterlimit:10;}
	.st32{fill:none;stroke:#EFF9FF;stroke-width:0.7167;stroke-miterlimit:10;}
	.st33{fill:none;stroke:#E9F7FF;stroke-width:0.6833;stroke-miterlimit:10;}
	.st34{fill:none;stroke:#E3F5FE;stroke-width:0.65;stroke-miterlimit:10;}
	.st35{fill:none;stroke:#DEF4FE;stroke-width:0.6167;stroke-miterlimit:10;}
	.st36{fill:none;stroke:#D8F2FE;stroke-width:0.5833;stroke-miterlimit:10;}
	.st37{fill:none;stroke:#D2F0FE;stroke-width:0.55;stroke-miterlimit:10;}
	.st38{fill:none;stroke:#CCEEFE;stroke-width:0.5167;stroke-miterlimit:10;}
	.st39{fill:none;stroke:#C6ECFD;stroke-width:0.4833;stroke-miterlimit:10;}
	.st40{fill:none;stroke:#C0EAFD;stroke-width:0.45;stroke-miterlimit:10;}
	.st41{fill:none;stroke:#BAE8FD;stroke-width:0.4167;stroke-miterlimit:10;}
	.st42{fill:none;stroke:#B4E6FD;stroke-width:0.3833;stroke-miterlimit:10;}
	.st43{fill:none;stroke:#AFE5FD;stroke-width:0.35;stroke-miterlimit:10;}
	.st44{fill:none;stroke:#A9E3FC;stroke-width:0.3167;stroke-miterlimit:10;}
	.st45{fill:none;stroke:#A3E1FC;stroke-width:0.2833;stroke-miterlimit:10;}
	.st46{fill:none;stroke:#9DDFFC;stroke-width:0.25;stroke-miterlimit:10;}
	.st47{fill:none;stroke:#A0E0FC;stroke-width:0.25;stroke-miterlimit:10;}
	.st48{fill:none;stroke:#A3E0FC;stroke-width:0.25;stroke-miterlimit:10;}
	.st49{fill:none;stroke:#A6E1FD;stroke-width:0.25;stroke-miterlimit:10;}
	.st50{fill:none;stroke:#A9E2FD;stroke-width:0.25;stroke-miterlimit:10;}
	.st51{fill:none;stroke:#ACE3FD;stroke-width:0.25;stroke-miterlimit:10;}
	.st52{fill:none;stroke:#AFE3FD;stroke-width:0.25;stroke-miterlimit:10;}
	.st53{fill:none;stroke:#B2E4FD;stroke-width:0.25;stroke-miterlimit:10;}
	.st54{fill:none;stroke:#B4E5FE;stroke-width:0.25;stroke-miterlimit:10;}
	.st55{fill:none;stroke:#B7E6FE;stroke-width:0.25;stroke-miterlimit:10;}
	.st56{fill:none;stroke:#BAE6FE;stroke-width:0.25;stroke-miterlimit:10;}
	.st57{fill:none;stroke:#BDE7FE;stroke-width:0.25;stroke-miterlimit:10;}
	.st58{fill:none;stroke:#C0E8FE;stroke-width:0.25;stroke-miterlimit:10;}
	.st59{fill:none;stroke:#C3E9FF;stroke-width:0.25;stroke-miterlimit:10;}
	.st60{fill:none;stroke:#C6E9FF;stroke-width:0.25;stroke-miterlimit:10;}
	.st61{fill:none;stroke:#CDF0FC;stroke-width:0.25;stroke-miterlimit:10;}
	.st62{fill:none;stroke:#CFF3FF;stroke-width:0.25;stroke-miterlimit:10;}
	.st63{fill:none;stroke:#9DDFFC;stroke-width:0.75;stroke-miterlimit:10;}
	.st64{fill:none;stroke:#4DADE8;stroke-width:0.25;stroke-miterlimit:10;}
</style>
<g>
	<path class="st0" d="M0,59.5c0,0,27.1-24.8,108.4-35.5s124.3-1,179.3,18.7"/>
	<path class="st1" d="M0,58.2c0,0,27.1-23.6,108.4-34.3s124.3-1.7,179.3,18"/>
	<path class="st2" d="M0,56.9c0,0,27.1-22.4,108.4-33s124.3-2.4,179.3,17.3"/>
	<path class="st3" d="M-0.1,55.6c0,0,27.1-21.1,108.4-31.8s124.3-3,179.3,16.7"/>
	<path class="st4" d="M-0.1,54.3c0,0,27.1-19.9,108.5-30.6s124.3-3.7,179.3,16"/>
	<path class="st5" d="M-0.1,53c0,0,27.2-18.7,108.5-29.3S232.7,19.3,287.7,39"/>
	<path class="st6" d="M-0.1,51.7c0,0,27.2-17.4,108.5-28.1s124.3-5,179.3,14.7"/>
	<path class="st7" d="M-0.1,50.4c0,0,27.2-16.2,108.5-26.9s124.3-5.7,179.3,14"/>
	<path class="st8" d="M-0.1,49.1c0,0,27.2-15,108.5-25.6s124.3-6.4,179.3,13.3"/>
	<path class="st9" d="M-0.2,47.9c0,0,27.2-13.7,108.6-24.4s124.3-7,179.3,12.7"/>
	<path class="st10" d="M-0.2,46.6c0,0,27.2-12.5,108.6-23.2s124.3-7.7,179.3,12"/>
	<path class="st11" d="M-0.2,45.3c0,0,27.3-11.3,108.6-21.9S232.7,15,287.7,34.7"/>
	<path class="st12" d="M-0.2,44.1c0,0,27.3-10,108.6-20.7s124.3-9,179.3,10.7"/>
	<path class="st13" d="M-0.2,42.8c0,0,27.3-8.8,108.6-19.5s124.3-9.7,179.3,10"/>
	<path class="st14" d="M-0.3,41.6c0,0,27.3-7.6,108.6-18.2S232.7,13,287.7,32.7"/>
	<path class="st15" d="M-0.3,40.3c0,0,27.3-6.3,108.7-17s124.3-11,179.3,8.7"/>
	<path class="st15" d="M-0.3,38.8c0,0,27.3-4.4,108.7-15.1s124.3-11.7,179.3,8"/>
	<path class="st15" d="M-0.3,37.3c0,0,27.3-2.5,108.7-13.1s124.3-12.4,179.3,7.3"/>
	<path class="st15" d="M-0.3,35.8c0,0,27.3-0.5,108.7-11.2s124.3-13,179.3,6.7"/>
	<path class="st15" d="M-0.3,34.3c0,0,27.3,1.4,108.7-9.3s124.3-13.7,179.3,6"/>
	<path class="st15" d="M-0.3,32.5c0,0,27.3,3.3,108.7-7.3s124.3-14.4,179.3,5.3"/>
	<path class="st15" d="M-0.3,30.6c0,0,27.3,5.3,108.7-5.4s124.3-15,179.3,4.7"/>
	<path class="st15" d="M-0.3,28.6c0,0,27.3,7.2,108.7-3.5s124.3-15.7,179.3,4"/>
	<path class="st15" d="M-0.3,26.5c0,0,27.3,9.1,108.7-1.5s124.3-16.4,179.3,3.3"/>
	<path class="st15" d="M-0.3,24.3c0,0,27.3,11.1,108.7,0.4s124.3-17,179.3,2.7"/>
	<path class="st15" d="M-0.3,22.1c0,0,27.3,13,108.7,2.3s124.3-17.7,179.3,2"/>
	<path class="st15" d="M-0.3,19.9c0,0,27.3,14.9,108.7,4.3s124.3-18.4,179.3,1.3"/>
	<path class="st15" d="M-0.3,17.6c0,0,27.3,16.9,108.7,6.2s124.3-19,179.3,0.7"/>
	<path class="st15" d="M-0.3,15.3c0,0,27.3,18.8,108.7,8.1s124.3-19.7,179.3,0"/>
	<path class="st15" d="M-0.3,13c0,0,27.3,20.7,108.7,10.1s124.3-20.4,179.3-0.7"/>
	<path class="st15" d="M-0.3,10.7c0,0,27.3,22.7,108.7,12s124.3-21,179.3-1.3"/>
	<path class="st16" d="M-0.3,9.9c0,0,27.3,23.1,108.7,12.5s124.3-21.5,179.3-1.8"/>
	<path class="st17" d="M-0.3,9.1c0,0,27.3,23.6,108.7,12.9s124.3-22,179.3-2.3"/>
	<path class="st18" d="M-0.3,8.4c0,0,27.3,24.1,108.7,13.4S232.7-0.6,287.7,19"/>
	<path class="st19" d="M-0.3,7.7c0,0,27.3,24.5,108.7,13.9s124.3-22.9,179.3-3.2"/>
	<path class="st20" d="M-0.3,7c0,0,27.3,25,108.7,14.3S232.7-2,287.7,17.6"/>
	<path class="st21" d="M-0.3,6.3c0,0,27.3,25.5,108.7,14.8s124.3-23.8,179.3-4.1"/>
	<path class="st22" d="M-0.3,5.6c0,0,27.3,25.9,108.7,15.3s124.3-24.3,179.3-4.6"/>
	<path class="st23" d="M-0.3,4.9c0,0,27.3,26.4,108.7,15.7s124.3-24.8,179.3-5.1"/>
	<path class="st24" d="M-0.3,4.2c0,0,27.3,26.9,108.7,16.2s124.3-25.2,179.3-5.5"/>
	<path class="st25" d="M-0.3,3.5c0,0,27.3,27.3,108.7,16.7s124.3-25.7,179.3-6"/>
	<path class="st26" d="M-0.3,2.9c0,0,27.3,27.8,108.7,17.1s124.3-26.2,179.3-6.5"/>
	<path class="st27" d="M-0.3,2.1c0,0,27.3,28.3,108.7,17.6s124.3-26.6,179.3-6.9"/>
	<path class="st28" d="M-0.3,1.4c0,0,27.3,28.7,108.7,18.1s124.3-27.1,179.3-7.4"/>
	<path class="st29" d="M-0.3,0.7c0,0,27.3,29.2,108.7,18.5s124.3-27.6,179.3-7.9"/>
	<path class="st30" d="M-0.3,0c0,0,27.3,29.7,108.7,19s124.3-28,179.3-8.3"/>
</g>
<g>
	<path class="st31" d="M-0.3,0c0,0,28.8,42.9,110.1,56.3S232.7,24.8,287.7,0"/>
	<path class="st32" d="M-0.2,0.5c0,0,28.9,39.4,110,53.4c81.1,14,123-27.9,178-52.7"/>
	<path class="st33" d="M-0.1,0.9c0,0,29,36,109.8,50.5c80.9,14.6,123-24.3,178-49.2"/>
	<path class="st34" d="M0,1.3c0,0,29.2,32.5,109.7,47.6c80.7,15.2,123.1-20.8,178.1-45.6"/>
	<path class="st35" d="M0.1,1.7c0,0,29.3,29,109.5,44.7c80.5,15.7,123.1-17.2,178.1-42"/>
	<path class="st36" d="M0.2,2c0,0,29.4,25.6,109.4,41.8c80.3,16.3,123.2-13.6,178.2-38.4"/>
	<path class="st37" d="M0.2,2.3c0,0,29.5,22.1,109.3,38.9c80.1,16.9,123.2-10,178.2-34.8"/>
	<path class="st38" d="M0.3,2.6c0,0,29.7,18.7,109.1,36C189.4,56,232.7,32.1,287.7,7.3"/>
	<path class="st39" d="M0.4,2.8c0,0,29.8,15.2,109,33.1c79.7,18,123.3-2.9,178.3-27.7"/>
	<path class="st40" d="M0.5,3c0,0,29.9,11.7,108.8,30.2C188.8,51.7,232.7,33.9,287.7,9"/>
	<path class="st41" d="M0.6,3.1c0,0,30,8.3,108.7,27.2c79.3,19.1,123.5,4.3,178.5-20.5"/>
	<path class="st42" d="M0.7,3.1c0,0,30.2,4.8,108.6,24.3c79.1,19.7,123.5,7.9,178.5-16.9"/>
	<path class="st43" d="M0.7,3.1c0,0,30.3,1.4,108.4,21.4C188.1,44.8,232.7,36,287.7,11.2"/>
	<path class="st44" d="M0.8,3c0,0,30.4-2.1,108.3,18.5c78.7,20.9,123.6,15,178.6-9.8"/>
	<path class="st45" d="M0.9,3.1c0,0,30.5-5.6,108.1,15.6c78.5,21.4,123.7,18.6,178.7-6.2"/>
	<path class="st46" d="M1,3.3c0,0,30.7-9,108,12.7c78.3,22,123.7,22.2,178.7-2.6"/>
	<path class="st47" d="M0.9,5.6c0,0,30.4-10.3,108,10.9c78.5,21.4,123.8,22.5,178.8-2.3"/>
	<path class="st48" d="M0.8,7.9c0,0,30.2-11.6,108.1,9c78.7,20.9,123.8,22.8,178.8-2"/>
	<path class="st49" d="M0.7,10.2c0,0,30-12.9,108.1,7.1c78.9,20.3,123.8,23.1,178.8-1.7"/>
	<path class="st50" d="M0.7,12.6c0,0,29.8-14.2,108.2,5.3c79.1,19.7,123.9,23.3,178.9-1.5"/>
	<path class="st51" d="M0.6,15c0,0,29.6-15.5,108.2,3.4c79.3,19.1,123.9,23.6,178.9-1.2"/>
	<path class="st52" d="M0.5,17.4c0,0,29.3-16.8,108.3,1.6c79.5,18.6,124,23.9,179-0.9"/>
	<path class="st53" d="M0.4,19.9c0,0,29.1-18.1,108.3-0.3c79.7,18,124,24.2,179-0.6"/>
	<path class="st54" d="M0.3,22.4c0,0,28.9-19.5,108.4-2.1c79.9,17.4,124.1,24.5,179.1-0.3"/>
	<path class="st55" d="M0.2,24.9c0,0,28.7-20.8,108.4-4c80.1,16.9,124.1,24.8,179.1,0"/>
	<path class="st56" d="M0.2,27.4c0,0,28.4-22.1,108.4-5.8c80.3,16.3,124.1,25.1,179.1,0.3"/>
	<path class="st57" d="M0.1,30c0,0,28.2-23.4,108.5-7.7c80.5,15.7,124.2,25.4,179.2,0.5"/>
	<path class="st58" d="M0,32.5c0,0,28-24.7,108.5-9.6c80.7,15.2,124.2,25.6,179.2,0.8"/>
	<path class="st59" d="M-0.1,35.1c0,0,27.8-26,108.6-11.4c80.9,14.6,124.3,25.9,179.3,1.1"/>
	<path class="st60" d="M-0.2,37.7c0,0,27.6-27.3,108.6-13.3c81.1,14,124.3,26.2,179.3,1.4"/>
	<path class="st5" d="M-0.3,40.3c0,0,27.3-28.6,108.7-15.1s124.3,26.5,179.3,1.7"/>
	<path class="st5" d="M-0.3,41.3c0,0,27.3-29.2,108.7-15.7s124.3,27.1,179.3,2.3"/>
	<path class="st5" d="M-0.3,42.3c0,0,27.3-29.8,108.7-16.3s124.3,27.7,179.3,2.9"/>
	<path class="st5" d="M-0.3,43.2c0,0,27.3-30.3,108.7-16.9s124.3,28.3,179.3,3.5"/>
	<path class="st5" d="M-0.3,44.1c0,0,27.3-30.9,108.7-17.5s124.3,28.9,179.3,4"/>
	<path class="st5" d="M-0.3,45c0,0,27.3-31.5,108.7-18.1s124.3,29.4,179.3,4.6"/>
	<path class="st5" d="M-0.3,45.9c0,0,27.3-32.1,108.7-18.7s124.3,30,179.3,5.2"/>
	<path class="st5" d="M-0.3,46.7c0,0,27.3-32.7,108.7-19.3s124.3,30.6,179.3,5.8"/>
	<path class="st5" d="M-0.3,47.6c0,0,27.3-33.3,108.7-19.8S232.7,59,287.7,34.2"/>
	<path class="st5" d="M-0.3,48.5c0,0,27.3-33.9,108.7-20.4s124.3,31.8,179.3,7"/>
	<path class="st5" d="M-0.3,49.4c0,0,27.3-34.5,108.7-21s124.3,32.4,179.3,7.6"/>
	<path class="st5" d="M-0.3,50.2c0,0,27.3-35.1,108.7-21.6s124.3,33,179.3,8.2"/>
	<path class="st5" d="M-0.3,51.1c0,0,27.3-35.6,108.7-22.2s124.3,33.6,179.3,8.8"/>
	<path class="st5" d="M-0.3,52c0,0,27.3-36.2,108.7-22.8s124.3,34.2,179.3,9.3"/>
	<path class="st5" d="M-0.3,52.9c0,0,27.3-36.8,108.7-23.4s124.3,34.7,179.3,9.9"/>
	<path class="st5" d="M-0.3,53.8c0,0,27.3-37.4,108.7-24s124.3,35.3,179.3,10.5"/>
</g>
<circle class="st61" cx="73" cy="37.2" r="4.5"/>
<circle class="st62" cx="110" cy="16.1" r="10"/>
<circle class="st63" cx="195.2" cy="32.3" r="5.2"/>
<circle class="st46" cx="159.2" cy="44" r="2"/>
<circle class="st63" cx="109.2" cy="16.2" r="3.3"/>
<circle class="st46" cx="25.5" cy="45" r="5.2"/>
<circle class="st46" cx="238" cy="7.8" r="4.4"/>
<circle class="st46" cx="242.4" cy="36" r="10.1"/>
<polyline class="st64" points="0,59.5 25.5,45 73,37.2 109.2,16.2 159.2,44 195.2,32.3 242.4,36 238,7.8 287.7,48.5 "/>
<line class="st64" x1="109.2" y1="16.2" x2="157.2" y2="0"/>
<line class="st64" x1="238" y1="7.8" x2="287.7" y2="8.1"/>
<line class="st64" x1="195.2" y1="32.3" x2="213.5" y2="0"/>
<line class="st64" x1="25.5" y1="45" x2="-0.3" y2="19.6"/>
</svg>
