<?xml version="1.0" encoding="utf-8"?>
<!-- Generator: Adobe Illustrator 22.0.1, SVG Export Plug-In . SVG Version: 6.00 Build 0)  -->
<svg version="1.1" id="Layer_1" xmlns="http://www.w3.org/2000/svg" xmlns:xlink="http://www.w3.org/1999/xlink" x="0px" y="0px"
	 viewBox="0 0 400 400" style="enable-background:new 0 0 400 400;" xml:space="preserve">
<style type="text/css">
	.st0{fill:#273238;}
	.st1{fill:none;stroke:#AAE1F9;stroke-width:3;stroke-linecap:round;stroke-miterlimit:10;stroke-dasharray:25;}
	.st2{fill:none;stroke:#AAE1F9;stroke-width:3;stroke-linecap:round;stroke-miterlimit:10;stroke-dasharray:46;}
	.st3{fill:#2F81C1;}
	.st4{fill:none;stroke:#2F81C1;stroke-width:2;stroke-miterlimit:10;}
	.st5{fill:none;stroke:#273238;stroke-width:3;stroke-miterlimit:10;}
</style>
<g>
	<path class="st0" d="M152.5,191c0,0.3-0.1,0.5-0.3,0.8c-0.2,0.2-0.4,0.3-0.7,0.3h-2.2c-1.8,0-3.4,0.6-4.8,1.9
		c-1.4,1.2-2.3,2.7-2.5,4.5h10.5v0.7c0,2.6-0.9,4.9-2.8,6.9c-1.9,2.1-4.1,3.2-6.7,3.2c-0.3,0-0.6,0-1.1,0c-0.5,0-0.9,0-1.2,0
		c-0.3,0-0.5-0.1-0.7-0.3c-0.2-0.2-0.3-0.5-0.3-0.7s0.1-0.5,0.3-0.7c0.2-0.2,0.5-0.3,0.7-0.3c0.3,0,0.6,0,1.1,0c0.5,0,0.9,0,1.1,0
		c1.8,0,3.3-0.7,4.7-2c1.4-1.3,2.2-2.9,2.5-4.6h-10.4v-1c0-2.5,0.9-4.8,2.8-6.7c1.9-1.9,4.1-2.9,6.7-2.9h2.2c0.3,0,0.5,0.1,0.7,0.3
		C152.4,190.4,152.5,190.7,152.5,191z"/>
	<path class="st0" d="M181.2,208.1c0,0.3-0.1,0.5-0.3,0.8c-0.2,0.2-0.5,0.3-0.8,0.3c-0.3,0-0.6-0.1-0.8-0.3
		c-0.2-0.2-0.3-0.4-0.3-0.7v-6.1c0-1.5-0.5-2.7-1.5-3.7c-1-1-2.3-1.6-3.7-1.6c-1.1,0-2.1,0.3-3,0.9c-0.9,0.6-1.5,1.4-1.9,2.4
		c-0.2,0.5-0.3,0.9-0.3,1.2c0,0.8,0,1.9,0,3.3c0,1.6,0,2.7,0,3.3c0,0.3-0.1,0.6-0.3,0.9c-0.2,0.3-0.5,0.4-0.8,0.4s-0.5-0.1-0.8-0.3
		c-0.2-0.2-0.3-0.5-0.3-0.7v-6.1c0-0.1,0-0.2,0-0.4c0-0.2,0-0.3,0-0.4c0-0.3-0.1-0.7-0.3-1.2c-0.4-1-1-1.9-1.9-2.5
		c-0.9-0.6-1.9-1-3-1c-1.5,0-2.7,0.5-3.8,1.6c-1,1-1.5,2.3-1.5,3.7c0,0,0,2,0,6c0,0.3-0.1,0.6-0.3,0.8s-0.5,0.3-0.8,0.3
		s-0.5-0.1-0.7-0.3c-0.2-0.2-0.3-0.5-0.3-0.7v-6.1c0-2,0.7-3.8,2.2-5.2c1.4-1.4,3.2-2.2,5.2-2.2c1.3,0,2.5,0.3,3.6,1
		c1.1,0.6,2,1.5,2.7,2.6c0.7-1.1,1.5-1.9,2.6-2.5c1.1-0.6,2.3-0.9,3.6-0.9c2.1,0,3.8,0.7,5.3,2.2c1.5,1.5,2.2,3.2,2.2,5.2
		L181.2,208.1z"/>
	<path class="st0" d="M197.4,208.1c0,0.3-0.1,0.6-0.3,0.7c-0.2,0.2-0.5,0.3-0.8,0.3c-0.5,0-0.9-0.3-1-0.9c0-0.1,0-0.6,0-1.5
		c-1.5,1.6-3.2,2.4-5.3,2.4c-2.1,0-3.8-0.7-5.3-2.2c-1.5-1.5-2.2-3.2-2.2-5.3c0-2,0.7-3.8,2.2-5.2c1.5-1.5,3.2-2.2,5.3-2.2
		c2,0,3.8,0.7,5.2,2.2c1.5,1.5,2.2,3.2,2.2,5.2V208.1z M195.3,201.6c0-1.5-0.5-2.7-1.5-3.7c-1-1-2.3-1.6-3.7-1.6
		c-1.5,0-2.7,0.5-3.7,1.6c-1,1-1.5,2.3-1.5,3.7c0,1.5,0.5,2.7,1.5,3.7c1,1,2.3,1.5,3.7,1.5c1.5,0,2.7-0.5,3.7-1.5
		C194.8,204.3,195.3,203.1,195.3,201.6z"/>
	<path class="st0" d="M206.1,194.2h1.9c0.3,0,0.5,0.1,0.8,0.3c0.2,0.2,0.3,0.5,0.3,0.7c0,0.3-0.1,0.6-0.3,0.8
		c-0.2,0.2-0.5,0.3-0.7,0.3c-0.2,0-0.6,0-1,0c-0.4,0-0.7,0-0.9,0c-1.5,0-2.7,0.5-3.8,1.6c-1,1-1.5,2.3-1.5,3.7v6.3
		c0,0.3-0.1,0.5-0.3,0.7c-0.2,0.2-0.5,0.3-0.8,0.3c-0.7,0-1.1-0.3-1.1-1v-6.3c0-2,0.7-3.8,2.2-5.2
		C202.3,195,204.1,194.2,206.1,194.2h1.9H206.1z"/>
	<path class="st0" d="M221.1,208.1c0,0.7-0.3,1-1,1.1c-0.9,0-1.5,0.1-1.9,0.1c-2.1,0-3.8-0.7-5.3-2.1c-1.5-1.4-2.2-3.1-2.2-5.1
		v-10.2c0-0.3,0.1-0.5,0.3-0.7c0.2-0.2,0.5-0.3,0.7-0.3s0.5,0.1,0.7,0.3c0.2,0.2,0.3,0.5,0.3,0.8v2.6h7.2c0.7,0,1,0.4,1,1.1
		c0,0.3-0.1,0.6-0.3,0.8c-0.2,0.2-0.5,0.3-0.8,0.3h-7.1v5.2c0,1.4,0.5,2.7,1.6,3.7c1,1,2.3,1.5,3.8,1.5c0.2,0,0.5,0,0.9,0
		c0.4,0,0.7,0,0.9,0c0.3,0,0.5,0.1,0.8,0.3C220.9,207.5,221.1,207.8,221.1,208.1z"/>
	<path class="st0" d="M240.5,207.9c0,0.3-0.1,0.5-0.3,0.7c-0.2,0.2-0.5,0.3-0.7,0.3s-0.5-0.1-0.7-0.3c-0.2-0.2-0.3-0.5-0.3-0.7v-6.5
		h-14.2v6.5c0,0.3-0.1,0.5-0.3,0.7c-0.2,0.2-0.4,0.3-0.7,0.3s-0.5-0.1-0.7-0.3c-0.2-0.2-0.3-0.4-0.3-0.7v-8.7c0-2.5,0.9-4.7,2.7-6.5
		c1.8-1.8,4-2.7,6.5-2.7s4.7,0.9,6.5,2.7c1.8,1.8,2.7,4,2.7,6.5V207.9z M238.4,199.3c0-1.9-0.7-3.6-2.1-5c-1.4-1.4-3.1-2.1-5-2.1
		c-2,0-3.6,0.7-5,2.1c-1.4,1.4-2.1,3.1-2.1,5H238.4z"/>
	<path class="st0" d="M252.5,196.8c0,2.1-0.9,3.8-2.8,5.1c-1.7,1.1-3.6,1.7-5.8,1.7v4.3c0,0.3-0.1,0.5-0.3,0.7
		c-0.2,0.2-0.5,0.3-0.7,0.3c-0.3,0-0.5-0.1-0.7-0.3c-0.2-0.2-0.3-0.4-0.3-0.7v-17c0-0.5,0.3-0.9,0.9-1c0.2,0,0.7-0.1,1.5-0.1
		c2.2,0,4.2,0.6,5.7,1.7C251.7,192.9,252.5,194.6,252.5,196.8z M250.4,196.8c0-1.7-0.7-3-2.1-3.8c-1.1-0.7-2.6-1-4.4-1l0.1,9.5
		c1.8,0,3.2-0.3,4.3-1C249.7,199.7,250.4,198.5,250.4,196.8z"/>
	<path class="st0" d="M256,207.9c0,0.3-0.1,0.5-0.3,0.7c-0.2,0.2-0.5,0.3-0.7,0.3c-0.3,0-0.5-0.1-0.7-0.3c-0.2-0.2-0.3-0.5-0.3-0.7
		V191c0-0.3,0.1-0.5,0.3-0.7c0.2-0.2,0.5-0.3,0.7-0.3c0.3,0,0.5,0.1,0.7,0.3c0.2,0.2,0.3,0.5,0.3,0.7V207.9z"/>
</g>
<circle class="st1" cx="199.5" cy="200.5" r="105"/>
<circle class="st1" cx="199.5" cy="199.5" r="165.2"/>
<circle class="st2" cx="199.5" cy="200.5" r="134"/>
<circle class="st3" cx="107.5" cy="91.5" r="15"/>
<line class="st4" x1="107" y1="91" x2="145" y2="138"/>
<line class="st4" x1="255" y1="138" x2="318" y2="67"/>
<line class="st4" x1="126" y1="239" x2="25" y2="291"/>
<line class="st4" x1="199" y1="283" x2="199" y2="363"/>
<line class="st4" x1="272" y1="240" x2="320" y2="271"/>
<line class="st4" x1="281" y1="183" x2="342" y2="175"/>
<line class="st4" x1="205" y1="118" x2="210" y2="21"/>
<line class="st4" x1="116" y1="187" x2="33" y2="174"/>
<line class="st4" x1="241" y1="273" x2="296" y2="359"/>
<line class="st4" x1="159" y1="273" x2="139" y2="305"/>
<circle class="st3" cx="33" cy="174" r="17"/>
<circle class="st3" cx="210" cy="21" r="11"/>
<circle class="st3" cx="25" cy="291" r="14"/>
<circle class="st3" cx="139" cy="305" r="23"/>
<circle class="st3" cx="199" cy="363" r="6"/>
<circle class="st3" cx="320" cy="271" r="29"/>
<circle class="st3" cx="296" cy="359" r="12"/>
<circle class="st3" cx="342" cy="175" r="12"/>
<circle class="st3" cx="318" cy="67" r="23"/>
<circle class="st5" cx="199.5" cy="200.5" r="83"/>
<line class="st4" x1="109" y1="93" x2="25" y2="291"/>
<line class="st4" x1="33" y1="174" x2="199" y2="363"/>
<line class="st4" x1="318" y1="67" x2="342" y2="175"/>
<line class="st4" x1="210" y1="21" x2="342" y2="175"/>
<line class="st4" x1="318" y1="67" x2="320" y2="271"/>
<line class="st4" x1="296" y1="359" x2="139" y2="305"/>
<line class="st4" x1="199" y1="363" x2="320" y2="271"/>
<line class="st4" x1="107" y1="92" x2="318" y2="67"/>
<line class="st4" x1="210" y1="21" x2="25" y2="291"/>
</svg>
