<?xml version="1.0" encoding="utf-8"?>
<!-- Generator: Adobe Illustrator 22.0.1, SVG Export Plug-In . SVG Version: 6.00 Build 0)  -->
<svg version="1.1" id="Layer_1" xmlns="http://www.w3.org/2000/svg" xmlns:xlink="http://www.w3.org/1999/xlink" x="0px" y="0px"
	 viewBox="0 0 400 400" style="enable-background:new 0 0 400 400;" xml:space="preserve">
<style type="text/css">
	.st0{fill:#2F81C1;}
	.st1{fill:none;stroke:#AAE1F9;stroke-width:6;stroke-miterlimit:10;}
</style>
<g>
	<polygon class="st0" points="355.7,254 206.8,195.9 283.5,191 283.5,190 206.4,194.9 308.8,129.9 308.2,129.1 205.5,194.3 
		233.7,116.9 233.7,117 327.7,73 327.3,72 287.2,90.8 293,64.6 292,64.4 286,91.4 234.1,115.7 244,88.7 243,88.3 204.6,193.7 
		164,17.4 163,17.6 203.9,194.9 141.6,188 141.4,189 203.2,195.9 137.4,245 67.6,224 67.4,225 136.4,245.7 58.2,304.1 58.8,304.9 
		203.8,196.6 180,377.4 181,377.6 192.4,291.1 243.1,345.8 243.9,345.2 192.9,290.2 192.5,290.5 204.8,196.8 277.1,297.8 
		277.9,297.2 205.9,196.6 355.3,255 	"/>
</g>
<circle class="st1" cx="308.5" cy="129.5" r="22"/>
<circle class="st1" cx="205.5" cy="192.5" r="32"/>
<circle class="st1" cx="58.5" cy="304.5" r="26"/>
<circle class="st1" cx="141.5" cy="188.5" r="12"/>
<circle class="st1" cx="243.5" cy="88.5" r="16"/>
<circle class="st1" cx="277.5" cy="297.5" r="28"/>
<circle class="st1" cx="180.5" cy="377.5" r="6"/>
<circle class="st1" cx="67.5" cy="224.5" r="14"/>
<circle class="st1" cx="163.5" cy="17.5" r="9"/>
<circle class="st1" cx="292.5" cy="64.5" r="8"/>
<circle class="st1" cx="327.5" cy="72.5" r="16"/>
<circle class="st1" cx="283.5" cy="190.5" r="14"/>
<circle class="st1" cx="353.5" cy="253.5" r="25"/>
<circle class="st1" cx="243.5" cy="345.5" r="19"/>
</svg>
