<?xml version="1.0" encoding="utf-8"?>
<!-- Generator: Adobe Illustrator 22.1.0, SVG Export Plug-In . SVG Version: 6.00 Build 0)  -->
<svg version="1.1" id="Layer_1" xmlns="http://www.w3.org/2000/svg" xmlns:xlink="http://www.w3.org/1999/xlink" x="0px" y="0px"
	 viewBox="0 0 432 90" style="enable-background:new 0 0 432 90;" xml:space="preserve">
<style type="text/css">
	.st0{fill:#FDB927;}
</style>
<g>
	<g>
		<g>
			<g>
				<path d="M259.6,48.1l6.3,11.6H260l-6-11.1h-4.5v11.1h-5.4v-30h11.7c6.3,0,10.2,3.6,10.2,9.4C266.1,43.6,263.7,46.8,259.6,48.1
					L259.6,48.1z M255.3,43.6c3.5,0,5.4-1.6,5.4-4.5c0-3-1.8-4.5-5.4-4.5h-5.8v9H255.3z"/>
			</g>
			<g>
				<path d="M268.1,48.3c0-7.1,4.3-12,10.6-12c6.3,0,10.5,4.8,10.5,11.7v1.8h-15.9c0.2,3.6,2.2,6,5.5,6c2.5,0,4.6-1.1,6.3-3.7
					l3.4,2.7c-2.1,3.6-5.4,5.4-9.7,5.4C272.4,60.3,268.1,55.5,268.1,48.3z M284,46.1c-0.2-3.2-2.1-5.3-5.4-5.3c-3,0-5.2,2.3-5.4,5.3
					H284z"/>
			</g>
			<g>
				<path d="M313.2,48.3c0-7.1,4.3-12,10.6-12c6.3,0,10.5,4.8,10.5,11.7v1.8h-15.9c0.2,3.6,2.2,6,5.5,6c2.5,0,4.6-1.1,6.3-3.7
					l3.4,2.7c-2.1,3.6-5.4,5.4-9.7,5.4C317.5,60.3,313.2,55.5,313.2,48.3z M329.2,46.1c-0.2-3.2-2.1-5.3-5.4-5.3
					c-3,0-5.2,2.3-5.4,5.3H329.2z"/>
			</g>
			<g>
				<path d="M291.3,52.2L296,51c0.7,3.4,2.4,4.9,5.7,4.9c2.5,0,4-0.9,4-2.3c0-1.9-2-2.7-5.4-3.8c-4.3-1.2-7.8-2.7-7.8-6.8
					c0-3.9,3.6-6.7,8.4-6.7c4.5,0,8.3,2.7,9.3,6.7l-4.7,1.3c-0.8-2.4-2.4-3.6-4.6-3.6c-2.1,0-3.5,0.9-3.5,2.3c0,1.3,1.6,1.9,4.5,2.7
					c4.6,1.3,8.7,3,8.7,7.7c0,4.2-3.5,6.9-8.9,6.9C295.9,60.3,292.1,57.4,291.3,52.2z"/>
			</g>
			<g>
				<path d="M337,53.7c0-3.8,2.3-5.9,8.1-7.2c3.8-0.9,5-1.7,5-3.1c0-1.6-1.4-2.6-3.6-2.6c-2.6,0-4.3,1.5-4.8,4l-4.8-1
					c0.7-4.5,4.6-7.4,9.6-7.4c5.5,0,8.9,3.1,8.9,8.2v15.1H351l-0.4-2h-0.1c-1.2,1.7-3.4,2.6-6.2,2.6C339.9,60.3,337,57.7,337,53.7z
					 M350.3,52v-3.9h-0.1c-0.4,0.8-1.5,1.4-3.9,2.1c-3.2,0.8-4.3,1.7-4.3,3.1c0,1.7,1.2,2.6,3.3,2.6C348.2,55.9,350.3,54.3,350.3,52
					z"/>
			</g>
			<g>
				<path d="M359.9,37h4.5l0.4,2h0.1c0.9-1.5,2.6-2.4,4.8-2.4c1,0,1.9,0.1,2.7,0.4l-0.9,5c-0.9-0.3-1.7-0.4-2.4-0.4
					c-2.6,0-4,1.8-4,5.4v12.7h-5.1V37z"/>
			</g>
			<g>
				<path d="M373,48.3c0-7.2,4.5-12,10.8-12c5.4,0,9.3,3.3,10.1,8.3l-4.9,0.9c-0.5-2.9-2.4-4.5-5.2-4.5c-3.5,0-5.7,2.8-5.7,7.3
					s2.2,7.3,5.7,7.3c2.9,0,4.7-1.6,5.2-4.5l4.9,0.9c-0.9,5.1-4.7,8.3-10.1,8.3C377.4,60.3,373,55.5,373,48.3z"/>
			</g>
			<g>
				<path d="M397.6,28.4h5.1V39h0.1c1.3-1.6,3.6-2.7,6-2.7c5.1,0,8.5,3.4,8.5,8.5v14.9h-5.1V45.9c0-3-1.7-4.8-4.7-4.8
					s-4.8,1.9-4.8,4.8v13.8h-5.1V28.4z"/>
			</g>
		</g>
		<g>
			<g>
				<path d="M86.3,49.8l5.3-1.1c0.7,4.8,2.9,6.7,7.4,6.7c3.3,0,5.4-1.4,5.4-3.6c0-2.4-1.6-3.7-7-5.4c-7.1-2.4-9.6-4.8-9.6-9.1
					c0-4.9,4.1-8.3,9.9-8.3c5.8,0,10.2,3.5,11.2,8.8l-5.2,1.1c-0.9-3.4-2.8-5-6-5c-2.8,0-4.6,1.3-4.6,3.4c0,1.8,1.4,2.8,6.1,4.3
					c7.6,2.6,10.5,5.4,10.5,10.2c0,5.1-4.4,8.5-10.8,8.5C91.6,60.3,87.2,56.7,86.3,49.8z"/>
			</g>
			<g>
				<path d="M112.2,48.3c0-7.2,4.5-12,10.8-12c5.4,0,9.3,3.3,10.1,8.3l-4.9,0.9c-0.5-2.9-2.4-4.5-5.2-4.5c-3.5,0-5.7,2.8-5.7,7.3
					s2.2,7.3,5.7,7.3c2.9,0,4.7-1.6,5.2-4.5l4.9,0.9c-0.9,5.1-4.7,8.3-10.1,8.3C116.7,60.3,112.2,55.5,112.2,48.3z"/>
			</g>
			<g>
				<path d="M136.8,37h4.5l0.4,2h0.1c0.9-1.5,2.6-2.4,4.8-2.4c1,0,1.9,0.1,2.7,0.4l-0.9,5c-0.9-0.3-1.7-0.4-2.4-0.4
					c-2.6,0-4,1.8-4,5.4v12.7h-5.1V37z"/>
			</g>
			<g>
				<path d="M152.1,37h5.1v22.7h-5.1V37z"/>
			</g>
			<g>
				<path d="M161.9,37h4.7l0.4,1.8h0.1c1.5-1.5,3.6-2.4,6.2-2.4c6,0,10.2,5,10.2,12s-4.2,12-10.2,12c-2.5,0-4.8-1-6.1-2.4h-0.1v11.4
					h-5.1V37z M178.3,48.3c0-4.5-2.2-7.3-5.8-7.3c-3.1,0-5.4,2.4-5.4,5.4v3.6c0,3.1,2.3,5.5,5.4,5.5
					C176.1,55.6,178.3,52.8,178.3,48.3z"/>
			</g>
			<g>
				<path d="M187.3,37h4.7l0.4,1.8h0.1c1.5-1.5,3.6-2.4,6.2-2.4c6,0,10.2,5,10.2,12s-4.2,12-10.2,12c-2.5,0-4.8-1-6.1-2.4h-0.1v11.4
					h-5.1V37z M203.7,48.3c0-4.5-2.2-7.3-5.8-7.3c-3.1,0-5.4,2.4-5.4,5.4v3.6c0,3.1,2.3,5.5,5.4,5.5
					C201.4,55.6,203.7,52.8,203.7,48.3z"/>
			</g>
			<g>
				<path d="M211,52.2l4.7-1.2c0.7,3.4,2.4,4.9,5.7,4.9c2.5,0,4-0.9,4-2.3c0-1.9-2-2.7-5.4-3.8c-4.3-1.2-7.8-2.7-7.8-6.8
					c0-3.9,3.6-6.7,8.4-6.7c4.5,0,8.3,2.7,9.3,6.7l-4.7,1.3c-0.8-2.4-2.4-3.6-4.6-3.6c-2.1,0-3.5,0.9-3.5,2.3c0,1.3,1.6,1.9,4.5,2.7
					c4.6,1.3,8.7,3,8.7,7.7c0,4.2-3.5,6.9-8.9,6.9C215.6,60.3,211.8,57.4,211,52.2z"/>
			</g>
			<g>
				<circle cx="154.6" cy="30.5" r="3.1"/>
			</g>
		</g>
	</g>
	<g>
		<path class="st0" d="M70.2,25.9c-2.1-3.7-5.2-5.8-8.7-5.8c-7.1,0-13.6,9.2-20.5,19c-1.3,1.8-2.6,3.7-3.9,5.5
			c-4.4-7.4-8.7-14.1-14.4-14.1c-3,0-5.5,1.5-7,4.1c-1.2,2-1.8,4.7-1.8,7.8c0,4,1.1,8.4,3,11.7c2.4,4.2,5.8,6.5,9.6,6.5
			c3.1,0,6.3-1.9,10.1-6c4.9,7.7,10.5,14.6,18.1,14.6c5.4,0,10.3-3.5,13.8-9.8c3-5.5,4.8-12.9,4.8-20.3
			C73.1,33.8,72.1,29.2,70.2,25.9z M67.3,39.2c0,13.2-5.8,24.3-12.7,24.3c-5,0-9.8-6.4-14.2-13.5c1.8-2.4,3.7-5,5.5-7.6
			c4.9-7,11.6-16.5,15.7-16.5C64.8,25.9,67.3,31.5,67.3,39.2z M20.7,37.6c0.5-0.9,1.1-1.2,2-1.2c2.6,0,7,7.3,10.2,12.6l0.3,0.5
			c-3,3.5-5.3,5.3-6.9,5.3c-3.7,0-6.7-6.8-6.7-12.4C19.7,40.5,20.1,38.7,20.7,37.6z"/>
	</g>
</g>
</svg>
