<?xml version="1.0" encoding="utf-8"?>
<!-- Generator: Adobe Illustrator 22.0.1, SVG Export Plug-In . SVG Version: 6.00 Build 0)  -->
<svg version="1.1" id="Layer_1" xmlns="http://www.w3.org/2000/svg" xmlns:xlink="http://www.w3.org/1999/xlink" x="0px" y="0px"
	 viewBox="0 0 60 60" style="enable-background:new 0 0 60 60;" xml:space="preserve">
<style type="text/css">
	.st0{fill:#AAE1F9;}
	.st1{fill:none;stroke:#2F81C1;stroke-miterlimit:10;}
	.st2{fill:none;stroke:#AAE1F9;stroke-miterlimit:10;}
</style>
<path class="st0" d="M51,46.7L43,33.4c5-3.9,6.4-11.1,3.1-16.7c-3.6-6.1-11.6-8.1-17.7-4.5c-6.1,3.6-8.1,11.6-4.5,17.7
	c3.5,5.9,11.1,8,17.1,4.8l7.9,13.2c0.3,0.6,1.1,0.7,1.6,0.4C51.1,48,51.3,47.2,51,46.7z"/>
<circle class="st1" cx="35" cy="23.1" r="11.9"/>
<line class="st2" x1="8" y1="8" x2="20.5" y2="8"/>
<circle class="st0" cx="5" cy="8" r="1"/>
<line class="st2" x1="8" y1="14" x2="20.5" y2="14"/>
<circle class="st0" cx="5" cy="14" r="1"/>
<line class="st2" x1="8" y1="19" x2="20.5" y2="19"/>
<circle class="st0" cx="5" cy="19" r="1"/>
<line class="st2" x1="8" y1="25" x2="20.5" y2="25"/>
<circle class="st0" cx="5" cy="25" r="1"/>
<line class="st2" x1="8" y1="31" x2="20.5" y2="31"/>
<circle class="st0" cx="5" cy="31" r="1"/>
<line class="st2" x1="8" y1="37" x2="20.5" y2="37"/>
<circle class="st0" cx="5" cy="37" r="1"/>
<line class="st2" x1="8" y1="43" x2="20.5" y2="43"/>
<circle class="st0" cx="5" cy="43" r="1"/>
<line class="st2" x1="8" y1="49" x2="20.5" y2="49"/>
<circle class="st0" cx="5" cy="49" r="1"/>
</svg>
