<?xml version="1.0" encoding="utf-8"?>
<!-- Generator: Adobe Illustrator 22.1.0, SVG Export Plug-In . SVG Version: 6.00 Build 0)  -->
<svg version="1.1" id="Layer_1" xmlns="http://www.w3.org/2000/svg" xmlns:xlink="http://www.w3.org/1999/xlink" x="0px" y="0px"
	 viewBox="0 0 200 200" style="enable-background:new 0 0 200 200;" xml:space="preserve">
<style type="text/css">
	.st0{fill:#B2E3F5;}
	.st1{fill:#3883BE;}
	.st2{enable-background:new    ;}
	.st3{fill:#2E7EBD;}
	.st4{fill:url(#SVGID_1_);}
	.st5{fill:#2F81C1;}
	#wand{
		fill: #3883BE;
	}
	@keyframes Ani {
    0% {
        transform: rotate(0deg);
				transform-origin: 0 50% 0;
    }
    50% {
        transform: rotate(-14deg);
				transform-origin: 0 50% 0;
    }
		100% {
        transform: rotate(0deg);
				transform-origin: 0 50% 0;
    }
}

		.Ani {
		    animation: Ani 3s ease-in-out;
		    -webkit-animation: Ani 3s ease-in-out;
				-webkit-animation-iteration-count: 1; /* Safari 4.0 - 8.0 */
				animation-iteration-count: 1;
		}
</style>
<g>
	<rect class="st0" width="200" height="200"/>
	<path class="st1" d="M161.7,87.5c-27.9,0-51.5,18.1-59.8,43.1c-11.7-5.3-105.4-47,1.2,43.1c0,0,0,0,0,0
		c4.3,10.9,11.6,20.4,20.9,27.3h75.3c0.1-0.1,0.3-0.2,0.4-0.3V100.3C189.2,92.2,176,87.5,161.7,87.5z"/>
	<g class="st2">
		<g class="st2">
			<g>
				<path class="st3" d="M104.6,123.5L104.6,123.5L104.6,123.5z"/>
			</g>
		</g>
		<g>

				<linearGradient id="SVGID_1_" gradientUnits="userSpaceOnUse" x1="146.9005" y1="2.7628" x2="146.9005" y2="86.8627" gradientTransform="matrix(1 0 0 -1 0 202)">
				<stop  offset="0" style="stop-color:#AAE1F9"/>
				<stop  offset="1" style="stop-color:#FFFFFF"/>
			</linearGradient>
			<path class="st4" d="M159,120.9c-3.6,0.7-6.4,1.5-12.5,6.9c-1.9,1.7-3.8,1.4-4.9,0.7c-0.9-0.6-1.1-1.1-1.9-3.6
				c-2.6-7.9-5.9-10.7-11.7-9.4c-8,1.7-18.2,9.9-21.4,17c-9.2,20.1-0.9,45.3,19.8,59.6c26.6,18.6,58.4-2.2,63.4-24.7
				C195.5,142.6,170.7,120.7,159,120.9z M141.2,197c-1.1-0.3-2.1-0.9-3.1-1.4c1.9,0.6,3.7,0.9,5.6,1.1
				C142.8,197.2,141.9,197.2,141.2,197z"/>
			<path class="st5" d="M169,162.4c-1.1,1.9-3.2,3.9-4.9,5.4c-1.1,0.9-2.6,2.1-3.8,3c-2.2,1.7-4.7,3-6.9,4.7
				c-0.2,0.2-0.2,0.6-0.2,0.9c-1,3.2-1.8,5.7-2,6.1c-4,11.6-6.1,14.1-8.3,14.6c-4.6,1-14.3-8-19.2-24.6c-0.3-1.1-0.4-2.2-0.9-3.3
				c-0.6-1.2-2.1-2.5-2.9-3.6c-1.5-1.8-9-12.5-7.2-16.7c0.6-0.1,1.4,0,2,0.1c1.6,0.8,2.6,1.4,8.5,5.7c0.1,0.1,0.3,0.3,0.5,0.4l0,0
				l0,0c0.6,7.9,0.9,10.4,2.8,18c4,13.2,10.7,20.9,13.9,21.9l0,0l0,0l0,0l0,0l0,0l0,0l0,0l0,0c3.1,0.2,7.5-11.4,13.2-34.3
				c0.1,0.1,0.3,0.1,0.4,0.1l0,0C172.4,156.2,169.9,160.9,169,162.4"/>
		</g>
	</g>
	<g >
		<g id='wand' class='Ani'>
			<path d="M55.7,145.1c1.7-20.3,3.5-40.6,5.2-60.8c1-11.6,2-23.2,3-34.7c0.1-1.5,0.1-2.7,2.3-2.6c2.2,0.1,2,1.4,1.9,2.9
				c-1.2,26.6-2.4,53.2-3.6,79.9c-0.2,5.3-0.4,10.6-0.6,16c-1.4,1.3-3,3.6-4.3,3.5C58.2,149,57,146.5,55.7,145.1z"/>
			<path d="M83.4,33.6c-2,1.8-4,3.6-6,5.4c-0.9,0.8-1.8,1.1-2.7,0c-0.8-1-0.3-1.8,0.5-2.5c2-1.8,4.1-3.5,6.1-5.2
				C82,32,82.7,32.8,83.4,33.6z"/>
			<path d="M53.2,29.4c1.8,2,3.6,4,5.4,6c0.7,0.8,1.1,1.6,0.2,2.5c-1,1-1.9,0.6-2.7-0.3c-1.8-2-3.5-4.1-5.3-6.1
				C51.6,30.8,52.4,30.1,53.2,29.4z"/>
			<path d="M68.2,34.9c-0.6,0.5-1.3,0.4-2,0.2c-0.8-0.2-0.9-0.8-0.9-1.4c0.1-2.5,0.3-5,0.5-7.6c0.1-1,0.7-1.3,1.6-1.3
				c0.7,0.1,1.6,0.1,1.6,1c-0.1,2.9-0.4,5.7-0.6,8.6C68.5,34.6,68.3,34.7,68.2,34.9z"/>
			<path d="M87.3,49.4c-0.3,0-0.7,0.2-1.1,0.1c-2.3-0.1-4.7-0.3-7-0.5c-1-0.1-1.6-0.5-1.6-1.6c0-1.2,0.6-1.7,1.8-1.7
				c2.3,0.2,4.7,0.3,7,0.5c0.7,0.1,1.4,0.2,1.5,1.1C87.9,48,88,48.7,87.3,49.4z"/>
			<path d="M54.2,47.2c-0.3,0-0.7,0.2-1.2,0.1c-2.3-0.1-4.7-0.3-7-0.4c-1.2-0.1-1.7-0.7-1.6-1.9c0.1-1.1,0.7-1.5,1.7-1.4
				c2.4,0.2,4.9,0.3,7.3,0.5c0.6,0,1.2,0.3,1.3,1C54.8,45.9,54.9,46.6,54.2,47.2z"/>
			<path d="M75.8,60c-0.7-0.8-1.5-1.7-2.2-2.5c-0.6-0.8-0.7-1.5,0.1-2.3c0.8-0.7,1.6-0.7,2.3,0c1.6,1.8,3.2,3.6,4.8,5.5
				c0.6,0.7,0.5,1.4-0.2,2c-0.8,0.7-1.5,0.7-2.3,0C77.4,61.9,76.6,60.9,75.8,60C75.8,60,75.8,60,75.8,60z"/>
			<path d="M54.9,58.7c-0.9,0.8-1.8,1.6-2.7,2.4c-0.8,0.7-1.6,0.6-2.3-0.2c-0.7-0.8-0.6-1.6,0.2-2.3c1.7-1.6,3.5-3.1,5.3-4.6
				c0.8-0.7,1.6-0.6,2.3,0.2c0.7,0.8,0.6,1.6-0.2,2.3C56.6,57.2,55.7,57.9,54.9,58.7C54.9,58.7,54.9,58.7,54.9,58.7z"/>
		</g>
	</g>
</g>
</svg>
