<?xml version="1.0" encoding="utf-8"?>
<!-- Generator: Adobe Illustrator 22.1.0, SVG Export Plug-In . SVG Version: 6.00 Build 0)  -->
<svg version="1.1" id="Layer_1" xmlns="http://www.w3.org/2000/svg" xmlns:xlink="http://www.w3.org/1999/xlink" x="0px" y="0px"
	 viewBox="0 0 200 200" style="enable-background:new 0 0 200 200;" xml:space="preserve">
<style type="text/css">
	.st0{fill:url(#SVGID_1_);}
	.st1{fill:#194C68;}
	.st2{fill:#AAE1F9;}
	.st3{fill:url(#SVGID_2_);}
	.st4{fill:none;stroke:#EBFAFF;stroke-width:3;stroke-miterlimit:10;}
	.st5{fill:url(#SVGID_3_);}
	.st6{fill:url(#SVGID_4_);}
	.st7{fill:url(#SVGID_5_);}
	.st8{fill:url(#SVGID_6_);}
	.st9{fill:#2F81C1;}
	.st10{fill:url(#SVGID_7_);}
</style>
<linearGradient id="SVGID_1_" gradientUnits="userSpaceOnUse" x1="36.2877" y1="167.8941" x2="94.0874" y2="167.8941" gradientTransform="matrix(1 3.400259e-03 3.400259e-03 -1 -0.4585 199.6725)">
	<stop  offset="2.554087e-02" style="stop-color:#AAE1F9"/>
	<stop  offset="1" style="stop-color:#2F81C1"/>
</linearGradient>
<circle class="st0" cx="65.3" cy="32" r="28.9"/>
<circle class="st1" cx="65.3" cy="32" r="25.5"/>
<circle class="st2" cx="65.3" cy="32" r="23.5"/>
<linearGradient id="SVGID_2_" gradientUnits="userSpaceOnUse" x1="41.1858" y1="170.0222" x2="82.4698" y2="170.0222" gradientTransform="matrix(1 3.400259e-03 3.400259e-03 -1 -0.4585 199.6725)">
	<stop  offset="0" style="stop-color:#FFFFFF"/>
	<stop  offset="1" style="stop-color:#FFFFFF;stop-opacity:0"/>
</linearGradient>
<path class="st3" d="M47.2,36.4c0-13,10.6-23.5,23.6-23.4c4.3,0,8.4,1.2,11.9,3.3C78.4,11.2,72,8.1,64.9,8
	c-13,0-23.5,10.4-23.6,23.4c0,8.6,4.6,16.2,11.5,20.3C49.3,47.6,47.1,42.3,47.2,36.4z"/>
<polyline class="st4" points="103.9,30.7 122.5,50.3 169.6,3.5 "/>
<linearGradient id="SVGID_3_" gradientUnits="userSpaceOnUse" x1="36.2172" y1="100.3939" x2="94.0169" y2="100.3939" gradientTransform="matrix(1 3.400259e-03 3.400259e-03 -1 -0.4585 199.6725)">
	<stop  offset="2.554087e-02" style="stop-color:#AAE1F9"/>
	<stop  offset="1" style="stop-color:#2F81C1"/>
</linearGradient>
<circle class="st5" cx="65" cy="99.5" r="28.9"/>
<circle class="st1" cx="65" cy="99.5" r="25.5"/>
<linearGradient id="SVGID_4_" gradientUnits="userSpaceOnUse" x1="41.5" y1="100.5" x2="88.5" y2="100.5" gradientTransform="matrix(1 0 0 -1 0 200)">
	<stop  offset="2.554087e-02" style="stop-color:#AAE1F9"/>
	<stop  offset="1" style="stop-color:#2F81C1"/>
</linearGradient>
<circle class="st6" cx="65" cy="99.5" r="23.5"/>
<linearGradient id="SVGID_5_" gradientUnits="userSpaceOnUse" x1="41.1935" y1="102.422" x2="82.4775" y2="102.422" gradientTransform="matrix(1 3.400259e-03 3.400259e-03 -1 -0.4585 199.6725)">
	<stop  offset="0" style="stop-color:#FFFFFF"/>
	<stop  offset="1" style="stop-color:#FFFFFF;stop-opacity:0"/>
</linearGradient>
<path class="st7" d="M46.9,103.9c0-13,10.6-23.5,23.6-23.4c4.3,0,8.4,1.2,11.9,3.3c-4.3-5-10.6-8.2-17.8-8.2
	C51.6,75.6,41.1,86,41,99c0,8.6,4.6,16.2,11.5,20.3C49.1,115.2,46.9,109.8,46.9,103.9z"/>
<polyline class="st4" points="103.7,98.2 122.2,117.9 169.4,71 "/>
<linearGradient id="SVGID_6_" gradientUnits="userSpaceOnUse" x1="37.6461" y1="33.0988" x2="95.4457" y2="33.0988" gradientTransform="matrix(1 3.400259e-03 3.400259e-03 -1 -0.4585 199.6725)">
	<stop  offset="2.554087e-02" style="stop-color:#AAE1F9"/>
	<stop  offset="1" style="stop-color:#2F81C1"/>
</linearGradient>
<circle class="st8" cx="66.2" cy="166.8" r="28.9"/>
<circle class="st1" cx="66.2" cy="166.8" r="25.5"/>
<circle class="st9" cx="66.2" cy="166.8" r="23.5"/>
<linearGradient id="SVGID_7_" gradientUnits="userSpaceOnUse" x1="42.5441" y1="35.2269" x2="83.8281" y2="35.2269" gradientTransform="matrix(1 3.400259e-03 3.400259e-03 -1 -0.4585 199.6725)">
	<stop  offset="0" style="stop-color:#FFFFFF"/>
	<stop  offset="1" style="stop-color:#FFFFFF;stop-opacity:0"/>
</linearGradient>
<path class="st10" d="M48.1,171.1c0-13,10.6-23.5,23.6-23.4c4.3,0,8.4,1.2,11.9,3.3c-4.3-5-10.6-8.2-17.8-8.2
	c-13,0-23.5,10.4-23.6,23.4c0,8.6,4.6,16.2,11.5,20.3C50.2,182.4,48.1,177,48.1,171.1z"/>
<polyline class="st4" points="104.8,165.4 123.4,185.1 170.5,138.2 "/>
</svg>
