<?xml version="1.0" encoding="utf-8"?>
<!-- Generator: Adobe Illustrator 22.1.0, SVG Export Plug-In . SVG Version: 6.00 Build 0)  -->
<svg version="1.1" id="Layer_1" xmlns="http://www.w3.org/2000/svg" xmlns:xlink="http://www.w3.org/1999/xlink" x="0px" y="0px"
	 viewBox="0 0 106.8 106.8" style="enable-background:new 0 0 106.8 106.8;" xml:space="preserve">
<style type="text/css">
	.st0{fill:#348BC6;}
	.st1{fill:#76C8FF;}
	.st2{fill:url(#SVGID_1_);}
	.st3{fill:url(#SVGID_2_);}
	.st4{fill:url(#SVGID_3_);}
	.st5{fill:url(#SVGID_4_);}
	.st6{fill:#2F81C1;}
	.st7{fill:url(#SVGID_5_);}
  .st8{fill:#FFDC0B; opacity: 0;}
	@keyframes Ani {
		0% {
				transform: rotate(0deg);
        transform-origin: center;

		}
		50% {
				transform: rotate(-9deg);
        transform-origin: center;

		}
		100% {
				transform: rotate(0deg);
        transform-origin: center;

		}
}

		.Ani {
				animation: Ani 1s ease-in-out;
				-webkit-animation: Ani 1s ease-in-out;
				-webkit-animation-iteration-count: 1; /* Safari 4.0 - 8.0 */
				animation-iteration-count: 1;
		}

  @keyframes Ani2 {
		0% {
				transform: translateY(0px);
				opacity: 0;
		}
		50% {
				transform: translateY(7px);
				opacity: 1;
		}
		100% {
				transform: translateY(15px);
				opacity: 0;
		}
}

		.Ani2 {
				animation: Ani2 2s ease-in-out;
				-webkit-animation: Ani2 2s ease-in-out;
				-webkit-animation-iteration-count: 1; /* Safari 4.0 - 8.0 */
				animation-iteration-count: 1;
		}
</style>
<g id="wand" >
	<path class="st0 Ani" d="M35.9,52.3c-29.1-13.1-25-8.2-6.3,18.8"/>
	<path class="st1 Ani" d="M24.4,27.9l3.5-2.9l-4.4-1l-1.7-4.3l-2.4,3.9l-4.6,0.3l3,3.5l-1.2,4.4l3.1-1.3l-1.2,21.1
		c0,0.7,0.5,1.3,1.2,1.3c0.7,0,1.3-0.5,1.3-1.2l1.2-20.9l2.5,1.6L24.4,27.9z"/>
</g>
<g id="body">

		<radialGradient id="SVGID_1_" cx="67.2555" cy="57.0471" r="25.929" gradientTransform="matrix(0.9987 5.212061e-02 5.212061e-02 -0.9987 -3.1947 109.2457)" gradientUnits="userSpaceOnUse">
		<stop  offset="0" style="stop-color:#AAE1F9"/>
		<stop  offset="1" style="stop-color:#2F81C1"/>
	</radialGradient>
	<path class="st2" d="M27.8,68.9C27.8,68.9,27.8,69,27.8,68.9c1,14.9,13,27,28.3,27.8c4.2,0.2,8.2-0.4,11.9-1.8
		c3.2,3.4,7.2,5.6,5.8-2.9c6.6-4.3,11.4-11,13-19.1c15.9-9.2,33.6-23.9-1.8-17.5C80.6,45.3,70.9,38,59.1,37.4
		c-11-0.5-21,4.9-26.6,13.6"/>
	<linearGradient id="SVGID_2_" gradientUnits="userSpaceOnUse" x1="46.418" y1="39.2828" x2="88.0615" y2="39.2828">
		<stop  offset="0" style="stop-color:#2F81C1"/>
		<stop  offset="0.2414" style="stop-color:#3686C4"/>
		<stop  offset="0.5874" style="stop-color:#4995CD"/>
		<stop  offset="0.9949" style="stop-color:#68ADDB"/>
		<stop  offset="1" style="stop-color:#68ADDB"/>
	</linearGradient>
	<path class="st3" d="M88,45.7c-1.1,3.4-11.2,3.3-22.7-0.2s-19.9-9.2-18.8-12.6c1.1-3.4,11.2-3.3,22.7,0.2S89,42.3,88,45.7z"/>
	<linearGradient id="SVGID_3_" gradientUnits="userSpaceOnUse" x1="72.1232" y1="42.6613" x2="72.1232" y2="22.2189">
		<stop  offset="0" style="stop-color:#2F81C1"/>
		<stop  offset="0.2414" style="stop-color:#3686C4"/>
		<stop  offset="0.5874" style="stop-color:#4995CD"/>
		<stop  offset="0.9949" style="stop-color:#68ADDB"/>
		<stop  offset="1" style="stop-color:#68ADDB"/>
	</linearGradient>
	<path class="st4" d="M57.2,34.6l15.2-12.3c0,0,11.2-0.9,14.5,3.4c0,0,0.4,1.3-8.3,1.6c0,0,1.8,3.1-0.9,3.6v11.9
		C77.8,42.7,63.7,42.4,57.2,34.6z"/>

		<linearGradient id="SVGID_4_" gradientUnits="userSpaceOnUse" x1="45.5512" y1="27.6291" x2="67.201" y2="65.1276" gradientTransform="matrix(0.9829 0.1839 0.1839 -0.9829 -9.3102 98.4616)">
		<stop  offset="0" style="stop-color:#AAE1F9"/>
		<stop  offset="1" style="stop-color:#FFFFFF"/>
	</linearGradient>
	<path class="st5" d="M76.1,55.4c-6.2-11.9-13.3-8.7-16.8-5.8c-1.1,0.9-2.8,0.6-3.5-0.7c-2.3-4-7.6-9.5-17.7-0.7
		c-14.2,12.4-1.7,34.6,12.8,36.1c0.1,0,0.2,0,0.3,0.1C65,88.2,84.8,71.9,76.1,55.4z"/>
	<path class="st6" d="M68.4,61.9c-0.2-0.2-1.7-2-3.3-2.4c-2.8-0.8-3.9,1-3.9,1s-1.7,4.7-4,9.2c-1.3,2.6-2.5,4.6-3.7,6.1
		c-1.6,2.1-2.6,2.3-3,2.3c-0.6-0.1-2.3-1.2-3.1-10c-0.1-0.7-0.1-1.6-0.2-2.3l-0.1-5.1c0.1-0.6,0.1-1.2,0.1-1.8
		c0-3.8-1.6-6.9-3.7-6.9c-2,0-4.6,3.1-4.6,6.9c0,3.8,2.5,6.9,4.6,6.9c0.8,0,1.5-0.4,2-1.2c0.1,1.2,0.1,2.3,0.2,3.5
		c0.6,7.3,2,11,4.3,11.5l0.1,0c1.3,0.1,2.9-0.7,4.5-2.8c1.2-1.5,2.5-3.6,3.8-6.4c0.6-1.1,1.2-2.3,1.6-3.5c0.7-1.8,2-4.7,2.6-5
		c1.8-1,4.4-0.1,5.3,2.3C68.3,64.8,69.6,63.6,68.4,61.9z"/>
	<linearGradient id="SVGID_5_" gradientUnits="userSpaceOnUse" x1="67.5338" y1="42.6613" x2="67.5338" y2="32.8323">
		<stop  offset="0" style="stop-color:#AAE1F9"/>
		<stop  offset="1" style="stop-color:#FFFFFF"/>
	</linearGradient>
	<path class="st7" d="M57.2,34.6c0,0,3.8,7.2,20.6,8.1v-2.6c0,0-12.3,0.1-18.4-7.3L57.2,34.6z"/>
</g>
  <polygon id="star_4_" class="st8 Ani2" points="13,9.2 11.4,8.7 10.1,9.7 10.1,8.1 8.8,7.1 10.4,6.6 10.9,5.1 11.8,6.4 13.5,6.4
	12.5,7.7 "/>
<polygon id="star_3_" class="st8 Ani2" points="85.8,16.5 83.6,14 80.4,14.4 82,11.6 80.7,8.6 83.9,9.4 86.3,7.2 86.6,10.4 89.4,12
	86.4,13.3 "/>
<polygon id="star_2_" class="st8 Ani2" points="43.8,17.8 40.9,17.3 39,19.4 38.5,16.5 35.9,15.3 38.5,14 38.9,11.2 40.9,13.2 43.7,12.7
	42.4,15.2 "/>
<polygon id="star_1_" class="st8 Ani2" points="21.4,73.8 17.5,73.7 15.3,76.8 14.2,73.1 10.6,72 13.7,69.8 13.7,66 16.7,68.3 20.3,67.1
	19.1,70.7 "/>
<polygon id="star" class="st8 Ani2" points="94.2,45.4 93.7,43.6 92,43 93.5,42 93.5,40.2 95,41.3 96.8,40.7 96.1,42.5 97.2,44
	95.4,43.9 "/>
</svg>
