<?xml version="1.0" encoding="utf-8"?>
<!-- Generator: Adobe Illustrator 22.1.0, SVG Export Plug-In . SVG Version: 6.00 Build 0)  -->
<svg version="1.1" id="Layer_1" xmlns="http://www.w3.org/2000/svg" xmlns:xlink="http://www.w3.org/1999/xlink" x="0px" y="0px"
	 viewBox="0 0 106.8 106.8" style="enable-background:new 0 0 106.8 106.8;" xml:space="preserve">
<style type="text/css">
	.st0{fill:url(#SVGID_1_);}
	.st1{fill:#2F81C1;}
	.st2{fill:url(#SVGID_2_);}
	.Ani{
			transform: translateY(5px);
			transform-origin: center;
	}
	@keyframes Ani {
		 0% {
				 transform: translateY(0px);
				 transform-origin: center;
		 }
		 100% {
				 transform: translateY(5px);
				 transform-origin: center;
		 }
 }

		 .Ani {
				 animation: Ani 1s linear;
				 -webkit-animation: Ani 1s linear;
				 animation-iteration-count: 1;
				 animation-play-state: running;
		 }
</style>
<radialGradient id="SVGID_1_" cx="53.3291" cy="38.8093" r="28.0649" gradientUnits="userSpaceOnUse">
	<stop  offset="0" style="stop-color:#AAE1F9"/>
	<stop  offset="1" style="stop-color:#2F81C1"/>
</radialGradient>
<circle class="st0" cx="53.4" cy="52.9" r="35.4"/>
<path class="st1" d="M87.7,55.7c0,0,0.9,71.2-10.4,22.1"/>
<g>
	<g class="Ani">

			<linearGradient id="SVGID_2_" gradientUnits="userSpaceOnUse" x1="21.8305" y1="66.4818" x2="76.9899" y2="66.4818" gradientTransform="matrix(1 -7.518353e-04 6.569123e-04 0.8738 3.9617 -0.637)">
			<stop  offset="0" style="stop-color:#AAE1F9"/>
			<stop  offset="1" style="stop-color:#FFFFFF"/>
		</linearGradient>
		<path class="st2" d="M81,55.6c0-11.5-8.4-20.8-18.8-20.8c-3.1,0-6.1,0.9-8.7,2.4c-0.1,0-0.1,0-0.2,0c0,0,0,0,0,0
			c-2.6-1.5-5.6-2.4-8.7-2.4c-10.4,0-18.8,9.3-18.7,20.8c0,1.9,0.3,3.7,0.7,5.4C28.1,71.7,39.5,80,53.3,80c13,0,23.9-7.3,26.4-17
			C80.5,60.7,81,58.2,81,55.6z"/>
	</g>
	<path class="st1 Ani" d="M71,52.1c-3.3,7.2-7.1,0-7.1,0h0c0-0.8-0.5-1.4-1.1-1.4c-0.6,0-1.2,0.7-1.2,1.5c0,0.1,0,0.3,0.1,0.4
		c-1,3.3-9.4,28.8-18,0.1c0-0.1,0-0.2,0-0.3c0-0.8-0.5-1.5-1.2-1.5c-0.7,0-1.2,0.6-1.2,1.4h0c0,0-4,7.2-7.5,0c0,0-2.3-0.6-1.2,1.6
		c0,0,4.1,7,9.4,0.6c2.4,6.9,10.8,25.9,21.2-0.3c5.1,6.6,9-0.5,9-0.5C73.2,51.5,71,52.1,71,52.1z"/>
</g>
<path class="st1" d="M20.5,51.8c0,0,34.2-16.2,32.9-6.9C52,54.2,26.8,73.4,26.8,73.4S19.3,63.3,20.5,51.8z"/>
<path class="st1" d="M30.6,80c0,0-0.2,0.3-0.4,0.8c-1.7,3.5-7.5,16.3,6.7,3.4"/>
<g>
	<circle class="st1" cx="85.8" cy="21.8" r="1.5"/>
	<circle class="st1" cx="90.5" cy="21.8" r="1.5"/>
	<circle class="st1" cx="95.2" cy="21.8" r="1.5"/>
</g>
</svg>
