<?xml version="1.0" encoding="utf-8"?>
<!-- Generator: Adobe Illustrator 22.1.0, SVG Export Plug-In . SVG Version: 6.00 Build 0)  -->
<svg version="1.1" id="Layer_1" xmlns="http://www.w3.org/2000/svg" xmlns:xlink="http://www.w3.org/1999/xlink" x="0px" y="0px"
	 viewBox="0 0 106.8 106.8" style="enable-background:new 0 0 106.8 106.8;" xml:space="preserve">
<style type="text/css">
	.st0{fill:#2F81C1;}
	.st1{fill:url(#SVGID_1_);}
	.st2{fill:url(#SVGID_2_);}
	.st3{fill:#AEDCFC;}
  .dot{fill:#2F81C1;}

	@keyframes Ani {
		 0% {
				 opacity: 0;
		 }
		 100% {
				 opacity:1;
		 }
 }
		 .Ani1 {
				 animation: Ani 1s linear infinite;
				 -webkit-animation: Ani 1s linear infinite;
				 animation-play-state: running;
				 animation-delay: 0s;
		 }

		 .Ani2 {
				 animation: Ani 1s linear infinite;
				 -webkit-animation: Ani 1s linear infinite;
				 animation-play-state: running;
				 animation-delay: .3s;
		 }

		 .Ani3 {
				 animation: Ani 1s linear infinite;
				 -webkit-animation: Ani 1s linear infinite;
				 animation-play-state: running;
				 animation-delay: .6s;
		 }

  @keyframes Ani2 {
    0% {
				transform: rotate(0deg);
				transform-origin: 0 50%;
    }
		50% {
				transform:rotate(3deg);
				transform-origin: 0 50%;
    }
    100% {
				transform:rotate(0deg);
				transform-origin: 0 50%;
    }
}

		.Ani {
		    animation: Ani2 1.5s linear infinite;
		    -webkit-animation: Ani2 1.5s linear infinite;
				animation-play-state: running;
		}
</style>
<g id="body_1_">
	<g id="body">
		<path class="st0" d="M64.8,92.9c0,0,14,16.9,10.1-4.1C74.9,88.8,66.3,85.2,64.8,92.9z"/>
		<radialGradient id="SVGID_1_" cx="57.2604" cy="59.7493" r="34" gradientUnits="userSpaceOnUse">
			<stop  offset="0" style="stop-color:#AAE1F9"/>
			<stop  offset="1" style="stop-color:#2F81C1"/>
		</radialGradient>
		<circle class="st1" cx="57.3" cy="59.7" r="34"/>

			<linearGradient id="SVGID_2_" gradientUnits="userSpaceOnUse" x1="41.7592" y1="30.0499" x2="67.4548" y2="74.5558" gradientTransform="matrix(0.9829 0.1839 0.1839 -0.9829 -9.3102 98.4616)">
			<stop  offset="0" style="stop-color:#AAE1F9"/>
			<stop  offset="1" style="stop-color:#FFFFFF"/>
		</linearGradient>
		<path class="st2" d="M79.4,47.7C72,33.6,63.6,37.5,59.5,40.9c-1.3,1.1-3.4,0.7-4.2-0.8c-2.7-4.7-9.1-11.2-21-0.8
			c-16.9,14.7-2,41,15.2,42.9c0.1,0,0.2,0,0.4,0.1C66.3,86.7,89.8,67.4,79.4,47.7z"/>
		<path class="st0" d="M91.3,59.7c0,0,16.6,45.7-6.4,19.9C84.8,79.6,83.8,66.3,91.3,59.7z"/>
	</g>
	<g>
		<path class="st0" d="M50.6,77c-0.2,0-0.4,0-0.6,0c-6.3-0.9-7.5-20.7-7.7-24.7l2-0.1c0.4,9.2,2.5,22.3,6,22.8
			c1.4,0.2,5.2-1.5,12.3-21.6l1.9,0.7C57.6,73.9,53.3,77,50.6,77z"/>
	</g>
	<path class="st0" d="M44.4,52.1c0,0-3.2-6.3-5.8-6.9c-2.7-0.6-3.7,6.9-3.7,6.9s7.8-0.8,9.5,2.5V52.1z"/>
	<path class="st0" d="M62.7,53.3c0,0,7.1-1.3,9.7,1.2c0,0,0.2,1.7-0.5,2c-0.7,0.3-0.2,0.5-0.2,0.5s-3-3-7.7-1.4"/>
</g>
<path id="wing" class="st0 Ani" d="M23.3,59.7c0,0-7.5,6.8,5.2,18.1C35.9,84.4,74.5,41.1,23.3,59.7z"/>
<path class="st3" d="M36.1,24.6c0.1-0.3,0.2-0.6,0.2-0.9c0-1.7-1.6-3-3.6-3c-2,0-3.6,1.4-3.6,3c0,0.3,0,0.5,0.1,0.8
	c-0.3-0.1-0.7-0.1-1-0.1c-2,0-3.6,1.3-3.6,2.9c0,1.5,1.4,2.7,3.2,2.8c0,0.1,0,0.1,0,0.2c0,1.3,1.2,2.4,2.7,2.4c1.1,0,2-0.6,2.5-1.4
	c0.5,0.1,1,0.2,1.6,0.2c2.5,0,4.6-1.6,4.6-3.5C39,26.4,37.8,25.1,36.1,24.6z"/>
<path class="st3" d="M28.2,15.4c0-2.2-1.1-4.1-2.9-5.4c0.1-0.5,0.2-0.9,0.2-1.4c0-3.2-3.3-5.8-7.4-5.8c-2.4,0-4.6,0.9-5.9,2.4
	c-0.7-0.2-1.4-0.3-2.1-0.3c-3.5,0-6.3,2.5-6.3,5.5c0,0.8,0.2,1.6,0.6,2.3c-0.9,1.2-1.4,2.6-1.4,4.2c0,4,3.2,7.2,7.2,7.2
	c0.4,0,0.8,0,1.2-0.1c1.1,1.3,2.9,2.1,4.9,2.1c2.9,0,5.3-1.7,6-4C25.7,21.4,28.2,18.6,28.2,15.4z"/>
<g id="dots">
	<path class="dot Ani1" d="M11.2,14.9c0,0.5-0.2,1-0.6,1.5C10.2,16.8,9.8,17,9.2,17c-0.5,0-1-0.2-1.4-0.5c-0.4-0.4-0.6-0.8-0.6-1.4
		c0-0.5,0.2-1,0.6-1.5C8.2,13.2,8.6,13,9.2,13c0.5,0,1,0.2,1.4,0.6C11,13.9,11.2,14.4,11.2,14.9z"/>
	<path class="dot Ani2" d="M16.8,14.9c0,0.5-0.2,1-0.6,1.5c-0.4,0.4-0.9,0.6-1.5,0.6c-0.5,0-1-0.2-1.4-0.5c-0.4-0.4-0.6-0.8-0.6-1.4
		c0-0.5,0.2-1,0.6-1.5c0.4-0.4,0.9-0.6,1.4-0.6c0.5,0,1,0.2,1.4,0.6C16.6,13.9,16.8,14.4,16.8,14.9z"/>
	<path class="dot Ani3" d="M22.5,14.9c0,0.5-0.2,1-0.6,1.5C21.5,16.8,21,17,20.4,17c-0.5,0-1-0.2-1.4-0.5c-0.4-0.4-0.6-0.8-0.6-1.4
		c0-0.5,0.2-1,0.6-1.5c0.4-0.4,0.9-0.6,1.4-0.6c0.5,0,1,0.2,1.4,0.6C22.3,13.9,22.5,14.4,22.5,14.9z"/>
</g>
</svg>
