<?xml version="1.0" encoding="utf-8"?>
<!-- Generator: Adobe Illustrator 22.1.0, SVG Export Plug-In . SVG Version: 6.00 Build 0)  -->
<svg version="1.1" id="Layer_1" xmlns="http://www.w3.org/2000/svg" xmlns:xlink="http://www.w3.org/1999/xlink" x="0px" y="0px"
	 viewBox="0 0 106.8 106.8" style="enable-background:new 0 0 106.8 106.8;" xml:space="preserve">
<style type="text/css">
	.st0{fill:url(#SVGID_1_);}
	.st1{fill:url(#SVGID_2_);}
	.st2{fill:#2F81C1;}
	.Ani{fill:#2F81C1;}
	@keyframes Ani {
		 0% {
		 		 transform: rotateZ(0deg);
				 transform-origin: center;
		 }
		 50% {
		 		 transform: rotateZ(-10deg);
				 transform-origin: center;
		 }
		 100% {
		 		 transform: rotateZ(0deg);
				 transform-origin: center;
		 }
 }

 @keyframes Ani2 {
		0% {
				transform: translateY(0px);
				transform: rotateZ(0deg);
				transform-origin: center;
		}
		50% {
				transform: translateY(-2px);
				transform: rotateZ(-5deg);
				transform-origin: center;
		}
		100% {
				transform: translateY(0px);
				transform: rotateZ(0deg);
				transform-origin: center;
		}
}

		 .Ani {
				 animation: Ani .6s ease-in-out;
				 -webkit-animation: Ani .6s ease-in-out;
				 animation-iteration-count: 2;
				 animation-play-state: running;
		 }

		 .Ani2 {
				 animation: Ani2 1.2s ease-in-out;
				 -webkit-animation: Ani2 1.2s ease-in-out;
				 animation-iteration-count: 1;
				 animation-play-state: running;
		 }
</style>
<radialGradient id="SVGID_1_" cx="53.3198" cy="38.2067" r="30.2378" gradientUnits="userSpaceOnUse">
	<stop  offset="0" style="stop-color:#AAE1F9"/>
	<stop  offset="1" style="stop-color:#2F81C1"/>
</radialGradient>
<circle class="st0" cx="53.4" cy="53.4" r="38.2"/>
<g class="Ani2">

		<linearGradient id="SVGID_2_" gradientUnits="userSpaceOnUse" x1="40.1002" y1="-16.0005" x2="67.4912" y2="31.442" gradientTransform="matrix(1 0 0 -1 0 62)">
		<stop  offset="0" style="stop-color:#AAE1F9"/>
		<stop  offset="1" style="stop-color:#FFFFFF"/>
	</linearGradient>
	<path class="st1" d="M78.6,39.5C68.1,26.1,60,31.8,56.4,36.2c-1.2,1.4-3.4,1.4-4.5,0c-3.8-4.4-11.7-10-22.2,3.2
		c-14.8,18.7,6,43.4,24.3,42c0.1,0,0.3,0,0.4,0C72.5,82.9,93.3,58.1,78.6,39.5z"/>
	<path class="st2" d="M63.6,53.5h-0.3c0,0-1,6.2-2.9,12.3c-1,3.5-2.1,6.4-3.1,8.4c-1.6,3-2.7,3.5-3.2,3.5c-0.8,0-3.1-0.9-6.2-11.7
		c-0.3-0.9-0.5-1.9-0.8-2.9l-1.1-5c0-0.3,0.1-0.7,0.1-1.1c0-3.5-2-6.2-4.5-6.2S37,53.8,37,57.2c0,3.5,2,6.2,4.5,6.2
		c1.2,0,2.3-0.7,3.1-1.7c0.4,1.6,0.7,3.2,1.2,4.8c2.5,9,5.1,13.3,8.1,13.3h0.1c1.7-0.1,3.4-1.6,4.9-4.5c1.2-2.2,2.2-5.1,3.2-8.8
		c0.5-1.6,0.9-3.1,1.2-4.7C82.3,47,63.6,53.5,63.6,53.5z"/>
</g>
<path class="Ani" d="M88.2,37.6c0,0,36.6-26.7,2.5,24.2"/>
<path class="st2" d="M15.6,58.8c0,0-17.7,42.1,9,19.7"/>
</svg>
