<?xml version="1.0" encoding="utf-8"?>
<!-- Generator: Adobe Illustrator 25.0.0, SVG Export Plug-In . SVG Version: 6.00 Build 0)  -->
<svg version="1.1" id="Layer_1" xmlns="http://www.w3.org/2000/svg" xmlns:xlink="http://www.w3.org/1999/xlink" x="0px" y="0px"
	 viewBox="0 0 106.8 106.8" style="enable-background:new 0 0 106.8 106.8;" xml:space="preserve">
<style type="text/css">
	.st0{fill:#683682;}
	.st1{fill:#364485;}
</style>
<path class="st0" d="M86.9,26H19.9c-2.2,0-4-1.8-4-4v-6.8c0-2.2,1.8-4,4-4h67.1c2.2,0,4,1.8,4,4v6.8C91,24.2,89.2,26,86.9,26z"/>
<path class="st1" d="M86.9,50.7H19.9c-2.2,0-4-1.8-4-4v-6.8c0-2.2,1.8-4,4-4h67.1c2.2,0,4,1.8,4,4v6.8C91,48.9,89.2,50.7,86.9,50.7z
	"/>
<path class="st0" d="M86.9,73.2H19.9c-2.2,0-4-1.8-4-4v-6.8c0-2.2,1.8-4,4-4h67.1c2.2,0,4,1.8,4,4v6.8C91,71.4,89.2,73.2,86.9,73.2z
	"/>
<path class="st0" d="M86.9,95.7H19.9c-2.2,0-4-1.8-4-4v-6.8c0-2.2,1.8-4,4-4h67.1c2.2,0,4,1.8,4,4v6.8C91,93.9,89.2,95.7,86.9,95.7z
	"/>
</svg>
