<?xml version="1.0" encoding="utf-8"?>
<!-- Generator: Adobe Illustrator 22.0.1, SVG Export Plug-In . SVG Version: 6.00 Build 0)  -->
<svg version="1.1" id="Layer_1" xmlns="http://www.w3.org/2000/svg" xmlns:xlink="http://www.w3.org/1999/xlink" x="0px" y="0px"
	 viewBox="0 0 60 60" style="enable-background:new 0 0 60 60;" xml:space="preserve">
<style type="text/css">
	.st0{fill:url(#SVGID_1_);}
	.st1{fill:url(#SVGID_2_);}
	.st2{fill:#2F81C1;}
</style>
<g>
	<radialGradient id="SVGID_1_" cx="29.5714" cy="15.6591" r="27.2304" gradientUnits="userSpaceOnUse">
		<stop  offset="0" style="stop-color:#AAE1F9"/>
		<stop  offset="1" style="stop-color:#2F81C1"/>
	</radialGradient>
	<circle class="st0" cx="29.9" cy="29.9" r="26.1"/>
	<g>
		<g>
			<linearGradient id="SVGID_2_" gradientUnits="userSpaceOnUse" x1="19.1394" y1="51.0288" x2="40.2202" y2="14.5159">
				<stop  offset="0" style="stop-color:#AAE1F9"/>
				<stop  offset="1" style="stop-color:#FFFFFF"/>
			</linearGradient>
			<path class="st1" d="M48.8,21.4c-8.1-10.3-14.3-5.9-17.1-2.5c-0.9,1.1-2.6,1.1-3.5,0c-2.9-3.4-9-7.7-17.1,2.5
				c-11.4,14.4,4.6,33.4,18.7,32.3c0.1,0,0.2,0,0.3,0C44.1,54.8,60.1,35.7,48.8,21.4z"/>
			<path class="st2" d="M37.2,32.2L37.2,32.2l-0.2,0c0,0-0.8,4.8-2.2,9.5c-0.8,2.7-1.6,4.9-2.4,6.5c-1.2,2.3-2.1,2.7-2.5,2.7
				c0,0,0,0,0,0c-0.6,0-2.4-0.7-4.8-9c-0.2-0.7-0.4-1.5-0.6-2.2l-1.6-7.5c0,0,0,0,0,0c0,0,0,0,0,0l0,0c-0.8-0.2-15.4-4.7-0.3,6.1
				c0.3,1.3,0.6,2.6,1,3.9c1.9,6.9,3.9,10.2,6.2,10.2c0,0,0.1,0,0.1,0c1.3-0.1,2.6-1.2,3.8-3.5c0.9-1.7,1.7-3.9,2.5-6.8
				c0.4-1.2,0.7-2.4,0.9-3.6C51.6,27.2,37.2,32.2,37.2,32.2z"/>
		</g>
	</g>
</g>
</svg>
