<?xml version="1.0" encoding="utf-8"?>
<!-- Generator: Adobe Illustrator 22.1.0, SVG Export Plug-In . SVG Version: 6.00 Build 0)  -->
<svg version="1.1" id="Layer_1" xmlns="http://www.w3.org/2000/svg" xmlns:xlink="http://www.w3.org/1999/xlink" x="0px" y="0px"
	 viewBox="0 0 400 400" style="enable-background:new 0 0 400 400;" xml:space="preserve">
<style type="text/css">
	.st0{fill:none;stroke:#70BDE8;stroke-miterlimit:10;}
	.st1{fill:none;stroke:#2F81C1;stroke-miterlimit:10;}
	.st2{fill:url(#SVGID_1_);}
	.st3{fill:url(#SVGID_2_);}
</style>
<circle class="st0" cx="352.7" cy="215.1" r="45.4"/>
<circle class="st1" cx="187.6" cy="215.1" r="74.9"/>
<path class="st1" d="M189.9,155.9c-1.4-0.2,0.5-79.5-1-79.5c-20.5,0.8-33.3-16.8-33.3-31.2c0-17.6,14.3-31.9,31.9-31.9
	s31.9,14.3,31.9,31.9c0,15.4-11.9,30.4-30.6,31.2"/>
<path class="st1" d="M144.5,183.1c-1.2,0.9-55.9-56.6-56.9-55.5c-13.9,15.1-35.4,11.7-45.6,1.5C29.5,116.7,29.5,96.4,42,84
	s32.7-12.5,45.2,0c10.9,10.9,13.1,29.9,0.4,43.7"/>
<path class="st1" d="M126.5,217.3c-0.1,0.9-50.3-0.3-50.2,0.6c0.5,13-10.6,21.1-19.7,21.1c-11.2,0-20.2-9-20.2-20.2
	s9-20.2,20.2-20.2c9.8,0,19.2,7.5,19.7,19.3"/>
<path class="st1" d="M228.2,175.6c-0.5-0.8,35.8-35.3,35.1-36c-9.5-8.8-7.4-22.4-1-28.8c7.9-7.9,20.7-7.9,28.6,0s7.9,20.7,0,28.6
	c-6.9,6.9-18.9,8.3-27.6,0.3"/>
<path class="st0" d="M150.2,254.5c0.9,1.2-56.6,55.9-55.5,56.9c15.1,13.9,11.7,35.4,1.5,45.6c-12.5,12.5-32.7,12.5-45.2,0
	s-12.5-32.7,0-45.2c10.9-10.9,29.9-13.1,43.7-0.4"/>
<path class="st1" d="M241.3,217.4c0.2-1.4,79.5,0.5,79.5-1c-0.8-20.5,16.8-33.3,31.2-33.3c17.6,0,31.9,14.3,31.9,31.9
	s-14.4,32-32,32c-15.4,0-30.4-11.9-31.2-30.6"/>
<circle class="st0" cx="263.8" cy="304.2" r="25"/>
<path class="st1" d="M219.5,261.8c0.7-0.5,30.7,31.1,31.3,30.5c7.7-8.3,19.5-6.4,25.1-0.8c6.9,6.9,6.9,18,0,24.8
	c-6.9,6.9-18,6.9-24.8,0c-6-6-7.2-16.4-0.2-24"/>
<circle class="st1" cx="72.9" cy="334.6" r="17.9"/>
<circle class="st0" cx="63.2" cy="104.9" r="60.2"/>
<g>
	<linearGradient id="SVGID_1_" gradientUnits="userSpaceOnUse" x1="125.2" y1="215.0241" x2="250.0242" y2="215.0241">
		<stop  offset="0" style="stop-color:#AAE1F9"/>
		<stop  offset="0.2012" style="stop-color:#A6DEF7"/>
		<stop  offset="0.3791" style="stop-color:#9CD6F2"/>
		<stop  offset="0.5482" style="stop-color:#8AC8EA"/>
		<stop  offset="0.7119" style="stop-color:#70B4DF"/>
		<stop  offset="0.8702" style="stop-color:#509AD0"/>
		<stop  offset="1" style="stop-color:#2F81C1"/>
	</linearGradient>
	<path class="st2" d="M246,191.9c-9.2-24.6-34.1-41.1-60.3-40c-23.5,1-44.1,15-53.8,35.9c-4.3,8.5-6.7,18-6.7,28.1
		c0,34.3,27.9,62.3,62.3,62.3c32.3,0,58.9-24.7,62-56.1C250.8,212.2,249.7,201.9,246,191.9z M221.1,258.1
		c-9.7,7.7-20.5,12.1-32.5,11.6c-28.3,0-51.8-21.8-53.8-49.4c-1-14.5,10.5-33.6,24-39.3c8.1-3.5,15.4-2,21.9,3.9
		c7,6.3,7.2,6.3,14,0.3c9.5-8.2,20-8,29.8,0.5C247.9,206.1,246.4,238,221.1,258.1z"/>
	<linearGradient id="SVGID_2_" gradientUnits="userSpaceOnUse" x1="154.7359" y1="241.6346" x2="220.2914" y2="241.6346">
		<stop  offset="0" style="stop-color:#AAE1F9"/>
		<stop  offset="0.2012" style="stop-color:#A6DEF7"/>
		<stop  offset="0.3791" style="stop-color:#9CD6F2"/>
		<stop  offset="0.5482" style="stop-color:#8AC8EA"/>
		<stop  offset="0.7119" style="stop-color:#70B4DF"/>
		<stop  offset="0.8702" style="stop-color:#509AD0"/>
		<stop  offset="1" style="stop-color:#2F81C1"/>
	</linearGradient>
	<path class="st3" d="M217.4,216.3c-6.1-1.6-13,2.8-14.5,9c-2.4,10.4-4.6,20.8-9.3,30.5c-1.2,2.5-2.3,6-5.8,5.8
		c-3.4-0.1-4.6-3.4-5.8-6.1c-3.9-8.8-6.2-18-8-27.4c-1.9-9.7-3.8-11.3-14.8-12c-0.9,0-2.9-0.2-4,1.6c-1.3,2.2,0.4,3.9,1.8,5.3
		c2.6,2.6,5.3,5.2,8.2,7.3c3.5,2.5,5.5,5.5,6.5,9.7c1.7,7.1,3.8,14.2,7.5,20.7c5.1,8.8,11.8,8.8,17.1,0c3.8-6.4,6-13.4,7.8-20.5
		c0.9-3.7,2.7-6.6,5.7-9.1c3.2-2.7,6.2-5.7,9-8.9C220.8,220,221.2,217.3,217.4,216.3z"/>
</g>
</svg>
