<?xml version="1.0" encoding="utf-8"?>
<!-- Generator: Adobe Illustrator 22.1.0, SVG Export Plug-In . SVG Version: 6.00 Build 0)  -->
<svg version="1.1" id="Layer_1" xmlns="http://www.w3.org/2000/svg" xmlns:xlink="http://www.w3.org/1999/xlink" x="0px" y="0px"
	 viewBox="0 0 100 100" style="enable-background:new 0 0 100 100;" xml:space="preserve">
<style type="text/css">
	.st0{fill:#BDDFF4;}
	.st1{fill:#3884BE;}
	.st2{fill:#76B6DD;}
</style>
<rect x="8" y="13" class="st0" width="80" height="80"/>
<polygon class="st1" points="8,13 14,7 94,7 88,13 "/>
<polygon class="st2" points="94,7 88,13 88,93 94,86 "/>
<g>
	<path class="st1" d="M50.4,36.6c0,0.3-0.1,0.6-0.2,0.8L33.6,70.9c-0.7,1.4-1.4,2.2-2.2,2.2c-0.6,0-1.1-0.2-1.4-0.7
		c-0.3-0.5-0.6-1-0.8-1.4L12.2,37.4c-0.1-0.2-0.2-0.5-0.2-0.9c0-0.6,0.2-1.1,0.7-1.5c0.4-0.4,0.9-0.7,1.5-0.7c0.9,0,1.6,0.5,2,1.4
		l15.2,30.1l14.7-30.1c0.4-1,1.1-1.4,2-1.4c0.6,0,1.1,0.2,1.6,0.7C50.2,35.5,50.4,36,50.4,36.6z"/>
	<path class="st1" d="M83.7,51.7c0,0.8-0.3,1.5-0.8,2c-0.1,0-0.3,0.1-0.4,0.2L62.7,68.5h18.8c0.6,0,1.1,0.2,1.6,0.6
		c0.4,0.4,0.7,0.9,0.7,1.5s-0.2,1.1-0.6,1.6c-0.4,0.5-0.9,0.7-1.5,0.7L55.4,73c-0.6,0-1.1-0.2-1.5-0.6c-0.4-0.4-0.6-0.9-0.6-1.5
		s0.2-1.1,0.6-1.6c0.4-0.5,0.9-0.7,1.5-0.7l23.9-17.7c0-3-1.1-5.6-3.2-7.7c-2.1-2.1-4.7-3.2-7.7-3.2c-3,0-5.6,1.1-7.8,3.2
		c-2.1,2.1-3.2,4.7-3.2,7.7c0,0.6-0.2,1.1-0.6,1.5c-0.4,0.4-0.9,0.6-1.5,0.6c-0.6,0-1.1-0.2-1.6-0.6c-0.5-0.4-0.7-0.9-0.7-1.5
		c0-4.2,1.5-7.8,4.5-10.8c3-3,6.6-4.5,10.8-4.5c4.2,0,7.8,1.5,10.8,4.5s4.5,6.6,4.5,10.8C83.7,51.1,83.7,51.4,83.7,51.7z"/>
</g>
</svg>
