<?xml version="1.0" encoding="utf-8"?>
<!-- Generator: Adobe Illustrator 22.1.0, SVG Export Plug-In . SVG Version: 6.00 Build 0)  -->
<svg version="1.1" id="Layer_1" xmlns="http://www.w3.org/2000/svg" xmlns:xlink="http://www.w3.org/1999/xlink" x="0px" y="0px"
	 viewBox="0 0 100 100" style="enable-background:new 0 0 100 100;" xml:space="preserve">
<style type="text/css">
	.st0{fill:#BDDFF4;}
	.st1{fill:#3884BE;}
	.st2{fill:#76B6DD;}
</style>
<rect x="8" y="13" class="st0" width="80" height="80"/>
<g>
	<path class="st1" d="M51.2,36.4c0,0.3-0.1,0.6-0.2,0.8L34.4,70.6c-0.7,1.4-1.4,2.2-2.2,2.2c-0.6,0-1.1-0.2-1.4-0.7
		c-0.3-0.5-0.6-1-0.8-1.4L13,37.2c-0.1-0.2-0.2-0.5-0.2-0.9c0-0.6,0.2-1.1,0.7-1.5c0.4-0.4,0.9-0.7,1.5-0.7c0.9,0,1.6,0.5,2,1.4
		l15.2,30.1L47,35.5c0.4-1,1.1-1.4,2-1.4c0.6,0,1.1,0.2,1.6,0.7C51,35.2,51.2,35.8,51.2,36.4z"/>
	<path class="st1" d="M80.2,54.3c0,5.2-1.9,9.7-5.8,13.4s-8.5,5.6-13.8,5.6c-0.5,0-1.3,0-2.3,0c-1,0-1.8-0.1-2.4-0.1
		c-0.6,0-1-0.2-1.4-0.6s-0.6-0.9-0.6-1.5s0.2-1.1,0.6-1.5S55.4,69,56,69c0.5,0,1.3,0,2.3,0c1,0,1.8,0,2.3,0c3.7,0,7-1.2,9.9-3.5
		c2.9-2.3,4.7-5.3,5.2-8.9H55.3c-0.6,0-1.1-0.2-1.5-0.6s-0.6-0.9-0.6-1.6c0-0.6,0.2-1.1,0.6-1.6c0.4-0.4,0.9-0.6,1.5-0.6h20.5
		c-0.6-3.6-2.3-6.5-5.3-8.7c-2.8-2.1-6.1-3.2-9.8-3.2H56c-0.6,0-1.1-0.2-1.5-0.6c-0.4-0.4-0.6-0.9-0.6-1.6c0-0.6,0.2-1.1,0.6-1.6
		c0.4-0.4,0.9-0.6,1.5-0.6h4.6c5.3,0,9.9,1.8,13.8,5.3C78.3,44.7,80.2,49.1,80.2,54.3z"/>
</g>
<polygon class="st1" points="8,13 14,7 94,7 88,13 "/>
<polygon class="st2" points="94,7 88,13 88,93 94,86 "/>
</svg>
